G04 (created by PCBNEW-RS274X (2012-apr-16-27)-stable) date Tue 22 Apr 2014 06:10:25 PM EDT*
G01*
G70*
G90*
%MOIN*%
G04 Gerber Fmt 3.4, Leading zero omitted, Abs format*
%FSLAX34Y34*%
G04 APERTURE LIST*
%ADD10C,0.006000*%
%ADD11C,0.012000*%
%ADD12C,0.000100*%
G04 APERTURE END LIST*
G54D10*
G54D11*
X48556Y-34490D02*
X48327Y-34490D01*
X48470Y-34224D02*
X48470Y-34910D01*
X48442Y-34986D01*
X48384Y-35024D01*
X48327Y-35024D01*
X47870Y-35024D02*
X47870Y-34605D01*
X47899Y-34529D01*
X47956Y-34490D01*
X48070Y-34490D01*
X48127Y-34529D01*
X47870Y-34986D02*
X47927Y-35024D01*
X48070Y-35024D01*
X48127Y-34986D01*
X48156Y-34910D01*
X48156Y-34833D01*
X48127Y-34757D01*
X48070Y-34719D01*
X47927Y-34719D01*
X47870Y-34681D01*
X47327Y-34490D02*
X47327Y-35138D01*
X47356Y-35214D01*
X47384Y-35252D01*
X47441Y-35290D01*
X47527Y-35290D01*
X47584Y-35252D01*
X47327Y-34986D02*
X47384Y-35024D01*
X47498Y-35024D01*
X47556Y-34986D01*
X47584Y-34948D01*
X47613Y-34871D01*
X47613Y-34643D01*
X47584Y-34567D01*
X47556Y-34529D01*
X47498Y-34490D01*
X47384Y-34490D01*
X47327Y-34529D01*
X46498Y-35024D02*
X46556Y-34986D01*
X46584Y-34910D01*
X46584Y-34224D01*
X46184Y-35024D02*
X46242Y-34986D01*
X46270Y-34948D01*
X46299Y-34871D01*
X46299Y-34643D01*
X46270Y-34567D01*
X46242Y-34529D01*
X46184Y-34490D01*
X46099Y-34490D01*
X46042Y-34529D01*
X46013Y-34567D01*
X45984Y-34643D01*
X45984Y-34871D01*
X46013Y-34948D01*
X46042Y-34986D01*
X46099Y-35024D01*
X46184Y-35024D01*
X45470Y-34490D02*
X45470Y-35138D01*
X45499Y-35214D01*
X45527Y-35252D01*
X45584Y-35290D01*
X45670Y-35290D01*
X45727Y-35252D01*
X45470Y-34986D02*
X45527Y-35024D01*
X45641Y-35024D01*
X45699Y-34986D01*
X45727Y-34948D01*
X45756Y-34871D01*
X45756Y-34643D01*
X45727Y-34567D01*
X45699Y-34529D01*
X45641Y-34490D01*
X45527Y-34490D01*
X45470Y-34529D01*
X44927Y-34490D02*
X44927Y-35138D01*
X44956Y-35214D01*
X44984Y-35252D01*
X45041Y-35290D01*
X45127Y-35290D01*
X45184Y-35252D01*
X44927Y-34986D02*
X44984Y-35024D01*
X45098Y-35024D01*
X45156Y-34986D01*
X45184Y-34948D01*
X45213Y-34871D01*
X45213Y-34643D01*
X45184Y-34567D01*
X45156Y-34529D01*
X45098Y-34490D01*
X44984Y-34490D01*
X44927Y-34529D01*
X44413Y-34986D02*
X44470Y-35024D01*
X44584Y-35024D01*
X44641Y-34986D01*
X44670Y-34910D01*
X44670Y-34605D01*
X44641Y-34529D01*
X44584Y-34490D01*
X44470Y-34490D01*
X44413Y-34529D01*
X44384Y-34605D01*
X44384Y-34681D01*
X44670Y-34757D01*
X44127Y-35024D02*
X44127Y-34490D01*
X44127Y-34643D02*
X44099Y-34567D01*
X44070Y-34529D01*
X44013Y-34490D01*
X43956Y-34490D01*
X43899Y-35100D02*
X43442Y-35100D01*
X43385Y-34224D02*
X43185Y-35024D01*
X42985Y-34224D01*
X42671Y-34224D02*
X42614Y-34224D01*
X42557Y-34262D01*
X42528Y-34300D01*
X42499Y-34376D01*
X42471Y-34529D01*
X42471Y-34719D01*
X42499Y-34871D01*
X42528Y-34948D01*
X42557Y-34986D01*
X42614Y-35024D01*
X42671Y-35024D01*
X42728Y-34986D01*
X42757Y-34948D01*
X42785Y-34871D01*
X42814Y-34719D01*
X42814Y-34529D01*
X42785Y-34376D01*
X42757Y-34300D01*
X42728Y-34262D01*
X42671Y-34224D01*
X42243Y-34300D02*
X42214Y-34262D01*
X42157Y-34224D01*
X42014Y-34224D01*
X41957Y-34262D01*
X41928Y-34300D01*
X41900Y-34376D01*
X41900Y-34452D01*
X41928Y-34567D01*
X42271Y-35024D01*
X41900Y-35024D01*
X48113Y-35540D02*
X48084Y-35502D01*
X48027Y-35464D01*
X47884Y-35464D01*
X47827Y-35502D01*
X47798Y-35540D01*
X47770Y-35616D01*
X47770Y-35692D01*
X47798Y-35807D01*
X48141Y-36264D01*
X47770Y-36264D01*
X47399Y-35464D02*
X47342Y-35464D01*
X47285Y-35502D01*
X47256Y-35540D01*
X47227Y-35616D01*
X47199Y-35769D01*
X47199Y-35959D01*
X47227Y-36111D01*
X47256Y-36188D01*
X47285Y-36226D01*
X47342Y-36264D01*
X47399Y-36264D01*
X47456Y-36226D01*
X47485Y-36188D01*
X47513Y-36111D01*
X47542Y-35959D01*
X47542Y-35769D01*
X47513Y-35616D01*
X47485Y-35540D01*
X47456Y-35502D01*
X47399Y-35464D01*
X46628Y-36264D02*
X46971Y-36264D01*
X46799Y-36264D02*
X46799Y-35464D01*
X46856Y-35578D01*
X46914Y-35654D01*
X46971Y-35692D01*
X46114Y-35730D02*
X46114Y-36264D01*
X46257Y-35426D02*
X46400Y-35997D01*
X46028Y-35997D01*
X45800Y-35959D02*
X45343Y-35959D01*
X44943Y-35464D02*
X44886Y-35464D01*
X44829Y-35502D01*
X44800Y-35540D01*
X44771Y-35616D01*
X44743Y-35769D01*
X44743Y-35959D01*
X44771Y-36111D01*
X44800Y-36188D01*
X44829Y-36226D01*
X44886Y-36264D01*
X44943Y-36264D01*
X45000Y-36226D01*
X45029Y-36188D01*
X45057Y-36111D01*
X45086Y-35959D01*
X45086Y-35769D01*
X45057Y-35616D01*
X45029Y-35540D01*
X45000Y-35502D01*
X44943Y-35464D01*
X44229Y-35730D02*
X44229Y-36264D01*
X44372Y-35426D02*
X44515Y-35997D01*
X44143Y-35997D01*
X43915Y-35959D02*
X43458Y-35959D01*
X43201Y-35540D02*
X43172Y-35502D01*
X43115Y-35464D01*
X42972Y-35464D01*
X42915Y-35502D01*
X42886Y-35540D01*
X42858Y-35616D01*
X42858Y-35692D01*
X42886Y-35807D01*
X43229Y-36264D01*
X42858Y-36264D01*
X42658Y-35464D02*
X42287Y-35464D01*
X42487Y-35769D01*
X42401Y-35769D01*
X42344Y-35807D01*
X42315Y-35845D01*
X42287Y-35921D01*
X42287Y-36111D01*
X42315Y-36188D01*
X42344Y-36226D01*
X42401Y-36264D01*
X42573Y-36264D01*
X42630Y-36226D01*
X42658Y-36188D01*
X49813Y-33305D02*
X50013Y-33305D01*
X50013Y-33724D02*
X50013Y-32924D01*
X49727Y-32924D01*
X49499Y-33724D02*
X49499Y-33190D01*
X49499Y-33343D02*
X49471Y-33267D01*
X49442Y-33229D01*
X49385Y-33190D01*
X49328Y-33190D01*
X48900Y-33686D02*
X48957Y-33724D01*
X49071Y-33724D01*
X49128Y-33686D01*
X49157Y-33610D01*
X49157Y-33305D01*
X49128Y-33229D01*
X49071Y-33190D01*
X48957Y-33190D01*
X48900Y-33229D01*
X48871Y-33305D01*
X48871Y-33381D01*
X49157Y-33457D01*
X48386Y-33686D02*
X48443Y-33724D01*
X48557Y-33724D01*
X48614Y-33686D01*
X48643Y-33610D01*
X48643Y-33305D01*
X48614Y-33229D01*
X48557Y-33190D01*
X48443Y-33190D01*
X48386Y-33229D01*
X48357Y-33305D01*
X48357Y-33381D01*
X48643Y-33457D01*
X48100Y-33724D02*
X48100Y-32924D01*
X48100Y-33229D02*
X48043Y-33190D01*
X47929Y-33190D01*
X47872Y-33229D01*
X47843Y-33267D01*
X47814Y-33343D01*
X47814Y-33571D01*
X47843Y-33648D01*
X47872Y-33686D01*
X47929Y-33724D01*
X48043Y-33724D01*
X48100Y-33686D01*
X47557Y-33724D02*
X47557Y-33190D01*
X47557Y-32924D02*
X47586Y-32962D01*
X47557Y-33000D01*
X47529Y-32962D01*
X47557Y-32924D01*
X47557Y-33000D01*
X47271Y-33724D02*
X47271Y-33190D01*
X47271Y-33343D02*
X47243Y-33267D01*
X47214Y-33229D01*
X47157Y-33190D01*
X47100Y-33190D01*
X46643Y-33724D02*
X46643Y-32924D01*
X46643Y-33686D02*
X46700Y-33724D01*
X46814Y-33724D01*
X46872Y-33686D01*
X46900Y-33648D01*
X46929Y-33571D01*
X46929Y-33343D01*
X46900Y-33267D01*
X46872Y-33229D01*
X46814Y-33190D01*
X46700Y-33190D01*
X46643Y-33229D01*
X45614Y-33724D02*
X45900Y-33724D01*
X45900Y-32924D01*
X45328Y-33724D02*
X45386Y-33686D01*
X45414Y-33648D01*
X45443Y-33571D01*
X45443Y-33343D01*
X45414Y-33267D01*
X45386Y-33229D01*
X45328Y-33190D01*
X45243Y-33190D01*
X45186Y-33229D01*
X45157Y-33267D01*
X45128Y-33343D01*
X45128Y-33571D01*
X45157Y-33648D01*
X45186Y-33686D01*
X45243Y-33724D01*
X45328Y-33724D01*
X44614Y-33190D02*
X44614Y-33838D01*
X44643Y-33914D01*
X44671Y-33952D01*
X44728Y-33990D01*
X44814Y-33990D01*
X44871Y-33952D01*
X44614Y-33686D02*
X44671Y-33724D01*
X44785Y-33724D01*
X44843Y-33686D01*
X44871Y-33648D01*
X44900Y-33571D01*
X44900Y-33343D01*
X44871Y-33267D01*
X44843Y-33229D01*
X44785Y-33190D01*
X44671Y-33190D01*
X44614Y-33229D01*
X44071Y-33190D02*
X44071Y-33838D01*
X44100Y-33914D01*
X44128Y-33952D01*
X44185Y-33990D01*
X44271Y-33990D01*
X44328Y-33952D01*
X44071Y-33686D02*
X44128Y-33724D01*
X44242Y-33724D01*
X44300Y-33686D01*
X44328Y-33648D01*
X44357Y-33571D01*
X44357Y-33343D01*
X44328Y-33267D01*
X44300Y-33229D01*
X44242Y-33190D01*
X44128Y-33190D01*
X44071Y-33229D01*
X43557Y-33686D02*
X43614Y-33724D01*
X43728Y-33724D01*
X43785Y-33686D01*
X43814Y-33610D01*
X43814Y-33305D01*
X43785Y-33229D01*
X43728Y-33190D01*
X43614Y-33190D01*
X43557Y-33229D01*
X43528Y-33305D01*
X43528Y-33381D01*
X43814Y-33457D01*
X43271Y-33724D02*
X43271Y-33190D01*
X43271Y-33343D02*
X43243Y-33267D01*
X43214Y-33229D01*
X43157Y-33190D01*
X43100Y-33190D01*
X42529Y-32924D02*
X42329Y-33724D01*
X42129Y-32924D01*
X41815Y-32924D02*
X41758Y-32924D01*
X41701Y-32962D01*
X41672Y-33000D01*
X41643Y-33076D01*
X41615Y-33229D01*
X41615Y-33419D01*
X41643Y-33571D01*
X41672Y-33648D01*
X41701Y-33686D01*
X41758Y-33724D01*
X41815Y-33724D01*
X41872Y-33686D01*
X41901Y-33648D01*
X41929Y-33571D01*
X41958Y-33419D01*
X41958Y-33229D01*
X41929Y-33076D01*
X41901Y-33000D01*
X41872Y-32962D01*
X41815Y-32924D01*
X41358Y-33648D02*
X41330Y-33686D01*
X41358Y-33724D01*
X41387Y-33686D01*
X41358Y-33648D01*
X41358Y-33724D01*
X41101Y-33000D02*
X41072Y-32962D01*
X41015Y-32924D01*
X40872Y-32924D01*
X40815Y-32962D01*
X40786Y-33000D01*
X40758Y-33076D01*
X40758Y-33152D01*
X40786Y-33267D01*
X41129Y-33724D01*
X40758Y-33724D01*
G54D12*
G36*
X44114Y-45809D02*
X44103Y-45935D01*
X44059Y-46044D01*
X44027Y-46083D01*
X44010Y-46096D01*
X44010Y-45797D01*
X43995Y-45682D01*
X43966Y-45597D01*
X43953Y-45580D01*
X43909Y-45545D01*
X43874Y-45556D01*
X43836Y-45598D01*
X43793Y-45692D01*
X43776Y-45817D01*
X43788Y-45940D01*
X43810Y-46001D01*
X43865Y-46053D01*
X43931Y-46061D01*
X43983Y-46025D01*
X43989Y-46012D01*
X44009Y-45916D01*
X44010Y-45797D01*
X44010Y-46096D01*
X43942Y-46150D01*
X43866Y-46157D01*
X43778Y-46107D01*
X43771Y-46101D01*
X43727Y-46057D01*
X43703Y-46000D01*
X43694Y-45910D01*
X43693Y-45822D01*
X43708Y-45648D01*
X43756Y-45533D01*
X43836Y-45474D01*
X43895Y-45465D01*
X43983Y-45495D01*
X44050Y-45573D01*
X44096Y-45683D01*
X44114Y-45809D01*
X44114Y-45809D01*
X44114Y-45809D01*
G37*
G36*
X44640Y-46096D02*
X44622Y-46123D01*
X44568Y-46144D01*
X44478Y-46162D01*
X44409Y-46152D01*
X44343Y-46122D01*
X44282Y-46066D01*
X44249Y-45987D01*
X44246Y-45908D01*
X44277Y-45852D01*
X44292Y-45844D01*
X44327Y-45823D01*
X44315Y-45791D01*
X44291Y-45764D01*
X44250Y-45679D01*
X44263Y-45594D01*
X44317Y-45522D01*
X44403Y-45478D01*
X44509Y-45475D01*
X44520Y-45477D01*
X44591Y-45508D01*
X44605Y-45540D01*
X44560Y-45559D01*
X44517Y-45559D01*
X44413Y-45569D01*
X44354Y-45607D01*
X44344Y-45660D01*
X44389Y-45715D01*
X44443Y-45742D01*
X44522Y-45781D01*
X44537Y-45813D01*
X44487Y-45835D01*
X44471Y-45838D01*
X44391Y-45876D01*
X44349Y-45946D01*
X44353Y-46011D01*
X44397Y-46051D01*
X44494Y-46065D01*
X44508Y-46065D01*
X44600Y-46074D01*
X44640Y-46096D01*
X44640Y-46096D01*
X44640Y-46096D01*
G37*
G36*
X45174Y-45726D02*
X45137Y-45814D01*
X45076Y-45864D01*
X45076Y-45691D01*
X45076Y-45682D01*
X45052Y-45602D01*
X44996Y-45558D01*
X44927Y-45562D01*
X44895Y-45584D01*
X44849Y-45664D01*
X44854Y-45743D01*
X44900Y-45794D01*
X44980Y-45808D01*
X45045Y-45769D01*
X45076Y-45691D01*
X45076Y-45864D01*
X45065Y-45874D01*
X44964Y-45890D01*
X44943Y-45887D01*
X44867Y-45882D01*
X44844Y-45914D01*
X44870Y-45988D01*
X44877Y-46001D01*
X44936Y-46052D01*
X45027Y-46065D01*
X45110Y-46075D01*
X45142Y-46101D01*
X45116Y-46133D01*
X45090Y-46145D01*
X45001Y-46163D01*
X44921Y-46136D01*
X44856Y-46087D01*
X44783Y-45986D01*
X44747Y-45852D01*
X44748Y-45710D01*
X44789Y-45585D01*
X44808Y-45557D01*
X44900Y-45482D01*
X45001Y-45470D01*
X45099Y-45522D01*
X45109Y-45532D01*
X45167Y-45626D01*
X45174Y-45726D01*
X45174Y-45726D01*
X45174Y-45726D01*
G37*
G36*
X45625Y-45629D02*
X45623Y-45636D01*
X45585Y-45647D01*
X45556Y-45629D01*
X45533Y-45619D01*
X45519Y-45643D01*
X45511Y-45711D01*
X45509Y-45833D01*
X45509Y-45861D01*
X45507Y-45999D01*
X45499Y-46082D01*
X45482Y-46123D01*
X45459Y-46132D01*
X45436Y-46121D01*
X45421Y-46080D01*
X45413Y-46000D01*
X45409Y-45868D01*
X45409Y-45799D01*
X45412Y-45659D01*
X45419Y-45548D01*
X45430Y-45480D01*
X45438Y-45465D01*
X45489Y-45485D01*
X45551Y-45532D01*
X45603Y-45586D01*
X45625Y-45629D01*
X45625Y-45629D01*
X45625Y-45629D01*
G37*
G36*
X48186Y-44065D02*
X48162Y-44083D01*
X48137Y-44093D01*
X48069Y-44105D01*
X47955Y-44110D01*
X47816Y-44108D01*
X47769Y-44106D01*
X47480Y-44090D01*
X47430Y-43965D01*
X47402Y-43903D01*
X47349Y-43791D01*
X47276Y-43636D01*
X47185Y-43448D01*
X47081Y-43236D01*
X46969Y-43008D01*
X46944Y-42957D01*
X46834Y-42732D01*
X46734Y-42524D01*
X46648Y-42341D01*
X46579Y-42193D01*
X46532Y-42086D01*
X46510Y-42028D01*
X46509Y-42022D01*
X46491Y-41963D01*
X46476Y-41949D01*
X46461Y-41908D01*
X46450Y-41817D01*
X46443Y-41692D01*
X46443Y-41628D01*
X46439Y-41476D01*
X46429Y-41381D01*
X46413Y-41347D01*
X46409Y-41349D01*
X46391Y-41391D01*
X46378Y-41478D01*
X46375Y-41559D01*
X46371Y-41667D01*
X46361Y-41714D01*
X46347Y-41704D01*
X46331Y-41643D01*
X46313Y-41535D01*
X46296Y-41387D01*
X46283Y-41248D01*
X46252Y-40849D01*
X46245Y-41165D01*
X46239Y-41482D01*
X46176Y-41332D01*
X46135Y-41201D01*
X46110Y-41056D01*
X46107Y-41015D01*
X46100Y-40849D01*
X46059Y-41082D01*
X46038Y-41182D01*
X46023Y-41236D01*
X46014Y-41236D01*
X46013Y-41227D01*
X45998Y-41173D01*
X45958Y-41068D01*
X45897Y-40923D01*
X45820Y-40747D01*
X45730Y-40549D01*
X45673Y-40427D01*
X45542Y-40143D01*
X45394Y-39811D01*
X45236Y-39447D01*
X45074Y-39066D01*
X44915Y-38683D01*
X44765Y-38314D01*
X44630Y-37972D01*
X44588Y-37865D01*
X44493Y-37615D01*
X44471Y-37965D01*
X44456Y-38162D01*
X44432Y-38383D01*
X44406Y-38588D01*
X44396Y-38649D01*
X44364Y-38872D01*
X44331Y-39155D01*
X44296Y-39489D01*
X44261Y-39868D01*
X44226Y-40283D01*
X44192Y-40728D01*
X44160Y-41193D01*
X44129Y-41673D01*
X44102Y-42160D01*
X44100Y-42191D01*
X44089Y-42275D01*
X44069Y-42321D01*
X44059Y-42324D01*
X44046Y-42288D01*
X44040Y-42194D01*
X44038Y-42049D01*
X44041Y-41862D01*
X44050Y-41641D01*
X44062Y-41393D01*
X44077Y-41128D01*
X44096Y-40852D01*
X44118Y-40574D01*
X44142Y-40302D01*
X44168Y-40045D01*
X44195Y-39815D01*
X44212Y-39682D01*
X44204Y-39696D01*
X44204Y-39582D01*
X44053Y-39572D01*
X43961Y-39567D01*
X43902Y-39569D01*
X43893Y-39572D01*
X43888Y-39607D01*
X43880Y-39695D01*
X43871Y-39822D01*
X43864Y-39949D01*
X43844Y-40315D01*
X44024Y-39949D01*
X44204Y-39582D01*
X44204Y-39696D01*
X44110Y-39873D01*
X44046Y-40020D01*
X43977Y-40228D01*
X43905Y-40491D01*
X43831Y-40803D01*
X43757Y-41159D01*
X43721Y-41349D01*
X43694Y-41498D01*
X43673Y-41634D01*
X43657Y-41767D01*
X43645Y-41910D01*
X43636Y-42074D01*
X43630Y-42272D01*
X43626Y-42516D01*
X43623Y-42732D01*
X43611Y-43649D01*
X43469Y-43677D01*
X43433Y-43684D01*
X43433Y-43590D01*
X43433Y-43578D01*
X43389Y-43570D01*
X43370Y-43576D01*
X43357Y-43591D01*
X43390Y-43596D01*
X43433Y-43590D01*
X43433Y-43684D01*
X43303Y-43711D01*
X43303Y-43553D01*
X43298Y-43543D01*
X43258Y-43539D01*
X43254Y-43543D01*
X43258Y-43563D01*
X43276Y-43565D01*
X43303Y-43553D01*
X43303Y-43711D01*
X43290Y-43714D01*
X43090Y-43760D01*
X42883Y-43810D01*
X42681Y-43862D01*
X42500Y-43911D01*
X42353Y-43954D01*
X42254Y-43987D01*
X42240Y-43992D01*
X42120Y-44061D01*
X42051Y-44146D01*
X42044Y-44162D01*
X42005Y-44233D01*
X41966Y-44267D01*
X41963Y-44268D01*
X41945Y-44276D01*
X41974Y-44292D01*
X42034Y-44310D01*
X42106Y-44324D01*
X42165Y-44329D01*
X42233Y-44325D01*
X42268Y-44295D01*
X42289Y-44221D01*
X42293Y-44198D01*
X42314Y-44117D01*
X42341Y-44084D01*
X42349Y-44086D01*
X42367Y-44131D01*
X42365Y-44215D01*
X42363Y-44232D01*
X42354Y-44314D01*
X42372Y-44354D01*
X42429Y-44374D01*
X42447Y-44378D01*
X42541Y-44394D01*
X42589Y-44390D01*
X42609Y-44360D01*
X42615Y-44324D01*
X42646Y-44260D01*
X42684Y-44238D01*
X42722Y-44241D01*
X42729Y-44282D01*
X42721Y-44329D01*
X42710Y-44409D01*
X42718Y-44428D01*
X42745Y-44388D01*
X42787Y-44293D01*
X42827Y-44190D01*
X42874Y-44071D01*
X42914Y-43976D01*
X42941Y-43924D01*
X42944Y-43920D01*
X42986Y-43901D01*
X43078Y-43875D01*
X43204Y-43845D01*
X43281Y-43828D01*
X43425Y-43799D01*
X43550Y-43773D01*
X43638Y-43755D01*
X43662Y-43750D01*
X43687Y-43741D01*
X43705Y-43724D01*
X43716Y-43689D01*
X43722Y-43625D01*
X43724Y-43525D01*
X43722Y-43377D01*
X43717Y-43174D01*
X43716Y-43141D01*
X43714Y-42909D01*
X43716Y-42662D01*
X43722Y-42423D01*
X43733Y-42216D01*
X43740Y-42132D01*
X43762Y-41920D01*
X43793Y-41677D01*
X43831Y-41418D01*
X43872Y-41160D01*
X43914Y-40918D01*
X43954Y-40708D01*
X43990Y-40547D01*
X43994Y-40532D01*
X44042Y-40349D01*
X44026Y-40549D01*
X43999Y-40887D01*
X43978Y-41209D01*
X43962Y-41531D01*
X43950Y-41865D01*
X43941Y-42227D01*
X43935Y-42631D01*
X43933Y-42933D01*
X43926Y-44132D01*
X43418Y-44132D01*
X43225Y-44134D01*
X43072Y-44139D01*
X42964Y-44148D01*
X42913Y-44159D01*
X42909Y-44164D01*
X42941Y-44175D01*
X43031Y-44186D01*
X43171Y-44195D01*
X43351Y-44202D01*
X43484Y-44205D01*
X43745Y-44207D01*
X43942Y-44203D01*
X44075Y-44192D01*
X44149Y-44175D01*
X44163Y-44151D01*
X44140Y-44130D01*
X44128Y-44113D01*
X44120Y-44076D01*
X44115Y-44010D01*
X44114Y-43912D01*
X44117Y-43773D01*
X44124Y-43588D01*
X44135Y-43351D01*
X44149Y-43055D01*
X44153Y-42976D01*
X44171Y-42637D01*
X44185Y-42360D01*
X44198Y-42136D01*
X44210Y-41962D01*
X44222Y-41829D01*
X44235Y-41733D01*
X44251Y-41667D01*
X44270Y-41625D01*
X44293Y-41601D01*
X44323Y-41590D01*
X44358Y-41584D01*
X44397Y-41579D01*
X44489Y-41569D01*
X44549Y-41568D01*
X44559Y-41571D01*
X44566Y-41606D01*
X44577Y-41698D01*
X44591Y-41836D01*
X44607Y-42008D01*
X44624Y-42205D01*
X44625Y-42216D01*
X44651Y-42509D01*
X44674Y-42752D01*
X44697Y-42958D01*
X44722Y-43145D01*
X44752Y-43327D01*
X44787Y-43521D01*
X44827Y-43723D01*
X44858Y-43881D01*
X44884Y-44016D01*
X44902Y-44115D01*
X44909Y-44163D01*
X44909Y-44164D01*
X44877Y-44181D01*
X44786Y-44193D01*
X44644Y-44201D01*
X44551Y-44204D01*
X44193Y-44209D01*
X44643Y-44237D01*
X44782Y-44243D01*
X44964Y-44247D01*
X45178Y-44249D01*
X45416Y-44249D01*
X45668Y-44248D01*
X45926Y-44246D01*
X46180Y-44242D01*
X46422Y-44237D01*
X46642Y-44231D01*
X46831Y-44224D01*
X46981Y-44216D01*
X47082Y-44208D01*
X47126Y-44199D01*
X47176Y-44182D01*
X47268Y-44165D01*
X47336Y-44157D01*
X47514Y-44141D01*
X47411Y-44235D01*
X47347Y-44302D01*
X47312Y-44355D01*
X47309Y-44366D01*
X47309Y-44281D01*
X47279Y-44276D01*
X47199Y-44276D01*
X47087Y-44282D01*
X47084Y-44282D01*
X46837Y-44300D01*
X46652Y-44318D01*
X46529Y-44334D01*
X46470Y-44350D01*
X46469Y-44361D01*
X46497Y-44405D01*
X46524Y-44491D01*
X46533Y-44533D01*
X46559Y-44682D01*
X46569Y-44560D01*
X46590Y-44469D01*
X46627Y-44420D01*
X46630Y-44418D01*
X46698Y-44417D01*
X46748Y-44435D01*
X46802Y-44450D01*
X46870Y-44437D01*
X46972Y-44390D01*
X46984Y-44384D01*
X47066Y-44345D01*
X47111Y-44333D01*
X47111Y-44346D01*
X47057Y-44387D01*
X46966Y-44434D01*
X46923Y-44451D01*
X46820Y-44503D01*
X46777Y-44556D01*
X46776Y-44570D01*
X46791Y-44621D01*
X46809Y-44632D01*
X46836Y-44604D01*
X46843Y-44565D01*
X46867Y-44517D01*
X46919Y-44496D01*
X46969Y-44509D01*
X46981Y-44529D01*
X47016Y-44542D01*
X47082Y-44523D01*
X47160Y-44483D01*
X47230Y-44430D01*
X47271Y-44379D01*
X47299Y-44313D01*
X47309Y-44281D01*
X47309Y-44366D01*
X47330Y-44374D01*
X47383Y-44348D01*
X47451Y-44299D01*
X47517Y-44239D01*
X47555Y-44194D01*
X47610Y-44146D01*
X47654Y-44137D01*
X47658Y-44161D01*
X47607Y-44218D01*
X47505Y-44304D01*
X47493Y-44314D01*
X47396Y-44392D01*
X47325Y-44454D01*
X47292Y-44488D01*
X47291Y-44492D01*
X47328Y-44486D01*
X47405Y-44451D01*
X47508Y-44397D01*
X47622Y-44329D01*
X47732Y-44258D01*
X47754Y-44242D01*
X47842Y-44183D01*
X47906Y-44147D01*
X47930Y-44141D01*
X47914Y-44167D01*
X47854Y-44217D01*
X47764Y-44281D01*
X47656Y-44351D01*
X47544Y-44417D01*
X47443Y-44471D01*
X47381Y-44499D01*
X47248Y-44570D01*
X47162Y-44650D01*
X47162Y-44554D01*
X47141Y-44551D01*
X47094Y-44571D01*
X47024Y-44613D01*
X47014Y-44653D01*
X47030Y-44675D01*
X47074Y-44681D01*
X47126Y-44626D01*
X47143Y-44597D01*
X47162Y-44554D01*
X47162Y-44650D01*
X47128Y-44683D01*
X47093Y-44727D01*
X46991Y-44842D01*
X46873Y-44956D01*
X46803Y-45014D01*
X46781Y-45030D01*
X46781Y-44772D01*
X46776Y-44768D01*
X46717Y-44758D01*
X46604Y-44748D01*
X46448Y-44738D01*
X46362Y-44733D01*
X46362Y-44360D01*
X46360Y-44337D01*
X46304Y-44338D01*
X46277Y-44343D01*
X46174Y-44359D01*
X46088Y-44365D01*
X46037Y-44373D01*
X46014Y-44410D01*
X46009Y-44493D01*
X46009Y-44499D01*
X46012Y-44591D01*
X46029Y-44625D01*
X46068Y-44608D01*
X46109Y-44574D01*
X46160Y-44510D01*
X46176Y-44458D01*
X46201Y-44410D01*
X46257Y-44399D01*
X46329Y-44384D01*
X46362Y-44360D01*
X46362Y-44733D01*
X46262Y-44728D01*
X46059Y-44720D01*
X45909Y-44713D01*
X45909Y-44415D01*
X45888Y-44380D01*
X45816Y-44369D01*
X45784Y-44369D01*
X45719Y-44375D01*
X45707Y-44384D01*
X45718Y-44388D01*
X45767Y-44416D01*
X45776Y-44434D01*
X45804Y-44459D01*
X45843Y-44465D01*
X45897Y-44444D01*
X45909Y-44415D01*
X45909Y-44713D01*
X45817Y-44710D01*
X45557Y-44698D01*
X45427Y-44690D01*
X45427Y-44383D01*
X45370Y-44379D01*
X45263Y-44375D01*
X45115Y-44372D01*
X44943Y-44370D01*
X44736Y-44367D01*
X44539Y-44362D01*
X44367Y-44356D01*
X44235Y-44349D01*
X44176Y-44344D01*
X43993Y-44322D01*
X44074Y-44411D01*
X44131Y-44466D01*
X44164Y-44474D01*
X44185Y-44448D01*
X44218Y-44418D01*
X44283Y-44409D01*
X44386Y-44416D01*
X44568Y-44442D01*
X44716Y-44471D01*
X44822Y-44503D01*
X44876Y-44534D01*
X44880Y-44543D01*
X44889Y-44550D01*
X44899Y-44524D01*
X44926Y-44474D01*
X44945Y-44465D01*
X44975Y-44491D01*
X44976Y-44499D01*
X45001Y-44531D01*
X45009Y-44532D01*
X45039Y-44505D01*
X45043Y-44484D01*
X45049Y-44461D01*
X45075Y-44443D01*
X45133Y-44428D01*
X45232Y-44412D01*
X45384Y-44392D01*
X45426Y-44387D01*
X45427Y-44383D01*
X45427Y-44690D01*
X45302Y-44684D01*
X45077Y-44671D01*
X44959Y-44663D01*
X44804Y-44651D01*
X44617Y-44633D01*
X44407Y-44612D01*
X44184Y-44589D01*
X43959Y-44564D01*
X43741Y-44539D01*
X43542Y-44515D01*
X43369Y-44494D01*
X43235Y-44475D01*
X43148Y-44461D01*
X43119Y-44453D01*
X43130Y-44425D01*
X43179Y-44381D01*
X43247Y-44336D01*
X43313Y-44305D01*
X43343Y-44299D01*
X43412Y-44323D01*
X43443Y-44349D01*
X43517Y-44394D01*
X43600Y-44385D01*
X43634Y-44360D01*
X43681Y-44339D01*
X43720Y-44360D01*
X43788Y-44384D01*
X43849Y-44359D01*
X43876Y-44296D01*
X43876Y-44295D01*
X43872Y-44271D01*
X43853Y-44254D01*
X43810Y-44242D01*
X43732Y-44236D01*
X43610Y-44233D01*
X43434Y-44232D01*
X43375Y-44232D01*
X42874Y-44232D01*
X42840Y-44321D01*
X42824Y-44392D01*
X42833Y-44433D01*
X42894Y-44461D01*
X43012Y-44494D01*
X43178Y-44529D01*
X43383Y-44565D01*
X43618Y-44600D01*
X43873Y-44632D01*
X43874Y-44632D01*
X44049Y-44651D01*
X44222Y-44668D01*
X44402Y-44685D01*
X44601Y-44701D01*
X44827Y-44717D01*
X45090Y-44735D01*
X45401Y-44755D01*
X45759Y-44776D01*
X45898Y-44783D01*
X46056Y-44787D01*
X46222Y-44789D01*
X46386Y-44789D01*
X46535Y-44788D01*
X46658Y-44784D01*
X46744Y-44779D01*
X46781Y-44772D01*
X46781Y-45030D01*
X46676Y-45109D01*
X46676Y-44932D01*
X46650Y-44899D01*
X46643Y-44899D01*
X46610Y-44924D01*
X46609Y-44932D01*
X46635Y-44964D01*
X46643Y-44965D01*
X46675Y-44940D01*
X46676Y-44932D01*
X46676Y-45109D01*
X46646Y-45132D01*
X46576Y-45132D01*
X46576Y-44932D01*
X46549Y-44902D01*
X46526Y-44899D01*
X46481Y-44916D01*
X46476Y-44932D01*
X46503Y-44961D01*
X46526Y-44965D01*
X46570Y-44947D01*
X46576Y-44932D01*
X46576Y-45132D01*
X45876Y-45132D01*
X45876Y-44915D01*
X45858Y-44871D01*
X45843Y-44865D01*
X45813Y-44892D01*
X45809Y-44915D01*
X45827Y-44960D01*
X45843Y-44965D01*
X45872Y-44938D01*
X45876Y-44915D01*
X45876Y-45132D01*
X45740Y-45132D01*
X45740Y-44893D01*
X45734Y-44879D01*
X45694Y-44872D01*
X45661Y-44902D01*
X45662Y-44937D01*
X45698Y-44951D01*
X45719Y-44935D01*
X45740Y-44893D01*
X45740Y-45132D01*
X45576Y-45132D01*
X45576Y-44899D01*
X45550Y-44866D01*
X45543Y-44865D01*
X45510Y-44891D01*
X45509Y-44899D01*
X45535Y-44931D01*
X45543Y-44932D01*
X45575Y-44906D01*
X45576Y-44899D01*
X45576Y-45132D01*
X44465Y-45132D01*
X44178Y-45132D01*
X44178Y-44823D01*
X44157Y-44797D01*
X44123Y-44816D01*
X44114Y-44834D01*
X44125Y-44862D01*
X44141Y-44860D01*
X44177Y-44832D01*
X44178Y-44823D01*
X44178Y-45132D01*
X44009Y-45132D01*
X44009Y-44799D01*
X43984Y-44766D01*
X43976Y-44765D01*
X43943Y-44791D01*
X43943Y-44799D01*
X43968Y-44831D01*
X43976Y-44832D01*
X44008Y-44806D01*
X44009Y-44799D01*
X44009Y-45132D01*
X43812Y-45132D01*
X43812Y-44789D01*
X43790Y-44763D01*
X43757Y-44782D01*
X43748Y-44800D01*
X43758Y-44829D01*
X43774Y-44827D01*
X43810Y-44799D01*
X43812Y-44789D01*
X43812Y-45132D01*
X43643Y-45132D01*
X43643Y-44765D01*
X43617Y-44733D01*
X43609Y-44732D01*
X43577Y-44757D01*
X43576Y-44765D01*
X43601Y-44798D01*
X43609Y-44799D01*
X43642Y-44773D01*
X43643Y-44765D01*
X43643Y-45132D01*
X42370Y-45132D01*
X42370Y-44872D01*
X42369Y-44840D01*
X42335Y-44792D01*
X42278Y-44784D01*
X42228Y-44815D01*
X42214Y-44847D01*
X42211Y-44892D01*
X42239Y-44881D01*
X42255Y-44868D01*
X42300Y-44844D01*
X42309Y-44861D01*
X42334Y-44897D01*
X42345Y-44899D01*
X42370Y-44872D01*
X42370Y-45132D01*
X42284Y-45132D01*
X42064Y-44899D01*
X41961Y-44785D01*
X41876Y-44682D01*
X41876Y-44265D01*
X41850Y-44233D01*
X41841Y-44232D01*
X41821Y-44252D01*
X41826Y-44265D01*
X41856Y-44297D01*
X41861Y-44299D01*
X41875Y-44273D01*
X41876Y-44265D01*
X41876Y-44682D01*
X41870Y-44675D01*
X41806Y-44587D01*
X41804Y-44583D01*
X41804Y-44181D01*
X41800Y-44147D01*
X41782Y-44125D01*
X41748Y-44106D01*
X41743Y-44120D01*
X41759Y-44168D01*
X41792Y-44188D01*
X41804Y-44181D01*
X41804Y-44583D01*
X41790Y-44559D01*
X41737Y-44444D01*
X41705Y-44348D01*
X41698Y-44283D01*
X41713Y-44265D01*
X41725Y-44241D01*
X41708Y-44196D01*
X41684Y-44111D01*
X41707Y-44055D01*
X41770Y-44040D01*
X41784Y-44043D01*
X41802Y-44045D01*
X41821Y-44037D01*
X41842Y-44014D01*
X41869Y-43973D01*
X41903Y-43908D01*
X41947Y-43814D01*
X42002Y-43686D01*
X42072Y-43519D01*
X42157Y-43310D01*
X42261Y-43052D01*
X42386Y-42741D01*
X42506Y-42438D01*
X42671Y-42027D01*
X42836Y-41618D01*
X42998Y-41214D01*
X43158Y-40821D01*
X43311Y-40445D01*
X43457Y-40088D01*
X43594Y-39757D01*
X43718Y-39456D01*
X43830Y-39190D01*
X43925Y-38964D01*
X44003Y-38782D01*
X44062Y-38649D01*
X44100Y-38570D01*
X44111Y-38550D01*
X44130Y-38535D01*
X44138Y-38541D01*
X44135Y-38575D01*
X44120Y-38647D01*
X44090Y-38764D01*
X44044Y-38935D01*
X44032Y-38980D01*
X44032Y-38810D01*
X44027Y-38815D01*
X44016Y-38837D01*
X43997Y-38878D01*
X43969Y-38943D01*
X43930Y-39033D01*
X43880Y-39154D01*
X43817Y-39307D01*
X43740Y-39496D01*
X43647Y-39724D01*
X43537Y-39994D01*
X43408Y-40311D01*
X43260Y-40676D01*
X43091Y-41093D01*
X42900Y-41566D01*
X42687Y-42091D01*
X42522Y-42502D01*
X42380Y-42855D01*
X42260Y-43155D01*
X42161Y-43406D01*
X42080Y-43613D01*
X42018Y-43779D01*
X41971Y-43910D01*
X41938Y-44009D01*
X41917Y-44081D01*
X41908Y-44130D01*
X41908Y-44160D01*
X41911Y-44169D01*
X41945Y-44216D01*
X41964Y-44222D01*
X41982Y-44189D01*
X42026Y-44104D01*
X42091Y-43976D01*
X42174Y-43812D01*
X42269Y-43620D01*
X42365Y-43427D01*
X42476Y-43201D01*
X42609Y-42928D01*
X42756Y-42625D01*
X42910Y-42306D01*
X43065Y-41985D01*
X43212Y-41677D01*
X43276Y-41543D01*
X43801Y-40438D01*
X43825Y-39977D01*
X43842Y-39725D01*
X43868Y-39515D01*
X43906Y-39320D01*
X43945Y-39167D01*
X43983Y-39025D01*
X44012Y-38909D01*
X44029Y-38833D01*
X44032Y-38810D01*
X44032Y-38980D01*
X44026Y-39003D01*
X43983Y-39165D01*
X43947Y-39304D01*
X43921Y-39407D01*
X43910Y-39462D01*
X43909Y-39466D01*
X43939Y-39485D01*
X44015Y-39497D01*
X44069Y-39498D01*
X44228Y-39498D01*
X44326Y-38823D01*
X44358Y-38592D01*
X44385Y-38358D01*
X44408Y-38138D01*
X44423Y-37950D01*
X44429Y-37815D01*
X44435Y-37482D01*
X44389Y-37649D01*
X44366Y-37750D01*
X44355Y-37825D01*
X44357Y-37849D01*
X44369Y-37850D01*
X44373Y-37818D01*
X44383Y-37774D01*
X44395Y-37774D01*
X44396Y-37814D01*
X44375Y-37894D01*
X44340Y-37996D01*
X44335Y-38008D01*
X44335Y-37881D01*
X44331Y-37876D01*
X44312Y-37881D01*
X44309Y-37899D01*
X44321Y-37926D01*
X44331Y-37921D01*
X44335Y-37881D01*
X44335Y-38008D01*
X44299Y-38100D01*
X44258Y-38185D01*
X44225Y-38232D01*
X44214Y-38219D01*
X44223Y-38148D01*
X44250Y-38024D01*
X44279Y-37908D01*
X44343Y-37672D01*
X44393Y-37497D01*
X44429Y-37380D01*
X44454Y-37316D01*
X44468Y-37301D01*
X44473Y-37324D01*
X44486Y-37389D01*
X44522Y-37507D01*
X44577Y-37668D01*
X44646Y-37863D01*
X44727Y-38082D01*
X44817Y-38316D01*
X44911Y-38556D01*
X45006Y-38793D01*
X45099Y-39017D01*
X45127Y-39082D01*
X45219Y-39294D01*
X45320Y-39523D01*
X45425Y-39760D01*
X45532Y-39999D01*
X45637Y-40230D01*
X45735Y-40445D01*
X45824Y-40637D01*
X45899Y-40797D01*
X45956Y-40917D01*
X45993Y-40990D01*
X46004Y-41007D01*
X46016Y-40983D01*
X46033Y-40903D01*
X46055Y-40775D01*
X46080Y-40610D01*
X46106Y-40415D01*
X46111Y-40374D01*
X46138Y-40153D01*
X46159Y-39993D01*
X46175Y-39888D01*
X46187Y-39833D01*
X46195Y-39823D01*
X46202Y-39851D01*
X46209Y-39913D01*
X46210Y-39932D01*
X46219Y-40003D01*
X46237Y-40083D01*
X46265Y-40180D01*
X46307Y-40301D01*
X46366Y-40454D01*
X46444Y-40646D01*
X46544Y-40884D01*
X46649Y-41132D01*
X46760Y-41390D01*
X46871Y-41646D01*
X46975Y-41887D01*
X47070Y-42103D01*
X47150Y-42284D01*
X47210Y-42417D01*
X47224Y-42449D01*
X47340Y-42690D01*
X47468Y-42937D01*
X47599Y-43179D01*
X47730Y-43406D01*
X47852Y-43605D01*
X47960Y-43767D01*
X48047Y-43880D01*
X48054Y-43888D01*
X48136Y-43979D01*
X48179Y-44034D01*
X48186Y-44065D01*
X48186Y-44065D01*
X48186Y-44065D01*
G37*
G36*
X49655Y-43980D02*
X49634Y-44000D01*
X49583Y-44002D01*
X49491Y-43985D01*
X49399Y-43962D01*
X49276Y-43931D01*
X49175Y-43909D01*
X49116Y-43899D01*
X49113Y-43899D01*
X49115Y-43919D01*
X49158Y-43974D01*
X49234Y-44053D01*
X49280Y-44096D01*
X49381Y-44192D01*
X49440Y-44255D01*
X49463Y-44296D01*
X49457Y-44327D01*
X49439Y-44348D01*
X49406Y-44375D01*
X49367Y-44385D01*
X49303Y-44376D01*
X49200Y-44349D01*
X49144Y-44332D01*
X49027Y-44299D01*
X48938Y-44278D01*
X48892Y-44272D01*
X48890Y-44273D01*
X48906Y-44301D01*
X48959Y-44362D01*
X49039Y-44446D01*
X49060Y-44466D01*
X49167Y-44580D01*
X49229Y-44665D01*
X49244Y-44717D01*
X49217Y-44732D01*
X49183Y-44710D01*
X49115Y-44650D01*
X49024Y-44563D01*
X48962Y-44501D01*
X48841Y-44372D01*
X48771Y-44280D01*
X48752Y-44224D01*
X48753Y-44218D01*
X48780Y-44182D01*
X48830Y-44169D01*
X48916Y-44179D01*
X49049Y-44214D01*
X49109Y-44232D01*
X49220Y-44265D01*
X49304Y-44289D01*
X49341Y-44298D01*
X49342Y-44298D01*
X49327Y-44277D01*
X49274Y-44218D01*
X49194Y-44134D01*
X49146Y-44085D01*
X49033Y-43962D01*
X48973Y-43876D01*
X48966Y-43822D01*
X49010Y-43800D01*
X49032Y-43799D01*
X49087Y-43806D01*
X49188Y-43825D01*
X49318Y-43854D01*
X49378Y-43867D01*
X49529Y-43906D01*
X49619Y-43939D01*
X49655Y-43968D01*
X49655Y-43980D01*
X49655Y-43980D01*
X49655Y-43980D01*
G37*
G36*
X41023Y-44310D02*
X41002Y-44343D01*
X40950Y-44386D01*
X40859Y-44446D01*
X40721Y-44529D01*
X40637Y-44578D01*
X40530Y-44631D01*
X40470Y-44640D01*
X40459Y-44631D01*
X40445Y-44591D01*
X40447Y-44585D01*
X40480Y-44564D01*
X40554Y-44519D01*
X40654Y-44457D01*
X40668Y-44449D01*
X40768Y-44387D01*
X40842Y-44341D01*
X40875Y-44319D01*
X40876Y-44319D01*
X40845Y-44317D01*
X40762Y-44316D01*
X40642Y-44315D01*
X40568Y-44315D01*
X40396Y-44310D01*
X40288Y-44294D01*
X40245Y-44264D01*
X40265Y-44216D01*
X40348Y-44149D01*
X40494Y-44058D01*
X40502Y-44053D01*
X40638Y-43974D01*
X40726Y-43926D01*
X40778Y-43906D01*
X40802Y-43909D01*
X40809Y-43932D01*
X40809Y-43941D01*
X40782Y-43978D01*
X40712Y-44035D01*
X40612Y-44101D01*
X40601Y-44107D01*
X40393Y-44231D01*
X40697Y-44231D01*
X40849Y-44234D01*
X40946Y-44242D01*
X41000Y-44258D01*
X41021Y-44282D01*
X41023Y-44310D01*
X41023Y-44310D01*
X41023Y-44310D01*
G37*
G36*
X45438Y-44199D02*
X45243Y-44199D01*
X45048Y-44199D01*
X44980Y-43907D01*
X44918Y-43608D01*
X44859Y-43262D01*
X44806Y-42885D01*
X44759Y-42495D01*
X44722Y-42107D01*
X44695Y-41739D01*
X44681Y-41407D01*
X44680Y-41199D01*
X44684Y-40949D01*
X44727Y-41265D01*
X44798Y-41718D01*
X44887Y-42191D01*
X44991Y-42667D01*
X45104Y-43126D01*
X45224Y-43550D01*
X45306Y-43807D01*
X45438Y-44199D01*
X45438Y-44199D01*
X45438Y-44199D01*
G37*
G36*
X46002Y-44199D02*
X45776Y-44199D01*
X45550Y-44199D01*
X45430Y-43863D01*
X45368Y-43683D01*
X45302Y-43480D01*
X45235Y-43262D01*
X45170Y-43040D01*
X45108Y-42823D01*
X45053Y-42620D01*
X45008Y-42441D01*
X44974Y-42296D01*
X44955Y-42193D01*
X44954Y-42144D01*
X44955Y-42141D01*
X44973Y-42160D01*
X45000Y-42225D01*
X45010Y-42255D01*
X45093Y-42486D01*
X45205Y-42754D01*
X45336Y-43041D01*
X45479Y-43329D01*
X45623Y-43599D01*
X45760Y-43833D01*
X45819Y-43925D01*
X46002Y-44199D01*
X46002Y-44199D01*
X46002Y-44199D01*
G37*
G36*
X47135Y-44150D02*
X47100Y-44154D01*
X47011Y-44161D01*
X46878Y-44169D01*
X46714Y-44178D01*
X46626Y-44182D01*
X46126Y-44206D01*
X45956Y-43961D01*
X45679Y-43518D01*
X45427Y-43026D01*
X45203Y-42499D01*
X45016Y-41954D01*
X44869Y-41403D01*
X44788Y-40982D01*
X44766Y-40806D01*
X44748Y-40581D01*
X44733Y-40321D01*
X44723Y-40045D01*
X44718Y-39769D01*
X44718Y-39509D01*
X44724Y-39281D01*
X44733Y-39132D01*
X44761Y-38815D01*
X44823Y-38999D01*
X44897Y-39209D01*
X44989Y-39464D01*
X45097Y-39750D01*
X45215Y-40059D01*
X45340Y-40377D01*
X45466Y-40695D01*
X45590Y-41002D01*
X45706Y-41286D01*
X45812Y-41537D01*
X45902Y-41743D01*
X45951Y-41849D01*
X46069Y-42094D01*
X46208Y-42375D01*
X46360Y-42676D01*
X46517Y-42983D01*
X46673Y-43283D01*
X46820Y-43560D01*
X46951Y-43800D01*
X47023Y-43928D01*
X47080Y-44032D01*
X47120Y-44111D01*
X47135Y-44149D01*
X47135Y-44150D01*
X47135Y-44150D01*
X47135Y-44150D01*
G37*
G36*
X47376Y-44083D02*
X47347Y-44095D01*
X47301Y-44098D01*
X47222Y-44065D01*
X47164Y-43990D01*
X47127Y-43923D01*
X47066Y-43810D01*
X46989Y-43665D01*
X46901Y-43500D01*
X46855Y-43412D01*
X46762Y-43232D01*
X46695Y-43098D01*
X46652Y-42997D01*
X46626Y-42916D01*
X46613Y-42843D01*
X46609Y-42765D01*
X46609Y-42735D01*
X46609Y-42527D01*
X46993Y-43297D01*
X47096Y-43505D01*
X47189Y-43693D01*
X47267Y-43853D01*
X47327Y-43977D01*
X47364Y-44056D01*
X47376Y-44083D01*
X47376Y-44083D01*
X47376Y-44083D01*
G37*
G36*
X40631Y-43610D02*
X40596Y-43734D01*
X40544Y-43793D01*
X40544Y-43568D01*
X40516Y-43476D01*
X40442Y-43413D01*
X40341Y-43394D01*
X40232Y-43413D01*
X40134Y-43462D01*
X40065Y-43538D01*
X40043Y-43620D01*
X40070Y-43722D01*
X40143Y-43792D01*
X40244Y-43825D01*
X40357Y-43814D01*
X40455Y-43763D01*
X40523Y-43674D01*
X40544Y-43568D01*
X40544Y-43793D01*
X40504Y-43840D01*
X40468Y-43865D01*
X40324Y-43924D01*
X40191Y-43921D01*
X40076Y-43856D01*
X40067Y-43847D01*
X39981Y-43726D01*
X39957Y-43601D01*
X39983Y-43508D01*
X40069Y-43394D01*
X40185Y-43321D01*
X40315Y-43292D01*
X40440Y-43312D01*
X40527Y-43366D01*
X40609Y-43482D01*
X40631Y-43610D01*
X40631Y-43610D01*
X40631Y-43610D01*
G37*
G36*
X49858Y-43395D02*
X49842Y-43484D01*
X49771Y-43602D01*
X49764Y-43606D01*
X49764Y-43440D01*
X49763Y-43343D01*
X49713Y-43256D01*
X49624Y-43193D01*
X49502Y-43165D01*
X49490Y-43165D01*
X49372Y-43190D01*
X49299Y-43262D01*
X49276Y-43365D01*
X49305Y-43466D01*
X49379Y-43543D01*
X49481Y-43587D01*
X49590Y-43591D01*
X49690Y-43549D01*
X49709Y-43532D01*
X49764Y-43440D01*
X49764Y-43606D01*
X49662Y-43675D01*
X49526Y-43696D01*
X49389Y-43666D01*
X49282Y-43593D01*
X49210Y-43484D01*
X49185Y-43364D01*
X49188Y-43335D01*
X49238Y-43196D01*
X49332Y-43105D01*
X49465Y-43066D01*
X49494Y-43065D01*
X49643Y-43091D01*
X49759Y-43163D01*
X49834Y-43268D01*
X49858Y-43395D01*
X49858Y-43395D01*
X49858Y-43395D01*
G37*
G36*
X44039Y-43247D02*
X44036Y-43394D01*
X44034Y-43424D01*
X44029Y-43460D01*
X44024Y-43437D01*
X44022Y-43359D01*
X44021Y-43265D01*
X44022Y-43149D01*
X44025Y-43083D01*
X44030Y-43073D01*
X44034Y-43107D01*
X44039Y-43247D01*
X44039Y-43247D01*
X44039Y-43247D01*
G37*
G36*
X40443Y-43012D02*
X40412Y-43055D01*
X40330Y-43093D01*
X40318Y-43096D01*
X40208Y-43127D01*
X40077Y-43165D01*
X40026Y-43181D01*
X39911Y-43214D01*
X39846Y-43228D01*
X39817Y-43222D01*
X39809Y-43197D01*
X39809Y-43187D01*
X39840Y-43154D01*
X39928Y-43114D01*
X40062Y-43070D01*
X40068Y-43068D01*
X40197Y-43032D01*
X40307Y-43000D01*
X40376Y-42980D01*
X40384Y-42978D01*
X40433Y-42983D01*
X40443Y-43012D01*
X40443Y-43012D01*
X40443Y-43012D01*
G37*
G36*
X40337Y-42629D02*
X40334Y-42640D01*
X40297Y-42665D01*
X40211Y-42695D01*
X40092Y-42725D01*
X40057Y-42732D01*
X39793Y-42784D01*
X39803Y-42891D01*
X39799Y-42969D01*
X39774Y-42998D01*
X39743Y-42971D01*
X39727Y-42924D01*
X39688Y-42751D01*
X39662Y-42632D01*
X39650Y-42558D01*
X39650Y-42518D01*
X39661Y-42502D01*
X39682Y-42499D01*
X39693Y-42499D01*
X39733Y-42527D01*
X39743Y-42580D01*
X39752Y-42648D01*
X39768Y-42677D01*
X39812Y-42679D01*
X39901Y-42668D01*
X40010Y-42647D01*
X40167Y-42616D01*
X40269Y-42603D01*
X40322Y-42607D01*
X40337Y-42629D01*
X40337Y-42629D01*
X40337Y-42629D01*
G37*
G36*
X44072Y-42684D02*
X44068Y-42808D01*
X44067Y-42824D01*
X44061Y-42852D01*
X44057Y-42819D01*
X44054Y-42735D01*
X44054Y-42682D01*
X44055Y-42579D01*
X44059Y-42527D01*
X44064Y-42533D01*
X44067Y-42558D01*
X44072Y-42684D01*
X44072Y-42684D01*
X44072Y-42684D01*
G37*
G36*
X50068Y-42609D02*
X50046Y-42729D01*
X49984Y-42835D01*
X49968Y-42849D01*
X49968Y-42587D01*
X49920Y-42493D01*
X49907Y-42479D01*
X49817Y-42432D01*
X49706Y-42415D01*
X49601Y-42430D01*
X49526Y-42476D01*
X49523Y-42481D01*
X49480Y-42583D01*
X49486Y-42688D01*
X49539Y-42771D01*
X49550Y-42780D01*
X49653Y-42821D01*
X49772Y-42828D01*
X49879Y-42801D01*
X49915Y-42777D01*
X49966Y-42690D01*
X49968Y-42587D01*
X49968Y-42849D01*
X49953Y-42864D01*
X49836Y-42919D01*
X49696Y-42931D01*
X49562Y-42901D01*
X49500Y-42865D01*
X49416Y-42764D01*
X49386Y-42646D01*
X49404Y-42526D01*
X49463Y-42418D01*
X49559Y-42338D01*
X49685Y-42300D01*
X49716Y-42299D01*
X49816Y-42323D01*
X49926Y-42383D01*
X50016Y-42461D01*
X50043Y-42500D01*
X50068Y-42609D01*
X50068Y-42609D01*
X50068Y-42609D01*
G37*
G36*
X46503Y-42427D02*
X46502Y-42509D01*
X46493Y-42715D01*
X46418Y-42553D01*
X46380Y-42447D01*
X46354Y-42329D01*
X46342Y-42216D01*
X46345Y-42124D01*
X46363Y-42071D01*
X46378Y-42065D01*
X46421Y-42096D01*
X46460Y-42177D01*
X46488Y-42293D01*
X46503Y-42427D01*
X46503Y-42427D01*
X46503Y-42427D01*
G37*
G36*
X40270Y-42101D02*
X40218Y-42206D01*
X40199Y-42226D01*
X40130Y-42266D01*
X40027Y-42299D01*
X39909Y-42321D01*
X39791Y-42331D01*
X39691Y-42329D01*
X39625Y-42311D01*
X39609Y-42287D01*
X39622Y-42254D01*
X39671Y-42237D01*
X39770Y-42232D01*
X39788Y-42232D01*
X39973Y-42220D01*
X40097Y-42184D01*
X40163Y-42123D01*
X40176Y-42069D01*
X40166Y-41990D01*
X40129Y-41940D01*
X40054Y-41912D01*
X39930Y-41900D01*
X39836Y-41899D01*
X39714Y-41895D01*
X39622Y-41886D01*
X39578Y-41873D01*
X39576Y-41869D01*
X39608Y-41835D01*
X39701Y-41812D01*
X39848Y-41800D01*
X39919Y-41799D01*
X40039Y-41804D01*
X40118Y-41824D01*
X40180Y-41866D01*
X40194Y-41880D01*
X40262Y-41987D01*
X40270Y-42101D01*
X40270Y-42101D01*
X40270Y-42101D01*
G37*
G36*
X46239Y-42109D02*
X46236Y-42154D01*
X46224Y-42196D01*
X46209Y-42177D01*
X46199Y-42152D01*
X46186Y-42093D01*
X46192Y-42072D01*
X46222Y-42067D01*
X46239Y-42109D01*
X46239Y-42109D01*
X46239Y-42109D01*
G37*
G36*
X50139Y-41982D02*
X50136Y-42059D01*
X50127Y-42102D01*
X50106Y-42131D01*
X50061Y-42147D01*
X50043Y-42148D01*
X50043Y-41949D01*
X50015Y-41822D01*
X49938Y-41736D01*
X49820Y-41699D01*
X49798Y-41699D01*
X49679Y-41726D01*
X49596Y-41810D01*
X49556Y-41923D01*
X49547Y-41991D01*
X49567Y-42023D01*
X49633Y-42037D01*
X49664Y-42041D01*
X49789Y-42052D01*
X49915Y-42059D01*
X49918Y-42060D01*
X49999Y-42059D01*
X50034Y-42037D01*
X50042Y-41974D01*
X50043Y-41949D01*
X50043Y-42148D01*
X49980Y-42152D01*
X49854Y-42149D01*
X49701Y-42141D01*
X49476Y-42129D01*
X49476Y-41961D01*
X49483Y-41848D01*
X49512Y-41770D01*
X49573Y-41696D01*
X49694Y-41616D01*
X49830Y-41601D01*
X49976Y-41649D01*
X50056Y-41723D01*
X50113Y-41842D01*
X50139Y-41982D01*
X50139Y-41982D01*
X50139Y-41982D01*
G37*
G36*
X46242Y-41820D02*
X46235Y-41915D01*
X46199Y-41962D01*
X46180Y-41965D01*
X46120Y-41935D01*
X46079Y-41873D01*
X46058Y-41759D01*
X46063Y-41586D01*
X46067Y-41548D01*
X46093Y-41315D01*
X46168Y-41519D01*
X46219Y-41685D01*
X46242Y-41820D01*
X46242Y-41820D01*
X46242Y-41820D01*
G37*
G36*
X46376Y-41934D02*
X46350Y-41964D01*
X46343Y-41965D01*
X46313Y-41938D01*
X46309Y-41913D01*
X46325Y-41879D01*
X46343Y-41882D01*
X46375Y-41924D01*
X46376Y-41934D01*
X46376Y-41934D01*
X46376Y-41934D01*
G37*
G36*
X40277Y-41429D02*
X40238Y-41448D01*
X40137Y-41460D01*
X39976Y-41465D01*
X39834Y-41466D01*
X39746Y-41470D01*
X39698Y-41482D01*
X39679Y-41504D01*
X39676Y-41541D01*
X39676Y-41547D01*
X39663Y-41616D01*
X39634Y-41654D01*
X39602Y-41646D01*
X39598Y-41641D01*
X39589Y-41591D01*
X39590Y-41502D01*
X39598Y-41394D01*
X39611Y-41287D01*
X39628Y-41198D01*
X39647Y-41147D01*
X39655Y-41142D01*
X39682Y-41180D01*
X39693Y-41251D01*
X39696Y-41307D01*
X39718Y-41337D01*
X39775Y-41351D01*
X39876Y-41357D01*
X40055Y-41370D01*
X40184Y-41388D01*
X40258Y-41409D01*
X40277Y-41429D01*
X40277Y-41429D01*
X40277Y-41429D01*
G37*
G36*
X46004Y-41447D02*
X45998Y-41474D01*
X45987Y-41475D01*
X45982Y-41423D01*
X45982Y-41415D01*
X45987Y-41363D01*
X45997Y-41368D01*
X45999Y-41374D01*
X46004Y-41447D01*
X46004Y-41447D01*
X46004Y-41447D01*
G37*
G36*
X44576Y-40965D02*
X44574Y-41127D01*
X44568Y-41245D01*
X44556Y-41326D01*
X44536Y-41378D01*
X44507Y-41409D01*
X44467Y-41427D01*
X44414Y-41437D01*
X44347Y-41450D01*
X44234Y-41472D01*
X44258Y-41077D01*
X44270Y-40894D01*
X44286Y-40670D01*
X44304Y-40431D01*
X44322Y-40202D01*
X44326Y-40153D01*
X44344Y-39942D01*
X44362Y-39788D01*
X44381Y-39683D01*
X44405Y-39618D01*
X44438Y-39582D01*
X44481Y-39568D01*
X44518Y-39566D01*
X44535Y-39570D01*
X44548Y-39586D01*
X44558Y-39623D01*
X44566Y-39687D01*
X44571Y-39787D01*
X44574Y-39928D01*
X44575Y-40118D01*
X44576Y-40365D01*
X44576Y-40480D01*
X44576Y-40752D01*
X44576Y-40965D01*
X44576Y-40965D01*
X44576Y-40965D01*
G37*
G36*
X50109Y-41225D02*
X50093Y-41343D01*
X50041Y-41410D01*
X49946Y-41432D01*
X49939Y-41432D01*
X49863Y-41413D01*
X49798Y-41348D01*
X49775Y-41313D01*
X49710Y-41231D01*
X49648Y-41204D01*
X49630Y-41205D01*
X49582Y-41225D01*
X49562Y-41277D01*
X49559Y-41340D01*
X49547Y-41429D01*
X49517Y-41464D01*
X49481Y-41442D01*
X49455Y-41376D01*
X49455Y-41263D01*
X49505Y-41168D01*
X49593Y-41111D01*
X49626Y-41104D01*
X49698Y-41107D01*
X49762Y-41145D01*
X49830Y-41217D01*
X49908Y-41297D01*
X49968Y-41324D01*
X49993Y-41320D01*
X50032Y-41285D01*
X50034Y-41216D01*
X50031Y-41198D01*
X50025Y-41125D01*
X50050Y-41099D01*
X50060Y-41099D01*
X50095Y-41123D01*
X50109Y-41201D01*
X50109Y-41225D01*
X50109Y-41225D01*
X50109Y-41225D01*
G37*
G36*
X40306Y-41037D02*
X40292Y-41058D01*
X40245Y-41067D01*
X40146Y-41063D01*
X40010Y-41048D01*
X39951Y-41039D01*
X39797Y-41013D01*
X39701Y-40988D01*
X39652Y-40962D01*
X39643Y-40941D01*
X39661Y-40906D01*
X39725Y-40907D01*
X39734Y-40908D01*
X39818Y-40922D01*
X39937Y-40939D01*
X40030Y-40950D01*
X40187Y-40974D01*
X40280Y-41003D01*
X40306Y-41037D01*
X40306Y-41037D01*
X40306Y-41037D01*
G37*
G36*
X40376Y-40652D02*
X40374Y-40679D01*
X40360Y-40692D01*
X40321Y-40691D01*
X40245Y-40676D01*
X40121Y-40644D01*
X40078Y-40633D01*
X39957Y-40604D01*
X39860Y-40587D01*
X39807Y-40584D01*
X39803Y-40586D01*
X39782Y-40628D01*
X39776Y-40684D01*
X39757Y-40750D01*
X39722Y-40765D01*
X39684Y-40747D01*
X39688Y-40690D01*
X39707Y-40615D01*
X39732Y-40505D01*
X39747Y-40440D01*
X39779Y-40336D01*
X39814Y-40277D01*
X39845Y-40268D01*
X39863Y-40313D01*
X39864Y-40371D01*
X39864Y-40424D01*
X39879Y-40460D01*
X39921Y-40486D01*
X40004Y-40512D01*
X40118Y-40541D01*
X40264Y-40584D01*
X40351Y-40623D01*
X40376Y-40652D01*
X40376Y-40652D01*
X40376Y-40652D01*
G37*
G36*
X50007Y-40484D02*
X49995Y-40512D01*
X49932Y-40549D01*
X49822Y-40590D01*
X49783Y-40602D01*
X49613Y-40648D01*
X49496Y-40676D01*
X49422Y-40687D01*
X49380Y-40683D01*
X49360Y-40667D01*
X49372Y-40634D01*
X49427Y-40599D01*
X49501Y-40572D01*
X49556Y-40565D01*
X49608Y-40553D01*
X49616Y-40547D01*
X49620Y-40506D01*
X49604Y-40432D01*
X49578Y-40349D01*
X49548Y-40282D01*
X49522Y-40254D01*
X49521Y-40254D01*
X49384Y-40279D01*
X49300Y-40292D01*
X49258Y-40293D01*
X49245Y-40282D01*
X49249Y-40261D01*
X49288Y-40229D01*
X49374Y-40191D01*
X49490Y-40152D01*
X49616Y-40117D01*
X49735Y-40092D01*
X49829Y-40081D01*
X49880Y-40089D01*
X49881Y-40090D01*
X49886Y-40120D01*
X49835Y-40149D01*
X49780Y-40168D01*
X49694Y-40195D01*
X49654Y-40223D01*
X49651Y-40272D01*
X49675Y-40363D01*
X49678Y-40375D01*
X49713Y-40502D01*
X49865Y-40479D01*
X49965Y-40472D01*
X50007Y-40484D01*
X50007Y-40484D01*
X50007Y-40484D01*
G37*
G36*
X44069Y-40311D02*
X44063Y-40323D01*
X44047Y-40313D01*
X44045Y-40279D01*
X44053Y-40243D01*
X44065Y-40259D01*
X44069Y-40311D01*
X44069Y-40311D01*
X44069Y-40311D01*
G37*
G36*
X40561Y-40023D02*
X40554Y-40089D01*
X40509Y-40188D01*
X40488Y-40224D01*
X40421Y-40279D01*
X40330Y-40299D01*
X40245Y-40279D01*
X40214Y-40254D01*
X40184Y-40194D01*
X40155Y-40101D01*
X40150Y-40079D01*
X40121Y-39987D01*
X40076Y-39945D01*
X40049Y-39938D01*
X39994Y-39944D01*
X39964Y-39993D01*
X39954Y-40031D01*
X39926Y-40102D01*
X39892Y-40119D01*
X39870Y-40084D01*
X39871Y-40029D01*
X39911Y-39922D01*
X39986Y-39854D01*
X40073Y-39839D01*
X40158Y-39881D01*
X40223Y-39985D01*
X40258Y-40107D01*
X40296Y-40175D01*
X40356Y-40197D01*
X40419Y-40176D01*
X40465Y-40118D01*
X40476Y-40059D01*
X40500Y-40008D01*
X40528Y-39999D01*
X40561Y-40023D01*
X40561Y-40023D01*
X40561Y-40023D01*
G37*
G36*
X49695Y-39617D02*
X49693Y-39748D01*
X49630Y-39857D01*
X49607Y-39874D01*
X49607Y-39623D01*
X49564Y-39516D01*
X49491Y-39466D01*
X49391Y-39458D01*
X49284Y-39485D01*
X49190Y-39541D01*
X49128Y-39620D01*
X49115Y-39662D01*
X49125Y-39744D01*
X49157Y-39817D01*
X49235Y-39881D01*
X49342Y-39899D01*
X49457Y-39869D01*
X49521Y-39829D01*
X49593Y-39736D01*
X49607Y-39623D01*
X49607Y-39874D01*
X49532Y-39933D01*
X49389Y-39991D01*
X49256Y-39987D01*
X49142Y-39922D01*
X49134Y-39914D01*
X49047Y-39791D01*
X49026Y-39664D01*
X49069Y-39540D01*
X49176Y-39426D01*
X49184Y-39420D01*
X49311Y-39362D01*
X49442Y-39361D01*
X49561Y-39411D01*
X49651Y-39505D01*
X49695Y-39617D01*
X49695Y-39617D01*
X49695Y-39617D01*
G37*
G36*
X40842Y-39457D02*
X40840Y-39483D01*
X40824Y-39493D01*
X40785Y-39483D01*
X40710Y-39449D01*
X40588Y-39388D01*
X40572Y-39380D01*
X40467Y-39330D01*
X40393Y-39302D01*
X40362Y-39299D01*
X40363Y-39305D01*
X40394Y-39352D01*
X40452Y-39437D01*
X40525Y-39542D01*
X40536Y-39558D01*
X40619Y-39691D01*
X40658Y-39789D01*
X40651Y-39847D01*
X40602Y-39861D01*
X40554Y-39844D01*
X40465Y-39802D01*
X40353Y-39744D01*
X40326Y-39729D01*
X40212Y-39667D01*
X40121Y-39619D01*
X40067Y-39592D01*
X40062Y-39589D01*
X40047Y-39557D01*
X40055Y-39539D01*
X40090Y-39528D01*
X40166Y-39549D01*
X40289Y-39605D01*
X40314Y-39618D01*
X40419Y-39667D01*
X40493Y-39695D01*
X40524Y-39698D01*
X40523Y-39692D01*
X40492Y-39645D01*
X40435Y-39560D01*
X40362Y-39456D01*
X40353Y-39444D01*
X40272Y-39313D01*
X40233Y-39214D01*
X40236Y-39152D01*
X40279Y-39132D01*
X40331Y-39148D01*
X40418Y-39189D01*
X40526Y-39246D01*
X40637Y-39311D01*
X40738Y-39373D01*
X40811Y-39425D01*
X40842Y-39456D01*
X40842Y-39457D01*
X40842Y-39457D01*
X40842Y-39457D01*
G37*
G36*
X44538Y-39219D02*
X44530Y-39335D01*
X44510Y-39411D01*
X44476Y-39455D01*
X44448Y-39470D01*
X44401Y-39484D01*
X44381Y-39470D01*
X44380Y-39414D01*
X44389Y-39340D01*
X44401Y-39236D01*
X44419Y-39091D01*
X44439Y-38927D01*
X44449Y-38849D01*
X44490Y-38515D01*
X44517Y-38832D01*
X44533Y-39054D01*
X44538Y-39219D01*
X44538Y-39219D01*
X44538Y-39219D01*
G37*
G36*
X49408Y-39040D02*
X49382Y-39070D01*
X49313Y-39124D01*
X49218Y-39191D01*
X49111Y-39263D01*
X49007Y-39328D01*
X48922Y-39376D01*
X48871Y-39398D01*
X48868Y-39399D01*
X48841Y-39373D01*
X48793Y-39309D01*
X48764Y-39266D01*
X48712Y-39181D01*
X48680Y-39116D01*
X48676Y-39099D01*
X48691Y-39065D01*
X48731Y-39083D01*
X48786Y-39147D01*
X48808Y-39180D01*
X48880Y-39296D01*
X49111Y-39147D01*
X49245Y-39064D01*
X49334Y-39017D01*
X49384Y-39003D01*
X49406Y-39019D01*
X49408Y-39040D01*
X49408Y-39040D01*
X49408Y-39040D01*
G37*
G36*
X40991Y-39235D02*
X40973Y-39255D01*
X40946Y-39259D01*
X40900Y-39241D01*
X40822Y-39196D01*
X40703Y-39121D01*
X40668Y-39098D01*
X40524Y-39001D01*
X40436Y-38928D01*
X40407Y-38883D01*
X40437Y-38865D01*
X40444Y-38865D01*
X40492Y-38882D01*
X40574Y-38927D01*
X40675Y-38990D01*
X40782Y-39061D01*
X40879Y-39131D01*
X40953Y-39190D01*
X40989Y-39228D01*
X40991Y-39235D01*
X40991Y-39235D01*
X40991Y-39235D01*
G37*
G36*
X44669Y-38699D02*
X44661Y-38836D01*
X44643Y-38949D01*
X44630Y-38973D01*
X44621Y-38932D01*
X44617Y-38826D01*
X44615Y-38732D01*
X44617Y-38583D01*
X44624Y-38496D01*
X44636Y-38472D01*
X44643Y-38482D01*
X44662Y-38572D01*
X44669Y-38699D01*
X44669Y-38699D01*
X44669Y-38699D01*
G37*
G36*
X49109Y-38599D02*
X49085Y-38627D01*
X49021Y-38683D01*
X48932Y-38756D01*
X48832Y-38835D01*
X48735Y-38909D01*
X48656Y-38967D01*
X48609Y-38997D01*
X48603Y-38999D01*
X48575Y-38975D01*
X48520Y-38914D01*
X48478Y-38862D01*
X48410Y-38764D01*
X48395Y-38704D01*
X48401Y-38693D01*
X48443Y-38693D01*
X48503Y-38756D01*
X48507Y-38763D01*
X48574Y-38840D01*
X48632Y-38860D01*
X48696Y-38826D01*
X48714Y-38811D01*
X48751Y-38770D01*
X48752Y-38733D01*
X48713Y-38671D01*
X48706Y-38661D01*
X48661Y-38579D01*
X48660Y-38535D01*
X48696Y-38537D01*
X48761Y-38595D01*
X48766Y-38601D01*
X48823Y-38665D01*
X48859Y-38683D01*
X48895Y-38660D01*
X48919Y-38637D01*
X48959Y-38592D01*
X48965Y-38554D01*
X48933Y-38499D01*
X48910Y-38466D01*
X48861Y-38384D01*
X48857Y-38344D01*
X48891Y-38349D01*
X48954Y-38401D01*
X48996Y-38446D01*
X49060Y-38524D01*
X49101Y-38582D01*
X49109Y-38599D01*
X49109Y-38599D01*
X49109Y-38599D01*
G37*
G36*
X41409Y-38534D02*
X41391Y-38646D01*
X41346Y-38752D01*
X41286Y-38828D01*
X41258Y-38844D01*
X41205Y-38863D01*
X41180Y-38858D01*
X41168Y-38846D01*
X41176Y-38813D01*
X41221Y-38757D01*
X41229Y-38748D01*
X41297Y-38641D01*
X41310Y-38524D01*
X41268Y-38417D01*
X41221Y-38368D01*
X41106Y-38307D01*
X40996Y-38313D01*
X40889Y-38385D01*
X40876Y-38399D01*
X40813Y-38461D01*
X40769Y-38496D01*
X40762Y-38499D01*
X40740Y-38477D01*
X40757Y-38423D01*
X40808Y-38352D01*
X40844Y-38314D01*
X40970Y-38231D01*
X41102Y-38212D01*
X41229Y-38255D01*
X41313Y-38325D01*
X41389Y-38442D01*
X41409Y-38534D01*
X41409Y-38534D01*
X41409Y-38534D01*
G37*
G36*
X41674Y-38348D02*
X41669Y-38388D01*
X41626Y-38376D01*
X41547Y-38314D01*
X41435Y-38204D01*
X41414Y-38182D01*
X41302Y-38058D01*
X41236Y-37973D01*
X41212Y-37923D01*
X41228Y-37901D01*
X41247Y-37899D01*
X41284Y-37922D01*
X41351Y-37982D01*
X41435Y-38065D01*
X41522Y-38157D01*
X41600Y-38245D01*
X41655Y-38314D01*
X41674Y-38348D01*
X41674Y-38348D01*
X41674Y-38348D01*
G37*
G36*
X48419Y-37996D02*
X48398Y-38074D01*
X48329Y-38186D01*
X48329Y-37951D01*
X48327Y-37901D01*
X48267Y-37801D01*
X48177Y-37750D01*
X48074Y-37749D01*
X47974Y-37799D01*
X47907Y-37877D01*
X47857Y-37969D01*
X47849Y-38036D01*
X47882Y-38105D01*
X47912Y-38144D01*
X48001Y-38217D01*
X48105Y-38225D01*
X48178Y-38198D01*
X48246Y-38136D01*
X48301Y-38045D01*
X48329Y-37951D01*
X48329Y-38186D01*
X48313Y-38212D01*
X48203Y-38295D01*
X48079Y-38319D01*
X47948Y-38281D01*
X47911Y-38259D01*
X47825Y-38179D01*
X47773Y-38089D01*
X47771Y-38083D01*
X47769Y-37958D01*
X47821Y-37833D01*
X47915Y-37726D01*
X47976Y-37686D01*
X48057Y-37648D01*
X48119Y-37643D01*
X48198Y-37668D01*
X48219Y-37677D01*
X48338Y-37756D01*
X48407Y-37868D01*
X48419Y-37996D01*
X48419Y-37996D01*
X48419Y-37996D01*
G37*
G36*
X42209Y-37947D02*
X42205Y-37951D01*
X42160Y-37943D01*
X42095Y-37888D01*
X42077Y-37866D01*
X42004Y-37797D01*
X41937Y-37784D01*
X41861Y-37829D01*
X41801Y-37889D01*
X41767Y-37934D01*
X41767Y-37974D01*
X41803Y-38034D01*
X41825Y-38064D01*
X41877Y-38152D01*
X41886Y-38211D01*
X41850Y-38230D01*
X41849Y-38230D01*
X41820Y-38205D01*
X41761Y-38138D01*
X41682Y-38041D01*
X41631Y-37977D01*
X41536Y-37849D01*
X41483Y-37763D01*
X41466Y-37710D01*
X41474Y-37687D01*
X41517Y-37668D01*
X41536Y-37684D01*
X41572Y-37736D01*
X41616Y-37797D01*
X41673Y-37875D01*
X41791Y-37785D01*
X41862Y-37727D01*
X41904Y-37686D01*
X41909Y-37677D01*
X41892Y-37640D01*
X41848Y-37574D01*
X41838Y-37559D01*
X41794Y-37477D01*
X41800Y-37428D01*
X41836Y-37437D01*
X41903Y-37500D01*
X42001Y-37615D01*
X42038Y-37662D01*
X42142Y-37803D01*
X42199Y-37899D01*
X42209Y-37947D01*
X42209Y-37947D01*
X42209Y-37947D01*
G37*
G36*
X47775Y-37570D02*
X47729Y-37689D01*
X47646Y-37783D01*
X47539Y-37843D01*
X47422Y-37857D01*
X47326Y-37826D01*
X47229Y-37762D01*
X47171Y-37702D01*
X47163Y-37659D01*
X47199Y-37653D01*
X47240Y-37679D01*
X47352Y-37742D01*
X47473Y-37750D01*
X47581Y-37702D01*
X47665Y-37602D01*
X47692Y-37490D01*
X47664Y-37382D01*
X47584Y-37296D01*
X47522Y-37264D01*
X47468Y-37230D01*
X47459Y-37199D01*
X47510Y-37167D01*
X47579Y-37183D01*
X47654Y-37237D01*
X47722Y-37318D01*
X47768Y-37417D01*
X47774Y-37438D01*
X47775Y-37570D01*
X47775Y-37570D01*
X47775Y-37570D01*
G37*
G36*
X42653Y-37667D02*
X42650Y-37671D01*
X42610Y-37680D01*
X42580Y-37644D01*
X42527Y-37555D01*
X42487Y-37514D01*
X42440Y-37510D01*
X42421Y-37516D01*
X42421Y-37368D01*
X42386Y-37306D01*
X42344Y-37239D01*
X42320Y-37202D01*
X42319Y-37201D01*
X42290Y-37206D01*
X42245Y-37247D01*
X42201Y-37304D01*
X42177Y-37356D01*
X42176Y-37365D01*
X42199Y-37439D01*
X42262Y-37465D01*
X42358Y-37441D01*
X42378Y-37431D01*
X42420Y-37402D01*
X42421Y-37368D01*
X42421Y-37516D01*
X42367Y-37534D01*
X42366Y-37534D01*
X42279Y-37558D01*
X42215Y-37549D01*
X42160Y-37519D01*
X42090Y-37441D01*
X42079Y-37347D01*
X42123Y-37251D01*
X42207Y-37174D01*
X42286Y-37128D01*
X42343Y-37107D01*
X42353Y-37108D01*
X42383Y-37140D01*
X42436Y-37216D01*
X42503Y-37323D01*
X42535Y-37377D01*
X42613Y-37521D01*
X42652Y-37616D01*
X42653Y-37667D01*
X42653Y-37667D01*
X42653Y-37667D01*
G37*
G36*
X47309Y-37073D02*
X47294Y-37125D01*
X47255Y-37213D01*
X47199Y-37321D01*
X47138Y-37432D01*
X47078Y-37532D01*
X47029Y-37603D01*
X47001Y-37630D01*
X47000Y-37630D01*
X46947Y-37615D01*
X46863Y-37578D01*
X46834Y-37563D01*
X46751Y-37510D01*
X46711Y-37465D01*
X46720Y-37437D01*
X46751Y-37433D01*
X46809Y-37449D01*
X46876Y-37482D01*
X46951Y-37521D01*
X46993Y-37519D01*
X47025Y-37472D01*
X47040Y-37442D01*
X47062Y-37385D01*
X47058Y-37346D01*
X47018Y-37307D01*
X46932Y-37251D01*
X46920Y-37244D01*
X46875Y-37205D01*
X46883Y-37184D01*
X46930Y-37185D01*
X47004Y-37213D01*
X47010Y-37216D01*
X47087Y-37249D01*
X47128Y-37247D01*
X47146Y-37227D01*
X47174Y-37139D01*
X47138Y-37069D01*
X47076Y-37032D01*
X47007Y-36990D01*
X46976Y-36947D01*
X46976Y-36944D01*
X46985Y-36903D01*
X46992Y-36899D01*
X47038Y-36913D01*
X47115Y-36949D01*
X47200Y-36995D01*
X47271Y-37039D01*
X47308Y-37069D01*
X47309Y-37073D01*
X47309Y-37073D01*
X47309Y-37073D01*
G37*
G36*
X43338Y-37374D02*
X43283Y-37365D01*
X43221Y-37325D01*
X43176Y-37288D01*
X43136Y-37277D01*
X43078Y-37292D01*
X43068Y-37296D01*
X43068Y-37189D01*
X43028Y-37135D01*
X42959Y-37065D01*
X42843Y-36952D01*
X42843Y-37129D01*
X42845Y-37231D01*
X42856Y-37279D01*
X42881Y-37288D01*
X42901Y-37282D01*
X42985Y-37251D01*
X43018Y-37241D01*
X43063Y-37220D01*
X43068Y-37189D01*
X43068Y-37296D01*
X42992Y-37329D01*
X42900Y-37374D01*
X42857Y-37411D01*
X42851Y-37455D01*
X42855Y-37478D01*
X42855Y-37551D01*
X42826Y-37577D01*
X42804Y-37577D01*
X42789Y-37549D01*
X42781Y-37482D01*
X42777Y-37368D01*
X42776Y-37231D01*
X42777Y-37070D01*
X42781Y-36964D01*
X42790Y-36902D01*
X42807Y-36873D01*
X42832Y-36865D01*
X42835Y-36865D01*
X42882Y-36886D01*
X42956Y-36941D01*
X43045Y-37020D01*
X43138Y-37111D01*
X43226Y-37202D01*
X43295Y-37284D01*
X43336Y-37345D01*
X43338Y-37374D01*
X43338Y-37374D01*
X43338Y-37374D01*
G37*
G36*
X46639Y-37426D02*
X46634Y-37450D01*
X46601Y-37446D01*
X46584Y-37441D01*
X46553Y-37401D01*
X46543Y-37335D01*
X46535Y-37279D01*
X46518Y-37260D01*
X46518Y-37055D01*
X46514Y-36975D01*
X46501Y-36818D01*
X46405Y-36925D01*
X46335Y-37013D01*
X46313Y-37067D01*
X46339Y-37099D01*
X46368Y-37109D01*
X46459Y-37128D01*
X46505Y-37114D01*
X46518Y-37055D01*
X46518Y-37260D01*
X46500Y-37241D01*
X46423Y-37207D01*
X46375Y-37191D01*
X46277Y-37162D01*
X46223Y-37155D01*
X46193Y-37171D01*
X46174Y-37201D01*
X46118Y-37253D01*
X46072Y-37265D01*
X46005Y-37265D01*
X46073Y-37174D01*
X46175Y-37046D01*
X46281Y-36927D01*
X46380Y-36828D01*
X46463Y-36757D01*
X46519Y-36725D01*
X46534Y-36726D01*
X46550Y-36764D01*
X46570Y-36852D01*
X46591Y-36971D01*
X46610Y-37104D01*
X46626Y-37236D01*
X46637Y-37349D01*
X46639Y-37426D01*
X46639Y-37426D01*
X46639Y-37426D01*
G37*
G36*
X43843Y-37180D02*
X43830Y-37226D01*
X43800Y-37221D01*
X43765Y-37175D01*
X43734Y-37097D01*
X43731Y-37086D01*
X43695Y-36996D01*
X43650Y-36966D01*
X43650Y-36820D01*
X43648Y-36799D01*
X43632Y-36723D01*
X43602Y-36699D01*
X43535Y-36710D01*
X43527Y-36712D01*
X43459Y-36750D01*
X43443Y-36794D01*
X43460Y-36866D01*
X43518Y-36894D01*
X43575Y-36892D01*
X43637Y-36872D01*
X43650Y-36820D01*
X43650Y-36966D01*
X43603Y-36993D01*
X43559Y-37074D01*
X43527Y-37203D01*
X43526Y-37207D01*
X43500Y-37297D01*
X43460Y-37332D01*
X43458Y-37332D01*
X43415Y-37318D01*
X43410Y-37307D01*
X43417Y-37262D01*
X43435Y-37177D01*
X43444Y-37136D01*
X43462Y-37042D01*
X43456Y-36988D01*
X43422Y-36951D01*
X43410Y-36942D01*
X43354Y-36865D01*
X43343Y-36795D01*
X43354Y-36721D01*
X43402Y-36674D01*
X43458Y-36647D01*
X43564Y-36607D01*
X43637Y-36600D01*
X43687Y-36634D01*
X43727Y-36716D01*
X43769Y-36855D01*
X43771Y-36861D01*
X43804Y-36991D01*
X43830Y-37101D01*
X43842Y-37171D01*
X43843Y-37180D01*
X43843Y-37180D01*
X43843Y-37180D01*
G37*
G36*
X46036Y-36622D02*
X46032Y-36640D01*
X46018Y-36709D01*
X45998Y-36821D01*
X45975Y-36953D01*
X45972Y-36974D01*
X45942Y-37122D01*
X45912Y-37208D01*
X45886Y-37232D01*
X45846Y-37206D01*
X45843Y-37188D01*
X45848Y-37133D01*
X45863Y-37036D01*
X45878Y-36951D01*
X45895Y-36846D01*
X45901Y-36769D01*
X45898Y-36743D01*
X45871Y-36759D01*
X45815Y-36818D01*
X45738Y-36907D01*
X45705Y-36947D01*
X45612Y-37055D01*
X45534Y-37128D01*
X45483Y-37158D01*
X45477Y-37157D01*
X45450Y-37151D01*
X45435Y-37135D01*
X45430Y-37099D01*
X45436Y-37030D01*
X45453Y-36916D01*
X45473Y-36790D01*
X45503Y-36629D01*
X45533Y-36533D01*
X45563Y-36499D01*
X45565Y-36499D01*
X45593Y-36505D01*
X45606Y-36534D01*
X45603Y-36598D01*
X45586Y-36708D01*
X45574Y-36779D01*
X45556Y-36884D01*
X45548Y-36959D01*
X45550Y-36984D01*
X45574Y-36965D01*
X45628Y-36905D01*
X45702Y-36814D01*
X45727Y-36782D01*
X45828Y-36661D01*
X45905Y-36591D01*
X45966Y-36567D01*
X45971Y-36566D01*
X46028Y-36576D01*
X46036Y-36622D01*
X46036Y-36622D01*
X46036Y-36622D01*
G37*
G36*
X44513Y-36838D02*
X44486Y-36967D01*
X44432Y-37051D01*
X44361Y-37112D01*
X44266Y-37145D01*
X44185Y-37157D01*
X44014Y-37173D01*
X43991Y-37015D01*
X43983Y-36899D01*
X44010Y-36831D01*
X44078Y-36803D01*
X44134Y-36799D01*
X44197Y-36813D01*
X44202Y-36846D01*
X44147Y-36880D01*
X44143Y-36882D01*
X44087Y-36928D01*
X44081Y-37004D01*
X44106Y-37060D01*
X44157Y-37087D01*
X44238Y-37073D01*
X44328Y-37024D01*
X44351Y-37006D01*
X44402Y-36921D01*
X44411Y-36812D01*
X44378Y-36704D01*
X44318Y-36632D01*
X44227Y-36583D01*
X44124Y-36580D01*
X44001Y-36616D01*
X43952Y-36618D01*
X43943Y-36589D01*
X43967Y-36537D01*
X44044Y-36508D01*
X44179Y-36499D01*
X44181Y-36499D01*
X44317Y-36527D01*
X44422Y-36603D01*
X44489Y-36712D01*
X44513Y-36838D01*
X44513Y-36838D01*
X44513Y-36838D01*
G37*
G36*
X45291Y-36777D02*
X45272Y-36906D01*
X45213Y-37016D01*
X45188Y-37035D01*
X45188Y-36753D01*
X45154Y-36649D01*
X45085Y-36569D01*
X44989Y-36533D01*
X44973Y-36532D01*
X44875Y-36562D01*
X44807Y-36644D01*
X44777Y-36767D01*
X44776Y-36795D01*
X44800Y-36912D01*
X44864Y-36993D01*
X44951Y-37032D01*
X45047Y-37021D01*
X45127Y-36964D01*
X45181Y-36864D01*
X45188Y-36753D01*
X45188Y-37035D01*
X45116Y-37090D01*
X45099Y-37097D01*
X45003Y-37125D01*
X44931Y-37124D01*
X44854Y-37099D01*
X44758Y-37027D01*
X44697Y-36916D01*
X44674Y-36785D01*
X44693Y-36653D01*
X44753Y-36546D01*
X44857Y-36471D01*
X44983Y-36448D01*
X45110Y-36477D01*
X45196Y-36537D01*
X45267Y-36648D01*
X45291Y-36777D01*
X45291Y-36777D01*
X45291Y-36777D01*
G37*
G36*
X43043Y-44399D02*
X43039Y-44451D01*
X43034Y-44461D01*
X42999Y-44452D01*
X42951Y-44442D01*
X42888Y-44411D01*
X42879Y-44368D01*
X42922Y-44336D01*
X42959Y-44332D01*
X43025Y-44347D01*
X43043Y-44399D01*
X43043Y-44399D01*
X43043Y-44399D01*
G37*
M02*
