G04 (created by PCBNEW-RS274X (2012-apr-16-27)-stable) date Wed 26 Mar 2014 03:50:35 PM EDT*
G01*
G70*
G90*
%MOIN*%
G04 Gerber Fmt 3.4, Leading zero omitted, Abs format*
%FSLAX34Y34*%
G04 APERTURE LIST*
%ADD10C,0.006000*%
%ADD11C,0.141700*%
%ADD12C,0.059100*%
%ADD13C,0.060000*%
%ADD14C,0.066900*%
%ADD15R,0.060000X0.060000*%
%ADD16R,0.055000X0.055000*%
%ADD17C,0.055000*%
%ADD18C,0.160000*%
%ADD19C,0.035000*%
%ADD20C,0.014000*%
%ADD21C,0.013900*%
%ADD22C,0.010000*%
G04 APERTURE END LIST*
G54D10*
G54D11*
X40158Y-48819D03*
X42520Y-48819D03*
X41339Y-50669D03*
G54D12*
X54303Y-38870D03*
X54303Y-39870D03*
X54303Y-37870D03*
X54303Y-40870D03*
X54303Y-41870D03*
X54303Y-42870D03*
X54303Y-43870D03*
X54303Y-36870D03*
X54303Y-35870D03*
X54303Y-34870D03*
G54D13*
X66075Y-42028D03*
X62075Y-42028D03*
X73591Y-40354D03*
X77591Y-40354D03*
X73400Y-39100D03*
X77400Y-39100D03*
X56858Y-42028D03*
X60858Y-42028D03*
G54D14*
X45669Y-49016D03*
X45669Y-48016D03*
X45669Y-47016D03*
G54D15*
X69900Y-32700D03*
G54D13*
X70900Y-32700D03*
X69900Y-33700D03*
X70900Y-33700D03*
X69900Y-34700D03*
X70900Y-34700D03*
X69900Y-35700D03*
X70900Y-35700D03*
X69900Y-36700D03*
X70900Y-36700D03*
X69900Y-37700D03*
X70900Y-37700D03*
X69900Y-38700D03*
X70900Y-38700D03*
X69900Y-39700D03*
X70900Y-39700D03*
X69900Y-40700D03*
X70900Y-40700D03*
X69900Y-41700D03*
X70900Y-41700D03*
X69900Y-42700D03*
X70900Y-42700D03*
X69900Y-43700D03*
X70900Y-43700D03*
G54D15*
X67900Y-32700D03*
G54D13*
X68900Y-32700D03*
X67900Y-33700D03*
X68900Y-33700D03*
X67900Y-34700D03*
X68900Y-34700D03*
X67900Y-35700D03*
X68900Y-35700D03*
X67900Y-36700D03*
X68900Y-36700D03*
X67900Y-37700D03*
X68900Y-37700D03*
X67900Y-38700D03*
X68900Y-38700D03*
X67900Y-39700D03*
X68900Y-39700D03*
X67900Y-40700D03*
X68900Y-40700D03*
X67900Y-41700D03*
X68900Y-41700D03*
X67900Y-42700D03*
X68900Y-42700D03*
X67900Y-43700D03*
X68900Y-43700D03*
G54D15*
X56102Y-31587D03*
G54D13*
X56102Y-32587D03*
G54D16*
X73900Y-37600D03*
G54D17*
X76900Y-37600D03*
G54D16*
X73900Y-34600D03*
G54D17*
X76900Y-34600D03*
G54D16*
X73900Y-36600D03*
G54D17*
X76900Y-36600D03*
G54D16*
X73900Y-35600D03*
G54D17*
X76900Y-35600D03*
G54D16*
X69200Y-31500D03*
G54D17*
X70200Y-31500D03*
X71200Y-31500D03*
X72200Y-31500D03*
G54D12*
X72200Y-38500D03*
X72200Y-37500D03*
X72200Y-36500D03*
X72200Y-34500D03*
X72200Y-35500D03*
X72200Y-39500D03*
X72200Y-40500D03*
X72200Y-41500D03*
X72200Y-42500D03*
X72200Y-43500D03*
X56531Y-36394D03*
X56531Y-37394D03*
X56531Y-38394D03*
X56531Y-39394D03*
X65531Y-39394D03*
X65531Y-38394D03*
X65531Y-37394D03*
X65531Y-36394D03*
G54D18*
X43976Y-50827D03*
G54D13*
X61976Y-32087D03*
X65976Y-32087D03*
G54D12*
X73604Y-47400D03*
X76596Y-47400D03*
G54D18*
X44488Y-31850D03*
X74016Y-31850D03*
X76496Y-50866D03*
G54D12*
X58700Y-51200D03*
X59700Y-51200D03*
X60700Y-51200D03*
X71700Y-51200D03*
X61700Y-51200D03*
X62700Y-51200D03*
X63700Y-51200D03*
X64700Y-51200D03*
X65700Y-51200D03*
X66700Y-51200D03*
X67700Y-51200D03*
X68700Y-51200D03*
X69700Y-51200D03*
X70700Y-51200D03*
X71700Y-45200D03*
X70700Y-45200D03*
X69700Y-45200D03*
X68700Y-45200D03*
X67700Y-45200D03*
X66700Y-45200D03*
X65700Y-45200D03*
X64700Y-45200D03*
X63700Y-45200D03*
X62700Y-45200D03*
X61700Y-45200D03*
X60700Y-45200D03*
X59700Y-45200D03*
X58700Y-45200D03*
X71700Y-50200D03*
X71700Y-49200D03*
X71700Y-48200D03*
X71700Y-47200D03*
X71700Y-46200D03*
G54D15*
X76500Y-32000D03*
G54D13*
X77500Y-32000D03*
G54D19*
X70100Y-46200D03*
X65100Y-34400D03*
X58600Y-40900D03*
X73400Y-46700D03*
G54D20*
X67751Y-35174D02*
X65531Y-37394D01*
X68360Y-35174D02*
X67751Y-35174D01*
X68374Y-35160D02*
X68360Y-35174D01*
X68374Y-34200D02*
X68374Y-35160D01*
X62075Y-40850D02*
X62075Y-42028D01*
X65531Y-37394D02*
X62075Y-40850D01*
X60700Y-42186D02*
X60858Y-42028D01*
X60700Y-45200D02*
X60700Y-42186D01*
X68400Y-34200D02*
X68374Y-34200D01*
X68900Y-33700D02*
X68400Y-34200D01*
X67900Y-33726D02*
X67900Y-33700D01*
X68374Y-34200D02*
X67900Y-33726D01*
X73900Y-37600D02*
X73900Y-36600D01*
X73900Y-36600D02*
X73900Y-36152D01*
X72736Y-35036D02*
X72200Y-34500D01*
X72736Y-35396D02*
X72736Y-35036D01*
X73492Y-36152D02*
X72736Y-35396D01*
X73900Y-36152D02*
X73492Y-36152D01*
X72200Y-34000D02*
X70900Y-32700D01*
X72200Y-34500D02*
X72200Y-34000D01*
X67900Y-32700D02*
X67900Y-33173D01*
X67427Y-33173D02*
X67900Y-33173D01*
X58700Y-41900D02*
X67427Y-33173D01*
X58700Y-45200D02*
X58700Y-41900D01*
X77500Y-36000D02*
X76900Y-36600D01*
X77500Y-32000D02*
X77500Y-36000D01*
X72697Y-41003D02*
X72697Y-38997D01*
X72730Y-36030D02*
X72730Y-37970D01*
X72730Y-37970D02*
X72200Y-38500D01*
X72200Y-35500D02*
X72730Y-36030D01*
X72200Y-41500D02*
X72697Y-41003D01*
X72697Y-38997D02*
X72200Y-38500D01*
X69400Y-36950D02*
X69150Y-36950D01*
X69400Y-36950D02*
X69400Y-38869D01*
X71200Y-45034D02*
X71200Y-50700D01*
X70400Y-39253D02*
X70400Y-44234D01*
X70360Y-39213D02*
X70400Y-39253D01*
X70400Y-44234D02*
X71200Y-45034D01*
X69150Y-36950D02*
X68900Y-36700D01*
X69650Y-36950D02*
X69400Y-36950D01*
X69400Y-38869D02*
X69744Y-39213D01*
X71200Y-50700D02*
X71700Y-51200D01*
X69744Y-39213D02*
X70360Y-39213D01*
X69900Y-36700D02*
X69650Y-36950D01*
G54D21*
X70100Y-46200D02*
X70700Y-46800D01*
X70700Y-46800D02*
X70700Y-51200D01*
X65100Y-34400D02*
X58600Y-40900D01*
G54D20*
X70900Y-35700D02*
X69900Y-35700D01*
X66700Y-51200D02*
X67208Y-50692D01*
X67208Y-50692D02*
X67208Y-41392D01*
X67208Y-41392D02*
X67900Y-40700D01*
X70400Y-38200D02*
X70900Y-37700D01*
X71096Y-39226D02*
X70737Y-39226D01*
X70737Y-39226D02*
X70400Y-38889D01*
X70400Y-38889D02*
X70400Y-38200D01*
X70400Y-38200D02*
X69900Y-37700D01*
X71700Y-39830D02*
X71096Y-39226D01*
X71700Y-45200D02*
X71700Y-39830D01*
X72100Y-37500D02*
X72200Y-37500D01*
X65700Y-45200D02*
X65001Y-44501D01*
X65001Y-38924D02*
X65531Y-38394D01*
X65001Y-44501D02*
X65001Y-38924D01*
X70900Y-38700D02*
X72100Y-37500D01*
X68900Y-39700D02*
X67900Y-39700D01*
X66700Y-45200D02*
X66700Y-40658D01*
X66942Y-40658D02*
X66700Y-40658D01*
X67900Y-39700D02*
X66942Y-40658D01*
X65531Y-39489D02*
X65531Y-39394D01*
X66700Y-40658D02*
X65531Y-39489D01*
X69400Y-42200D02*
X69900Y-41700D01*
X69400Y-43974D02*
X69400Y-42200D01*
X69200Y-44174D02*
X69400Y-43974D01*
X69200Y-49700D02*
X69200Y-44174D01*
X67700Y-51200D02*
X69200Y-49700D01*
X69400Y-42200D02*
X68900Y-41700D01*
X70200Y-31500D02*
X70374Y-31674D01*
X67225Y-34700D02*
X67900Y-34700D01*
X53773Y-38400D02*
X54303Y-37870D01*
X70400Y-34200D02*
X70374Y-34200D01*
X70900Y-34700D02*
X70400Y-34200D01*
X69900Y-34674D02*
X69900Y-34700D01*
X70374Y-34200D02*
X69900Y-34674D01*
X65531Y-36394D02*
X67225Y-34700D01*
G54D21*
X73400Y-46700D02*
X75900Y-46700D01*
X75900Y-46700D02*
X76596Y-47396D01*
G54D20*
X54303Y-37870D02*
X56102Y-36071D01*
G54D21*
X76596Y-47396D02*
X76596Y-47400D01*
G54D20*
X70374Y-31674D02*
X70374Y-34200D01*
X53773Y-39912D02*
X53773Y-38400D01*
X45669Y-48016D02*
X53773Y-39912D01*
X56102Y-36071D02*
X56102Y-32587D01*
X60270Y-51695D02*
X60230Y-51655D01*
X69700Y-51200D02*
X69205Y-51695D01*
X69205Y-51695D02*
X60270Y-51695D01*
X60230Y-51655D02*
X60230Y-50760D01*
X54833Y-45363D02*
X54833Y-43400D01*
X54833Y-43400D02*
X54303Y-42870D01*
X60230Y-50760D02*
X54833Y-45363D01*
X57061Y-38924D02*
X56531Y-38394D01*
X57061Y-41825D02*
X57061Y-38924D01*
X56858Y-42028D02*
X57061Y-41825D01*
X56858Y-46358D02*
X56858Y-42028D01*
X61700Y-51200D02*
X56858Y-46358D01*
X55330Y-38857D02*
X55330Y-40537D01*
X54497Y-41370D02*
X53315Y-41370D01*
X55330Y-40537D02*
X54497Y-41370D01*
X53315Y-41370D02*
X45669Y-49016D01*
X56293Y-37894D02*
X55330Y-38857D01*
X63539Y-31500D02*
X57145Y-37894D01*
X69200Y-31500D02*
X63539Y-31500D01*
X57145Y-37894D02*
X56293Y-37894D01*
X74349Y-38151D02*
X73400Y-39100D01*
X74349Y-35169D02*
X74349Y-38151D01*
X74309Y-35129D02*
X74349Y-35169D01*
X73634Y-35129D02*
X74309Y-35129D01*
X73452Y-34947D02*
X73634Y-35129D01*
X73452Y-32752D02*
X73452Y-34947D01*
X72200Y-31500D02*
X73452Y-32752D01*
X57967Y-40096D02*
X65976Y-32087D01*
X57967Y-46467D02*
X57967Y-40096D01*
X62700Y-51200D02*
X57967Y-46467D01*
X76027Y-32025D02*
X73900Y-34152D01*
X76027Y-32000D02*
X76027Y-32025D01*
X73900Y-34600D02*
X73900Y-34152D01*
X76900Y-39663D02*
X76900Y-37600D01*
X77591Y-40354D02*
X76900Y-39663D01*
X76500Y-32000D02*
X76973Y-32000D01*
X76973Y-31567D02*
X76973Y-32000D01*
X77013Y-31527D02*
X76973Y-31567D01*
X77953Y-31527D02*
X77013Y-31527D01*
X77992Y-31566D02*
X77953Y-31527D01*
X77992Y-36508D02*
X77992Y-31566D01*
X76900Y-37600D02*
X77992Y-36508D01*
X76500Y-32000D02*
X76027Y-32000D01*
G54D10*
G36*
X67971Y-34700D02*
X67900Y-34771D01*
X67829Y-34700D01*
X67794Y-34665D01*
X67522Y-34392D01*
X67428Y-34419D01*
X67357Y-34621D01*
X67368Y-34834D01*
X67428Y-34981D01*
X67466Y-34992D01*
X67434Y-35025D01*
X67440Y-35031D01*
X66067Y-36405D01*
X66059Y-36260D01*
X65999Y-36115D01*
X65906Y-36090D01*
X65835Y-36161D01*
X65835Y-36019D01*
X65810Y-35926D01*
X65609Y-35854D01*
X65397Y-35866D01*
X65252Y-35926D01*
X65227Y-36019D01*
X65531Y-36323D01*
X65835Y-36019D01*
X65835Y-36161D01*
X65637Y-36359D01*
X65602Y-36394D01*
X65531Y-36465D01*
X65496Y-36500D01*
X65460Y-36536D01*
X65460Y-36394D01*
X65156Y-36090D01*
X65063Y-36115D01*
X64991Y-36316D01*
X65003Y-36528D01*
X65063Y-36673D01*
X65156Y-36698D01*
X65460Y-36394D01*
X65460Y-36536D01*
X65227Y-36769D01*
X65252Y-36862D01*
X65328Y-36889D01*
X65223Y-36933D01*
X65070Y-37086D01*
X64987Y-37286D01*
X64987Y-37485D01*
X61849Y-40624D01*
X61779Y-40727D01*
X61755Y-40850D01*
X61755Y-41572D01*
X61610Y-41717D01*
X61526Y-41919D01*
X61526Y-42137D01*
X61610Y-42339D01*
X61764Y-42493D01*
X61966Y-42577D01*
X62184Y-42577D01*
X62386Y-42493D01*
X62540Y-42339D01*
X62624Y-42137D01*
X62624Y-41919D01*
X62540Y-41717D01*
X62395Y-41572D01*
X62395Y-40982D01*
X64987Y-38390D01*
X64987Y-38485D01*
X64775Y-38698D01*
X64705Y-38801D01*
X64681Y-38924D01*
X64681Y-44501D01*
X64705Y-44624D01*
X64726Y-44656D01*
X64592Y-44656D01*
X64392Y-44739D01*
X64239Y-44892D01*
X64200Y-44985D01*
X64161Y-44892D01*
X64008Y-44739D01*
X63808Y-44656D01*
X63592Y-44656D01*
X63392Y-44739D01*
X63239Y-44892D01*
X63200Y-44985D01*
X63161Y-44892D01*
X63008Y-44739D01*
X62808Y-44656D01*
X62592Y-44656D01*
X62392Y-44739D01*
X62239Y-44892D01*
X62200Y-44985D01*
X62161Y-44892D01*
X62008Y-44739D01*
X61808Y-44656D01*
X61592Y-44656D01*
X61392Y-44739D01*
X61239Y-44892D01*
X61200Y-44985D01*
X61161Y-44892D01*
X61020Y-44751D01*
X61020Y-42554D01*
X61169Y-42493D01*
X61323Y-42339D01*
X61407Y-42137D01*
X61407Y-41919D01*
X61323Y-41717D01*
X61169Y-41563D01*
X60967Y-41479D01*
X60749Y-41479D01*
X60547Y-41563D01*
X60393Y-41717D01*
X60309Y-41919D01*
X60309Y-42137D01*
X60380Y-42307D01*
X60380Y-44751D01*
X60239Y-44892D01*
X60200Y-44985D01*
X60161Y-44892D01*
X60008Y-44739D01*
X59808Y-44656D01*
X59592Y-44656D01*
X59392Y-44739D01*
X59239Y-44892D01*
X59200Y-44985D01*
X59161Y-44892D01*
X59020Y-44751D01*
X59020Y-42032D01*
X67351Y-33701D01*
X67351Y-33809D01*
X67435Y-34011D01*
X67589Y-34165D01*
X67680Y-34202D01*
X67619Y-34228D01*
X67592Y-34322D01*
X67865Y-34594D01*
X67900Y-34629D01*
X67971Y-34700D01*
X67971Y-34700D01*
G37*
G54D22*
X67971Y-34700D02*
X67900Y-34771D01*
X67829Y-34700D01*
X67794Y-34665D01*
X67522Y-34392D01*
X67428Y-34419D01*
X67357Y-34621D01*
X67368Y-34834D01*
X67428Y-34981D01*
X67466Y-34992D01*
X67434Y-35025D01*
X67440Y-35031D01*
X66067Y-36405D01*
X66059Y-36260D01*
X65999Y-36115D01*
X65906Y-36090D01*
X65835Y-36161D01*
X65835Y-36019D01*
X65810Y-35926D01*
X65609Y-35854D01*
X65397Y-35866D01*
X65252Y-35926D01*
X65227Y-36019D01*
X65531Y-36323D01*
X65835Y-36019D01*
X65835Y-36161D01*
X65637Y-36359D01*
X65602Y-36394D01*
X65531Y-36465D01*
X65496Y-36500D01*
X65460Y-36536D01*
X65460Y-36394D01*
X65156Y-36090D01*
X65063Y-36115D01*
X64991Y-36316D01*
X65003Y-36528D01*
X65063Y-36673D01*
X65156Y-36698D01*
X65460Y-36394D01*
X65460Y-36536D01*
X65227Y-36769D01*
X65252Y-36862D01*
X65328Y-36889D01*
X65223Y-36933D01*
X65070Y-37086D01*
X64987Y-37286D01*
X64987Y-37485D01*
X61849Y-40624D01*
X61779Y-40727D01*
X61755Y-40850D01*
X61755Y-41572D01*
X61610Y-41717D01*
X61526Y-41919D01*
X61526Y-42137D01*
X61610Y-42339D01*
X61764Y-42493D01*
X61966Y-42577D01*
X62184Y-42577D01*
X62386Y-42493D01*
X62540Y-42339D01*
X62624Y-42137D01*
X62624Y-41919D01*
X62540Y-41717D01*
X62395Y-41572D01*
X62395Y-40982D01*
X64987Y-38390D01*
X64987Y-38485D01*
X64775Y-38698D01*
X64705Y-38801D01*
X64681Y-38924D01*
X64681Y-44501D01*
X64705Y-44624D01*
X64726Y-44656D01*
X64592Y-44656D01*
X64392Y-44739D01*
X64239Y-44892D01*
X64200Y-44985D01*
X64161Y-44892D01*
X64008Y-44739D01*
X63808Y-44656D01*
X63592Y-44656D01*
X63392Y-44739D01*
X63239Y-44892D01*
X63200Y-44985D01*
X63161Y-44892D01*
X63008Y-44739D01*
X62808Y-44656D01*
X62592Y-44656D01*
X62392Y-44739D01*
X62239Y-44892D01*
X62200Y-44985D01*
X62161Y-44892D01*
X62008Y-44739D01*
X61808Y-44656D01*
X61592Y-44656D01*
X61392Y-44739D01*
X61239Y-44892D01*
X61200Y-44985D01*
X61161Y-44892D01*
X61020Y-44751D01*
X61020Y-42554D01*
X61169Y-42493D01*
X61323Y-42339D01*
X61407Y-42137D01*
X61407Y-41919D01*
X61323Y-41717D01*
X61169Y-41563D01*
X60967Y-41479D01*
X60749Y-41479D01*
X60547Y-41563D01*
X60393Y-41717D01*
X60309Y-41919D01*
X60309Y-42137D01*
X60380Y-42307D01*
X60380Y-44751D01*
X60239Y-44892D01*
X60200Y-44985D01*
X60161Y-44892D01*
X60008Y-44739D01*
X59808Y-44656D01*
X59592Y-44656D01*
X59392Y-44739D01*
X59239Y-44892D01*
X59200Y-44985D01*
X59161Y-44892D01*
X59020Y-44751D01*
X59020Y-42032D01*
X67351Y-33701D01*
X67351Y-33809D01*
X67435Y-34011D01*
X67589Y-34165D01*
X67680Y-34202D01*
X67619Y-34228D01*
X67592Y-34322D01*
X67865Y-34594D01*
X67900Y-34629D01*
X67971Y-34700D01*
G54D10*
G36*
X68796Y-31009D02*
X68784Y-31014D01*
X68714Y-31084D01*
X68676Y-31175D01*
X68676Y-31180D01*
X63539Y-31180D01*
X63417Y-31204D01*
X63382Y-31227D01*
X63312Y-31274D01*
X62514Y-32071D01*
X62508Y-31953D01*
X62448Y-31806D01*
X62354Y-31779D01*
X62284Y-31849D01*
X62284Y-31709D01*
X62257Y-31615D01*
X62055Y-31544D01*
X61842Y-31555D01*
X61695Y-31615D01*
X61668Y-31709D01*
X61976Y-32016D01*
X62284Y-31709D01*
X62284Y-31849D01*
X62047Y-32087D01*
X61976Y-32158D01*
X61905Y-32228D01*
X61905Y-32087D01*
X61598Y-31779D01*
X61504Y-31806D01*
X61433Y-32008D01*
X61444Y-32221D01*
X61504Y-32368D01*
X61598Y-32395D01*
X61905Y-32087D01*
X61905Y-32228D01*
X61668Y-32465D01*
X61695Y-32559D01*
X61897Y-32630D01*
X61959Y-32626D01*
X57067Y-37519D01*
X57075Y-37502D01*
X57075Y-37286D01*
X56992Y-37086D01*
X56839Y-36933D01*
X56745Y-36894D01*
X56839Y-36855D01*
X56992Y-36702D01*
X57075Y-36502D01*
X57075Y-36286D01*
X56992Y-36086D01*
X56839Y-35933D01*
X56651Y-35854D01*
X56651Y-31937D01*
X56651Y-31838D01*
X56651Y-31238D01*
X56613Y-31146D01*
X56543Y-31076D01*
X56452Y-31038D01*
X56353Y-31038D01*
X55753Y-31038D01*
X55661Y-31076D01*
X55591Y-31146D01*
X55553Y-31237D01*
X55553Y-31336D01*
X55553Y-31936D01*
X55591Y-32028D01*
X55661Y-32098D01*
X55752Y-32136D01*
X55814Y-32136D01*
X55794Y-32209D01*
X56102Y-32516D01*
X56410Y-32209D01*
X56389Y-32136D01*
X56451Y-32136D01*
X56543Y-32098D01*
X56613Y-32028D01*
X56651Y-31937D01*
X56651Y-35854D01*
X56645Y-35852D01*
X56645Y-32666D01*
X56634Y-32453D01*
X56574Y-32306D01*
X56480Y-32279D01*
X56173Y-32587D01*
X56480Y-32895D01*
X56574Y-32868D01*
X56645Y-32666D01*
X56645Y-35852D01*
X56639Y-35850D01*
X56423Y-35850D01*
X56410Y-35855D01*
X56410Y-32965D01*
X56102Y-32658D01*
X56031Y-32728D01*
X56031Y-32587D01*
X55724Y-32279D01*
X55630Y-32306D01*
X55559Y-32508D01*
X55570Y-32721D01*
X55630Y-32868D01*
X55724Y-32895D01*
X56031Y-32587D01*
X56031Y-32728D01*
X55794Y-32965D01*
X55821Y-33059D01*
X56023Y-33130D01*
X56236Y-33119D01*
X56383Y-33059D01*
X56410Y-32965D01*
X56410Y-35855D01*
X56223Y-35933D01*
X56070Y-36086D01*
X55987Y-36286D01*
X55987Y-36502D01*
X56070Y-36702D01*
X56223Y-36855D01*
X56316Y-36894D01*
X56223Y-36933D01*
X56070Y-37086D01*
X55987Y-37286D01*
X55987Y-37502D01*
X56058Y-37675D01*
X55104Y-38631D01*
X55034Y-38734D01*
X55010Y-38857D01*
X55010Y-40405D01*
X54790Y-40624D01*
X54764Y-40562D01*
X54611Y-40409D01*
X54517Y-40370D01*
X54611Y-40331D01*
X54764Y-40178D01*
X54847Y-39978D01*
X54847Y-39762D01*
X54764Y-39562D01*
X54611Y-39409D01*
X54517Y-39370D01*
X54611Y-39331D01*
X54764Y-39178D01*
X54847Y-38978D01*
X54847Y-38762D01*
X54847Y-36978D01*
X54847Y-36762D01*
X54764Y-36562D01*
X54611Y-36409D01*
X54517Y-36370D01*
X54611Y-36331D01*
X54764Y-36178D01*
X54847Y-35978D01*
X54847Y-35762D01*
X54764Y-35562D01*
X54611Y-35409D01*
X54517Y-35370D01*
X54611Y-35331D01*
X54764Y-35178D01*
X54847Y-34978D01*
X54847Y-34762D01*
X54764Y-34562D01*
X54611Y-34409D01*
X54411Y-34326D01*
X54195Y-34326D01*
X53995Y-34409D01*
X53842Y-34562D01*
X53759Y-34762D01*
X53759Y-34978D01*
X53842Y-35178D01*
X53995Y-35331D01*
X54088Y-35370D01*
X53995Y-35409D01*
X53842Y-35562D01*
X53759Y-35762D01*
X53759Y-35978D01*
X53842Y-36178D01*
X53995Y-36331D01*
X54088Y-36370D01*
X53995Y-36409D01*
X53842Y-36562D01*
X53759Y-36762D01*
X53759Y-36978D01*
X53842Y-37178D01*
X53995Y-37331D01*
X54095Y-37372D01*
X54024Y-37402D01*
X53999Y-37495D01*
X54303Y-37799D01*
X54607Y-37495D01*
X54582Y-37402D01*
X54505Y-37374D01*
X54611Y-37331D01*
X54764Y-37178D01*
X54847Y-36978D01*
X54847Y-38762D01*
X54843Y-38752D01*
X54843Y-37948D01*
X54831Y-37736D01*
X54771Y-37591D01*
X54678Y-37566D01*
X54374Y-37870D01*
X54678Y-38174D01*
X54771Y-38149D01*
X54843Y-37948D01*
X54843Y-38752D01*
X54764Y-38562D01*
X54611Y-38409D01*
X54510Y-38367D01*
X54582Y-38338D01*
X54607Y-38245D01*
X54303Y-37941D01*
X54232Y-38012D01*
X54232Y-37870D01*
X53928Y-37566D01*
X53835Y-37591D01*
X53763Y-37792D01*
X53775Y-38004D01*
X53835Y-38149D01*
X53928Y-38174D01*
X54232Y-37870D01*
X54232Y-38012D01*
X53999Y-38245D01*
X54024Y-38338D01*
X54100Y-38365D01*
X53995Y-38409D01*
X53842Y-38562D01*
X53759Y-38762D01*
X53759Y-38978D01*
X53842Y-39178D01*
X53995Y-39331D01*
X54088Y-39370D01*
X53995Y-39409D01*
X53842Y-39562D01*
X53759Y-39762D01*
X53759Y-39978D01*
X53842Y-40178D01*
X53995Y-40331D01*
X54088Y-40370D01*
X53995Y-40409D01*
X53842Y-40562D01*
X53759Y-40762D01*
X53759Y-40978D01*
X53788Y-41050D01*
X53315Y-41050D01*
X53192Y-41074D01*
X53089Y-41144D01*
X46253Y-47979D01*
X46253Y-47132D01*
X46253Y-46900D01*
X46164Y-46685D01*
X46000Y-46521D01*
X45785Y-46432D01*
X45553Y-46432D01*
X45338Y-46521D01*
X45174Y-46685D01*
X45085Y-46900D01*
X45085Y-47132D01*
X45174Y-47347D01*
X45338Y-47511D01*
X45366Y-47522D01*
X45337Y-47614D01*
X45669Y-47945D01*
X46001Y-47614D01*
X45971Y-47522D01*
X46000Y-47511D01*
X46164Y-47347D01*
X46253Y-47132D01*
X46253Y-47979D01*
X46240Y-47992D01*
X46235Y-47876D01*
X46168Y-47715D01*
X46071Y-47684D01*
X45740Y-48016D01*
X45669Y-48087D01*
X45598Y-48157D01*
X45598Y-48016D01*
X45267Y-47684D01*
X45170Y-47715D01*
X45093Y-47929D01*
X45103Y-48156D01*
X45170Y-48317D01*
X45267Y-48348D01*
X45598Y-48016D01*
X45598Y-48157D01*
X45337Y-48418D01*
X45366Y-48509D01*
X45338Y-48521D01*
X45174Y-48685D01*
X45085Y-48900D01*
X45085Y-49132D01*
X45174Y-49347D01*
X45338Y-49511D01*
X45553Y-49600D01*
X45785Y-49600D01*
X46000Y-49511D01*
X46164Y-49347D01*
X46253Y-49132D01*
X46253Y-48900D01*
X46248Y-48888D01*
X53447Y-41690D01*
X53788Y-41690D01*
X53759Y-41762D01*
X53759Y-41978D01*
X53842Y-42178D01*
X53995Y-42331D01*
X54088Y-42370D01*
X53995Y-42409D01*
X53842Y-42562D01*
X53759Y-42762D01*
X53759Y-42978D01*
X53842Y-43178D01*
X53995Y-43331D01*
X54088Y-43370D01*
X53995Y-43409D01*
X53842Y-43562D01*
X53759Y-43762D01*
X53759Y-43978D01*
X53842Y-44178D01*
X53995Y-44331D01*
X54195Y-44414D01*
X54411Y-44414D01*
X54513Y-44371D01*
X54513Y-45363D01*
X54537Y-45486D01*
X54607Y-45589D01*
X59673Y-50656D01*
X59592Y-50656D01*
X59392Y-50739D01*
X59239Y-50892D01*
X59197Y-50992D01*
X59168Y-50921D01*
X59075Y-50896D01*
X59004Y-50967D01*
X59004Y-50825D01*
X58979Y-50732D01*
X58778Y-50660D01*
X58566Y-50672D01*
X58421Y-50732D01*
X58396Y-50825D01*
X58700Y-51129D01*
X59004Y-50825D01*
X59004Y-50967D01*
X58771Y-51200D01*
X59075Y-51504D01*
X59168Y-51479D01*
X59195Y-51402D01*
X59239Y-51508D01*
X59392Y-51661D01*
X59411Y-51669D01*
X58976Y-51669D01*
X58979Y-51668D01*
X59004Y-51575D01*
X58700Y-51271D01*
X58629Y-51342D01*
X58629Y-51200D01*
X58325Y-50896D01*
X58232Y-50921D01*
X58160Y-51122D01*
X58172Y-51334D01*
X58232Y-51479D01*
X58325Y-51504D01*
X58629Y-51200D01*
X58629Y-51342D01*
X58396Y-51575D01*
X58421Y-51668D01*
X58423Y-51669D01*
X44618Y-51669D01*
X44866Y-51422D01*
X45026Y-51037D01*
X45026Y-50619D01*
X44866Y-50233D01*
X44571Y-49937D01*
X44186Y-49777D01*
X43768Y-49777D01*
X43477Y-49897D01*
X43477Y-49010D01*
X43477Y-48629D01*
X43331Y-48277D01*
X43062Y-48008D01*
X42711Y-47862D01*
X42330Y-47862D01*
X41978Y-48008D01*
X41709Y-48277D01*
X41563Y-48628D01*
X41563Y-49009D01*
X41709Y-49361D01*
X41978Y-49630D01*
X42329Y-49776D01*
X42710Y-49776D01*
X43062Y-49630D01*
X43331Y-49361D01*
X43477Y-49010D01*
X43477Y-49897D01*
X43382Y-49937D01*
X43086Y-50232D01*
X42926Y-50617D01*
X42926Y-51035D01*
X43086Y-51421D01*
X43333Y-51669D01*
X42296Y-51669D01*
X42296Y-50860D01*
X42296Y-50479D01*
X42150Y-50127D01*
X41881Y-49858D01*
X41530Y-49712D01*
X41149Y-49712D01*
X41099Y-49732D01*
X41099Y-48994D01*
X41095Y-48620D01*
X40961Y-48298D01*
X40826Y-48222D01*
X40755Y-48293D01*
X40755Y-48151D01*
X40679Y-48016D01*
X40333Y-47878D01*
X39959Y-47882D01*
X39637Y-48016D01*
X39561Y-48151D01*
X40158Y-48748D01*
X40755Y-48151D01*
X40755Y-48293D01*
X40229Y-48819D01*
X40826Y-49416D01*
X40961Y-49340D01*
X41099Y-48994D01*
X41099Y-49732D01*
X40797Y-49858D01*
X40755Y-49900D01*
X40755Y-49487D01*
X40158Y-48890D01*
X39561Y-49487D01*
X39637Y-49622D01*
X39983Y-49760D01*
X40357Y-49756D01*
X40679Y-49622D01*
X40755Y-49487D01*
X40755Y-49900D01*
X40528Y-50127D01*
X40382Y-50478D01*
X40382Y-50859D01*
X40528Y-51211D01*
X40797Y-51480D01*
X41148Y-51626D01*
X41529Y-51626D01*
X41881Y-51480D01*
X42150Y-51211D01*
X42296Y-50860D01*
X42296Y-51669D01*
X39276Y-51669D01*
X39276Y-49150D01*
X39355Y-49340D01*
X39490Y-49416D01*
X40087Y-48819D01*
X39490Y-48222D01*
X39355Y-48298D01*
X39276Y-48496D01*
X39276Y-31009D01*
X43844Y-31009D01*
X43598Y-31255D01*
X43438Y-31640D01*
X43438Y-32058D01*
X43598Y-32444D01*
X43893Y-32740D01*
X44278Y-32900D01*
X44696Y-32900D01*
X45082Y-32740D01*
X45378Y-32445D01*
X45538Y-32060D01*
X45538Y-31642D01*
X45378Y-31256D01*
X45131Y-31009D01*
X68796Y-31009D01*
X68796Y-31009D01*
G37*
G54D22*
X68796Y-31009D02*
X68784Y-31014D01*
X68714Y-31084D01*
X68676Y-31175D01*
X68676Y-31180D01*
X63539Y-31180D01*
X63417Y-31204D01*
X63382Y-31227D01*
X63312Y-31274D01*
X62514Y-32071D01*
X62508Y-31953D01*
X62448Y-31806D01*
X62354Y-31779D01*
X62284Y-31849D01*
X62284Y-31709D01*
X62257Y-31615D01*
X62055Y-31544D01*
X61842Y-31555D01*
X61695Y-31615D01*
X61668Y-31709D01*
X61976Y-32016D01*
X62284Y-31709D01*
X62284Y-31849D01*
X62047Y-32087D01*
X61976Y-32158D01*
X61905Y-32228D01*
X61905Y-32087D01*
X61598Y-31779D01*
X61504Y-31806D01*
X61433Y-32008D01*
X61444Y-32221D01*
X61504Y-32368D01*
X61598Y-32395D01*
X61905Y-32087D01*
X61905Y-32228D01*
X61668Y-32465D01*
X61695Y-32559D01*
X61897Y-32630D01*
X61959Y-32626D01*
X57067Y-37519D01*
X57075Y-37502D01*
X57075Y-37286D01*
X56992Y-37086D01*
X56839Y-36933D01*
X56745Y-36894D01*
X56839Y-36855D01*
X56992Y-36702D01*
X57075Y-36502D01*
X57075Y-36286D01*
X56992Y-36086D01*
X56839Y-35933D01*
X56651Y-35854D01*
X56651Y-31937D01*
X56651Y-31838D01*
X56651Y-31238D01*
X56613Y-31146D01*
X56543Y-31076D01*
X56452Y-31038D01*
X56353Y-31038D01*
X55753Y-31038D01*
X55661Y-31076D01*
X55591Y-31146D01*
X55553Y-31237D01*
X55553Y-31336D01*
X55553Y-31936D01*
X55591Y-32028D01*
X55661Y-32098D01*
X55752Y-32136D01*
X55814Y-32136D01*
X55794Y-32209D01*
X56102Y-32516D01*
X56410Y-32209D01*
X56389Y-32136D01*
X56451Y-32136D01*
X56543Y-32098D01*
X56613Y-32028D01*
X56651Y-31937D01*
X56651Y-35854D01*
X56645Y-35852D01*
X56645Y-32666D01*
X56634Y-32453D01*
X56574Y-32306D01*
X56480Y-32279D01*
X56173Y-32587D01*
X56480Y-32895D01*
X56574Y-32868D01*
X56645Y-32666D01*
X56645Y-35852D01*
X56639Y-35850D01*
X56423Y-35850D01*
X56410Y-35855D01*
X56410Y-32965D01*
X56102Y-32658D01*
X56031Y-32728D01*
X56031Y-32587D01*
X55724Y-32279D01*
X55630Y-32306D01*
X55559Y-32508D01*
X55570Y-32721D01*
X55630Y-32868D01*
X55724Y-32895D01*
X56031Y-32587D01*
X56031Y-32728D01*
X55794Y-32965D01*
X55821Y-33059D01*
X56023Y-33130D01*
X56236Y-33119D01*
X56383Y-33059D01*
X56410Y-32965D01*
X56410Y-35855D01*
X56223Y-35933D01*
X56070Y-36086D01*
X55987Y-36286D01*
X55987Y-36502D01*
X56070Y-36702D01*
X56223Y-36855D01*
X56316Y-36894D01*
X56223Y-36933D01*
X56070Y-37086D01*
X55987Y-37286D01*
X55987Y-37502D01*
X56058Y-37675D01*
X55104Y-38631D01*
X55034Y-38734D01*
X55010Y-38857D01*
X55010Y-40405D01*
X54790Y-40624D01*
X54764Y-40562D01*
X54611Y-40409D01*
X54517Y-40370D01*
X54611Y-40331D01*
X54764Y-40178D01*
X54847Y-39978D01*
X54847Y-39762D01*
X54764Y-39562D01*
X54611Y-39409D01*
X54517Y-39370D01*
X54611Y-39331D01*
X54764Y-39178D01*
X54847Y-38978D01*
X54847Y-38762D01*
X54847Y-36978D01*
X54847Y-36762D01*
X54764Y-36562D01*
X54611Y-36409D01*
X54517Y-36370D01*
X54611Y-36331D01*
X54764Y-36178D01*
X54847Y-35978D01*
X54847Y-35762D01*
X54764Y-35562D01*
X54611Y-35409D01*
X54517Y-35370D01*
X54611Y-35331D01*
X54764Y-35178D01*
X54847Y-34978D01*
X54847Y-34762D01*
X54764Y-34562D01*
X54611Y-34409D01*
X54411Y-34326D01*
X54195Y-34326D01*
X53995Y-34409D01*
X53842Y-34562D01*
X53759Y-34762D01*
X53759Y-34978D01*
X53842Y-35178D01*
X53995Y-35331D01*
X54088Y-35370D01*
X53995Y-35409D01*
X53842Y-35562D01*
X53759Y-35762D01*
X53759Y-35978D01*
X53842Y-36178D01*
X53995Y-36331D01*
X54088Y-36370D01*
X53995Y-36409D01*
X53842Y-36562D01*
X53759Y-36762D01*
X53759Y-36978D01*
X53842Y-37178D01*
X53995Y-37331D01*
X54095Y-37372D01*
X54024Y-37402D01*
X53999Y-37495D01*
X54303Y-37799D01*
X54607Y-37495D01*
X54582Y-37402D01*
X54505Y-37374D01*
X54611Y-37331D01*
X54764Y-37178D01*
X54847Y-36978D01*
X54847Y-38762D01*
X54843Y-38752D01*
X54843Y-37948D01*
X54831Y-37736D01*
X54771Y-37591D01*
X54678Y-37566D01*
X54374Y-37870D01*
X54678Y-38174D01*
X54771Y-38149D01*
X54843Y-37948D01*
X54843Y-38752D01*
X54764Y-38562D01*
X54611Y-38409D01*
X54510Y-38367D01*
X54582Y-38338D01*
X54607Y-38245D01*
X54303Y-37941D01*
X54232Y-38012D01*
X54232Y-37870D01*
X53928Y-37566D01*
X53835Y-37591D01*
X53763Y-37792D01*
X53775Y-38004D01*
X53835Y-38149D01*
X53928Y-38174D01*
X54232Y-37870D01*
X54232Y-38012D01*
X53999Y-38245D01*
X54024Y-38338D01*
X54100Y-38365D01*
X53995Y-38409D01*
X53842Y-38562D01*
X53759Y-38762D01*
X53759Y-38978D01*
X53842Y-39178D01*
X53995Y-39331D01*
X54088Y-39370D01*
X53995Y-39409D01*
X53842Y-39562D01*
X53759Y-39762D01*
X53759Y-39978D01*
X53842Y-40178D01*
X53995Y-40331D01*
X54088Y-40370D01*
X53995Y-40409D01*
X53842Y-40562D01*
X53759Y-40762D01*
X53759Y-40978D01*
X53788Y-41050D01*
X53315Y-41050D01*
X53192Y-41074D01*
X53089Y-41144D01*
X46253Y-47979D01*
X46253Y-47132D01*
X46253Y-46900D01*
X46164Y-46685D01*
X46000Y-46521D01*
X45785Y-46432D01*
X45553Y-46432D01*
X45338Y-46521D01*
X45174Y-46685D01*
X45085Y-46900D01*
X45085Y-47132D01*
X45174Y-47347D01*
X45338Y-47511D01*
X45366Y-47522D01*
X45337Y-47614D01*
X45669Y-47945D01*
X46001Y-47614D01*
X45971Y-47522D01*
X46000Y-47511D01*
X46164Y-47347D01*
X46253Y-47132D01*
X46253Y-47979D01*
X46240Y-47992D01*
X46235Y-47876D01*
X46168Y-47715D01*
X46071Y-47684D01*
X45740Y-48016D01*
X45669Y-48087D01*
X45598Y-48157D01*
X45598Y-48016D01*
X45267Y-47684D01*
X45170Y-47715D01*
X45093Y-47929D01*
X45103Y-48156D01*
X45170Y-48317D01*
X45267Y-48348D01*
X45598Y-48016D01*
X45598Y-48157D01*
X45337Y-48418D01*
X45366Y-48509D01*
X45338Y-48521D01*
X45174Y-48685D01*
X45085Y-48900D01*
X45085Y-49132D01*
X45174Y-49347D01*
X45338Y-49511D01*
X45553Y-49600D01*
X45785Y-49600D01*
X46000Y-49511D01*
X46164Y-49347D01*
X46253Y-49132D01*
X46253Y-48900D01*
X46248Y-48888D01*
X53447Y-41690D01*
X53788Y-41690D01*
X53759Y-41762D01*
X53759Y-41978D01*
X53842Y-42178D01*
X53995Y-42331D01*
X54088Y-42370D01*
X53995Y-42409D01*
X53842Y-42562D01*
X53759Y-42762D01*
X53759Y-42978D01*
X53842Y-43178D01*
X53995Y-43331D01*
X54088Y-43370D01*
X53995Y-43409D01*
X53842Y-43562D01*
X53759Y-43762D01*
X53759Y-43978D01*
X53842Y-44178D01*
X53995Y-44331D01*
X54195Y-44414D01*
X54411Y-44414D01*
X54513Y-44371D01*
X54513Y-45363D01*
X54537Y-45486D01*
X54607Y-45589D01*
X59673Y-50656D01*
X59592Y-50656D01*
X59392Y-50739D01*
X59239Y-50892D01*
X59197Y-50992D01*
X59168Y-50921D01*
X59075Y-50896D01*
X59004Y-50967D01*
X59004Y-50825D01*
X58979Y-50732D01*
X58778Y-50660D01*
X58566Y-50672D01*
X58421Y-50732D01*
X58396Y-50825D01*
X58700Y-51129D01*
X59004Y-50825D01*
X59004Y-50967D01*
X58771Y-51200D01*
X59075Y-51504D01*
X59168Y-51479D01*
X59195Y-51402D01*
X59239Y-51508D01*
X59392Y-51661D01*
X59411Y-51669D01*
X58976Y-51669D01*
X58979Y-51668D01*
X59004Y-51575D01*
X58700Y-51271D01*
X58629Y-51342D01*
X58629Y-51200D01*
X58325Y-50896D01*
X58232Y-50921D01*
X58160Y-51122D01*
X58172Y-51334D01*
X58232Y-51479D01*
X58325Y-51504D01*
X58629Y-51200D01*
X58629Y-51342D01*
X58396Y-51575D01*
X58421Y-51668D01*
X58423Y-51669D01*
X44618Y-51669D01*
X44866Y-51422D01*
X45026Y-51037D01*
X45026Y-50619D01*
X44866Y-50233D01*
X44571Y-49937D01*
X44186Y-49777D01*
X43768Y-49777D01*
X43477Y-49897D01*
X43477Y-49010D01*
X43477Y-48629D01*
X43331Y-48277D01*
X43062Y-48008D01*
X42711Y-47862D01*
X42330Y-47862D01*
X41978Y-48008D01*
X41709Y-48277D01*
X41563Y-48628D01*
X41563Y-49009D01*
X41709Y-49361D01*
X41978Y-49630D01*
X42329Y-49776D01*
X42710Y-49776D01*
X43062Y-49630D01*
X43331Y-49361D01*
X43477Y-49010D01*
X43477Y-49897D01*
X43382Y-49937D01*
X43086Y-50232D01*
X42926Y-50617D01*
X42926Y-51035D01*
X43086Y-51421D01*
X43333Y-51669D01*
X42296Y-51669D01*
X42296Y-50860D01*
X42296Y-50479D01*
X42150Y-50127D01*
X41881Y-49858D01*
X41530Y-49712D01*
X41149Y-49712D01*
X41099Y-49732D01*
X41099Y-48994D01*
X41095Y-48620D01*
X40961Y-48298D01*
X40826Y-48222D01*
X40755Y-48293D01*
X40755Y-48151D01*
X40679Y-48016D01*
X40333Y-47878D01*
X39959Y-47882D01*
X39637Y-48016D01*
X39561Y-48151D01*
X40158Y-48748D01*
X40755Y-48151D01*
X40755Y-48293D01*
X40229Y-48819D01*
X40826Y-49416D01*
X40961Y-49340D01*
X41099Y-48994D01*
X41099Y-49732D01*
X40797Y-49858D01*
X40755Y-49900D01*
X40755Y-49487D01*
X40158Y-48890D01*
X39561Y-49487D01*
X39637Y-49622D01*
X39983Y-49760D01*
X40357Y-49756D01*
X40679Y-49622D01*
X40755Y-49487D01*
X40755Y-49900D01*
X40528Y-50127D01*
X40382Y-50478D01*
X40382Y-50859D01*
X40528Y-51211D01*
X40797Y-51480D01*
X41148Y-51626D01*
X41529Y-51626D01*
X41881Y-51480D01*
X42150Y-51211D01*
X42296Y-50860D01*
X42296Y-51669D01*
X39276Y-51669D01*
X39276Y-49150D01*
X39355Y-49340D01*
X39490Y-49416D01*
X40087Y-48819D01*
X39490Y-48222D01*
X39355Y-48298D01*
X39276Y-48496D01*
X39276Y-31009D01*
X43844Y-31009D01*
X43598Y-31255D01*
X43438Y-31640D01*
X43438Y-32058D01*
X43598Y-32444D01*
X43893Y-32740D01*
X44278Y-32900D01*
X44696Y-32900D01*
X45082Y-32740D01*
X45378Y-32445D01*
X45538Y-32060D01*
X45538Y-31642D01*
X45378Y-31256D01*
X45131Y-31009D01*
X68796Y-31009D01*
G54D10*
G36*
X70422Y-32285D02*
X70411Y-32259D01*
X70341Y-32189D01*
X70250Y-32151D01*
X70151Y-32151D01*
X69551Y-32151D01*
X69459Y-32189D01*
X69389Y-32259D01*
X69351Y-32350D01*
X69351Y-32375D01*
X69211Y-32235D01*
X69009Y-32151D01*
X68791Y-32151D01*
X68589Y-32235D01*
X68449Y-32375D01*
X68449Y-32351D01*
X68411Y-32259D01*
X68341Y-32189D01*
X68250Y-32151D01*
X68151Y-32151D01*
X67551Y-32151D01*
X67459Y-32189D01*
X67389Y-32259D01*
X67351Y-32350D01*
X67351Y-32449D01*
X67351Y-32867D01*
X67305Y-32877D01*
X67303Y-32877D01*
X67303Y-32878D01*
X67200Y-32947D01*
X58474Y-41674D01*
X58404Y-41777D01*
X58380Y-41900D01*
X58380Y-44751D01*
X58287Y-44844D01*
X58287Y-41188D01*
X58359Y-41260D01*
X58515Y-41325D01*
X58684Y-41325D01*
X58840Y-41261D01*
X58960Y-41141D01*
X59025Y-40985D01*
X59025Y-40926D01*
X65126Y-34825D01*
X65184Y-34825D01*
X65340Y-34761D01*
X65460Y-34641D01*
X65525Y-34485D01*
X65525Y-34316D01*
X65461Y-34160D01*
X65341Y-34040D01*
X65185Y-33975D01*
X65016Y-33975D01*
X64860Y-34039D01*
X64740Y-34159D01*
X64675Y-34315D01*
X64675Y-34373D01*
X58573Y-40475D01*
X58516Y-40475D01*
X58360Y-40539D01*
X58287Y-40612D01*
X58287Y-40228D01*
X65879Y-32636D01*
X66085Y-32636D01*
X66287Y-32552D01*
X66441Y-32398D01*
X66525Y-32196D01*
X66525Y-31978D01*
X66459Y-31820D01*
X68676Y-31820D01*
X68676Y-31824D01*
X68714Y-31916D01*
X68784Y-31986D01*
X68875Y-32024D01*
X68974Y-32024D01*
X69524Y-32024D01*
X69616Y-31986D01*
X69686Y-31916D01*
X69724Y-31825D01*
X69724Y-31726D01*
X69724Y-31708D01*
X69748Y-31767D01*
X69839Y-31790D01*
X70129Y-31500D01*
X69839Y-31210D01*
X69748Y-31233D01*
X69724Y-31302D01*
X69724Y-31176D01*
X69686Y-31084D01*
X69616Y-31014D01*
X69604Y-31009D01*
X70028Y-31009D01*
X69933Y-31048D01*
X69910Y-31139D01*
X70165Y-31394D01*
X70200Y-31429D01*
X70271Y-31500D01*
X70200Y-31571D01*
X70165Y-31606D01*
X69910Y-31861D01*
X69933Y-31952D01*
X70126Y-32019D01*
X70330Y-32008D01*
X70422Y-31970D01*
X70422Y-32285D01*
X70422Y-32285D01*
G37*
G54D22*
X70422Y-32285D02*
X70411Y-32259D01*
X70341Y-32189D01*
X70250Y-32151D01*
X70151Y-32151D01*
X69551Y-32151D01*
X69459Y-32189D01*
X69389Y-32259D01*
X69351Y-32350D01*
X69351Y-32375D01*
X69211Y-32235D01*
X69009Y-32151D01*
X68791Y-32151D01*
X68589Y-32235D01*
X68449Y-32375D01*
X68449Y-32351D01*
X68411Y-32259D01*
X68341Y-32189D01*
X68250Y-32151D01*
X68151Y-32151D01*
X67551Y-32151D01*
X67459Y-32189D01*
X67389Y-32259D01*
X67351Y-32350D01*
X67351Y-32449D01*
X67351Y-32867D01*
X67305Y-32877D01*
X67303Y-32877D01*
X67303Y-32878D01*
X67200Y-32947D01*
X58474Y-41674D01*
X58404Y-41777D01*
X58380Y-41900D01*
X58380Y-44751D01*
X58287Y-44844D01*
X58287Y-41188D01*
X58359Y-41260D01*
X58515Y-41325D01*
X58684Y-41325D01*
X58840Y-41261D01*
X58960Y-41141D01*
X59025Y-40985D01*
X59025Y-40926D01*
X65126Y-34825D01*
X65184Y-34825D01*
X65340Y-34761D01*
X65460Y-34641D01*
X65525Y-34485D01*
X65525Y-34316D01*
X65461Y-34160D01*
X65341Y-34040D01*
X65185Y-33975D01*
X65016Y-33975D01*
X64860Y-34039D01*
X64740Y-34159D01*
X64675Y-34315D01*
X64675Y-34373D01*
X58573Y-40475D01*
X58516Y-40475D01*
X58360Y-40539D01*
X58287Y-40612D01*
X58287Y-40228D01*
X65879Y-32636D01*
X66085Y-32636D01*
X66287Y-32552D01*
X66441Y-32398D01*
X66525Y-32196D01*
X66525Y-31978D01*
X66459Y-31820D01*
X68676Y-31820D01*
X68676Y-31824D01*
X68714Y-31916D01*
X68784Y-31986D01*
X68875Y-32024D01*
X68974Y-32024D01*
X69524Y-32024D01*
X69616Y-31986D01*
X69686Y-31916D01*
X69724Y-31825D01*
X69724Y-31726D01*
X69724Y-31708D01*
X69748Y-31767D01*
X69839Y-31790D01*
X70129Y-31500D01*
X69839Y-31210D01*
X69748Y-31233D01*
X69724Y-31302D01*
X69724Y-31176D01*
X69686Y-31084D01*
X69616Y-31014D01*
X69604Y-31009D01*
X70028Y-31009D01*
X69933Y-31048D01*
X69910Y-31139D01*
X70165Y-31394D01*
X70200Y-31429D01*
X70271Y-31500D01*
X70200Y-31571D01*
X70165Y-31606D01*
X69910Y-31861D01*
X69933Y-31952D01*
X70126Y-32019D01*
X70330Y-32008D01*
X70422Y-31970D01*
X70422Y-32285D01*
G54D10*
G36*
X71604Y-37544D02*
X71449Y-37699D01*
X71449Y-37591D01*
X71365Y-37389D01*
X71211Y-37235D01*
X71126Y-37200D01*
X71211Y-37165D01*
X71365Y-37011D01*
X71449Y-36809D01*
X71449Y-36591D01*
X71365Y-36389D01*
X71211Y-36235D01*
X71126Y-36200D01*
X71211Y-36165D01*
X71365Y-36011D01*
X71449Y-35809D01*
X71449Y-35591D01*
X71443Y-35576D01*
X71443Y-34779D01*
X71432Y-34566D01*
X71372Y-34419D01*
X71278Y-34392D01*
X70971Y-34700D01*
X71278Y-35008D01*
X71372Y-34981D01*
X71443Y-34779D01*
X71443Y-35576D01*
X71365Y-35389D01*
X71211Y-35235D01*
X71119Y-35197D01*
X71181Y-35172D01*
X71208Y-35078D01*
X70900Y-34771D01*
X70829Y-34841D01*
X70829Y-34700D01*
X70522Y-34392D01*
X70428Y-34419D01*
X70402Y-34492D01*
X70372Y-34419D01*
X70278Y-34392D01*
X69971Y-34700D01*
X70278Y-35008D01*
X70372Y-34981D01*
X70397Y-34907D01*
X70428Y-34981D01*
X70522Y-35008D01*
X70829Y-34700D01*
X70829Y-34841D01*
X70592Y-35078D01*
X70619Y-35172D01*
X70684Y-35195D01*
X70589Y-35235D01*
X70444Y-35380D01*
X70356Y-35380D01*
X70211Y-35235D01*
X70119Y-35197D01*
X70181Y-35172D01*
X70208Y-35078D01*
X69900Y-34771D01*
X69829Y-34841D01*
X69829Y-34700D01*
X69522Y-34392D01*
X69428Y-34419D01*
X69402Y-34492D01*
X69372Y-34419D01*
X69278Y-34392D01*
X68971Y-34700D01*
X69278Y-35008D01*
X69372Y-34981D01*
X69397Y-34907D01*
X69428Y-34981D01*
X69522Y-35008D01*
X69829Y-34700D01*
X69829Y-34841D01*
X69592Y-35078D01*
X69619Y-35172D01*
X69684Y-35195D01*
X69589Y-35235D01*
X69435Y-35389D01*
X69400Y-35473D01*
X69365Y-35389D01*
X69211Y-35235D01*
X69119Y-35197D01*
X69181Y-35172D01*
X69208Y-35078D01*
X68935Y-34806D01*
X68900Y-34771D01*
X68829Y-34700D01*
X68900Y-34629D01*
X68935Y-34594D01*
X69208Y-34322D01*
X69181Y-34228D01*
X69115Y-34204D01*
X69211Y-34165D01*
X69365Y-34011D01*
X69400Y-33926D01*
X69435Y-34011D01*
X69589Y-34165D01*
X69680Y-34202D01*
X69619Y-34228D01*
X69592Y-34322D01*
X69900Y-34629D01*
X70208Y-34322D01*
X70181Y-34228D01*
X70115Y-34204D01*
X70211Y-34165D01*
X70365Y-34011D01*
X70400Y-33926D01*
X70435Y-34011D01*
X70589Y-34165D01*
X70680Y-34202D01*
X70619Y-34228D01*
X70592Y-34322D01*
X70900Y-34629D01*
X71208Y-34322D01*
X71181Y-34228D01*
X71115Y-34204D01*
X71211Y-34165D01*
X71365Y-34011D01*
X71449Y-33809D01*
X71449Y-33701D01*
X71604Y-33856D01*
X71604Y-37544D01*
X71604Y-37544D01*
G37*
G54D22*
X71604Y-37544D02*
X71449Y-37699D01*
X71449Y-37591D01*
X71365Y-37389D01*
X71211Y-37235D01*
X71126Y-37200D01*
X71211Y-37165D01*
X71365Y-37011D01*
X71449Y-36809D01*
X71449Y-36591D01*
X71365Y-36389D01*
X71211Y-36235D01*
X71126Y-36200D01*
X71211Y-36165D01*
X71365Y-36011D01*
X71449Y-35809D01*
X71449Y-35591D01*
X71443Y-35576D01*
X71443Y-34779D01*
X71432Y-34566D01*
X71372Y-34419D01*
X71278Y-34392D01*
X70971Y-34700D01*
X71278Y-35008D01*
X71372Y-34981D01*
X71443Y-34779D01*
X71443Y-35576D01*
X71365Y-35389D01*
X71211Y-35235D01*
X71119Y-35197D01*
X71181Y-35172D01*
X71208Y-35078D01*
X70900Y-34771D01*
X70829Y-34841D01*
X70829Y-34700D01*
X70522Y-34392D01*
X70428Y-34419D01*
X70402Y-34492D01*
X70372Y-34419D01*
X70278Y-34392D01*
X69971Y-34700D01*
X70278Y-35008D01*
X70372Y-34981D01*
X70397Y-34907D01*
X70428Y-34981D01*
X70522Y-35008D01*
X70829Y-34700D01*
X70829Y-34841D01*
X70592Y-35078D01*
X70619Y-35172D01*
X70684Y-35195D01*
X70589Y-35235D01*
X70444Y-35380D01*
X70356Y-35380D01*
X70211Y-35235D01*
X70119Y-35197D01*
X70181Y-35172D01*
X70208Y-35078D01*
X69900Y-34771D01*
X69829Y-34841D01*
X69829Y-34700D01*
X69522Y-34392D01*
X69428Y-34419D01*
X69402Y-34492D01*
X69372Y-34419D01*
X69278Y-34392D01*
X68971Y-34700D01*
X69278Y-35008D01*
X69372Y-34981D01*
X69397Y-34907D01*
X69428Y-34981D01*
X69522Y-35008D01*
X69829Y-34700D01*
X69829Y-34841D01*
X69592Y-35078D01*
X69619Y-35172D01*
X69684Y-35195D01*
X69589Y-35235D01*
X69435Y-35389D01*
X69400Y-35473D01*
X69365Y-35389D01*
X69211Y-35235D01*
X69119Y-35197D01*
X69181Y-35172D01*
X69208Y-35078D01*
X68935Y-34806D01*
X68900Y-34771D01*
X68829Y-34700D01*
X68900Y-34629D01*
X68935Y-34594D01*
X69208Y-34322D01*
X69181Y-34228D01*
X69115Y-34204D01*
X69211Y-34165D01*
X69365Y-34011D01*
X69400Y-33926D01*
X69435Y-34011D01*
X69589Y-34165D01*
X69680Y-34202D01*
X69619Y-34228D01*
X69592Y-34322D01*
X69900Y-34629D01*
X70208Y-34322D01*
X70181Y-34228D01*
X70115Y-34204D01*
X70211Y-34165D01*
X70365Y-34011D01*
X70400Y-33926D01*
X70435Y-34011D01*
X70589Y-34165D01*
X70680Y-34202D01*
X70619Y-34228D01*
X70592Y-34322D01*
X70900Y-34629D01*
X71208Y-34322D01*
X71181Y-34228D01*
X71115Y-34204D01*
X71211Y-34165D01*
X71365Y-34011D01*
X71449Y-33809D01*
X71449Y-33701D01*
X71604Y-33856D01*
X71604Y-37544D01*
G54D10*
G36*
X77509Y-50568D02*
X77386Y-50272D01*
X77136Y-50021D01*
X77136Y-47478D01*
X77124Y-47266D01*
X77064Y-47121D01*
X76971Y-47096D01*
X76900Y-47167D01*
X76900Y-47025D01*
X76875Y-46932D01*
X76674Y-46860D01*
X76462Y-46872D01*
X76317Y-46932D01*
X76292Y-47025D01*
X76596Y-47329D01*
X76900Y-47025D01*
X76900Y-47167D01*
X76667Y-47400D01*
X76971Y-47704D01*
X77064Y-47679D01*
X77136Y-47478D01*
X77136Y-50021D01*
X77091Y-49976D01*
X76900Y-49896D01*
X76900Y-47775D01*
X76596Y-47471D01*
X76525Y-47542D01*
X76525Y-47400D01*
X76221Y-47096D01*
X76128Y-47121D01*
X76056Y-47322D01*
X76068Y-47534D01*
X76128Y-47679D01*
X76221Y-47704D01*
X76525Y-47400D01*
X76525Y-47542D01*
X76292Y-47775D01*
X76317Y-47868D01*
X76518Y-47940D01*
X76730Y-47928D01*
X76875Y-47868D01*
X76900Y-47775D01*
X76900Y-49896D01*
X76706Y-49816D01*
X76288Y-49816D01*
X75902Y-49976D01*
X75606Y-50271D01*
X75446Y-50656D01*
X75446Y-51074D01*
X75606Y-51460D01*
X75814Y-51669D01*
X74148Y-51669D01*
X74148Y-47508D01*
X74148Y-47292D01*
X74065Y-47092D01*
X73912Y-46939D01*
X73712Y-46856D01*
X73496Y-46856D01*
X73296Y-46939D01*
X73143Y-47092D01*
X73060Y-47292D01*
X73060Y-47508D01*
X73143Y-47708D01*
X73296Y-47861D01*
X73496Y-47944D01*
X73712Y-47944D01*
X73912Y-47861D01*
X74065Y-47708D01*
X74148Y-47508D01*
X74148Y-51669D01*
X71988Y-51669D01*
X72008Y-51661D01*
X72161Y-51508D01*
X72244Y-51308D01*
X72244Y-51092D01*
X72161Y-50892D01*
X72008Y-50739D01*
X71914Y-50700D01*
X72008Y-50661D01*
X72161Y-50508D01*
X72244Y-50308D01*
X72244Y-50092D01*
X72161Y-49892D01*
X72008Y-49739D01*
X71914Y-49700D01*
X72008Y-49661D01*
X72161Y-49508D01*
X72244Y-49308D01*
X72244Y-49092D01*
X72161Y-48892D01*
X72008Y-48739D01*
X71914Y-48700D01*
X72008Y-48661D01*
X72161Y-48508D01*
X72244Y-48308D01*
X72244Y-48092D01*
X72161Y-47892D01*
X72008Y-47739D01*
X71914Y-47700D01*
X72008Y-47661D01*
X72161Y-47508D01*
X72244Y-47308D01*
X72244Y-47092D01*
X72161Y-46892D01*
X72008Y-46739D01*
X71914Y-46700D01*
X72008Y-46661D01*
X72161Y-46508D01*
X72244Y-46308D01*
X72244Y-46092D01*
X72161Y-45892D01*
X72008Y-45739D01*
X71914Y-45700D01*
X72008Y-45661D01*
X72161Y-45508D01*
X72244Y-45308D01*
X72244Y-45092D01*
X72161Y-44892D01*
X72020Y-44751D01*
X72020Y-44538D01*
X77509Y-44538D01*
X77509Y-50568D01*
X77509Y-50568D01*
G37*
G54D22*
X77509Y-50568D02*
X77386Y-50272D01*
X77136Y-50021D01*
X77136Y-47478D01*
X77124Y-47266D01*
X77064Y-47121D01*
X76971Y-47096D01*
X76900Y-47167D01*
X76900Y-47025D01*
X76875Y-46932D01*
X76674Y-46860D01*
X76462Y-46872D01*
X76317Y-46932D01*
X76292Y-47025D01*
X76596Y-47329D01*
X76900Y-47025D01*
X76900Y-47167D01*
X76667Y-47400D01*
X76971Y-47704D01*
X77064Y-47679D01*
X77136Y-47478D01*
X77136Y-50021D01*
X77091Y-49976D01*
X76900Y-49896D01*
X76900Y-47775D01*
X76596Y-47471D01*
X76525Y-47542D01*
X76525Y-47400D01*
X76221Y-47096D01*
X76128Y-47121D01*
X76056Y-47322D01*
X76068Y-47534D01*
X76128Y-47679D01*
X76221Y-47704D01*
X76525Y-47400D01*
X76525Y-47542D01*
X76292Y-47775D01*
X76317Y-47868D01*
X76518Y-47940D01*
X76730Y-47928D01*
X76875Y-47868D01*
X76900Y-47775D01*
X76900Y-49896D01*
X76706Y-49816D01*
X76288Y-49816D01*
X75902Y-49976D01*
X75606Y-50271D01*
X75446Y-50656D01*
X75446Y-51074D01*
X75606Y-51460D01*
X75814Y-51669D01*
X74148Y-51669D01*
X74148Y-47508D01*
X74148Y-47292D01*
X74065Y-47092D01*
X73912Y-46939D01*
X73712Y-46856D01*
X73496Y-46856D01*
X73296Y-46939D01*
X73143Y-47092D01*
X73060Y-47292D01*
X73060Y-47508D01*
X73143Y-47708D01*
X73296Y-47861D01*
X73496Y-47944D01*
X73712Y-47944D01*
X73912Y-47861D01*
X74065Y-47708D01*
X74148Y-47508D01*
X74148Y-51669D01*
X71988Y-51669D01*
X72008Y-51661D01*
X72161Y-51508D01*
X72244Y-51308D01*
X72244Y-51092D01*
X72161Y-50892D01*
X72008Y-50739D01*
X71914Y-50700D01*
X72008Y-50661D01*
X72161Y-50508D01*
X72244Y-50308D01*
X72244Y-50092D01*
X72161Y-49892D01*
X72008Y-49739D01*
X71914Y-49700D01*
X72008Y-49661D01*
X72161Y-49508D01*
X72244Y-49308D01*
X72244Y-49092D01*
X72161Y-48892D01*
X72008Y-48739D01*
X71914Y-48700D01*
X72008Y-48661D01*
X72161Y-48508D01*
X72244Y-48308D01*
X72244Y-48092D01*
X72161Y-47892D01*
X72008Y-47739D01*
X71914Y-47700D01*
X72008Y-47661D01*
X72161Y-47508D01*
X72244Y-47308D01*
X72244Y-47092D01*
X72161Y-46892D01*
X72008Y-46739D01*
X71914Y-46700D01*
X72008Y-46661D01*
X72161Y-46508D01*
X72244Y-46308D01*
X72244Y-46092D01*
X72161Y-45892D01*
X72008Y-45739D01*
X71914Y-45700D01*
X72008Y-45661D01*
X72161Y-45508D01*
X72244Y-45308D01*
X72244Y-45092D01*
X72161Y-44892D01*
X72020Y-44751D01*
X72020Y-44538D01*
X77509Y-44538D01*
X77509Y-50568D01*
G54D10*
G36*
X73950Y-35650D02*
X73850Y-35650D01*
X73850Y-35550D01*
X73950Y-35550D01*
X73950Y-35650D01*
X73950Y-35650D01*
G37*
G54D22*
X73950Y-35650D02*
X73850Y-35650D01*
X73850Y-35550D01*
X73950Y-35550D01*
X73950Y-35650D01*
G54D10*
G36*
X78046Y-40033D02*
X77943Y-39930D01*
X77943Y-39179D01*
X77932Y-38966D01*
X77872Y-38819D01*
X77778Y-38792D01*
X77471Y-39100D01*
X77778Y-39408D01*
X77872Y-39381D01*
X77943Y-39179D01*
X77943Y-39930D01*
X77902Y-39889D01*
X77700Y-39805D01*
X77494Y-39805D01*
X77331Y-39642D01*
X77534Y-39632D01*
X77681Y-39572D01*
X77708Y-39478D01*
X77435Y-39206D01*
X77400Y-39171D01*
X77329Y-39100D01*
X77400Y-39029D01*
X77435Y-38994D01*
X77708Y-38722D01*
X77681Y-38628D01*
X77479Y-38557D01*
X77266Y-38568D01*
X77220Y-38586D01*
X77220Y-38022D01*
X77345Y-37898D01*
X77425Y-37705D01*
X77425Y-37527D01*
X78046Y-36906D01*
X78046Y-40033D01*
X78046Y-40033D01*
G37*
G54D22*
X78046Y-40033D02*
X77943Y-39930D01*
X77943Y-39179D01*
X77932Y-38966D01*
X77872Y-38819D01*
X77778Y-38792D01*
X77471Y-39100D01*
X77778Y-39408D01*
X77872Y-39381D01*
X77943Y-39179D01*
X77943Y-39930D01*
X77902Y-39889D01*
X77700Y-39805D01*
X77494Y-39805D01*
X77331Y-39642D01*
X77534Y-39632D01*
X77681Y-39572D01*
X77708Y-39478D01*
X77435Y-39206D01*
X77400Y-39171D01*
X77329Y-39100D01*
X77400Y-39029D01*
X77435Y-38994D01*
X77708Y-38722D01*
X77681Y-38628D01*
X77479Y-38557D01*
X77266Y-38568D01*
X77220Y-38586D01*
X77220Y-38022D01*
X77345Y-37898D01*
X77425Y-37705D01*
X77425Y-37527D01*
X78046Y-36906D01*
X78046Y-40033D01*
G54D10*
G36*
X78046Y-44044D02*
X74140Y-44044D01*
X74140Y-40463D01*
X74140Y-40245D01*
X74056Y-40043D01*
X73902Y-39889D01*
X73700Y-39805D01*
X73482Y-39805D01*
X73280Y-39889D01*
X73126Y-40043D01*
X73042Y-40245D01*
X73042Y-40463D01*
X73126Y-40665D01*
X73280Y-40819D01*
X73482Y-40903D01*
X73700Y-40903D01*
X73902Y-40819D01*
X74056Y-40665D01*
X74140Y-40463D01*
X74140Y-44044D01*
X72308Y-44044D01*
X72508Y-43961D01*
X72661Y-43808D01*
X72744Y-43608D01*
X72744Y-43392D01*
X72661Y-43192D01*
X72508Y-43039D01*
X72414Y-43000D01*
X72508Y-42961D01*
X72661Y-42808D01*
X72744Y-42608D01*
X72744Y-42392D01*
X72740Y-42382D01*
X72740Y-41578D01*
X72728Y-41366D01*
X72668Y-41221D01*
X72575Y-41196D01*
X72271Y-41500D01*
X72575Y-41804D01*
X72668Y-41779D01*
X72740Y-41578D01*
X72740Y-42382D01*
X72661Y-42192D01*
X72508Y-42039D01*
X72407Y-41997D01*
X72479Y-41968D01*
X72504Y-41875D01*
X72235Y-41606D01*
X72200Y-41571D01*
X72129Y-41500D01*
X72200Y-41429D01*
X72235Y-41394D01*
X72504Y-41125D01*
X72479Y-41032D01*
X72402Y-41004D01*
X72508Y-40961D01*
X72661Y-40808D01*
X72744Y-40608D01*
X72744Y-40392D01*
X72661Y-40192D01*
X72508Y-40039D01*
X72414Y-40000D01*
X72508Y-39961D01*
X72661Y-39808D01*
X72744Y-39608D01*
X72744Y-39392D01*
X72740Y-39382D01*
X72740Y-38578D01*
X72728Y-38366D01*
X72668Y-38221D01*
X72575Y-38196D01*
X72271Y-38500D01*
X72575Y-38804D01*
X72668Y-38779D01*
X72740Y-38578D01*
X72740Y-39382D01*
X72661Y-39192D01*
X72508Y-39039D01*
X72407Y-38997D01*
X72479Y-38968D01*
X72504Y-38875D01*
X72235Y-38606D01*
X72200Y-38571D01*
X72129Y-38500D01*
X72200Y-38429D01*
X72235Y-38394D01*
X72504Y-38125D01*
X72479Y-38032D01*
X72402Y-38004D01*
X72508Y-37961D01*
X72661Y-37808D01*
X72744Y-37608D01*
X72744Y-37392D01*
X72661Y-37192D01*
X72508Y-37039D01*
X72414Y-37000D01*
X72508Y-36961D01*
X72661Y-36808D01*
X72744Y-36608D01*
X72744Y-36392D01*
X72661Y-36192D01*
X72508Y-36039D01*
X72407Y-35997D01*
X72479Y-35968D01*
X72504Y-35875D01*
X72235Y-35606D01*
X72200Y-35571D01*
X72129Y-35500D01*
X72200Y-35429D01*
X72271Y-35500D01*
X72306Y-35535D01*
X72575Y-35804D01*
X72667Y-35779D01*
X73266Y-36378D01*
X73369Y-36447D01*
X73370Y-36448D01*
X73376Y-36449D01*
X73376Y-36924D01*
X73414Y-37016D01*
X73484Y-37086D01*
X73517Y-37100D01*
X73484Y-37114D01*
X73414Y-37184D01*
X73376Y-37275D01*
X73376Y-37374D01*
X73376Y-37924D01*
X73414Y-38016D01*
X73484Y-38086D01*
X73575Y-38124D01*
X73674Y-38124D01*
X73924Y-38124D01*
X73497Y-38551D01*
X73291Y-38551D01*
X73089Y-38635D01*
X72935Y-38789D01*
X72851Y-38991D01*
X72851Y-39209D01*
X72935Y-39411D01*
X73089Y-39565D01*
X73291Y-39649D01*
X73509Y-39649D01*
X73711Y-39565D01*
X73865Y-39411D01*
X73949Y-39209D01*
X73949Y-39003D01*
X74575Y-38377D01*
X74645Y-38274D01*
X74645Y-38273D01*
X74669Y-38151D01*
X74669Y-35169D01*
X74645Y-35047D01*
X74644Y-35046D01*
X74621Y-35012D01*
X74575Y-34943D01*
X74575Y-34942D01*
X74535Y-34903D01*
X74432Y-34833D01*
X74424Y-34831D01*
X74424Y-34826D01*
X74424Y-34276D01*
X74386Y-34184D01*
X74353Y-34151D01*
X76026Y-32478D01*
X76059Y-32511D01*
X76150Y-32549D01*
X76249Y-32549D01*
X76849Y-32549D01*
X76941Y-32511D01*
X77011Y-32441D01*
X77049Y-32350D01*
X77049Y-32305D01*
X77086Y-32297D01*
X77122Y-32308D01*
X77394Y-32035D01*
X77429Y-32000D01*
X77500Y-31929D01*
X77571Y-32000D01*
X77500Y-32071D01*
X77192Y-32378D01*
X77219Y-32472D01*
X77421Y-32543D01*
X77634Y-32532D01*
X77672Y-32516D01*
X77672Y-36375D01*
X77425Y-36621D01*
X77425Y-35705D01*
X77425Y-35496D01*
X77345Y-35303D01*
X77198Y-35155D01*
X77064Y-35099D01*
X77197Y-35045D01*
X77345Y-34898D01*
X77425Y-34705D01*
X77425Y-34496D01*
X77345Y-34303D01*
X77198Y-34155D01*
X77005Y-34075D01*
X76796Y-34075D01*
X76603Y-34155D01*
X76455Y-34302D01*
X76375Y-34495D01*
X76375Y-34704D01*
X76455Y-34897D01*
X76602Y-35045D01*
X76735Y-35100D01*
X76603Y-35155D01*
X76455Y-35302D01*
X76375Y-35495D01*
X76375Y-35704D01*
X76455Y-35897D01*
X76602Y-36045D01*
X76742Y-36103D01*
X76633Y-36148D01*
X76610Y-36239D01*
X76900Y-36529D01*
X77190Y-36239D01*
X77167Y-36148D01*
X77048Y-36106D01*
X77197Y-36045D01*
X77345Y-35898D01*
X77425Y-35705D01*
X77425Y-36621D01*
X77416Y-36630D01*
X77408Y-36470D01*
X77352Y-36333D01*
X77261Y-36310D01*
X77006Y-36565D01*
X76971Y-36600D01*
X76900Y-36671D01*
X76865Y-36706D01*
X76829Y-36742D01*
X76829Y-36600D01*
X76539Y-36310D01*
X76448Y-36333D01*
X76381Y-36526D01*
X76392Y-36730D01*
X76448Y-36867D01*
X76539Y-36890D01*
X76829Y-36600D01*
X76829Y-36742D01*
X76610Y-36961D01*
X76633Y-37052D01*
X76751Y-37093D01*
X76603Y-37155D01*
X76455Y-37302D01*
X76375Y-37495D01*
X76375Y-37704D01*
X76455Y-37897D01*
X76580Y-38022D01*
X76580Y-39663D01*
X76604Y-39786D01*
X76674Y-39889D01*
X77042Y-40257D01*
X77042Y-40463D01*
X77126Y-40665D01*
X77280Y-40819D01*
X77482Y-40903D01*
X77700Y-40903D01*
X77902Y-40819D01*
X78046Y-40675D01*
X78046Y-44044D01*
X78046Y-44044D01*
G37*
G54D22*
X78046Y-44044D02*
X74140Y-44044D01*
X74140Y-40463D01*
X74140Y-40245D01*
X74056Y-40043D01*
X73902Y-39889D01*
X73700Y-39805D01*
X73482Y-39805D01*
X73280Y-39889D01*
X73126Y-40043D01*
X73042Y-40245D01*
X73042Y-40463D01*
X73126Y-40665D01*
X73280Y-40819D01*
X73482Y-40903D01*
X73700Y-40903D01*
X73902Y-40819D01*
X74056Y-40665D01*
X74140Y-40463D01*
X74140Y-44044D01*
X72308Y-44044D01*
X72508Y-43961D01*
X72661Y-43808D01*
X72744Y-43608D01*
X72744Y-43392D01*
X72661Y-43192D01*
X72508Y-43039D01*
X72414Y-43000D01*
X72508Y-42961D01*
X72661Y-42808D01*
X72744Y-42608D01*
X72744Y-42392D01*
X72740Y-42382D01*
X72740Y-41578D01*
X72728Y-41366D01*
X72668Y-41221D01*
X72575Y-41196D01*
X72271Y-41500D01*
X72575Y-41804D01*
X72668Y-41779D01*
X72740Y-41578D01*
X72740Y-42382D01*
X72661Y-42192D01*
X72508Y-42039D01*
X72407Y-41997D01*
X72479Y-41968D01*
X72504Y-41875D01*
X72235Y-41606D01*
X72200Y-41571D01*
X72129Y-41500D01*
X72200Y-41429D01*
X72235Y-41394D01*
X72504Y-41125D01*
X72479Y-41032D01*
X72402Y-41004D01*
X72508Y-40961D01*
X72661Y-40808D01*
X72744Y-40608D01*
X72744Y-40392D01*
X72661Y-40192D01*
X72508Y-40039D01*
X72414Y-40000D01*
X72508Y-39961D01*
X72661Y-39808D01*
X72744Y-39608D01*
X72744Y-39392D01*
X72740Y-39382D01*
X72740Y-38578D01*
X72728Y-38366D01*
X72668Y-38221D01*
X72575Y-38196D01*
X72271Y-38500D01*
X72575Y-38804D01*
X72668Y-38779D01*
X72740Y-38578D01*
X72740Y-39382D01*
X72661Y-39192D01*
X72508Y-39039D01*
X72407Y-38997D01*
X72479Y-38968D01*
X72504Y-38875D01*
X72235Y-38606D01*
X72200Y-38571D01*
X72129Y-38500D01*
X72200Y-38429D01*
X72235Y-38394D01*
X72504Y-38125D01*
X72479Y-38032D01*
X72402Y-38004D01*
X72508Y-37961D01*
X72661Y-37808D01*
X72744Y-37608D01*
X72744Y-37392D01*
X72661Y-37192D01*
X72508Y-37039D01*
X72414Y-37000D01*
X72508Y-36961D01*
X72661Y-36808D01*
X72744Y-36608D01*
X72744Y-36392D01*
X72661Y-36192D01*
X72508Y-36039D01*
X72407Y-35997D01*
X72479Y-35968D01*
X72504Y-35875D01*
X72235Y-35606D01*
X72200Y-35571D01*
X72129Y-35500D01*
X72200Y-35429D01*
X72271Y-35500D01*
X72306Y-35535D01*
X72575Y-35804D01*
X72667Y-35779D01*
X73266Y-36378D01*
X73369Y-36447D01*
X73370Y-36448D01*
X73376Y-36449D01*
X73376Y-36924D01*
X73414Y-37016D01*
X73484Y-37086D01*
X73517Y-37100D01*
X73484Y-37114D01*
X73414Y-37184D01*
X73376Y-37275D01*
X73376Y-37374D01*
X73376Y-37924D01*
X73414Y-38016D01*
X73484Y-38086D01*
X73575Y-38124D01*
X73674Y-38124D01*
X73924Y-38124D01*
X73497Y-38551D01*
X73291Y-38551D01*
X73089Y-38635D01*
X72935Y-38789D01*
X72851Y-38991D01*
X72851Y-39209D01*
X72935Y-39411D01*
X73089Y-39565D01*
X73291Y-39649D01*
X73509Y-39649D01*
X73711Y-39565D01*
X73865Y-39411D01*
X73949Y-39209D01*
X73949Y-39003D01*
X74575Y-38377D01*
X74645Y-38274D01*
X74645Y-38273D01*
X74669Y-38151D01*
X74669Y-35169D01*
X74645Y-35047D01*
X74644Y-35046D01*
X74621Y-35012D01*
X74575Y-34943D01*
X74575Y-34942D01*
X74535Y-34903D01*
X74432Y-34833D01*
X74424Y-34831D01*
X74424Y-34826D01*
X74424Y-34276D01*
X74386Y-34184D01*
X74353Y-34151D01*
X76026Y-32478D01*
X76059Y-32511D01*
X76150Y-32549D01*
X76249Y-32549D01*
X76849Y-32549D01*
X76941Y-32511D01*
X77011Y-32441D01*
X77049Y-32350D01*
X77049Y-32305D01*
X77086Y-32297D01*
X77122Y-32308D01*
X77394Y-32035D01*
X77429Y-32000D01*
X77500Y-31929D01*
X77571Y-32000D01*
X77500Y-32071D01*
X77192Y-32378D01*
X77219Y-32472D01*
X77421Y-32543D01*
X77634Y-32532D01*
X77672Y-32516D01*
X77672Y-36375D01*
X77425Y-36621D01*
X77425Y-35705D01*
X77425Y-35496D01*
X77345Y-35303D01*
X77198Y-35155D01*
X77064Y-35099D01*
X77197Y-35045D01*
X77345Y-34898D01*
X77425Y-34705D01*
X77425Y-34496D01*
X77345Y-34303D01*
X77198Y-34155D01*
X77005Y-34075D01*
X76796Y-34075D01*
X76603Y-34155D01*
X76455Y-34302D01*
X76375Y-34495D01*
X76375Y-34704D01*
X76455Y-34897D01*
X76602Y-35045D01*
X76735Y-35100D01*
X76603Y-35155D01*
X76455Y-35302D01*
X76375Y-35495D01*
X76375Y-35704D01*
X76455Y-35897D01*
X76602Y-36045D01*
X76742Y-36103D01*
X76633Y-36148D01*
X76610Y-36239D01*
X76900Y-36529D01*
X77190Y-36239D01*
X77167Y-36148D01*
X77048Y-36106D01*
X77197Y-36045D01*
X77345Y-35898D01*
X77425Y-35705D01*
X77425Y-36621D01*
X77416Y-36630D01*
X77408Y-36470D01*
X77352Y-36333D01*
X77261Y-36310D01*
X77006Y-36565D01*
X76971Y-36600D01*
X76900Y-36671D01*
X76865Y-36706D01*
X76829Y-36742D01*
X76829Y-36600D01*
X76539Y-36310D01*
X76448Y-36333D01*
X76381Y-36526D01*
X76392Y-36730D01*
X76448Y-36867D01*
X76539Y-36890D01*
X76829Y-36600D01*
X76829Y-36742D01*
X76610Y-36961D01*
X76633Y-37052D01*
X76751Y-37093D01*
X76603Y-37155D01*
X76455Y-37302D01*
X76375Y-37495D01*
X76375Y-37704D01*
X76455Y-37897D01*
X76580Y-38022D01*
X76580Y-39663D01*
X76604Y-39786D01*
X76674Y-39889D01*
X77042Y-40257D01*
X77042Y-40463D01*
X77126Y-40665D01*
X77280Y-40819D01*
X77482Y-40903D01*
X77700Y-40903D01*
X77902Y-40819D01*
X78046Y-40675D01*
X78046Y-44044D01*
M02*
