G04 (created by PCBNEW-RS274X (2012-apr-16-27)-stable) date Tue 22 Apr 2014 06:10:25 PM EDT*
G01*
G70*
G90*
%MOIN*%
G04 Gerber Fmt 3.4, Leading zero omitted, Abs format*
%FSLAX34Y34*%
G04 APERTURE LIST*
%ADD10C,0.006000*%
%ADD11R,0.060000X0.060000*%
%ADD12C,0.060000*%
%ADD13C,0.059100*%
%ADD14R,0.078700X0.043300*%
%ADD15R,0.078700X0.078700*%
%ADD16R,0.039400X0.078700*%
%ADD17R,0.059100X0.059100*%
%ADD18R,0.055000X0.055000*%
%ADD19C,0.055000*%
%ADD20C,0.141700*%
%ADD21C,0.066900*%
%ADD22R,0.139800X0.125200*%
%ADD23R,0.020000X0.045000*%
%ADD24C,0.136600*%
%ADD25C,0.035000*%
%ADD26C,0.014000*%
%ADD27C,0.013900*%
%ADD28C,0.010000*%
G04 APERTURE END LIST*
G54D10*
G54D11*
X69900Y-32700D03*
G54D12*
X70900Y-32700D03*
X69900Y-33700D03*
X70900Y-33700D03*
X69900Y-34700D03*
X70900Y-34700D03*
X69900Y-35700D03*
X70900Y-35700D03*
X69900Y-36700D03*
X70900Y-36700D03*
X69900Y-37700D03*
X70900Y-37700D03*
X69900Y-38700D03*
X70900Y-38700D03*
X69900Y-39700D03*
X70900Y-39700D03*
X69900Y-40700D03*
X70900Y-40700D03*
X69900Y-41700D03*
X70900Y-41700D03*
X69900Y-42700D03*
X70900Y-42700D03*
X69900Y-43700D03*
X70900Y-43700D03*
G54D11*
X66900Y-32700D03*
G54D12*
X67900Y-32700D03*
X66900Y-33700D03*
X67900Y-33700D03*
X66900Y-34700D03*
X67900Y-34700D03*
X66900Y-35700D03*
X67900Y-35700D03*
X66900Y-36700D03*
X67900Y-36700D03*
X66900Y-37700D03*
X67900Y-37700D03*
X66900Y-38700D03*
X67900Y-38700D03*
X66900Y-39700D03*
X67900Y-39700D03*
X66900Y-40700D03*
X67900Y-40700D03*
X66900Y-41700D03*
X67900Y-41700D03*
X66900Y-42700D03*
X67900Y-42700D03*
X66900Y-43700D03*
X67900Y-43700D03*
G54D13*
X50256Y-34902D03*
X50256Y-43721D03*
G54D14*
X51122Y-35433D03*
X51122Y-36103D03*
X51122Y-37058D03*
X51122Y-38042D03*
X51122Y-39026D03*
X51122Y-40010D03*
X51122Y-40995D03*
X51122Y-41979D03*
X51122Y-42963D03*
G54D15*
X48465Y-33878D03*
X41122Y-33878D03*
X48465Y-45296D03*
X41122Y-45296D03*
G54D16*
X46634Y-34036D03*
X43110Y-34036D03*
X42087Y-34036D03*
G54D17*
X68600Y-31500D03*
G54D13*
X69600Y-31500D03*
X70600Y-31500D03*
X71600Y-31500D03*
G54D11*
X57100Y-39200D03*
G54D12*
X56100Y-39200D03*
G54D18*
X73900Y-37600D03*
G54D19*
X76900Y-37600D03*
G54D18*
X76634Y-42083D03*
G54D19*
X76634Y-45083D03*
G54D18*
X73900Y-36600D03*
G54D19*
X76900Y-36600D03*
G54D18*
X77638Y-42634D03*
G54D19*
X77638Y-45634D03*
G54D13*
X72200Y-38500D03*
X72200Y-37500D03*
X72200Y-36500D03*
X72200Y-34500D03*
X72200Y-35500D03*
X72200Y-39500D03*
X72200Y-40500D03*
X72200Y-41500D03*
X72200Y-42500D03*
X72200Y-43500D03*
X72913Y-47421D03*
X75905Y-47421D03*
X57992Y-50992D03*
X58992Y-50992D03*
X59992Y-50992D03*
X70992Y-50992D03*
X60992Y-50992D03*
X61992Y-50992D03*
X62992Y-50992D03*
X63992Y-50992D03*
X64992Y-50992D03*
X65992Y-50992D03*
X66992Y-50992D03*
X67992Y-50992D03*
X68992Y-50992D03*
X69992Y-50992D03*
X70992Y-44992D03*
X69992Y-44992D03*
X68992Y-44992D03*
X67992Y-44992D03*
X66992Y-44992D03*
X65992Y-44992D03*
X64992Y-44992D03*
X63992Y-44992D03*
X62992Y-44992D03*
X61992Y-44992D03*
X60992Y-44992D03*
X59992Y-44992D03*
X58992Y-44992D03*
X57992Y-44992D03*
X70992Y-49992D03*
X70992Y-48992D03*
X70992Y-47992D03*
X70992Y-46992D03*
X70992Y-45992D03*
G54D20*
X40158Y-48150D03*
X42520Y-48150D03*
X41339Y-50000D03*
G54D21*
X54921Y-44350D03*
X54921Y-43350D03*
X54921Y-42350D03*
G54D19*
X57400Y-31500D03*
X60400Y-31500D03*
X57400Y-32600D03*
X60400Y-32600D03*
G54D11*
X52800Y-39500D03*
G54D12*
X53800Y-39500D03*
G54D19*
X52800Y-37100D03*
X53800Y-37100D03*
G54D21*
X62224Y-39287D03*
X59791Y-35070D03*
X64657Y-35070D03*
G54D22*
X62224Y-42480D03*
X62224Y-31909D03*
G54D19*
X77800Y-32800D03*
X75800Y-32800D03*
X65100Y-43700D03*
X65100Y-40700D03*
X77091Y-40354D03*
X74091Y-40354D03*
X76900Y-39100D03*
X73900Y-39100D03*
X57400Y-36700D03*
X57400Y-33700D03*
G54D23*
X52350Y-35800D03*
X52850Y-35800D03*
X53350Y-35800D03*
X53850Y-35800D03*
X54350Y-35800D03*
X54850Y-35800D03*
X55350Y-35800D03*
X55850Y-35800D03*
X55850Y-31800D03*
X55350Y-31800D03*
X54850Y-31800D03*
X54350Y-31800D03*
X53850Y-31800D03*
X53350Y-31800D03*
X52850Y-31800D03*
X52350Y-31800D03*
G54D19*
X57600Y-41700D03*
X58600Y-41700D03*
G54D18*
X57600Y-42700D03*
G54D24*
X44508Y-31850D03*
X44016Y-50866D03*
X76496Y-50846D03*
X73996Y-31850D03*
G54D25*
X63144Y-43396D03*
X69449Y-49370D03*
X57294Y-34832D03*
X60703Y-41964D03*
G54D26*
X67900Y-33700D02*
X69900Y-33700D01*
X52850Y-35800D02*
X52850Y-36198D01*
X52800Y-37100D02*
X52800Y-36248D01*
X51122Y-39026D02*
X51853Y-39026D01*
X52800Y-39500D02*
X52327Y-39500D01*
X66900Y-33700D02*
X67900Y-33700D01*
X51853Y-39026D02*
X52327Y-39500D01*
X52800Y-36248D02*
X52850Y-36198D01*
X66900Y-33700D02*
X57400Y-33700D01*
X70900Y-33700D02*
X69900Y-33700D01*
X73852Y-36152D02*
X73900Y-36152D01*
X73900Y-36600D02*
X73900Y-36152D01*
X72200Y-34500D02*
X73852Y-36152D01*
X66900Y-32700D02*
X67900Y-32700D01*
X67900Y-32700D02*
X69900Y-32700D01*
X70900Y-32700D02*
X69900Y-32700D01*
X73900Y-37600D02*
X73900Y-38048D01*
X57100Y-39200D02*
X57100Y-39673D01*
X54921Y-42350D02*
X56693Y-42350D01*
X57343Y-41700D02*
X56693Y-42350D01*
X56693Y-42350D02*
X56693Y-43693D01*
X57600Y-41700D02*
X58364Y-40936D01*
X58364Y-40936D02*
X57100Y-39673D01*
X56693Y-43693D02*
X57992Y-44992D01*
X57600Y-41700D02*
X57343Y-41700D01*
X73452Y-38496D02*
X73900Y-38048D01*
X73452Y-39100D02*
X73452Y-38496D01*
X72552Y-40000D02*
X73452Y-39100D01*
X71530Y-40000D02*
X72552Y-40000D01*
X71304Y-40226D02*
X71530Y-40000D01*
X59074Y-40226D02*
X71304Y-40226D01*
X58364Y-40936D02*
X59074Y-40226D01*
X67900Y-42700D02*
X69900Y-42700D01*
X70900Y-42700D02*
X69900Y-42700D01*
X67900Y-42700D02*
X66900Y-42700D01*
X63840Y-42700D02*
X66900Y-42700D01*
X63144Y-43396D02*
X63840Y-42700D01*
X66900Y-43700D02*
X67900Y-43700D01*
X67900Y-43700D02*
X69900Y-43700D01*
X70900Y-43700D02*
X69900Y-43700D01*
X66215Y-44385D02*
X66900Y-43700D01*
X61599Y-44385D02*
X66215Y-44385D01*
X60992Y-44992D02*
X61599Y-44385D01*
X72200Y-41500D02*
X71900Y-41200D01*
X60975Y-41200D02*
X59924Y-42251D01*
X57191Y-42251D02*
X57151Y-42291D01*
X57151Y-43151D02*
X58992Y-44992D01*
X57151Y-42291D02*
X57151Y-43151D01*
X59924Y-42251D02*
X57191Y-42251D01*
X71900Y-41200D02*
X60975Y-41200D01*
X66040Y-37560D02*
X66900Y-36700D01*
X52579Y-37560D02*
X66040Y-37560D01*
X51689Y-36670D02*
X52579Y-37560D01*
X51689Y-36103D02*
X51689Y-36670D01*
G54D27*
X69449Y-49370D02*
X70992Y-50913D01*
X70992Y-50913D02*
X70992Y-50992D01*
G54D26*
X51122Y-36103D02*
X51689Y-36103D01*
X70900Y-36700D02*
X69900Y-36700D01*
X67900Y-36700D02*
X66900Y-36700D01*
X51122Y-40995D02*
X51689Y-40995D01*
X51689Y-40995D02*
X52816Y-42122D01*
X52816Y-42122D02*
X52816Y-43104D01*
X52816Y-43104D02*
X57953Y-48241D01*
X57953Y-48241D02*
X67241Y-48241D01*
X67241Y-48241D02*
X69992Y-50992D01*
X67900Y-35700D02*
X69900Y-35700D01*
X70900Y-35700D02*
X69900Y-35700D01*
X66900Y-40700D02*
X67900Y-40700D01*
X70900Y-40700D02*
X69900Y-40700D01*
X67900Y-40700D02*
X69900Y-40700D01*
X66900Y-37700D02*
X67900Y-37700D01*
X51122Y-38042D02*
X66558Y-38042D01*
X66558Y-38042D02*
X66900Y-37700D01*
X67900Y-37700D02*
X69900Y-37700D01*
X71426Y-37274D02*
X71426Y-38174D01*
X52350Y-31800D02*
X52350Y-32198D01*
X71426Y-38174D02*
X70900Y-38700D01*
X72200Y-36500D02*
X71426Y-37274D01*
G54D27*
X67900Y-38700D02*
X69900Y-38700D01*
G54D26*
X70900Y-38700D02*
X69900Y-38700D01*
X66900Y-38700D02*
X67900Y-38700D01*
X60400Y-32600D02*
X59877Y-33123D01*
X59877Y-33123D02*
X53275Y-33123D01*
X53275Y-33123D02*
X52350Y-32198D01*
X71426Y-38519D02*
X71426Y-39174D01*
X71426Y-39174D02*
X70900Y-39700D01*
X67900Y-39700D02*
X69900Y-39700D01*
X66900Y-39700D02*
X67900Y-39700D01*
X70900Y-39700D02*
X69900Y-39700D01*
X72200Y-37500D02*
X72200Y-37745D01*
X72200Y-37745D02*
X71426Y-38519D01*
X59936Y-31964D02*
X60400Y-31500D01*
X57047Y-31964D02*
X59936Y-31964D01*
X56813Y-32198D02*
X57047Y-31964D01*
X52850Y-32198D02*
X56813Y-32198D01*
X52850Y-31800D02*
X52850Y-32198D01*
X66900Y-41700D02*
X67900Y-41700D01*
X70900Y-41700D02*
X69900Y-41700D01*
G54D27*
X69900Y-41700D02*
X67900Y-41700D01*
G54D26*
X55049Y-31402D02*
X55350Y-31402D01*
X54850Y-31601D02*
X55049Y-31402D01*
X55850Y-35402D02*
X55350Y-35402D01*
X55850Y-35800D02*
X55850Y-35402D01*
X57600Y-42700D02*
X58048Y-42700D01*
X54850Y-31800D02*
X54850Y-31601D01*
X40158Y-46827D02*
X40158Y-48150D01*
X53850Y-31800D02*
X53850Y-31601D01*
X55350Y-35800D02*
X55350Y-35601D01*
X55350Y-35601D02*
X55350Y-35402D01*
X54850Y-35601D02*
X54350Y-35601D01*
X53290Y-40010D02*
X53800Y-39500D01*
X51122Y-40010D02*
X53290Y-40010D01*
X66900Y-34700D02*
X67900Y-34700D01*
X70900Y-34700D02*
X69900Y-34700D01*
X41122Y-33878D02*
X41122Y-33312D01*
X41122Y-45486D02*
X47709Y-45486D01*
X48465Y-45296D02*
X47899Y-45296D01*
X54350Y-31601D02*
X54850Y-31601D01*
X54350Y-31800D02*
X54350Y-31601D01*
X47709Y-45486D02*
X47899Y-45296D01*
X41122Y-45486D02*
X41122Y-45863D01*
X47333Y-33312D02*
X41122Y-33312D01*
X47899Y-33878D02*
X47333Y-33312D01*
X48465Y-33878D02*
X47899Y-33878D01*
X41122Y-45863D02*
X40158Y-46827D01*
X51122Y-40010D02*
X50556Y-40010D01*
X55151Y-35402D02*
X54850Y-35402D01*
X55350Y-35601D02*
X55151Y-35402D01*
X41122Y-45296D02*
X41122Y-45486D01*
X54850Y-35800D02*
X54850Y-35601D01*
X54850Y-35601D02*
X54850Y-35402D01*
X64975Y-43825D02*
X65100Y-43700D01*
X55850Y-31601D02*
X55350Y-31601D01*
X62160Y-31046D02*
X62224Y-31110D01*
X56405Y-31046D02*
X62160Y-31046D01*
X53800Y-37100D02*
X54350Y-36550D01*
X48465Y-42101D02*
X50556Y-40010D01*
X58048Y-42700D02*
X59173Y-43825D01*
X55350Y-31601D02*
X55350Y-31402D01*
X65600Y-43200D02*
X71236Y-43200D01*
X48465Y-45296D02*
X48465Y-42101D01*
X71236Y-43200D02*
X73119Y-45083D01*
X59173Y-43825D02*
X64975Y-43825D01*
X73119Y-45083D02*
X76634Y-45083D01*
X53850Y-31601D02*
X54350Y-31601D01*
X51122Y-37058D02*
X50556Y-37058D01*
X55350Y-31800D02*
X55350Y-31601D01*
X55850Y-31601D02*
X56405Y-31046D01*
X55850Y-31800D02*
X55850Y-31601D01*
X62224Y-31909D02*
X62224Y-31110D01*
X54350Y-35800D02*
X54350Y-35601D01*
X54350Y-36550D02*
X54350Y-35800D01*
X65100Y-43700D02*
X65600Y-43200D01*
X62304Y-31030D02*
X62224Y-31110D01*
X69130Y-31030D02*
X62304Y-31030D01*
X50555Y-36535D02*
X48465Y-34445D01*
X69600Y-31500D02*
X69130Y-31030D01*
X50555Y-37058D02*
X50555Y-36535D01*
X48465Y-34161D02*
X51473Y-31153D01*
X50556Y-37058D02*
X50555Y-37058D01*
X48465Y-33878D02*
X48465Y-34161D01*
X48465Y-34161D02*
X48465Y-34445D01*
X53850Y-31502D02*
X53850Y-31601D01*
X53501Y-31153D02*
X53850Y-31502D01*
X51473Y-31153D02*
X53501Y-31153D01*
X50556Y-40010D02*
X50556Y-37058D01*
X72913Y-50214D02*
X72913Y-47421D01*
X71462Y-51665D02*
X72913Y-50214D01*
X62665Y-51665D02*
X71462Y-51665D01*
X61992Y-50992D02*
X62665Y-51665D01*
X70800Y-31500D02*
X70600Y-31500D01*
X76900Y-37600D02*
X70800Y-31500D01*
X77349Y-38049D02*
X76900Y-37600D01*
X77349Y-40096D02*
X77349Y-38049D01*
X77091Y-40354D02*
X77349Y-40096D01*
X51122Y-41979D02*
X51689Y-41979D01*
X66764Y-48764D02*
X68992Y-50992D01*
X58131Y-48764D02*
X66764Y-48764D01*
X51689Y-42322D02*
X58131Y-48764D01*
X51689Y-41979D02*
X51689Y-42322D01*
X53940Y-34832D02*
X57294Y-34832D01*
X51893Y-32785D02*
X53940Y-34832D01*
X51893Y-31619D02*
X51893Y-32785D01*
X53350Y-31402D02*
X52110Y-31402D01*
X53350Y-31800D02*
X53350Y-31402D01*
X60703Y-41964D02*
X60836Y-41964D01*
X60836Y-41964D02*
X61352Y-42480D01*
X62224Y-42480D02*
X61352Y-42480D01*
X52110Y-31402D02*
X51893Y-31619D01*
X53350Y-35800D02*
X53350Y-35402D01*
X57400Y-36457D02*
X57400Y-36700D01*
X53350Y-35402D02*
X53594Y-35158D01*
X56101Y-35158D02*
X57400Y-36457D01*
X53594Y-35158D02*
X56101Y-35158D01*
X72346Y-40354D02*
X72200Y-40500D01*
X74091Y-40354D02*
X72346Y-40354D01*
X76700Y-36600D02*
X71600Y-31500D01*
X76900Y-36600D02*
X76700Y-36600D01*
G54D10*
G36*
X73517Y-37100D02*
X73484Y-37114D01*
X73414Y-37184D01*
X73376Y-37275D01*
X73376Y-37374D01*
X73376Y-37924D01*
X73414Y-38016D01*
X73446Y-38048D01*
X73226Y-38270D01*
X73156Y-38373D01*
X73132Y-38496D01*
X73132Y-38967D01*
X72740Y-39359D01*
X72740Y-38578D01*
X72728Y-38366D01*
X72668Y-38221D01*
X72575Y-38196D01*
X72271Y-38500D01*
X72575Y-38804D01*
X72668Y-38779D01*
X72740Y-38578D01*
X72740Y-39359D01*
X72733Y-39366D01*
X72661Y-39192D01*
X72508Y-39039D01*
X72407Y-38997D01*
X72479Y-38968D01*
X72504Y-38875D01*
X72200Y-38571D01*
X71896Y-38875D01*
X71921Y-38968D01*
X71997Y-38995D01*
X71892Y-39039D01*
X71750Y-39181D01*
X71750Y-38783D01*
X71825Y-38804D01*
X72094Y-38535D01*
X72129Y-38500D01*
X72200Y-38429D01*
X72235Y-38394D01*
X72504Y-38125D01*
X72479Y-38032D01*
X72402Y-38004D01*
X72508Y-37961D01*
X72661Y-37808D01*
X72744Y-37608D01*
X72744Y-37392D01*
X72661Y-37192D01*
X72508Y-37039D01*
X72414Y-37000D01*
X72508Y-36961D01*
X72661Y-36808D01*
X72744Y-36608D01*
X72744Y-36392D01*
X72661Y-36192D01*
X72508Y-36039D01*
X72407Y-35997D01*
X72479Y-35968D01*
X72504Y-35875D01*
X72200Y-35571D01*
X71896Y-35875D01*
X71921Y-35968D01*
X71997Y-35995D01*
X71892Y-36039D01*
X71750Y-36181D01*
X71750Y-35783D01*
X71825Y-35804D01*
X72129Y-35500D01*
X71825Y-35196D01*
X71750Y-35216D01*
X71750Y-34819D01*
X71892Y-34961D01*
X71992Y-35002D01*
X71921Y-35032D01*
X71896Y-35125D01*
X72165Y-35394D01*
X72200Y-35429D01*
X72271Y-35500D01*
X72306Y-35535D01*
X72575Y-35804D01*
X72668Y-35779D01*
X72740Y-35578D01*
X72734Y-35486D01*
X73423Y-36175D01*
X73414Y-36184D01*
X73376Y-36275D01*
X73376Y-36374D01*
X73376Y-36924D01*
X73414Y-37016D01*
X73484Y-37086D01*
X73517Y-37100D01*
X73517Y-37100D01*
G37*
G54D28*
X73517Y-37100D02*
X73484Y-37114D01*
X73414Y-37184D01*
X73376Y-37275D01*
X73376Y-37374D01*
X73376Y-37924D01*
X73414Y-38016D01*
X73446Y-38048D01*
X73226Y-38270D01*
X73156Y-38373D01*
X73132Y-38496D01*
X73132Y-38967D01*
X72740Y-39359D01*
X72740Y-38578D01*
X72728Y-38366D01*
X72668Y-38221D01*
X72575Y-38196D01*
X72271Y-38500D01*
X72575Y-38804D01*
X72668Y-38779D01*
X72740Y-38578D01*
X72740Y-39359D01*
X72733Y-39366D01*
X72661Y-39192D01*
X72508Y-39039D01*
X72407Y-38997D01*
X72479Y-38968D01*
X72504Y-38875D01*
X72200Y-38571D01*
X71896Y-38875D01*
X71921Y-38968D01*
X71997Y-38995D01*
X71892Y-39039D01*
X71750Y-39181D01*
X71750Y-38783D01*
X71825Y-38804D01*
X72094Y-38535D01*
X72129Y-38500D01*
X72200Y-38429D01*
X72235Y-38394D01*
X72504Y-38125D01*
X72479Y-38032D01*
X72402Y-38004D01*
X72508Y-37961D01*
X72661Y-37808D01*
X72744Y-37608D01*
X72744Y-37392D01*
X72661Y-37192D01*
X72508Y-37039D01*
X72414Y-37000D01*
X72508Y-36961D01*
X72661Y-36808D01*
X72744Y-36608D01*
X72744Y-36392D01*
X72661Y-36192D01*
X72508Y-36039D01*
X72407Y-35997D01*
X72479Y-35968D01*
X72504Y-35875D01*
X72200Y-35571D01*
X71896Y-35875D01*
X71921Y-35968D01*
X71997Y-35995D01*
X71892Y-36039D01*
X71750Y-36181D01*
X71750Y-35783D01*
X71825Y-35804D01*
X72129Y-35500D01*
X71825Y-35196D01*
X71750Y-35216D01*
X71750Y-34819D01*
X71892Y-34961D01*
X71992Y-35002D01*
X71921Y-35032D01*
X71896Y-35125D01*
X72165Y-35394D01*
X72200Y-35429D01*
X72271Y-35500D01*
X72306Y-35535D01*
X72575Y-35804D01*
X72668Y-35779D01*
X72740Y-35578D01*
X72734Y-35486D01*
X73423Y-36175D01*
X73414Y-36184D01*
X73376Y-36275D01*
X73376Y-36374D01*
X73376Y-36924D01*
X73414Y-37016D01*
X73484Y-37086D01*
X73517Y-37100D01*
G54D10*
G36*
X78046Y-44250D02*
X72738Y-44250D01*
X72466Y-43978D01*
X72508Y-43961D01*
X72661Y-43808D01*
X72744Y-43608D01*
X72744Y-43392D01*
X72661Y-43192D01*
X72508Y-43039D01*
X72414Y-43000D01*
X72508Y-42961D01*
X72661Y-42808D01*
X72744Y-42608D01*
X72744Y-42392D01*
X72740Y-42382D01*
X72740Y-41578D01*
X72728Y-41366D01*
X72668Y-41221D01*
X72575Y-41196D01*
X72271Y-41500D01*
X72575Y-41804D01*
X72668Y-41779D01*
X72740Y-41578D01*
X72740Y-42382D01*
X72661Y-42192D01*
X72508Y-42039D01*
X72407Y-41997D01*
X72479Y-41968D01*
X72504Y-41875D01*
X72200Y-41571D01*
X71896Y-41875D01*
X71921Y-41968D01*
X71997Y-41995D01*
X71892Y-42039D01*
X71750Y-42181D01*
X71750Y-41783D01*
X71825Y-41804D01*
X72129Y-41500D01*
X71825Y-41196D01*
X71750Y-41216D01*
X71750Y-40819D01*
X71892Y-40961D01*
X71992Y-41002D01*
X71921Y-41032D01*
X71896Y-41125D01*
X72200Y-41429D01*
X72504Y-41125D01*
X72479Y-41032D01*
X72402Y-41004D01*
X72508Y-40961D01*
X72661Y-40808D01*
X72716Y-40674D01*
X73668Y-40674D01*
X73793Y-40799D01*
X73986Y-40879D01*
X74195Y-40879D01*
X74388Y-40799D01*
X74536Y-40652D01*
X74616Y-40459D01*
X74616Y-40250D01*
X74536Y-40057D01*
X74419Y-39939D01*
X74419Y-39174D01*
X74408Y-38970D01*
X74352Y-38833D01*
X74261Y-38810D01*
X73971Y-39100D01*
X74261Y-39390D01*
X74352Y-39367D01*
X74419Y-39174D01*
X74419Y-39939D01*
X74389Y-39909D01*
X74196Y-39829D01*
X74190Y-39829D01*
X73987Y-39829D01*
X73794Y-39909D01*
X73668Y-40034D01*
X72970Y-40034D01*
X73524Y-39479D01*
X73593Y-39548D01*
X73624Y-39516D01*
X73633Y-39552D01*
X73826Y-39619D01*
X74030Y-39608D01*
X74167Y-39552D01*
X74190Y-39461D01*
X73935Y-39206D01*
X73900Y-39171D01*
X73829Y-39100D01*
X73900Y-39029D01*
X73935Y-38994D01*
X74190Y-38739D01*
X74167Y-38648D01*
X73974Y-38581D01*
X73810Y-38589D01*
X74126Y-38275D01*
X74126Y-38274D01*
X74172Y-38205D01*
X74195Y-38171D01*
X74196Y-38170D01*
X74204Y-38124D01*
X74205Y-38124D01*
X74224Y-38124D01*
X74316Y-38086D01*
X74386Y-38016D01*
X74424Y-37925D01*
X74424Y-37826D01*
X74424Y-37276D01*
X74386Y-37184D01*
X74316Y-37114D01*
X74282Y-37099D01*
X74316Y-37086D01*
X74386Y-37016D01*
X74424Y-36925D01*
X74424Y-36826D01*
X74424Y-36276D01*
X74386Y-36184D01*
X74316Y-36114D01*
X74225Y-36076D01*
X74205Y-36076D01*
X74196Y-36030D01*
X74126Y-35926D01*
X74022Y-35856D01*
X74004Y-35852D01*
X72744Y-34592D01*
X72744Y-34392D01*
X72661Y-34192D01*
X72508Y-34039D01*
X72308Y-33956D01*
X72092Y-33956D01*
X71892Y-34039D01*
X71750Y-34181D01*
X71750Y-32902D01*
X76375Y-37527D01*
X76375Y-37704D01*
X76455Y-37897D01*
X76602Y-38045D01*
X76795Y-38125D01*
X76972Y-38125D01*
X77029Y-38181D01*
X77029Y-38584D01*
X77005Y-38575D01*
X76796Y-38575D01*
X76603Y-38655D01*
X76455Y-38802D01*
X76375Y-38995D01*
X76375Y-39204D01*
X76455Y-39397D01*
X76602Y-39545D01*
X76795Y-39625D01*
X77004Y-39625D01*
X77029Y-39614D01*
X77029Y-39829D01*
X76987Y-39829D01*
X76794Y-39909D01*
X76646Y-40056D01*
X76566Y-40249D01*
X76566Y-40458D01*
X76646Y-40651D01*
X76793Y-40799D01*
X76986Y-40879D01*
X77195Y-40879D01*
X77388Y-40799D01*
X77536Y-40652D01*
X77616Y-40459D01*
X77616Y-40261D01*
X77644Y-40220D01*
X77644Y-40219D01*
X77645Y-40218D01*
X77668Y-40097D01*
X77669Y-40096D01*
X77669Y-38049D01*
X77668Y-38048D01*
X77645Y-37927D01*
X77644Y-37925D01*
X77575Y-37823D01*
X77575Y-37822D01*
X77425Y-37672D01*
X77425Y-37496D01*
X77345Y-37303D01*
X77198Y-37155D01*
X77064Y-37099D01*
X77197Y-37045D01*
X77345Y-36898D01*
X77425Y-36705D01*
X77425Y-36496D01*
X77345Y-36303D01*
X77198Y-36155D01*
X77005Y-36075D01*
X76796Y-36075D01*
X76677Y-36124D01*
X76319Y-35766D01*
X76319Y-32874D01*
X76308Y-32670D01*
X76252Y-32533D01*
X76161Y-32510D01*
X76090Y-32581D01*
X76090Y-32439D01*
X76067Y-32348D01*
X75874Y-32281D01*
X75670Y-32292D01*
X75533Y-32348D01*
X75510Y-32439D01*
X75800Y-32729D01*
X76090Y-32439D01*
X76090Y-32581D01*
X75871Y-32800D01*
X76161Y-33090D01*
X76252Y-33067D01*
X76319Y-32874D01*
X76319Y-35766D01*
X76090Y-35537D01*
X76090Y-33161D01*
X75800Y-32871D01*
X75729Y-32942D01*
X75729Y-32800D01*
X75439Y-32510D01*
X75348Y-32533D01*
X75281Y-32726D01*
X75292Y-32930D01*
X75348Y-33067D01*
X75439Y-33090D01*
X75729Y-32800D01*
X75729Y-32942D01*
X75510Y-33161D01*
X75533Y-33252D01*
X75726Y-33319D01*
X75930Y-33308D01*
X76067Y-33252D01*
X76090Y-33161D01*
X76090Y-35537D01*
X73720Y-33168D01*
X73732Y-33173D01*
X74258Y-33173D01*
X74744Y-32972D01*
X75117Y-32600D01*
X75319Y-32114D01*
X75319Y-31588D01*
X75118Y-31102D01*
X75025Y-31009D01*
X78046Y-31009D01*
X78046Y-32333D01*
X77905Y-32275D01*
X77696Y-32275D01*
X77503Y-32355D01*
X77355Y-32502D01*
X77275Y-32695D01*
X77275Y-32904D01*
X77355Y-33097D01*
X77502Y-33245D01*
X77695Y-33325D01*
X77904Y-33325D01*
X78046Y-33266D01*
X78046Y-42144D01*
X77963Y-42110D01*
X77864Y-42110D01*
X77314Y-42110D01*
X77222Y-42148D01*
X77158Y-42212D01*
X77158Y-41759D01*
X77120Y-41667D01*
X77050Y-41597D01*
X76959Y-41559D01*
X76860Y-41559D01*
X76310Y-41559D01*
X76218Y-41597D01*
X76148Y-41667D01*
X76110Y-41758D01*
X76110Y-41857D01*
X76110Y-42407D01*
X76148Y-42499D01*
X76218Y-42569D01*
X76309Y-42607D01*
X76408Y-42607D01*
X76958Y-42607D01*
X77050Y-42569D01*
X77114Y-42505D01*
X77114Y-42958D01*
X77152Y-43050D01*
X77222Y-43120D01*
X77313Y-43158D01*
X77412Y-43158D01*
X77962Y-43158D01*
X78046Y-43123D01*
X78046Y-44250D01*
X78046Y-44250D01*
G37*
G54D28*
X78046Y-44250D02*
X72738Y-44250D01*
X72466Y-43978D01*
X72508Y-43961D01*
X72661Y-43808D01*
X72744Y-43608D01*
X72744Y-43392D01*
X72661Y-43192D01*
X72508Y-43039D01*
X72414Y-43000D01*
X72508Y-42961D01*
X72661Y-42808D01*
X72744Y-42608D01*
X72744Y-42392D01*
X72740Y-42382D01*
X72740Y-41578D01*
X72728Y-41366D01*
X72668Y-41221D01*
X72575Y-41196D01*
X72271Y-41500D01*
X72575Y-41804D01*
X72668Y-41779D01*
X72740Y-41578D01*
X72740Y-42382D01*
X72661Y-42192D01*
X72508Y-42039D01*
X72407Y-41997D01*
X72479Y-41968D01*
X72504Y-41875D01*
X72200Y-41571D01*
X71896Y-41875D01*
X71921Y-41968D01*
X71997Y-41995D01*
X71892Y-42039D01*
X71750Y-42181D01*
X71750Y-41783D01*
X71825Y-41804D01*
X72129Y-41500D01*
X71825Y-41196D01*
X71750Y-41216D01*
X71750Y-40819D01*
X71892Y-40961D01*
X71992Y-41002D01*
X71921Y-41032D01*
X71896Y-41125D01*
X72200Y-41429D01*
X72504Y-41125D01*
X72479Y-41032D01*
X72402Y-41004D01*
X72508Y-40961D01*
X72661Y-40808D01*
X72716Y-40674D01*
X73668Y-40674D01*
X73793Y-40799D01*
X73986Y-40879D01*
X74195Y-40879D01*
X74388Y-40799D01*
X74536Y-40652D01*
X74616Y-40459D01*
X74616Y-40250D01*
X74536Y-40057D01*
X74419Y-39939D01*
X74419Y-39174D01*
X74408Y-38970D01*
X74352Y-38833D01*
X74261Y-38810D01*
X73971Y-39100D01*
X74261Y-39390D01*
X74352Y-39367D01*
X74419Y-39174D01*
X74419Y-39939D01*
X74389Y-39909D01*
X74196Y-39829D01*
X74190Y-39829D01*
X73987Y-39829D01*
X73794Y-39909D01*
X73668Y-40034D01*
X72970Y-40034D01*
X73524Y-39479D01*
X73593Y-39548D01*
X73624Y-39516D01*
X73633Y-39552D01*
X73826Y-39619D01*
X74030Y-39608D01*
X74167Y-39552D01*
X74190Y-39461D01*
X73935Y-39206D01*
X73900Y-39171D01*
X73829Y-39100D01*
X73900Y-39029D01*
X73935Y-38994D01*
X74190Y-38739D01*
X74167Y-38648D01*
X73974Y-38581D01*
X73810Y-38589D01*
X74126Y-38275D01*
X74126Y-38274D01*
X74172Y-38205D01*
X74195Y-38171D01*
X74196Y-38170D01*
X74204Y-38124D01*
X74205Y-38124D01*
X74224Y-38124D01*
X74316Y-38086D01*
X74386Y-38016D01*
X74424Y-37925D01*
X74424Y-37826D01*
X74424Y-37276D01*
X74386Y-37184D01*
X74316Y-37114D01*
X74282Y-37099D01*
X74316Y-37086D01*
X74386Y-37016D01*
X74424Y-36925D01*
X74424Y-36826D01*
X74424Y-36276D01*
X74386Y-36184D01*
X74316Y-36114D01*
X74225Y-36076D01*
X74205Y-36076D01*
X74196Y-36030D01*
X74126Y-35926D01*
X74022Y-35856D01*
X74004Y-35852D01*
X72744Y-34592D01*
X72744Y-34392D01*
X72661Y-34192D01*
X72508Y-34039D01*
X72308Y-33956D01*
X72092Y-33956D01*
X71892Y-34039D01*
X71750Y-34181D01*
X71750Y-32902D01*
X76375Y-37527D01*
X76375Y-37704D01*
X76455Y-37897D01*
X76602Y-38045D01*
X76795Y-38125D01*
X76972Y-38125D01*
X77029Y-38181D01*
X77029Y-38584D01*
X77005Y-38575D01*
X76796Y-38575D01*
X76603Y-38655D01*
X76455Y-38802D01*
X76375Y-38995D01*
X76375Y-39204D01*
X76455Y-39397D01*
X76602Y-39545D01*
X76795Y-39625D01*
X77004Y-39625D01*
X77029Y-39614D01*
X77029Y-39829D01*
X76987Y-39829D01*
X76794Y-39909D01*
X76646Y-40056D01*
X76566Y-40249D01*
X76566Y-40458D01*
X76646Y-40651D01*
X76793Y-40799D01*
X76986Y-40879D01*
X77195Y-40879D01*
X77388Y-40799D01*
X77536Y-40652D01*
X77616Y-40459D01*
X77616Y-40261D01*
X77644Y-40220D01*
X77644Y-40219D01*
X77645Y-40218D01*
X77668Y-40097D01*
X77669Y-40096D01*
X77669Y-38049D01*
X77668Y-38048D01*
X77645Y-37927D01*
X77644Y-37925D01*
X77575Y-37823D01*
X77575Y-37822D01*
X77425Y-37672D01*
X77425Y-37496D01*
X77345Y-37303D01*
X77198Y-37155D01*
X77064Y-37099D01*
X77197Y-37045D01*
X77345Y-36898D01*
X77425Y-36705D01*
X77425Y-36496D01*
X77345Y-36303D01*
X77198Y-36155D01*
X77005Y-36075D01*
X76796Y-36075D01*
X76677Y-36124D01*
X76319Y-35766D01*
X76319Y-32874D01*
X76308Y-32670D01*
X76252Y-32533D01*
X76161Y-32510D01*
X76090Y-32581D01*
X76090Y-32439D01*
X76067Y-32348D01*
X75874Y-32281D01*
X75670Y-32292D01*
X75533Y-32348D01*
X75510Y-32439D01*
X75800Y-32729D01*
X76090Y-32439D01*
X76090Y-32581D01*
X75871Y-32800D01*
X76161Y-33090D01*
X76252Y-33067D01*
X76319Y-32874D01*
X76319Y-35766D01*
X76090Y-35537D01*
X76090Y-33161D01*
X75800Y-32871D01*
X75729Y-32942D01*
X75729Y-32800D01*
X75439Y-32510D01*
X75348Y-32533D01*
X75281Y-32726D01*
X75292Y-32930D01*
X75348Y-33067D01*
X75439Y-33090D01*
X75729Y-32800D01*
X75729Y-32942D01*
X75510Y-33161D01*
X75533Y-33252D01*
X75726Y-33319D01*
X75930Y-33308D01*
X76067Y-33252D01*
X76090Y-33161D01*
X76090Y-35537D01*
X73720Y-33168D01*
X73732Y-33173D01*
X74258Y-33173D01*
X74744Y-32972D01*
X75117Y-32600D01*
X75319Y-32114D01*
X75319Y-31588D01*
X75118Y-31102D01*
X75025Y-31009D01*
X78046Y-31009D01*
X78046Y-32333D01*
X77905Y-32275D01*
X77696Y-32275D01*
X77503Y-32355D01*
X77355Y-32502D01*
X77275Y-32695D01*
X77275Y-32904D01*
X77355Y-33097D01*
X77502Y-33245D01*
X77695Y-33325D01*
X77904Y-33325D01*
X78046Y-33266D01*
X78046Y-42144D01*
X77963Y-42110D01*
X77864Y-42110D01*
X77314Y-42110D01*
X77222Y-42148D01*
X77158Y-42212D01*
X77158Y-41759D01*
X77120Y-41667D01*
X77050Y-41597D01*
X76959Y-41559D01*
X76860Y-41559D01*
X76310Y-41559D01*
X76218Y-41597D01*
X76148Y-41667D01*
X76110Y-41758D01*
X76110Y-41857D01*
X76110Y-42407D01*
X76148Y-42499D01*
X76218Y-42569D01*
X76309Y-42607D01*
X76408Y-42607D01*
X76958Y-42607D01*
X77050Y-42569D01*
X77114Y-42505D01*
X77114Y-42958D01*
X77152Y-43050D01*
X77222Y-43120D01*
X77313Y-43158D01*
X77412Y-43158D01*
X77962Y-43158D01*
X78046Y-43123D01*
X78046Y-44250D01*
G54D10*
G36*
X66673Y-43200D02*
X66589Y-43235D01*
X66435Y-43389D01*
X66351Y-43591D01*
X66351Y-43796D01*
X66082Y-44065D01*
X65619Y-44065D01*
X65490Y-44065D01*
X65548Y-44007D01*
X65516Y-43975D01*
X65552Y-43967D01*
X65619Y-43774D01*
X65608Y-43570D01*
X65552Y-43433D01*
X65461Y-43410D01*
X65390Y-43481D01*
X65390Y-43339D01*
X65367Y-43248D01*
X65174Y-43181D01*
X64970Y-43192D01*
X64833Y-43248D01*
X64810Y-43339D01*
X65100Y-43629D01*
X65390Y-43339D01*
X65390Y-43481D01*
X65206Y-43665D01*
X65171Y-43700D01*
X65100Y-43771D01*
X65029Y-43700D01*
X64994Y-43665D01*
X64739Y-43410D01*
X64648Y-43433D01*
X64581Y-43626D01*
X64592Y-43830D01*
X64648Y-43967D01*
X64683Y-43975D01*
X64652Y-44007D01*
X64710Y-44065D01*
X61599Y-44065D01*
X61477Y-44089D01*
X61442Y-44112D01*
X61372Y-44159D01*
X61083Y-44448D01*
X60884Y-44448D01*
X60684Y-44531D01*
X60531Y-44684D01*
X60492Y-44777D01*
X60453Y-44684D01*
X60300Y-44531D01*
X60100Y-44448D01*
X59884Y-44448D01*
X59684Y-44531D01*
X59531Y-44684D01*
X59492Y-44777D01*
X59453Y-44684D01*
X59300Y-44531D01*
X59100Y-44448D01*
X58900Y-44448D01*
X58125Y-43672D01*
X57678Y-43225D01*
X57700Y-43225D01*
X57700Y-43213D01*
X57712Y-43225D01*
X57924Y-43224D01*
X58016Y-43186D01*
X58086Y-43116D01*
X58124Y-43025D01*
X58124Y-42926D01*
X58125Y-42812D01*
X58063Y-42750D01*
X57700Y-42750D01*
X57650Y-42750D01*
X57550Y-42750D01*
X57550Y-42650D01*
X57650Y-42650D01*
X57700Y-42650D01*
X58063Y-42650D01*
X58125Y-42588D01*
X58124Y-42571D01*
X59924Y-42571D01*
X60046Y-42547D01*
X60047Y-42547D01*
X60150Y-42477D01*
X60382Y-42244D01*
X60462Y-42324D01*
X60618Y-42389D01*
X60787Y-42389D01*
X60802Y-42382D01*
X61125Y-42706D01*
X61126Y-42706D01*
X61228Y-42775D01*
X61230Y-42776D01*
X61276Y-42785D01*
X61276Y-43155D01*
X61314Y-43247D01*
X61384Y-43317D01*
X61475Y-43355D01*
X61574Y-43355D01*
X62719Y-43355D01*
X62719Y-43480D01*
X62783Y-43636D01*
X62903Y-43756D01*
X63059Y-43821D01*
X63228Y-43821D01*
X63384Y-43757D01*
X63504Y-43637D01*
X63569Y-43481D01*
X63569Y-43423D01*
X63972Y-43020D01*
X66444Y-43020D01*
X66589Y-43165D01*
X66673Y-43200D01*
X66673Y-43200D01*
G37*
G54D28*
X66673Y-43200D02*
X66589Y-43235D01*
X66435Y-43389D01*
X66351Y-43591D01*
X66351Y-43796D01*
X66082Y-44065D01*
X65619Y-44065D01*
X65490Y-44065D01*
X65548Y-44007D01*
X65516Y-43975D01*
X65552Y-43967D01*
X65619Y-43774D01*
X65608Y-43570D01*
X65552Y-43433D01*
X65461Y-43410D01*
X65390Y-43481D01*
X65390Y-43339D01*
X65367Y-43248D01*
X65174Y-43181D01*
X64970Y-43192D01*
X64833Y-43248D01*
X64810Y-43339D01*
X65100Y-43629D01*
X65390Y-43339D01*
X65390Y-43481D01*
X65206Y-43665D01*
X65171Y-43700D01*
X65100Y-43771D01*
X65029Y-43700D01*
X64994Y-43665D01*
X64739Y-43410D01*
X64648Y-43433D01*
X64581Y-43626D01*
X64592Y-43830D01*
X64648Y-43967D01*
X64683Y-43975D01*
X64652Y-44007D01*
X64710Y-44065D01*
X61599Y-44065D01*
X61477Y-44089D01*
X61442Y-44112D01*
X61372Y-44159D01*
X61083Y-44448D01*
X60884Y-44448D01*
X60684Y-44531D01*
X60531Y-44684D01*
X60492Y-44777D01*
X60453Y-44684D01*
X60300Y-44531D01*
X60100Y-44448D01*
X59884Y-44448D01*
X59684Y-44531D01*
X59531Y-44684D01*
X59492Y-44777D01*
X59453Y-44684D01*
X59300Y-44531D01*
X59100Y-44448D01*
X58900Y-44448D01*
X58125Y-43672D01*
X57678Y-43225D01*
X57700Y-43225D01*
X57700Y-43213D01*
X57712Y-43225D01*
X57924Y-43224D01*
X58016Y-43186D01*
X58086Y-43116D01*
X58124Y-43025D01*
X58124Y-42926D01*
X58125Y-42812D01*
X58063Y-42750D01*
X57700Y-42750D01*
X57650Y-42750D01*
X57550Y-42750D01*
X57550Y-42650D01*
X57650Y-42650D01*
X57700Y-42650D01*
X58063Y-42650D01*
X58125Y-42588D01*
X58124Y-42571D01*
X59924Y-42571D01*
X60046Y-42547D01*
X60047Y-42547D01*
X60150Y-42477D01*
X60382Y-42244D01*
X60462Y-42324D01*
X60618Y-42389D01*
X60787Y-42389D01*
X60802Y-42382D01*
X61125Y-42706D01*
X61126Y-42706D01*
X61228Y-42775D01*
X61230Y-42776D01*
X61276Y-42785D01*
X61276Y-43155D01*
X61314Y-43247D01*
X61384Y-43317D01*
X61475Y-43355D01*
X61574Y-43355D01*
X62719Y-43355D01*
X62719Y-43480D01*
X62783Y-43636D01*
X62903Y-43756D01*
X63059Y-43821D01*
X63228Y-43821D01*
X63384Y-43757D01*
X63504Y-43637D01*
X63569Y-43481D01*
X63569Y-43423D01*
X63972Y-43020D01*
X66444Y-43020D01*
X66589Y-43165D01*
X66673Y-43200D01*
G54D10*
G36*
X70777Y-49492D02*
X70684Y-49531D01*
X70531Y-49684D01*
X70448Y-49884D01*
X70448Y-49917D01*
X69874Y-49343D01*
X69874Y-49286D01*
X69810Y-49130D01*
X69690Y-49010D01*
X69534Y-48945D01*
X69365Y-48945D01*
X69209Y-49009D01*
X69089Y-49129D01*
X69024Y-49285D01*
X69024Y-49454D01*
X69088Y-49610D01*
X69208Y-49730D01*
X69364Y-49795D01*
X69422Y-49795D01*
X70075Y-50448D01*
X69900Y-50448D01*
X67467Y-48015D01*
X67364Y-47945D01*
X67241Y-47921D01*
X58085Y-47921D01*
X55080Y-44916D01*
X55252Y-44845D01*
X55416Y-44681D01*
X55505Y-44466D01*
X55505Y-44234D01*
X55497Y-44214D01*
X55497Y-43437D01*
X55487Y-43210D01*
X55420Y-43049D01*
X55323Y-43018D01*
X54992Y-43350D01*
X55323Y-43682D01*
X55420Y-43651D01*
X55497Y-43437D01*
X55497Y-44214D01*
X55416Y-44019D01*
X55252Y-43855D01*
X55223Y-43843D01*
X55253Y-43752D01*
X54921Y-43421D01*
X54850Y-43491D01*
X54850Y-43350D01*
X54519Y-43018D01*
X54422Y-43049D01*
X54345Y-43263D01*
X54355Y-43490D01*
X54422Y-43651D01*
X54519Y-43682D01*
X54850Y-43350D01*
X54850Y-43491D01*
X54589Y-43752D01*
X54618Y-43843D01*
X54590Y-43855D01*
X54426Y-44019D01*
X54354Y-44190D01*
X54108Y-43943D01*
X54108Y-39878D01*
X53800Y-39571D01*
X53729Y-39641D01*
X53729Y-39500D01*
X53422Y-39192D01*
X53349Y-39212D01*
X53349Y-39151D01*
X53311Y-39059D01*
X53241Y-38989D01*
X53150Y-38951D01*
X53051Y-38951D01*
X52451Y-38951D01*
X52359Y-38989D01*
X52313Y-39034D01*
X52079Y-38800D01*
X51976Y-38730D01*
X51853Y-38706D01*
X51741Y-38706D01*
X51726Y-38669D01*
X51656Y-38599D01*
X51565Y-38561D01*
X51466Y-38561D01*
X50680Y-38561D01*
X50588Y-38599D01*
X50518Y-38669D01*
X50480Y-38760D01*
X50480Y-38859D01*
X50480Y-39291D01*
X50518Y-39383D01*
X50588Y-39453D01*
X50679Y-39491D01*
X50778Y-39491D01*
X51564Y-39491D01*
X51656Y-39453D01*
X51726Y-39383D01*
X51735Y-39360D01*
X52100Y-39726D01*
X52101Y-39726D01*
X52170Y-39772D01*
X52204Y-39795D01*
X52205Y-39796D01*
X52251Y-39805D01*
X52251Y-39849D01*
X52289Y-39941D01*
X52359Y-40011D01*
X52450Y-40049D01*
X52549Y-40049D01*
X53149Y-40049D01*
X53241Y-40011D01*
X53311Y-39941D01*
X53349Y-39850D01*
X53349Y-39787D01*
X53422Y-39808D01*
X53729Y-39500D01*
X53729Y-39641D01*
X53492Y-39878D01*
X53519Y-39972D01*
X53721Y-40043D01*
X53934Y-40032D01*
X54081Y-39972D01*
X54108Y-39878D01*
X54108Y-43943D01*
X53136Y-42971D01*
X53136Y-42122D01*
X53135Y-42121D01*
X53112Y-42000D01*
X53111Y-41998D01*
X53042Y-41896D01*
X53042Y-41895D01*
X51915Y-40769D01*
X51812Y-40699D01*
X51765Y-40689D01*
X51765Y-40122D01*
X51765Y-39898D01*
X51764Y-39745D01*
X51726Y-39653D01*
X51656Y-39583D01*
X51565Y-39545D01*
X51466Y-39545D01*
X51234Y-39544D01*
X51172Y-39606D01*
X51172Y-39960D01*
X51703Y-39960D01*
X51765Y-39898D01*
X51765Y-40122D01*
X51703Y-40060D01*
X51172Y-40060D01*
X51172Y-40414D01*
X51234Y-40476D01*
X51466Y-40475D01*
X51565Y-40475D01*
X51656Y-40437D01*
X51726Y-40367D01*
X51764Y-40275D01*
X51765Y-40122D01*
X51765Y-40689D01*
X51745Y-40686D01*
X51726Y-40638D01*
X51656Y-40568D01*
X51565Y-40530D01*
X51466Y-40530D01*
X51072Y-40530D01*
X51072Y-40414D01*
X51072Y-40060D01*
X51072Y-39960D01*
X51072Y-39606D01*
X51010Y-39544D01*
X50778Y-39545D01*
X50679Y-39545D01*
X50588Y-39583D01*
X50518Y-39653D01*
X50480Y-39745D01*
X50479Y-39898D01*
X50541Y-39960D01*
X51072Y-39960D01*
X51072Y-40060D01*
X50541Y-40060D01*
X50479Y-40122D01*
X50480Y-40275D01*
X50518Y-40367D01*
X50588Y-40437D01*
X50679Y-40475D01*
X50778Y-40475D01*
X51010Y-40476D01*
X51072Y-40414D01*
X51072Y-40530D01*
X50680Y-40530D01*
X50588Y-40568D01*
X50518Y-40638D01*
X50480Y-40729D01*
X50480Y-40828D01*
X50480Y-41260D01*
X50518Y-41352D01*
X50588Y-41422D01*
X50679Y-41460D01*
X50778Y-41460D01*
X51564Y-41460D01*
X51656Y-41422D01*
X51659Y-41418D01*
X52496Y-42254D01*
X52496Y-42676D01*
X52009Y-42189D01*
X52009Y-41979D01*
X51985Y-41857D01*
X51915Y-41753D01*
X51811Y-41683D01*
X51745Y-41670D01*
X51726Y-41622D01*
X51656Y-41552D01*
X51565Y-41514D01*
X51466Y-41514D01*
X50680Y-41514D01*
X50588Y-41552D01*
X50518Y-41622D01*
X50480Y-41713D01*
X50480Y-41812D01*
X50480Y-42244D01*
X50518Y-42336D01*
X50588Y-42406D01*
X50679Y-42444D01*
X50778Y-42444D01*
X51392Y-42444D01*
X51393Y-42445D01*
X51429Y-42498D01*
X50680Y-42498D01*
X50588Y-42536D01*
X50518Y-42606D01*
X50480Y-42697D01*
X50480Y-42796D01*
X50480Y-43228D01*
X50488Y-43248D01*
X50361Y-43196D01*
X50152Y-43196D01*
X49959Y-43276D01*
X49811Y-43423D01*
X49731Y-43616D01*
X49731Y-43825D01*
X49811Y-44018D01*
X49958Y-44166D01*
X50151Y-44246D01*
X50360Y-44246D01*
X50553Y-44166D01*
X50701Y-44019D01*
X50781Y-43826D01*
X50781Y-43617D01*
X50702Y-43428D01*
X50778Y-43428D01*
X51564Y-43428D01*
X51656Y-43390D01*
X51726Y-43320D01*
X51764Y-43229D01*
X51764Y-43130D01*
X51764Y-42849D01*
X57904Y-48990D01*
X57905Y-48990D01*
X57974Y-49036D01*
X58008Y-49059D01*
X58009Y-49060D01*
X58131Y-49084D01*
X66631Y-49084D01*
X67995Y-50448D01*
X67884Y-50448D01*
X67684Y-50531D01*
X67531Y-50684D01*
X67492Y-50777D01*
X67453Y-50684D01*
X67300Y-50531D01*
X67100Y-50448D01*
X66884Y-50448D01*
X66684Y-50531D01*
X66531Y-50684D01*
X66492Y-50777D01*
X66453Y-50684D01*
X66300Y-50531D01*
X66100Y-50448D01*
X65884Y-50448D01*
X65684Y-50531D01*
X65531Y-50684D01*
X65492Y-50777D01*
X65453Y-50684D01*
X65300Y-50531D01*
X65100Y-50448D01*
X64884Y-50448D01*
X64684Y-50531D01*
X64531Y-50684D01*
X64492Y-50777D01*
X64453Y-50684D01*
X64300Y-50531D01*
X64100Y-50448D01*
X63884Y-50448D01*
X63684Y-50531D01*
X63531Y-50684D01*
X63492Y-50777D01*
X63453Y-50684D01*
X63300Y-50531D01*
X63100Y-50448D01*
X62884Y-50448D01*
X62684Y-50531D01*
X62531Y-50684D01*
X62492Y-50777D01*
X62453Y-50684D01*
X62300Y-50531D01*
X62100Y-50448D01*
X61884Y-50448D01*
X61684Y-50531D01*
X61531Y-50684D01*
X61492Y-50777D01*
X61453Y-50684D01*
X61300Y-50531D01*
X61100Y-50448D01*
X60884Y-50448D01*
X60684Y-50531D01*
X60531Y-50684D01*
X60492Y-50777D01*
X60453Y-50684D01*
X60300Y-50531D01*
X60100Y-50448D01*
X59884Y-50448D01*
X59684Y-50531D01*
X59531Y-50684D01*
X59492Y-50777D01*
X59453Y-50684D01*
X59300Y-50531D01*
X59100Y-50448D01*
X58884Y-50448D01*
X58684Y-50531D01*
X58531Y-50684D01*
X58489Y-50784D01*
X58460Y-50713D01*
X58367Y-50688D01*
X58296Y-50759D01*
X58296Y-50617D01*
X58271Y-50524D01*
X58070Y-50452D01*
X57858Y-50464D01*
X57713Y-50524D01*
X57688Y-50617D01*
X57992Y-50921D01*
X58296Y-50617D01*
X58296Y-50759D01*
X58063Y-50992D01*
X58367Y-51296D01*
X58460Y-51271D01*
X58487Y-51194D01*
X58531Y-51300D01*
X58684Y-51453D01*
X58884Y-51536D01*
X59100Y-51536D01*
X59300Y-51453D01*
X59453Y-51300D01*
X59492Y-51206D01*
X59531Y-51300D01*
X59684Y-51453D01*
X59884Y-51536D01*
X60100Y-51536D01*
X60300Y-51453D01*
X60453Y-51300D01*
X60492Y-51206D01*
X60531Y-51300D01*
X60684Y-51453D01*
X60884Y-51536D01*
X61100Y-51536D01*
X61300Y-51453D01*
X61453Y-51300D01*
X61492Y-51206D01*
X61531Y-51300D01*
X61684Y-51453D01*
X61884Y-51536D01*
X62083Y-51536D01*
X62216Y-51669D01*
X58296Y-51669D01*
X58296Y-51367D01*
X57992Y-51063D01*
X57921Y-51134D01*
X57921Y-50992D01*
X57617Y-50688D01*
X57524Y-50713D01*
X57452Y-50914D01*
X57464Y-51126D01*
X57524Y-51271D01*
X57617Y-51296D01*
X57921Y-50992D01*
X57921Y-51134D01*
X57688Y-51367D01*
X57713Y-51460D01*
X57914Y-51532D01*
X58126Y-51520D01*
X58271Y-51460D01*
X58296Y-51367D01*
X58296Y-51669D01*
X49108Y-51669D01*
X49108Y-45408D01*
X49108Y-45184D01*
X49108Y-33990D01*
X49108Y-33766D01*
X49107Y-33436D01*
X49069Y-33344D01*
X48999Y-33274D01*
X48908Y-33236D01*
X48809Y-33236D01*
X48577Y-33235D01*
X48515Y-33297D01*
X48515Y-33828D01*
X49046Y-33828D01*
X49108Y-33766D01*
X49108Y-33990D01*
X49046Y-33928D01*
X48515Y-33928D01*
X48515Y-34459D01*
X48577Y-34521D01*
X48809Y-34520D01*
X48908Y-34520D01*
X48999Y-34482D01*
X49069Y-34412D01*
X49107Y-34320D01*
X49108Y-33990D01*
X49108Y-45184D01*
X49107Y-44854D01*
X49069Y-44762D01*
X48999Y-44692D01*
X48908Y-44654D01*
X48809Y-44654D01*
X48577Y-44653D01*
X48515Y-44715D01*
X48515Y-45246D01*
X49046Y-45246D01*
X49108Y-45184D01*
X49108Y-45408D01*
X49046Y-45346D01*
X48515Y-45346D01*
X48515Y-45877D01*
X48577Y-45939D01*
X48809Y-45938D01*
X48908Y-45938D01*
X48999Y-45900D01*
X49069Y-45830D01*
X49107Y-45738D01*
X49108Y-45408D01*
X49108Y-51669D01*
X48415Y-51669D01*
X48415Y-45877D01*
X48415Y-45346D01*
X48415Y-45246D01*
X48415Y-44715D01*
X48415Y-34459D01*
X48415Y-33928D01*
X48415Y-33828D01*
X48415Y-33297D01*
X48353Y-33235D01*
X48121Y-33236D01*
X48022Y-33236D01*
X47931Y-33274D01*
X47861Y-33344D01*
X47823Y-33436D01*
X47822Y-33766D01*
X47884Y-33828D01*
X48415Y-33828D01*
X48415Y-33928D01*
X47884Y-33928D01*
X47822Y-33990D01*
X47823Y-34320D01*
X47861Y-34412D01*
X47931Y-34482D01*
X48022Y-34520D01*
X48121Y-34520D01*
X48353Y-34521D01*
X48415Y-34459D01*
X48415Y-44715D01*
X48353Y-44653D01*
X48121Y-44654D01*
X48022Y-44654D01*
X47931Y-44692D01*
X47861Y-44762D01*
X47823Y-44854D01*
X47822Y-45184D01*
X47884Y-45246D01*
X48415Y-45246D01*
X48415Y-45346D01*
X47884Y-45346D01*
X47822Y-45408D01*
X47823Y-45738D01*
X47861Y-45830D01*
X47931Y-45900D01*
X48022Y-45938D01*
X48121Y-45938D01*
X48353Y-45939D01*
X48415Y-45877D01*
X48415Y-51669D01*
X47080Y-51669D01*
X47080Y-34479D01*
X47080Y-34380D01*
X47080Y-33594D01*
X47042Y-33502D01*
X46972Y-33432D01*
X46881Y-33394D01*
X46782Y-33394D01*
X46388Y-33394D01*
X46296Y-33432D01*
X46226Y-33502D01*
X46188Y-33593D01*
X46188Y-33692D01*
X46188Y-34478D01*
X46226Y-34570D01*
X46296Y-34640D01*
X46387Y-34678D01*
X46486Y-34678D01*
X46880Y-34678D01*
X46972Y-34640D01*
X47042Y-34570D01*
X47080Y-34479D01*
X47080Y-51669D01*
X45083Y-51669D01*
X45137Y-51616D01*
X45339Y-51130D01*
X45339Y-50604D01*
X45138Y-50118D01*
X44766Y-49745D01*
X44280Y-49543D01*
X43754Y-49543D01*
X43556Y-49624D01*
X43556Y-34479D01*
X43556Y-34380D01*
X43556Y-33594D01*
X43518Y-33502D01*
X43448Y-33432D01*
X43357Y-33394D01*
X43258Y-33394D01*
X42864Y-33394D01*
X42772Y-33432D01*
X42702Y-33502D01*
X42664Y-33593D01*
X42664Y-33692D01*
X42664Y-34478D01*
X42702Y-34570D01*
X42772Y-34640D01*
X42863Y-34678D01*
X42962Y-34678D01*
X43356Y-34678D01*
X43448Y-34640D01*
X43518Y-34570D01*
X43556Y-34479D01*
X43556Y-49624D01*
X43477Y-49657D01*
X43477Y-48341D01*
X43477Y-47960D01*
X43331Y-47608D01*
X43062Y-47339D01*
X42711Y-47193D01*
X42533Y-47193D01*
X42533Y-34479D01*
X42533Y-34380D01*
X42533Y-33594D01*
X42495Y-33502D01*
X42425Y-33432D01*
X42334Y-33394D01*
X42235Y-33394D01*
X41841Y-33394D01*
X41760Y-33427D01*
X41726Y-33344D01*
X41656Y-33274D01*
X41565Y-33236D01*
X41466Y-33236D01*
X41234Y-33235D01*
X41172Y-33297D01*
X41172Y-33778D01*
X41172Y-33828D01*
X41172Y-33928D01*
X41172Y-33978D01*
X41172Y-34459D01*
X41234Y-34521D01*
X41466Y-34520D01*
X41565Y-34520D01*
X41644Y-34486D01*
X41679Y-34570D01*
X41749Y-34640D01*
X41840Y-34678D01*
X41939Y-34678D01*
X42333Y-34678D01*
X42425Y-34640D01*
X42495Y-34570D01*
X42533Y-34479D01*
X42533Y-47193D01*
X42330Y-47193D01*
X41978Y-47339D01*
X41765Y-47552D01*
X41765Y-45408D01*
X41765Y-45184D01*
X41764Y-44854D01*
X41726Y-44762D01*
X41656Y-44692D01*
X41565Y-44654D01*
X41466Y-44654D01*
X41234Y-44653D01*
X41172Y-44715D01*
X41172Y-45246D01*
X41703Y-45246D01*
X41765Y-45184D01*
X41765Y-45408D01*
X41703Y-45346D01*
X41172Y-45346D01*
X41172Y-45877D01*
X41234Y-45939D01*
X41466Y-45938D01*
X41565Y-45938D01*
X41656Y-45900D01*
X41726Y-45830D01*
X41764Y-45738D01*
X41765Y-45408D01*
X41765Y-47552D01*
X41709Y-47608D01*
X41563Y-47959D01*
X41563Y-48340D01*
X41709Y-48692D01*
X41978Y-48961D01*
X42329Y-49107D01*
X42710Y-49107D01*
X43062Y-48961D01*
X43331Y-48692D01*
X43477Y-48341D01*
X43477Y-49657D01*
X43268Y-49744D01*
X42895Y-50116D01*
X42693Y-50602D01*
X42693Y-51128D01*
X42894Y-51614D01*
X42948Y-51669D01*
X42296Y-51669D01*
X42296Y-50191D01*
X42296Y-49810D01*
X42150Y-49458D01*
X41881Y-49189D01*
X41530Y-49043D01*
X41149Y-49043D01*
X41099Y-49063D01*
X41099Y-48325D01*
X41095Y-47951D01*
X41072Y-47895D01*
X41072Y-45877D01*
X41072Y-45346D01*
X41072Y-45246D01*
X41072Y-44715D01*
X41072Y-34459D01*
X41072Y-33928D01*
X41072Y-33828D01*
X41072Y-33297D01*
X41010Y-33235D01*
X40778Y-33236D01*
X40679Y-33236D01*
X40588Y-33274D01*
X40518Y-33344D01*
X40480Y-33436D01*
X40479Y-33766D01*
X40541Y-33828D01*
X41072Y-33828D01*
X41072Y-33928D01*
X40541Y-33928D01*
X40479Y-33990D01*
X40480Y-34320D01*
X40518Y-34412D01*
X40588Y-34482D01*
X40679Y-34520D01*
X40778Y-34520D01*
X41010Y-34521D01*
X41072Y-34459D01*
X41072Y-44715D01*
X41010Y-44653D01*
X40778Y-44654D01*
X40679Y-44654D01*
X40588Y-44692D01*
X40518Y-44762D01*
X40480Y-44854D01*
X40479Y-45184D01*
X40541Y-45246D01*
X41072Y-45246D01*
X41072Y-45346D01*
X40541Y-45346D01*
X40479Y-45408D01*
X40480Y-45738D01*
X40518Y-45830D01*
X40588Y-45900D01*
X40679Y-45938D01*
X40778Y-45938D01*
X41010Y-45939D01*
X41072Y-45877D01*
X41072Y-47895D01*
X40961Y-47629D01*
X40826Y-47553D01*
X40755Y-47624D01*
X40755Y-47482D01*
X40679Y-47347D01*
X40333Y-47209D01*
X39959Y-47213D01*
X39637Y-47347D01*
X39561Y-47482D01*
X40158Y-48079D01*
X40755Y-47482D01*
X40755Y-47624D01*
X40229Y-48150D01*
X40826Y-48747D01*
X40961Y-48671D01*
X41099Y-48325D01*
X41099Y-49063D01*
X40797Y-49189D01*
X40755Y-49231D01*
X40755Y-48818D01*
X40158Y-48221D01*
X39561Y-48818D01*
X39637Y-48953D01*
X39983Y-49091D01*
X40357Y-49087D01*
X40679Y-48953D01*
X40755Y-48818D01*
X40755Y-49231D01*
X40528Y-49458D01*
X40382Y-49809D01*
X40382Y-50190D01*
X40528Y-50542D01*
X40797Y-50811D01*
X41148Y-50957D01*
X41529Y-50957D01*
X41881Y-50811D01*
X42150Y-50542D01*
X42296Y-50191D01*
X42296Y-51669D01*
X39276Y-51669D01*
X39276Y-48481D01*
X39355Y-48671D01*
X39490Y-48747D01*
X40087Y-48150D01*
X39490Y-47553D01*
X39355Y-47629D01*
X39276Y-47827D01*
X39276Y-31009D01*
X43478Y-31009D01*
X43387Y-31100D01*
X43185Y-31586D01*
X43185Y-32112D01*
X43386Y-32598D01*
X43758Y-32971D01*
X44244Y-33173D01*
X44770Y-33173D01*
X45256Y-32972D01*
X45629Y-32600D01*
X45831Y-32114D01*
X45831Y-31588D01*
X45630Y-31102D01*
X45537Y-31009D01*
X57213Y-31009D01*
X57103Y-31055D01*
X56955Y-31202D01*
X56875Y-31395D01*
X56875Y-31604D01*
X56906Y-31680D01*
X56820Y-31738D01*
X56680Y-31878D01*
X56200Y-31878D01*
X56200Y-31688D01*
X56199Y-31624D01*
X56199Y-31525D01*
X56161Y-31434D01*
X56091Y-31364D01*
X55999Y-31326D01*
X55962Y-31325D01*
X55900Y-31387D01*
X55900Y-31750D01*
X56138Y-31750D01*
X56200Y-31688D01*
X56200Y-31878D01*
X56166Y-31878D01*
X56138Y-31850D01*
X55950Y-31850D01*
X55900Y-31850D01*
X55800Y-31850D01*
X55800Y-31750D01*
X55800Y-31387D01*
X55738Y-31325D01*
X55701Y-31326D01*
X55609Y-31364D01*
X55600Y-31373D01*
X55591Y-31364D01*
X55499Y-31326D01*
X55462Y-31325D01*
X55400Y-31387D01*
X55400Y-31750D01*
X55562Y-31750D01*
X55638Y-31750D01*
X55800Y-31750D01*
X55800Y-31850D01*
X55750Y-31850D01*
X55638Y-31850D01*
X55562Y-31850D01*
X55450Y-31850D01*
X55400Y-31850D01*
X55300Y-31850D01*
X55300Y-31750D01*
X55300Y-31387D01*
X55238Y-31325D01*
X55201Y-31326D01*
X55109Y-31364D01*
X55100Y-31373D01*
X55091Y-31364D01*
X54999Y-31326D01*
X54962Y-31325D01*
X54900Y-31387D01*
X54900Y-31750D01*
X55062Y-31750D01*
X55138Y-31750D01*
X55300Y-31750D01*
X55300Y-31850D01*
X55250Y-31850D01*
X55138Y-31850D01*
X55062Y-31850D01*
X54950Y-31850D01*
X54900Y-31850D01*
X54800Y-31850D01*
X54800Y-31750D01*
X54800Y-31387D01*
X54738Y-31325D01*
X54701Y-31326D01*
X54609Y-31364D01*
X54600Y-31373D01*
X54591Y-31364D01*
X54499Y-31326D01*
X54462Y-31325D01*
X54400Y-31387D01*
X54400Y-31750D01*
X54562Y-31750D01*
X54638Y-31750D01*
X54800Y-31750D01*
X54800Y-31850D01*
X54750Y-31850D01*
X54638Y-31850D01*
X54562Y-31850D01*
X54450Y-31850D01*
X54400Y-31850D01*
X54300Y-31850D01*
X54300Y-31750D01*
X54300Y-31387D01*
X54238Y-31325D01*
X54201Y-31326D01*
X54109Y-31364D01*
X54100Y-31373D01*
X54091Y-31364D01*
X53999Y-31326D01*
X53962Y-31325D01*
X53900Y-31387D01*
X53900Y-31750D01*
X54062Y-31750D01*
X54138Y-31750D01*
X54300Y-31750D01*
X54300Y-31850D01*
X54250Y-31850D01*
X54138Y-31850D01*
X54062Y-31850D01*
X53950Y-31850D01*
X53900Y-31850D01*
X53800Y-31850D01*
X53800Y-31750D01*
X53800Y-31700D01*
X53800Y-31387D01*
X53738Y-31325D01*
X53701Y-31326D01*
X53658Y-31343D01*
X53646Y-31280D01*
X53576Y-31176D01*
X53472Y-31106D01*
X53350Y-31082D01*
X52110Y-31082D01*
X51988Y-31106D01*
X51986Y-31106D01*
X51986Y-31107D01*
X51883Y-31176D01*
X51667Y-31393D01*
X51597Y-31496D01*
X51573Y-31619D01*
X51573Y-32785D01*
X51597Y-32908D01*
X51667Y-33011D01*
X53509Y-34854D01*
X53471Y-34862D01*
X53368Y-34932D01*
X53124Y-35176D01*
X53054Y-35279D01*
X53041Y-35343D01*
X53000Y-35326D01*
X52901Y-35326D01*
X52701Y-35326D01*
X52609Y-35364D01*
X52600Y-35373D01*
X52591Y-35364D01*
X52500Y-35326D01*
X52401Y-35326D01*
X52201Y-35326D01*
X52109Y-35364D01*
X52039Y-35434D01*
X52001Y-35525D01*
X52001Y-35624D01*
X52001Y-36062D01*
X51985Y-35981D01*
X51915Y-35877D01*
X51811Y-35807D01*
X51745Y-35794D01*
X51735Y-35768D01*
X51764Y-35699D01*
X51764Y-35600D01*
X51764Y-35168D01*
X51726Y-35076D01*
X51656Y-35006D01*
X51565Y-34968D01*
X51466Y-34968D01*
X50781Y-34968D01*
X50781Y-34798D01*
X50701Y-34605D01*
X50554Y-34457D01*
X50361Y-34377D01*
X50152Y-34377D01*
X49959Y-34457D01*
X49811Y-34604D01*
X49731Y-34797D01*
X49731Y-35006D01*
X49811Y-35199D01*
X49958Y-35347D01*
X50151Y-35427D01*
X50360Y-35427D01*
X50480Y-35377D01*
X50480Y-35698D01*
X50508Y-35767D01*
X50480Y-35837D01*
X50480Y-35936D01*
X50480Y-36368D01*
X50518Y-36460D01*
X50588Y-36530D01*
X50679Y-36568D01*
X50778Y-36568D01*
X51369Y-36568D01*
X51369Y-36592D01*
X51234Y-36592D01*
X51172Y-36654D01*
X51172Y-36958D01*
X51172Y-37008D01*
X51172Y-37108D01*
X51172Y-37158D01*
X51172Y-37462D01*
X51234Y-37524D01*
X51466Y-37523D01*
X51565Y-37523D01*
X51656Y-37485D01*
X51726Y-37415D01*
X51764Y-37323D01*
X51764Y-37198D01*
X52288Y-37722D01*
X51741Y-37722D01*
X51726Y-37685D01*
X51656Y-37615D01*
X51565Y-37577D01*
X51466Y-37577D01*
X51072Y-37577D01*
X51072Y-37462D01*
X51072Y-37108D01*
X51072Y-37008D01*
X51072Y-36654D01*
X51010Y-36592D01*
X50778Y-36593D01*
X50679Y-36593D01*
X50588Y-36631D01*
X50518Y-36701D01*
X50480Y-36793D01*
X50479Y-36946D01*
X50541Y-37008D01*
X51072Y-37008D01*
X51072Y-37108D01*
X50541Y-37108D01*
X50479Y-37170D01*
X50480Y-37323D01*
X50518Y-37415D01*
X50588Y-37485D01*
X50679Y-37523D01*
X50778Y-37523D01*
X51010Y-37524D01*
X51072Y-37462D01*
X51072Y-37577D01*
X50680Y-37577D01*
X50588Y-37615D01*
X50518Y-37685D01*
X50480Y-37776D01*
X50480Y-37875D01*
X50480Y-38307D01*
X50518Y-38399D01*
X50588Y-38469D01*
X50679Y-38507D01*
X50778Y-38507D01*
X51564Y-38507D01*
X51656Y-38469D01*
X51726Y-38399D01*
X51741Y-38362D01*
X66462Y-38362D01*
X66435Y-38389D01*
X66351Y-38591D01*
X66351Y-38809D01*
X66435Y-39011D01*
X66589Y-39165D01*
X66673Y-39200D01*
X66589Y-39235D01*
X66435Y-39389D01*
X66351Y-39591D01*
X66351Y-39809D01*
X66391Y-39906D01*
X62808Y-39906D01*
X62808Y-39403D01*
X62808Y-39171D01*
X62719Y-38956D01*
X62555Y-38792D01*
X62340Y-38703D01*
X62108Y-38703D01*
X61893Y-38792D01*
X61729Y-38956D01*
X61640Y-39171D01*
X61640Y-39403D01*
X61729Y-39618D01*
X61893Y-39782D01*
X62108Y-39871D01*
X62340Y-39871D01*
X62555Y-39782D01*
X62719Y-39618D01*
X62808Y-39403D01*
X62808Y-39906D01*
X59074Y-39906D01*
X58951Y-39930D01*
X58848Y-40000D01*
X58363Y-40484D01*
X57565Y-39686D01*
X57611Y-39641D01*
X57649Y-39550D01*
X57649Y-39451D01*
X57649Y-38851D01*
X57611Y-38759D01*
X57541Y-38689D01*
X57450Y-38651D01*
X57351Y-38651D01*
X56751Y-38651D01*
X56659Y-38689D01*
X56589Y-38759D01*
X56551Y-38850D01*
X56551Y-38912D01*
X56478Y-38892D01*
X56408Y-38962D01*
X56408Y-38822D01*
X56381Y-38728D01*
X56179Y-38657D01*
X55966Y-38668D01*
X55819Y-38728D01*
X55792Y-38822D01*
X56100Y-39129D01*
X56408Y-38822D01*
X56408Y-38962D01*
X56171Y-39200D01*
X56478Y-39508D01*
X56551Y-39487D01*
X56551Y-39549D01*
X56589Y-39641D01*
X56659Y-39711D01*
X56750Y-39749D01*
X56794Y-39749D01*
X56804Y-39796D01*
X56874Y-39899D01*
X57911Y-40936D01*
X57672Y-41175D01*
X57496Y-41175D01*
X57303Y-41255D01*
X57155Y-41402D01*
X57128Y-41466D01*
X57117Y-41474D01*
X56561Y-42030D01*
X56408Y-42030D01*
X56408Y-39578D01*
X56100Y-39271D01*
X56029Y-39341D01*
X56029Y-39200D01*
X55722Y-38892D01*
X55628Y-38919D01*
X55557Y-39121D01*
X55568Y-39334D01*
X55628Y-39481D01*
X55722Y-39508D01*
X56029Y-39200D01*
X56029Y-39341D01*
X55792Y-39578D01*
X55819Y-39672D01*
X56021Y-39743D01*
X56234Y-39732D01*
X56381Y-39672D01*
X56408Y-39578D01*
X56408Y-42030D01*
X55420Y-42030D01*
X55416Y-42019D01*
X55252Y-41855D01*
X55037Y-41766D01*
X54805Y-41766D01*
X54590Y-41855D01*
X54426Y-42019D01*
X54343Y-42219D01*
X54343Y-39579D01*
X54332Y-39366D01*
X54272Y-39219D01*
X54178Y-39192D01*
X54108Y-39262D01*
X54108Y-39122D01*
X54081Y-39028D01*
X53879Y-38957D01*
X53666Y-38968D01*
X53519Y-39028D01*
X53492Y-39122D01*
X53800Y-39429D01*
X54108Y-39122D01*
X54108Y-39262D01*
X53871Y-39500D01*
X54178Y-39808D01*
X54272Y-39781D01*
X54343Y-39579D01*
X54343Y-42219D01*
X54337Y-42234D01*
X54337Y-42466D01*
X54426Y-42681D01*
X54590Y-42845D01*
X54618Y-42856D01*
X54589Y-42948D01*
X54921Y-43279D01*
X55253Y-42948D01*
X55223Y-42856D01*
X55252Y-42845D01*
X55416Y-42681D01*
X55420Y-42670D01*
X56373Y-42670D01*
X56373Y-43693D01*
X56397Y-43816D01*
X56467Y-43919D01*
X57448Y-44900D01*
X57448Y-45100D01*
X57531Y-45300D01*
X57684Y-45453D01*
X57884Y-45536D01*
X58100Y-45536D01*
X58300Y-45453D01*
X58453Y-45300D01*
X58492Y-45206D01*
X58531Y-45300D01*
X58684Y-45453D01*
X58884Y-45536D01*
X59100Y-45536D01*
X59300Y-45453D01*
X59453Y-45300D01*
X59492Y-45206D01*
X59531Y-45300D01*
X59684Y-45453D01*
X59884Y-45536D01*
X60100Y-45536D01*
X60300Y-45453D01*
X60453Y-45300D01*
X60492Y-45206D01*
X60531Y-45300D01*
X60684Y-45453D01*
X60884Y-45536D01*
X61100Y-45536D01*
X61300Y-45453D01*
X61453Y-45300D01*
X61492Y-45206D01*
X61531Y-45300D01*
X61684Y-45453D01*
X61884Y-45536D01*
X62100Y-45536D01*
X62300Y-45453D01*
X62453Y-45300D01*
X62492Y-45206D01*
X62531Y-45300D01*
X62684Y-45453D01*
X62884Y-45536D01*
X63100Y-45536D01*
X63300Y-45453D01*
X63453Y-45300D01*
X63492Y-45206D01*
X63531Y-45300D01*
X63684Y-45453D01*
X63884Y-45536D01*
X64100Y-45536D01*
X64300Y-45453D01*
X64453Y-45300D01*
X64492Y-45206D01*
X64531Y-45300D01*
X64684Y-45453D01*
X64884Y-45536D01*
X65100Y-45536D01*
X65300Y-45453D01*
X65453Y-45300D01*
X65492Y-45206D01*
X65531Y-45300D01*
X65684Y-45453D01*
X65884Y-45536D01*
X66100Y-45536D01*
X66300Y-45453D01*
X66453Y-45300D01*
X66492Y-45206D01*
X66531Y-45300D01*
X66684Y-45453D01*
X66884Y-45536D01*
X67100Y-45536D01*
X67300Y-45453D01*
X67453Y-45300D01*
X67492Y-45206D01*
X67531Y-45300D01*
X67684Y-45453D01*
X67884Y-45536D01*
X68100Y-45536D01*
X68300Y-45453D01*
X68453Y-45300D01*
X68492Y-45206D01*
X68531Y-45300D01*
X68684Y-45453D01*
X68884Y-45536D01*
X69100Y-45536D01*
X69300Y-45453D01*
X69453Y-45300D01*
X69492Y-45206D01*
X69531Y-45300D01*
X69684Y-45453D01*
X69884Y-45536D01*
X70100Y-45536D01*
X70300Y-45453D01*
X70453Y-45300D01*
X70492Y-45206D01*
X70531Y-45300D01*
X70684Y-45453D01*
X70777Y-45492D01*
X70684Y-45531D01*
X70531Y-45684D01*
X70448Y-45884D01*
X70448Y-46100D01*
X70531Y-46300D01*
X70684Y-46453D01*
X70777Y-46492D01*
X70684Y-46531D01*
X70531Y-46684D01*
X70448Y-46884D01*
X70448Y-47100D01*
X70531Y-47300D01*
X70684Y-47453D01*
X70777Y-47492D01*
X70684Y-47531D01*
X70531Y-47684D01*
X70448Y-47884D01*
X70448Y-48100D01*
X70531Y-48300D01*
X70684Y-48453D01*
X70777Y-48492D01*
X70684Y-48531D01*
X70531Y-48684D01*
X70448Y-48884D01*
X70448Y-49100D01*
X70531Y-49300D01*
X70684Y-49453D01*
X70777Y-49492D01*
X70777Y-49492D01*
G37*
G54D28*
X70777Y-49492D02*
X70684Y-49531D01*
X70531Y-49684D01*
X70448Y-49884D01*
X70448Y-49917D01*
X69874Y-49343D01*
X69874Y-49286D01*
X69810Y-49130D01*
X69690Y-49010D01*
X69534Y-48945D01*
X69365Y-48945D01*
X69209Y-49009D01*
X69089Y-49129D01*
X69024Y-49285D01*
X69024Y-49454D01*
X69088Y-49610D01*
X69208Y-49730D01*
X69364Y-49795D01*
X69422Y-49795D01*
X70075Y-50448D01*
X69900Y-50448D01*
X67467Y-48015D01*
X67364Y-47945D01*
X67241Y-47921D01*
X58085Y-47921D01*
X55080Y-44916D01*
X55252Y-44845D01*
X55416Y-44681D01*
X55505Y-44466D01*
X55505Y-44234D01*
X55497Y-44214D01*
X55497Y-43437D01*
X55487Y-43210D01*
X55420Y-43049D01*
X55323Y-43018D01*
X54992Y-43350D01*
X55323Y-43682D01*
X55420Y-43651D01*
X55497Y-43437D01*
X55497Y-44214D01*
X55416Y-44019D01*
X55252Y-43855D01*
X55223Y-43843D01*
X55253Y-43752D01*
X54921Y-43421D01*
X54850Y-43491D01*
X54850Y-43350D01*
X54519Y-43018D01*
X54422Y-43049D01*
X54345Y-43263D01*
X54355Y-43490D01*
X54422Y-43651D01*
X54519Y-43682D01*
X54850Y-43350D01*
X54850Y-43491D01*
X54589Y-43752D01*
X54618Y-43843D01*
X54590Y-43855D01*
X54426Y-44019D01*
X54354Y-44190D01*
X54108Y-43943D01*
X54108Y-39878D01*
X53800Y-39571D01*
X53729Y-39641D01*
X53729Y-39500D01*
X53422Y-39192D01*
X53349Y-39212D01*
X53349Y-39151D01*
X53311Y-39059D01*
X53241Y-38989D01*
X53150Y-38951D01*
X53051Y-38951D01*
X52451Y-38951D01*
X52359Y-38989D01*
X52313Y-39034D01*
X52079Y-38800D01*
X51976Y-38730D01*
X51853Y-38706D01*
X51741Y-38706D01*
X51726Y-38669D01*
X51656Y-38599D01*
X51565Y-38561D01*
X51466Y-38561D01*
X50680Y-38561D01*
X50588Y-38599D01*
X50518Y-38669D01*
X50480Y-38760D01*
X50480Y-38859D01*
X50480Y-39291D01*
X50518Y-39383D01*
X50588Y-39453D01*
X50679Y-39491D01*
X50778Y-39491D01*
X51564Y-39491D01*
X51656Y-39453D01*
X51726Y-39383D01*
X51735Y-39360D01*
X52100Y-39726D01*
X52101Y-39726D01*
X52170Y-39772D01*
X52204Y-39795D01*
X52205Y-39796D01*
X52251Y-39805D01*
X52251Y-39849D01*
X52289Y-39941D01*
X52359Y-40011D01*
X52450Y-40049D01*
X52549Y-40049D01*
X53149Y-40049D01*
X53241Y-40011D01*
X53311Y-39941D01*
X53349Y-39850D01*
X53349Y-39787D01*
X53422Y-39808D01*
X53729Y-39500D01*
X53729Y-39641D01*
X53492Y-39878D01*
X53519Y-39972D01*
X53721Y-40043D01*
X53934Y-40032D01*
X54081Y-39972D01*
X54108Y-39878D01*
X54108Y-43943D01*
X53136Y-42971D01*
X53136Y-42122D01*
X53135Y-42121D01*
X53112Y-42000D01*
X53111Y-41998D01*
X53042Y-41896D01*
X53042Y-41895D01*
X51915Y-40769D01*
X51812Y-40699D01*
X51765Y-40689D01*
X51765Y-40122D01*
X51765Y-39898D01*
X51764Y-39745D01*
X51726Y-39653D01*
X51656Y-39583D01*
X51565Y-39545D01*
X51466Y-39545D01*
X51234Y-39544D01*
X51172Y-39606D01*
X51172Y-39960D01*
X51703Y-39960D01*
X51765Y-39898D01*
X51765Y-40122D01*
X51703Y-40060D01*
X51172Y-40060D01*
X51172Y-40414D01*
X51234Y-40476D01*
X51466Y-40475D01*
X51565Y-40475D01*
X51656Y-40437D01*
X51726Y-40367D01*
X51764Y-40275D01*
X51765Y-40122D01*
X51765Y-40689D01*
X51745Y-40686D01*
X51726Y-40638D01*
X51656Y-40568D01*
X51565Y-40530D01*
X51466Y-40530D01*
X51072Y-40530D01*
X51072Y-40414D01*
X51072Y-40060D01*
X51072Y-39960D01*
X51072Y-39606D01*
X51010Y-39544D01*
X50778Y-39545D01*
X50679Y-39545D01*
X50588Y-39583D01*
X50518Y-39653D01*
X50480Y-39745D01*
X50479Y-39898D01*
X50541Y-39960D01*
X51072Y-39960D01*
X51072Y-40060D01*
X50541Y-40060D01*
X50479Y-40122D01*
X50480Y-40275D01*
X50518Y-40367D01*
X50588Y-40437D01*
X50679Y-40475D01*
X50778Y-40475D01*
X51010Y-40476D01*
X51072Y-40414D01*
X51072Y-40530D01*
X50680Y-40530D01*
X50588Y-40568D01*
X50518Y-40638D01*
X50480Y-40729D01*
X50480Y-40828D01*
X50480Y-41260D01*
X50518Y-41352D01*
X50588Y-41422D01*
X50679Y-41460D01*
X50778Y-41460D01*
X51564Y-41460D01*
X51656Y-41422D01*
X51659Y-41418D01*
X52496Y-42254D01*
X52496Y-42676D01*
X52009Y-42189D01*
X52009Y-41979D01*
X51985Y-41857D01*
X51915Y-41753D01*
X51811Y-41683D01*
X51745Y-41670D01*
X51726Y-41622D01*
X51656Y-41552D01*
X51565Y-41514D01*
X51466Y-41514D01*
X50680Y-41514D01*
X50588Y-41552D01*
X50518Y-41622D01*
X50480Y-41713D01*
X50480Y-41812D01*
X50480Y-42244D01*
X50518Y-42336D01*
X50588Y-42406D01*
X50679Y-42444D01*
X50778Y-42444D01*
X51392Y-42444D01*
X51393Y-42445D01*
X51429Y-42498D01*
X50680Y-42498D01*
X50588Y-42536D01*
X50518Y-42606D01*
X50480Y-42697D01*
X50480Y-42796D01*
X50480Y-43228D01*
X50488Y-43248D01*
X50361Y-43196D01*
X50152Y-43196D01*
X49959Y-43276D01*
X49811Y-43423D01*
X49731Y-43616D01*
X49731Y-43825D01*
X49811Y-44018D01*
X49958Y-44166D01*
X50151Y-44246D01*
X50360Y-44246D01*
X50553Y-44166D01*
X50701Y-44019D01*
X50781Y-43826D01*
X50781Y-43617D01*
X50702Y-43428D01*
X50778Y-43428D01*
X51564Y-43428D01*
X51656Y-43390D01*
X51726Y-43320D01*
X51764Y-43229D01*
X51764Y-43130D01*
X51764Y-42849D01*
X57904Y-48990D01*
X57905Y-48990D01*
X57974Y-49036D01*
X58008Y-49059D01*
X58009Y-49060D01*
X58131Y-49084D01*
X66631Y-49084D01*
X67995Y-50448D01*
X67884Y-50448D01*
X67684Y-50531D01*
X67531Y-50684D01*
X67492Y-50777D01*
X67453Y-50684D01*
X67300Y-50531D01*
X67100Y-50448D01*
X66884Y-50448D01*
X66684Y-50531D01*
X66531Y-50684D01*
X66492Y-50777D01*
X66453Y-50684D01*
X66300Y-50531D01*
X66100Y-50448D01*
X65884Y-50448D01*
X65684Y-50531D01*
X65531Y-50684D01*
X65492Y-50777D01*
X65453Y-50684D01*
X65300Y-50531D01*
X65100Y-50448D01*
X64884Y-50448D01*
X64684Y-50531D01*
X64531Y-50684D01*
X64492Y-50777D01*
X64453Y-50684D01*
X64300Y-50531D01*
X64100Y-50448D01*
X63884Y-50448D01*
X63684Y-50531D01*
X63531Y-50684D01*
X63492Y-50777D01*
X63453Y-50684D01*
X63300Y-50531D01*
X63100Y-50448D01*
X62884Y-50448D01*
X62684Y-50531D01*
X62531Y-50684D01*
X62492Y-50777D01*
X62453Y-50684D01*
X62300Y-50531D01*
X62100Y-50448D01*
X61884Y-50448D01*
X61684Y-50531D01*
X61531Y-50684D01*
X61492Y-50777D01*
X61453Y-50684D01*
X61300Y-50531D01*
X61100Y-50448D01*
X60884Y-50448D01*
X60684Y-50531D01*
X60531Y-50684D01*
X60492Y-50777D01*
X60453Y-50684D01*
X60300Y-50531D01*
X60100Y-50448D01*
X59884Y-50448D01*
X59684Y-50531D01*
X59531Y-50684D01*
X59492Y-50777D01*
X59453Y-50684D01*
X59300Y-50531D01*
X59100Y-50448D01*
X58884Y-50448D01*
X58684Y-50531D01*
X58531Y-50684D01*
X58489Y-50784D01*
X58460Y-50713D01*
X58367Y-50688D01*
X58296Y-50759D01*
X58296Y-50617D01*
X58271Y-50524D01*
X58070Y-50452D01*
X57858Y-50464D01*
X57713Y-50524D01*
X57688Y-50617D01*
X57992Y-50921D01*
X58296Y-50617D01*
X58296Y-50759D01*
X58063Y-50992D01*
X58367Y-51296D01*
X58460Y-51271D01*
X58487Y-51194D01*
X58531Y-51300D01*
X58684Y-51453D01*
X58884Y-51536D01*
X59100Y-51536D01*
X59300Y-51453D01*
X59453Y-51300D01*
X59492Y-51206D01*
X59531Y-51300D01*
X59684Y-51453D01*
X59884Y-51536D01*
X60100Y-51536D01*
X60300Y-51453D01*
X60453Y-51300D01*
X60492Y-51206D01*
X60531Y-51300D01*
X60684Y-51453D01*
X60884Y-51536D01*
X61100Y-51536D01*
X61300Y-51453D01*
X61453Y-51300D01*
X61492Y-51206D01*
X61531Y-51300D01*
X61684Y-51453D01*
X61884Y-51536D01*
X62083Y-51536D01*
X62216Y-51669D01*
X58296Y-51669D01*
X58296Y-51367D01*
X57992Y-51063D01*
X57921Y-51134D01*
X57921Y-50992D01*
X57617Y-50688D01*
X57524Y-50713D01*
X57452Y-50914D01*
X57464Y-51126D01*
X57524Y-51271D01*
X57617Y-51296D01*
X57921Y-50992D01*
X57921Y-51134D01*
X57688Y-51367D01*
X57713Y-51460D01*
X57914Y-51532D01*
X58126Y-51520D01*
X58271Y-51460D01*
X58296Y-51367D01*
X58296Y-51669D01*
X49108Y-51669D01*
X49108Y-45408D01*
X49108Y-45184D01*
X49108Y-33990D01*
X49108Y-33766D01*
X49107Y-33436D01*
X49069Y-33344D01*
X48999Y-33274D01*
X48908Y-33236D01*
X48809Y-33236D01*
X48577Y-33235D01*
X48515Y-33297D01*
X48515Y-33828D01*
X49046Y-33828D01*
X49108Y-33766D01*
X49108Y-33990D01*
X49046Y-33928D01*
X48515Y-33928D01*
X48515Y-34459D01*
X48577Y-34521D01*
X48809Y-34520D01*
X48908Y-34520D01*
X48999Y-34482D01*
X49069Y-34412D01*
X49107Y-34320D01*
X49108Y-33990D01*
X49108Y-45184D01*
X49107Y-44854D01*
X49069Y-44762D01*
X48999Y-44692D01*
X48908Y-44654D01*
X48809Y-44654D01*
X48577Y-44653D01*
X48515Y-44715D01*
X48515Y-45246D01*
X49046Y-45246D01*
X49108Y-45184D01*
X49108Y-45408D01*
X49046Y-45346D01*
X48515Y-45346D01*
X48515Y-45877D01*
X48577Y-45939D01*
X48809Y-45938D01*
X48908Y-45938D01*
X48999Y-45900D01*
X49069Y-45830D01*
X49107Y-45738D01*
X49108Y-45408D01*
X49108Y-51669D01*
X48415Y-51669D01*
X48415Y-45877D01*
X48415Y-45346D01*
X48415Y-45246D01*
X48415Y-44715D01*
X48415Y-34459D01*
X48415Y-33928D01*
X48415Y-33828D01*
X48415Y-33297D01*
X48353Y-33235D01*
X48121Y-33236D01*
X48022Y-33236D01*
X47931Y-33274D01*
X47861Y-33344D01*
X47823Y-33436D01*
X47822Y-33766D01*
X47884Y-33828D01*
X48415Y-33828D01*
X48415Y-33928D01*
X47884Y-33928D01*
X47822Y-33990D01*
X47823Y-34320D01*
X47861Y-34412D01*
X47931Y-34482D01*
X48022Y-34520D01*
X48121Y-34520D01*
X48353Y-34521D01*
X48415Y-34459D01*
X48415Y-44715D01*
X48353Y-44653D01*
X48121Y-44654D01*
X48022Y-44654D01*
X47931Y-44692D01*
X47861Y-44762D01*
X47823Y-44854D01*
X47822Y-45184D01*
X47884Y-45246D01*
X48415Y-45246D01*
X48415Y-45346D01*
X47884Y-45346D01*
X47822Y-45408D01*
X47823Y-45738D01*
X47861Y-45830D01*
X47931Y-45900D01*
X48022Y-45938D01*
X48121Y-45938D01*
X48353Y-45939D01*
X48415Y-45877D01*
X48415Y-51669D01*
X47080Y-51669D01*
X47080Y-34479D01*
X47080Y-34380D01*
X47080Y-33594D01*
X47042Y-33502D01*
X46972Y-33432D01*
X46881Y-33394D01*
X46782Y-33394D01*
X46388Y-33394D01*
X46296Y-33432D01*
X46226Y-33502D01*
X46188Y-33593D01*
X46188Y-33692D01*
X46188Y-34478D01*
X46226Y-34570D01*
X46296Y-34640D01*
X46387Y-34678D01*
X46486Y-34678D01*
X46880Y-34678D01*
X46972Y-34640D01*
X47042Y-34570D01*
X47080Y-34479D01*
X47080Y-51669D01*
X45083Y-51669D01*
X45137Y-51616D01*
X45339Y-51130D01*
X45339Y-50604D01*
X45138Y-50118D01*
X44766Y-49745D01*
X44280Y-49543D01*
X43754Y-49543D01*
X43556Y-49624D01*
X43556Y-34479D01*
X43556Y-34380D01*
X43556Y-33594D01*
X43518Y-33502D01*
X43448Y-33432D01*
X43357Y-33394D01*
X43258Y-33394D01*
X42864Y-33394D01*
X42772Y-33432D01*
X42702Y-33502D01*
X42664Y-33593D01*
X42664Y-33692D01*
X42664Y-34478D01*
X42702Y-34570D01*
X42772Y-34640D01*
X42863Y-34678D01*
X42962Y-34678D01*
X43356Y-34678D01*
X43448Y-34640D01*
X43518Y-34570D01*
X43556Y-34479D01*
X43556Y-49624D01*
X43477Y-49657D01*
X43477Y-48341D01*
X43477Y-47960D01*
X43331Y-47608D01*
X43062Y-47339D01*
X42711Y-47193D01*
X42533Y-47193D01*
X42533Y-34479D01*
X42533Y-34380D01*
X42533Y-33594D01*
X42495Y-33502D01*
X42425Y-33432D01*
X42334Y-33394D01*
X42235Y-33394D01*
X41841Y-33394D01*
X41760Y-33427D01*
X41726Y-33344D01*
X41656Y-33274D01*
X41565Y-33236D01*
X41466Y-33236D01*
X41234Y-33235D01*
X41172Y-33297D01*
X41172Y-33778D01*
X41172Y-33828D01*
X41172Y-33928D01*
X41172Y-33978D01*
X41172Y-34459D01*
X41234Y-34521D01*
X41466Y-34520D01*
X41565Y-34520D01*
X41644Y-34486D01*
X41679Y-34570D01*
X41749Y-34640D01*
X41840Y-34678D01*
X41939Y-34678D01*
X42333Y-34678D01*
X42425Y-34640D01*
X42495Y-34570D01*
X42533Y-34479D01*
X42533Y-47193D01*
X42330Y-47193D01*
X41978Y-47339D01*
X41765Y-47552D01*
X41765Y-45408D01*
X41765Y-45184D01*
X41764Y-44854D01*
X41726Y-44762D01*
X41656Y-44692D01*
X41565Y-44654D01*
X41466Y-44654D01*
X41234Y-44653D01*
X41172Y-44715D01*
X41172Y-45246D01*
X41703Y-45246D01*
X41765Y-45184D01*
X41765Y-45408D01*
X41703Y-45346D01*
X41172Y-45346D01*
X41172Y-45877D01*
X41234Y-45939D01*
X41466Y-45938D01*
X41565Y-45938D01*
X41656Y-45900D01*
X41726Y-45830D01*
X41764Y-45738D01*
X41765Y-45408D01*
X41765Y-47552D01*
X41709Y-47608D01*
X41563Y-47959D01*
X41563Y-48340D01*
X41709Y-48692D01*
X41978Y-48961D01*
X42329Y-49107D01*
X42710Y-49107D01*
X43062Y-48961D01*
X43331Y-48692D01*
X43477Y-48341D01*
X43477Y-49657D01*
X43268Y-49744D01*
X42895Y-50116D01*
X42693Y-50602D01*
X42693Y-51128D01*
X42894Y-51614D01*
X42948Y-51669D01*
X42296Y-51669D01*
X42296Y-50191D01*
X42296Y-49810D01*
X42150Y-49458D01*
X41881Y-49189D01*
X41530Y-49043D01*
X41149Y-49043D01*
X41099Y-49063D01*
X41099Y-48325D01*
X41095Y-47951D01*
X41072Y-47895D01*
X41072Y-45877D01*
X41072Y-45346D01*
X41072Y-45246D01*
X41072Y-44715D01*
X41072Y-34459D01*
X41072Y-33928D01*
X41072Y-33828D01*
X41072Y-33297D01*
X41010Y-33235D01*
X40778Y-33236D01*
X40679Y-33236D01*
X40588Y-33274D01*
X40518Y-33344D01*
X40480Y-33436D01*
X40479Y-33766D01*
X40541Y-33828D01*
X41072Y-33828D01*
X41072Y-33928D01*
X40541Y-33928D01*
X40479Y-33990D01*
X40480Y-34320D01*
X40518Y-34412D01*
X40588Y-34482D01*
X40679Y-34520D01*
X40778Y-34520D01*
X41010Y-34521D01*
X41072Y-34459D01*
X41072Y-44715D01*
X41010Y-44653D01*
X40778Y-44654D01*
X40679Y-44654D01*
X40588Y-44692D01*
X40518Y-44762D01*
X40480Y-44854D01*
X40479Y-45184D01*
X40541Y-45246D01*
X41072Y-45246D01*
X41072Y-45346D01*
X40541Y-45346D01*
X40479Y-45408D01*
X40480Y-45738D01*
X40518Y-45830D01*
X40588Y-45900D01*
X40679Y-45938D01*
X40778Y-45938D01*
X41010Y-45939D01*
X41072Y-45877D01*
X41072Y-47895D01*
X40961Y-47629D01*
X40826Y-47553D01*
X40755Y-47624D01*
X40755Y-47482D01*
X40679Y-47347D01*
X40333Y-47209D01*
X39959Y-47213D01*
X39637Y-47347D01*
X39561Y-47482D01*
X40158Y-48079D01*
X40755Y-47482D01*
X40755Y-47624D01*
X40229Y-48150D01*
X40826Y-48747D01*
X40961Y-48671D01*
X41099Y-48325D01*
X41099Y-49063D01*
X40797Y-49189D01*
X40755Y-49231D01*
X40755Y-48818D01*
X40158Y-48221D01*
X39561Y-48818D01*
X39637Y-48953D01*
X39983Y-49091D01*
X40357Y-49087D01*
X40679Y-48953D01*
X40755Y-48818D01*
X40755Y-49231D01*
X40528Y-49458D01*
X40382Y-49809D01*
X40382Y-50190D01*
X40528Y-50542D01*
X40797Y-50811D01*
X41148Y-50957D01*
X41529Y-50957D01*
X41881Y-50811D01*
X42150Y-50542D01*
X42296Y-50191D01*
X42296Y-51669D01*
X39276Y-51669D01*
X39276Y-48481D01*
X39355Y-48671D01*
X39490Y-48747D01*
X40087Y-48150D01*
X39490Y-47553D01*
X39355Y-47629D01*
X39276Y-47827D01*
X39276Y-31009D01*
X43478Y-31009D01*
X43387Y-31100D01*
X43185Y-31586D01*
X43185Y-32112D01*
X43386Y-32598D01*
X43758Y-32971D01*
X44244Y-33173D01*
X44770Y-33173D01*
X45256Y-32972D01*
X45629Y-32600D01*
X45831Y-32114D01*
X45831Y-31588D01*
X45630Y-31102D01*
X45537Y-31009D01*
X57213Y-31009D01*
X57103Y-31055D01*
X56955Y-31202D01*
X56875Y-31395D01*
X56875Y-31604D01*
X56906Y-31680D01*
X56820Y-31738D01*
X56680Y-31878D01*
X56200Y-31878D01*
X56200Y-31688D01*
X56199Y-31624D01*
X56199Y-31525D01*
X56161Y-31434D01*
X56091Y-31364D01*
X55999Y-31326D01*
X55962Y-31325D01*
X55900Y-31387D01*
X55900Y-31750D01*
X56138Y-31750D01*
X56200Y-31688D01*
X56200Y-31878D01*
X56166Y-31878D01*
X56138Y-31850D01*
X55950Y-31850D01*
X55900Y-31850D01*
X55800Y-31850D01*
X55800Y-31750D01*
X55800Y-31387D01*
X55738Y-31325D01*
X55701Y-31326D01*
X55609Y-31364D01*
X55600Y-31373D01*
X55591Y-31364D01*
X55499Y-31326D01*
X55462Y-31325D01*
X55400Y-31387D01*
X55400Y-31750D01*
X55562Y-31750D01*
X55638Y-31750D01*
X55800Y-31750D01*
X55800Y-31850D01*
X55750Y-31850D01*
X55638Y-31850D01*
X55562Y-31850D01*
X55450Y-31850D01*
X55400Y-31850D01*
X55300Y-31850D01*
X55300Y-31750D01*
X55300Y-31387D01*
X55238Y-31325D01*
X55201Y-31326D01*
X55109Y-31364D01*
X55100Y-31373D01*
X55091Y-31364D01*
X54999Y-31326D01*
X54962Y-31325D01*
X54900Y-31387D01*
X54900Y-31750D01*
X55062Y-31750D01*
X55138Y-31750D01*
X55300Y-31750D01*
X55300Y-31850D01*
X55250Y-31850D01*
X55138Y-31850D01*
X55062Y-31850D01*
X54950Y-31850D01*
X54900Y-31850D01*
X54800Y-31850D01*
X54800Y-31750D01*
X54800Y-31387D01*
X54738Y-31325D01*
X54701Y-31326D01*
X54609Y-31364D01*
X54600Y-31373D01*
X54591Y-31364D01*
X54499Y-31326D01*
X54462Y-31325D01*
X54400Y-31387D01*
X54400Y-31750D01*
X54562Y-31750D01*
X54638Y-31750D01*
X54800Y-31750D01*
X54800Y-31850D01*
X54750Y-31850D01*
X54638Y-31850D01*
X54562Y-31850D01*
X54450Y-31850D01*
X54400Y-31850D01*
X54300Y-31850D01*
X54300Y-31750D01*
X54300Y-31387D01*
X54238Y-31325D01*
X54201Y-31326D01*
X54109Y-31364D01*
X54100Y-31373D01*
X54091Y-31364D01*
X53999Y-31326D01*
X53962Y-31325D01*
X53900Y-31387D01*
X53900Y-31750D01*
X54062Y-31750D01*
X54138Y-31750D01*
X54300Y-31750D01*
X54300Y-31850D01*
X54250Y-31850D01*
X54138Y-31850D01*
X54062Y-31850D01*
X53950Y-31850D01*
X53900Y-31850D01*
X53800Y-31850D01*
X53800Y-31750D01*
X53800Y-31700D01*
X53800Y-31387D01*
X53738Y-31325D01*
X53701Y-31326D01*
X53658Y-31343D01*
X53646Y-31280D01*
X53576Y-31176D01*
X53472Y-31106D01*
X53350Y-31082D01*
X52110Y-31082D01*
X51988Y-31106D01*
X51986Y-31106D01*
X51986Y-31107D01*
X51883Y-31176D01*
X51667Y-31393D01*
X51597Y-31496D01*
X51573Y-31619D01*
X51573Y-32785D01*
X51597Y-32908D01*
X51667Y-33011D01*
X53509Y-34854D01*
X53471Y-34862D01*
X53368Y-34932D01*
X53124Y-35176D01*
X53054Y-35279D01*
X53041Y-35343D01*
X53000Y-35326D01*
X52901Y-35326D01*
X52701Y-35326D01*
X52609Y-35364D01*
X52600Y-35373D01*
X52591Y-35364D01*
X52500Y-35326D01*
X52401Y-35326D01*
X52201Y-35326D01*
X52109Y-35364D01*
X52039Y-35434D01*
X52001Y-35525D01*
X52001Y-35624D01*
X52001Y-36062D01*
X51985Y-35981D01*
X51915Y-35877D01*
X51811Y-35807D01*
X51745Y-35794D01*
X51735Y-35768D01*
X51764Y-35699D01*
X51764Y-35600D01*
X51764Y-35168D01*
X51726Y-35076D01*
X51656Y-35006D01*
X51565Y-34968D01*
X51466Y-34968D01*
X50781Y-34968D01*
X50781Y-34798D01*
X50701Y-34605D01*
X50554Y-34457D01*
X50361Y-34377D01*
X50152Y-34377D01*
X49959Y-34457D01*
X49811Y-34604D01*
X49731Y-34797D01*
X49731Y-35006D01*
X49811Y-35199D01*
X49958Y-35347D01*
X50151Y-35427D01*
X50360Y-35427D01*
X50480Y-35377D01*
X50480Y-35698D01*
X50508Y-35767D01*
X50480Y-35837D01*
X50480Y-35936D01*
X50480Y-36368D01*
X50518Y-36460D01*
X50588Y-36530D01*
X50679Y-36568D01*
X50778Y-36568D01*
X51369Y-36568D01*
X51369Y-36592D01*
X51234Y-36592D01*
X51172Y-36654D01*
X51172Y-36958D01*
X51172Y-37008D01*
X51172Y-37108D01*
X51172Y-37158D01*
X51172Y-37462D01*
X51234Y-37524D01*
X51466Y-37523D01*
X51565Y-37523D01*
X51656Y-37485D01*
X51726Y-37415D01*
X51764Y-37323D01*
X51764Y-37198D01*
X52288Y-37722D01*
X51741Y-37722D01*
X51726Y-37685D01*
X51656Y-37615D01*
X51565Y-37577D01*
X51466Y-37577D01*
X51072Y-37577D01*
X51072Y-37462D01*
X51072Y-37108D01*
X51072Y-37008D01*
X51072Y-36654D01*
X51010Y-36592D01*
X50778Y-36593D01*
X50679Y-36593D01*
X50588Y-36631D01*
X50518Y-36701D01*
X50480Y-36793D01*
X50479Y-36946D01*
X50541Y-37008D01*
X51072Y-37008D01*
X51072Y-37108D01*
X50541Y-37108D01*
X50479Y-37170D01*
X50480Y-37323D01*
X50518Y-37415D01*
X50588Y-37485D01*
X50679Y-37523D01*
X50778Y-37523D01*
X51010Y-37524D01*
X51072Y-37462D01*
X51072Y-37577D01*
X50680Y-37577D01*
X50588Y-37615D01*
X50518Y-37685D01*
X50480Y-37776D01*
X50480Y-37875D01*
X50480Y-38307D01*
X50518Y-38399D01*
X50588Y-38469D01*
X50679Y-38507D01*
X50778Y-38507D01*
X51564Y-38507D01*
X51656Y-38469D01*
X51726Y-38399D01*
X51741Y-38362D01*
X66462Y-38362D01*
X66435Y-38389D01*
X66351Y-38591D01*
X66351Y-38809D01*
X66435Y-39011D01*
X66589Y-39165D01*
X66673Y-39200D01*
X66589Y-39235D01*
X66435Y-39389D01*
X66351Y-39591D01*
X66351Y-39809D01*
X66391Y-39906D01*
X62808Y-39906D01*
X62808Y-39403D01*
X62808Y-39171D01*
X62719Y-38956D01*
X62555Y-38792D01*
X62340Y-38703D01*
X62108Y-38703D01*
X61893Y-38792D01*
X61729Y-38956D01*
X61640Y-39171D01*
X61640Y-39403D01*
X61729Y-39618D01*
X61893Y-39782D01*
X62108Y-39871D01*
X62340Y-39871D01*
X62555Y-39782D01*
X62719Y-39618D01*
X62808Y-39403D01*
X62808Y-39906D01*
X59074Y-39906D01*
X58951Y-39930D01*
X58848Y-40000D01*
X58363Y-40484D01*
X57565Y-39686D01*
X57611Y-39641D01*
X57649Y-39550D01*
X57649Y-39451D01*
X57649Y-38851D01*
X57611Y-38759D01*
X57541Y-38689D01*
X57450Y-38651D01*
X57351Y-38651D01*
X56751Y-38651D01*
X56659Y-38689D01*
X56589Y-38759D01*
X56551Y-38850D01*
X56551Y-38912D01*
X56478Y-38892D01*
X56408Y-38962D01*
X56408Y-38822D01*
X56381Y-38728D01*
X56179Y-38657D01*
X55966Y-38668D01*
X55819Y-38728D01*
X55792Y-38822D01*
X56100Y-39129D01*
X56408Y-38822D01*
X56408Y-38962D01*
X56171Y-39200D01*
X56478Y-39508D01*
X56551Y-39487D01*
X56551Y-39549D01*
X56589Y-39641D01*
X56659Y-39711D01*
X56750Y-39749D01*
X56794Y-39749D01*
X56804Y-39796D01*
X56874Y-39899D01*
X57911Y-40936D01*
X57672Y-41175D01*
X57496Y-41175D01*
X57303Y-41255D01*
X57155Y-41402D01*
X57128Y-41466D01*
X57117Y-41474D01*
X56561Y-42030D01*
X56408Y-42030D01*
X56408Y-39578D01*
X56100Y-39271D01*
X56029Y-39341D01*
X56029Y-39200D01*
X55722Y-38892D01*
X55628Y-38919D01*
X55557Y-39121D01*
X55568Y-39334D01*
X55628Y-39481D01*
X55722Y-39508D01*
X56029Y-39200D01*
X56029Y-39341D01*
X55792Y-39578D01*
X55819Y-39672D01*
X56021Y-39743D01*
X56234Y-39732D01*
X56381Y-39672D01*
X56408Y-39578D01*
X56408Y-42030D01*
X55420Y-42030D01*
X55416Y-42019D01*
X55252Y-41855D01*
X55037Y-41766D01*
X54805Y-41766D01*
X54590Y-41855D01*
X54426Y-42019D01*
X54343Y-42219D01*
X54343Y-39579D01*
X54332Y-39366D01*
X54272Y-39219D01*
X54178Y-39192D01*
X54108Y-39262D01*
X54108Y-39122D01*
X54081Y-39028D01*
X53879Y-38957D01*
X53666Y-38968D01*
X53519Y-39028D01*
X53492Y-39122D01*
X53800Y-39429D01*
X54108Y-39122D01*
X54108Y-39262D01*
X53871Y-39500D01*
X54178Y-39808D01*
X54272Y-39781D01*
X54343Y-39579D01*
X54343Y-42219D01*
X54337Y-42234D01*
X54337Y-42466D01*
X54426Y-42681D01*
X54590Y-42845D01*
X54618Y-42856D01*
X54589Y-42948D01*
X54921Y-43279D01*
X55253Y-42948D01*
X55223Y-42856D01*
X55252Y-42845D01*
X55416Y-42681D01*
X55420Y-42670D01*
X56373Y-42670D01*
X56373Y-43693D01*
X56397Y-43816D01*
X56467Y-43919D01*
X57448Y-44900D01*
X57448Y-45100D01*
X57531Y-45300D01*
X57684Y-45453D01*
X57884Y-45536D01*
X58100Y-45536D01*
X58300Y-45453D01*
X58453Y-45300D01*
X58492Y-45206D01*
X58531Y-45300D01*
X58684Y-45453D01*
X58884Y-45536D01*
X59100Y-45536D01*
X59300Y-45453D01*
X59453Y-45300D01*
X59492Y-45206D01*
X59531Y-45300D01*
X59684Y-45453D01*
X59884Y-45536D01*
X60100Y-45536D01*
X60300Y-45453D01*
X60453Y-45300D01*
X60492Y-45206D01*
X60531Y-45300D01*
X60684Y-45453D01*
X60884Y-45536D01*
X61100Y-45536D01*
X61300Y-45453D01*
X61453Y-45300D01*
X61492Y-45206D01*
X61531Y-45300D01*
X61684Y-45453D01*
X61884Y-45536D01*
X62100Y-45536D01*
X62300Y-45453D01*
X62453Y-45300D01*
X62492Y-45206D01*
X62531Y-45300D01*
X62684Y-45453D01*
X62884Y-45536D01*
X63100Y-45536D01*
X63300Y-45453D01*
X63453Y-45300D01*
X63492Y-45206D01*
X63531Y-45300D01*
X63684Y-45453D01*
X63884Y-45536D01*
X64100Y-45536D01*
X64300Y-45453D01*
X64453Y-45300D01*
X64492Y-45206D01*
X64531Y-45300D01*
X64684Y-45453D01*
X64884Y-45536D01*
X65100Y-45536D01*
X65300Y-45453D01*
X65453Y-45300D01*
X65492Y-45206D01*
X65531Y-45300D01*
X65684Y-45453D01*
X65884Y-45536D01*
X66100Y-45536D01*
X66300Y-45453D01*
X66453Y-45300D01*
X66492Y-45206D01*
X66531Y-45300D01*
X66684Y-45453D01*
X66884Y-45536D01*
X67100Y-45536D01*
X67300Y-45453D01*
X67453Y-45300D01*
X67492Y-45206D01*
X67531Y-45300D01*
X67684Y-45453D01*
X67884Y-45536D01*
X68100Y-45536D01*
X68300Y-45453D01*
X68453Y-45300D01*
X68492Y-45206D01*
X68531Y-45300D01*
X68684Y-45453D01*
X68884Y-45536D01*
X69100Y-45536D01*
X69300Y-45453D01*
X69453Y-45300D01*
X69492Y-45206D01*
X69531Y-45300D01*
X69684Y-45453D01*
X69884Y-45536D01*
X70100Y-45536D01*
X70300Y-45453D01*
X70453Y-45300D01*
X70492Y-45206D01*
X70531Y-45300D01*
X70684Y-45453D01*
X70777Y-45492D01*
X70684Y-45531D01*
X70531Y-45684D01*
X70448Y-45884D01*
X70448Y-46100D01*
X70531Y-46300D01*
X70684Y-46453D01*
X70777Y-46492D01*
X70684Y-46531D01*
X70531Y-46684D01*
X70448Y-46884D01*
X70448Y-47100D01*
X70531Y-47300D01*
X70684Y-47453D01*
X70777Y-47492D01*
X70684Y-47531D01*
X70531Y-47684D01*
X70448Y-47884D01*
X70448Y-48100D01*
X70531Y-48300D01*
X70684Y-48453D01*
X70777Y-48492D01*
X70684Y-48531D01*
X70531Y-48684D01*
X70448Y-48884D01*
X70448Y-49100D01*
X70531Y-49300D01*
X70684Y-49453D01*
X70777Y-49492D01*
G54D10*
G36*
X70998Y-32151D02*
X70791Y-32151D01*
X70589Y-32235D01*
X70449Y-32375D01*
X70449Y-32351D01*
X70411Y-32259D01*
X70341Y-32189D01*
X70250Y-32151D01*
X70151Y-32151D01*
X69904Y-32151D01*
X69904Y-31875D01*
X69600Y-31571D01*
X69296Y-31875D01*
X69321Y-31968D01*
X69522Y-32040D01*
X69734Y-32028D01*
X69879Y-31968D01*
X69904Y-31875D01*
X69904Y-32151D01*
X69551Y-32151D01*
X69459Y-32189D01*
X69389Y-32259D01*
X69351Y-32350D01*
X69351Y-32380D01*
X68356Y-32380D01*
X68211Y-32235D01*
X68009Y-32151D01*
X67791Y-32151D01*
X67589Y-32235D01*
X67449Y-32375D01*
X67449Y-32351D01*
X67411Y-32259D01*
X67341Y-32189D01*
X67250Y-32151D01*
X67151Y-32151D01*
X66551Y-32151D01*
X66459Y-32189D01*
X66389Y-32259D01*
X66351Y-32350D01*
X66351Y-32449D01*
X66351Y-33049D01*
X66389Y-33141D01*
X66459Y-33211D01*
X66550Y-33249D01*
X66575Y-33249D01*
X66444Y-33380D01*
X63173Y-33380D01*
X63173Y-32021D01*
X63173Y-31797D01*
X63172Y-31332D01*
X63172Y-31233D01*
X63134Y-31142D01*
X63064Y-31072D01*
X62972Y-31034D01*
X62336Y-31033D01*
X62274Y-31095D01*
X62274Y-31859D01*
X63111Y-31859D01*
X63173Y-31797D01*
X63173Y-32021D01*
X63111Y-31959D01*
X62274Y-31959D01*
X62274Y-32723D01*
X62336Y-32785D01*
X62972Y-32784D01*
X63064Y-32746D01*
X63134Y-32676D01*
X63172Y-32585D01*
X63172Y-32486D01*
X63173Y-32021D01*
X63173Y-33380D01*
X62174Y-33380D01*
X62174Y-32723D01*
X62174Y-31959D01*
X62174Y-31859D01*
X62174Y-31095D01*
X62112Y-31033D01*
X61476Y-31034D01*
X61384Y-31072D01*
X61314Y-31142D01*
X61276Y-31233D01*
X61276Y-31332D01*
X61275Y-31797D01*
X61337Y-31859D01*
X62174Y-31859D01*
X62174Y-31959D01*
X61337Y-31959D01*
X61275Y-32021D01*
X61276Y-32486D01*
X61276Y-32585D01*
X61314Y-32676D01*
X61384Y-32746D01*
X61476Y-32784D01*
X62112Y-32785D01*
X62174Y-32723D01*
X62174Y-33380D01*
X60057Y-33380D01*
X60103Y-33349D01*
X60327Y-33125D01*
X60504Y-33125D01*
X60697Y-33045D01*
X60845Y-32898D01*
X60925Y-32705D01*
X60925Y-32496D01*
X60845Y-32303D01*
X60698Y-32155D01*
X60505Y-32075D01*
X60296Y-32075D01*
X60263Y-32088D01*
X60327Y-32025D01*
X60504Y-32025D01*
X60697Y-31945D01*
X60845Y-31798D01*
X60925Y-31605D01*
X60925Y-31396D01*
X60845Y-31203D01*
X60698Y-31055D01*
X60587Y-31009D01*
X68149Y-31009D01*
X68094Y-31064D01*
X68056Y-31155D01*
X68056Y-31254D01*
X68056Y-31844D01*
X68094Y-31936D01*
X68164Y-32006D01*
X68255Y-32044D01*
X68354Y-32044D01*
X68944Y-32044D01*
X69036Y-32006D01*
X69106Y-31936D01*
X69144Y-31845D01*
X69144Y-31782D01*
X69225Y-31804D01*
X69529Y-31500D01*
X69225Y-31196D01*
X69144Y-31217D01*
X69144Y-31156D01*
X69106Y-31064D01*
X69051Y-31009D01*
X69376Y-31009D01*
X69321Y-31032D01*
X69296Y-31125D01*
X69600Y-31429D01*
X69904Y-31125D01*
X69879Y-31032D01*
X69814Y-31009D01*
X70050Y-31009D01*
X70050Y-31216D01*
X69975Y-31196D01*
X69671Y-31500D01*
X69975Y-31804D01*
X70050Y-31783D01*
X70050Y-32150D01*
X70997Y-32150D01*
X70998Y-32151D01*
X70998Y-32151D01*
G37*
G54D28*
X70998Y-32151D02*
X70791Y-32151D01*
X70589Y-32235D01*
X70449Y-32375D01*
X70449Y-32351D01*
X70411Y-32259D01*
X70341Y-32189D01*
X70250Y-32151D01*
X70151Y-32151D01*
X69904Y-32151D01*
X69904Y-31875D01*
X69600Y-31571D01*
X69296Y-31875D01*
X69321Y-31968D01*
X69522Y-32040D01*
X69734Y-32028D01*
X69879Y-31968D01*
X69904Y-31875D01*
X69904Y-32151D01*
X69551Y-32151D01*
X69459Y-32189D01*
X69389Y-32259D01*
X69351Y-32350D01*
X69351Y-32380D01*
X68356Y-32380D01*
X68211Y-32235D01*
X68009Y-32151D01*
X67791Y-32151D01*
X67589Y-32235D01*
X67449Y-32375D01*
X67449Y-32351D01*
X67411Y-32259D01*
X67341Y-32189D01*
X67250Y-32151D01*
X67151Y-32151D01*
X66551Y-32151D01*
X66459Y-32189D01*
X66389Y-32259D01*
X66351Y-32350D01*
X66351Y-32449D01*
X66351Y-33049D01*
X66389Y-33141D01*
X66459Y-33211D01*
X66550Y-33249D01*
X66575Y-33249D01*
X66444Y-33380D01*
X63173Y-33380D01*
X63173Y-32021D01*
X63173Y-31797D01*
X63172Y-31332D01*
X63172Y-31233D01*
X63134Y-31142D01*
X63064Y-31072D01*
X62972Y-31034D01*
X62336Y-31033D01*
X62274Y-31095D01*
X62274Y-31859D01*
X63111Y-31859D01*
X63173Y-31797D01*
X63173Y-32021D01*
X63111Y-31959D01*
X62274Y-31959D01*
X62274Y-32723D01*
X62336Y-32785D01*
X62972Y-32784D01*
X63064Y-32746D01*
X63134Y-32676D01*
X63172Y-32585D01*
X63172Y-32486D01*
X63173Y-32021D01*
X63173Y-33380D01*
X62174Y-33380D01*
X62174Y-32723D01*
X62174Y-31959D01*
X62174Y-31859D01*
X62174Y-31095D01*
X62112Y-31033D01*
X61476Y-31034D01*
X61384Y-31072D01*
X61314Y-31142D01*
X61276Y-31233D01*
X61276Y-31332D01*
X61275Y-31797D01*
X61337Y-31859D01*
X62174Y-31859D01*
X62174Y-31959D01*
X61337Y-31959D01*
X61275Y-32021D01*
X61276Y-32486D01*
X61276Y-32585D01*
X61314Y-32676D01*
X61384Y-32746D01*
X61476Y-32784D01*
X62112Y-32785D01*
X62174Y-32723D01*
X62174Y-33380D01*
X60057Y-33380D01*
X60103Y-33349D01*
X60327Y-33125D01*
X60504Y-33125D01*
X60697Y-33045D01*
X60845Y-32898D01*
X60925Y-32705D01*
X60925Y-32496D01*
X60845Y-32303D01*
X60698Y-32155D01*
X60505Y-32075D01*
X60296Y-32075D01*
X60263Y-32088D01*
X60327Y-32025D01*
X60504Y-32025D01*
X60697Y-31945D01*
X60845Y-31798D01*
X60925Y-31605D01*
X60925Y-31396D01*
X60845Y-31203D01*
X60698Y-31055D01*
X60587Y-31009D01*
X68149Y-31009D01*
X68094Y-31064D01*
X68056Y-31155D01*
X68056Y-31254D01*
X68056Y-31844D01*
X68094Y-31936D01*
X68164Y-32006D01*
X68255Y-32044D01*
X68354Y-32044D01*
X68944Y-32044D01*
X69036Y-32006D01*
X69106Y-31936D01*
X69144Y-31845D01*
X69144Y-31782D01*
X69225Y-31804D01*
X69529Y-31500D01*
X69225Y-31196D01*
X69144Y-31217D01*
X69144Y-31156D01*
X69106Y-31064D01*
X69051Y-31009D01*
X69376Y-31009D01*
X69321Y-31032D01*
X69296Y-31125D01*
X69600Y-31429D01*
X69904Y-31125D01*
X69879Y-31032D01*
X69814Y-31009D01*
X70050Y-31009D01*
X70050Y-31216D01*
X69975Y-31196D01*
X69671Y-31500D01*
X69975Y-31804D01*
X70050Y-31783D01*
X70050Y-32150D01*
X70997Y-32150D01*
X70998Y-32151D01*
G54D10*
G36*
X71450Y-36797D02*
X71449Y-36798D01*
X71449Y-36591D01*
X71365Y-36389D01*
X71211Y-36235D01*
X71126Y-36200D01*
X71211Y-36165D01*
X71365Y-36011D01*
X71449Y-35809D01*
X71449Y-35591D01*
X71443Y-35576D01*
X71443Y-34779D01*
X71432Y-34566D01*
X71372Y-34419D01*
X71278Y-34392D01*
X70971Y-34700D01*
X71278Y-35008D01*
X71372Y-34981D01*
X71443Y-34779D01*
X71443Y-35576D01*
X71365Y-35389D01*
X71211Y-35235D01*
X71119Y-35197D01*
X71181Y-35172D01*
X71208Y-35078D01*
X70900Y-34771D01*
X70829Y-34841D01*
X70829Y-34700D01*
X70522Y-34392D01*
X70428Y-34419D01*
X70402Y-34492D01*
X70372Y-34419D01*
X70278Y-34392D01*
X69971Y-34700D01*
X70278Y-35008D01*
X70372Y-34981D01*
X70397Y-34907D01*
X70428Y-34981D01*
X70522Y-35008D01*
X70829Y-34700D01*
X70829Y-34841D01*
X70592Y-35078D01*
X70619Y-35172D01*
X70684Y-35195D01*
X70589Y-35235D01*
X70444Y-35380D01*
X70356Y-35380D01*
X70211Y-35235D01*
X70119Y-35197D01*
X70181Y-35172D01*
X70208Y-35078D01*
X69900Y-34771D01*
X69829Y-34841D01*
X69829Y-34700D01*
X69522Y-34392D01*
X69428Y-34419D01*
X69357Y-34621D01*
X69368Y-34834D01*
X69428Y-34981D01*
X69522Y-35008D01*
X69829Y-34700D01*
X69829Y-34841D01*
X69592Y-35078D01*
X69619Y-35172D01*
X69684Y-35195D01*
X69589Y-35235D01*
X69444Y-35380D01*
X68443Y-35380D01*
X68443Y-34779D01*
X68432Y-34566D01*
X68372Y-34419D01*
X68278Y-34392D01*
X67971Y-34700D01*
X68278Y-35008D01*
X68372Y-34981D01*
X68443Y-34779D01*
X68443Y-35380D01*
X68356Y-35380D01*
X68211Y-35235D01*
X68119Y-35197D01*
X68181Y-35172D01*
X68208Y-35078D01*
X67900Y-34771D01*
X67829Y-34841D01*
X67829Y-34700D01*
X67522Y-34392D01*
X67428Y-34419D01*
X67402Y-34492D01*
X67372Y-34419D01*
X67278Y-34392D01*
X66971Y-34700D01*
X67278Y-35008D01*
X67372Y-34981D01*
X67397Y-34907D01*
X67428Y-34981D01*
X67522Y-35008D01*
X67829Y-34700D01*
X67829Y-34841D01*
X67592Y-35078D01*
X67619Y-35172D01*
X67684Y-35195D01*
X67589Y-35235D01*
X67435Y-35389D01*
X67400Y-35473D01*
X67365Y-35389D01*
X67211Y-35235D01*
X67119Y-35197D01*
X67181Y-35172D01*
X67208Y-35078D01*
X66900Y-34771D01*
X66829Y-34841D01*
X66829Y-34700D01*
X66522Y-34392D01*
X66428Y-34419D01*
X66357Y-34621D01*
X66368Y-34834D01*
X66428Y-34981D01*
X66522Y-35008D01*
X66829Y-34700D01*
X66829Y-34841D01*
X66592Y-35078D01*
X66619Y-35172D01*
X66684Y-35195D01*
X66589Y-35235D01*
X66435Y-35389D01*
X66351Y-35591D01*
X66351Y-35809D01*
X66435Y-36011D01*
X66589Y-36165D01*
X66673Y-36200D01*
X66589Y-36235D01*
X66435Y-36389D01*
X66351Y-36591D01*
X66351Y-36797D01*
X65908Y-37240D01*
X65241Y-37240D01*
X65241Y-35186D01*
X65241Y-34954D01*
X65152Y-34739D01*
X64988Y-34575D01*
X64773Y-34486D01*
X64541Y-34486D01*
X64326Y-34575D01*
X64162Y-34739D01*
X64073Y-34954D01*
X64073Y-35186D01*
X64162Y-35401D01*
X64326Y-35565D01*
X64541Y-35654D01*
X64773Y-35654D01*
X64988Y-35565D01*
X65152Y-35401D01*
X65241Y-35186D01*
X65241Y-37240D01*
X60375Y-37240D01*
X60375Y-35186D01*
X60375Y-34954D01*
X60286Y-34739D01*
X60122Y-34575D01*
X59907Y-34486D01*
X59675Y-34486D01*
X59460Y-34575D01*
X59296Y-34739D01*
X59207Y-34954D01*
X59207Y-35186D01*
X59296Y-35401D01*
X59460Y-35565D01*
X59675Y-35654D01*
X59907Y-35654D01*
X60122Y-35565D01*
X60286Y-35401D01*
X60375Y-35186D01*
X60375Y-37240D01*
X56200Y-37240D01*
X56200Y-35912D01*
X56138Y-35850D01*
X55900Y-35850D01*
X55900Y-36213D01*
X55962Y-36275D01*
X55999Y-36274D01*
X56091Y-36236D01*
X56161Y-36166D01*
X56199Y-36075D01*
X56199Y-35976D01*
X56200Y-35912D01*
X56200Y-37240D01*
X55800Y-37240D01*
X55800Y-36213D01*
X55800Y-35850D01*
X55638Y-35850D01*
X55562Y-35850D01*
X55400Y-35850D01*
X55400Y-36213D01*
X55462Y-36275D01*
X55499Y-36274D01*
X55591Y-36236D01*
X55600Y-36227D01*
X55609Y-36236D01*
X55701Y-36274D01*
X55738Y-36275D01*
X55800Y-36213D01*
X55800Y-37240D01*
X55300Y-37240D01*
X55300Y-36213D01*
X55300Y-35850D01*
X55138Y-35850D01*
X55062Y-35850D01*
X54900Y-35850D01*
X54900Y-36213D01*
X54962Y-36275D01*
X54999Y-36274D01*
X55091Y-36236D01*
X55100Y-36227D01*
X55109Y-36236D01*
X55201Y-36274D01*
X55238Y-36275D01*
X55300Y-36213D01*
X55300Y-37240D01*
X54800Y-37240D01*
X54800Y-36213D01*
X54800Y-35850D01*
X54638Y-35850D01*
X54562Y-35850D01*
X54400Y-35850D01*
X54400Y-36213D01*
X54462Y-36275D01*
X54499Y-36274D01*
X54591Y-36236D01*
X54600Y-36227D01*
X54609Y-36236D01*
X54701Y-36274D01*
X54738Y-36275D01*
X54800Y-36213D01*
X54800Y-37240D01*
X54296Y-37240D01*
X54319Y-37174D01*
X54308Y-36970D01*
X54252Y-36833D01*
X54161Y-36810D01*
X54090Y-36881D01*
X54090Y-36739D01*
X54067Y-36648D01*
X53874Y-36581D01*
X53670Y-36592D01*
X53533Y-36648D01*
X53510Y-36739D01*
X53800Y-37029D01*
X54090Y-36739D01*
X54090Y-36881D01*
X53906Y-37065D01*
X53871Y-37100D01*
X53800Y-37171D01*
X53729Y-37100D01*
X53694Y-37065D01*
X53439Y-36810D01*
X53348Y-36833D01*
X53306Y-36951D01*
X53245Y-36803D01*
X53120Y-36677D01*
X53120Y-36359D01*
X53120Y-36358D01*
X53145Y-36322D01*
X53145Y-36321D01*
X53146Y-36320D01*
X53158Y-36256D01*
X53200Y-36274D01*
X53299Y-36274D01*
X53499Y-36274D01*
X53591Y-36236D01*
X53600Y-36227D01*
X53609Y-36236D01*
X53700Y-36274D01*
X53799Y-36274D01*
X53999Y-36274D01*
X54091Y-36236D01*
X54100Y-36227D01*
X54109Y-36236D01*
X54201Y-36274D01*
X54238Y-36275D01*
X54300Y-36213D01*
X54300Y-35900D01*
X54300Y-35850D01*
X54300Y-35750D01*
X54400Y-35750D01*
X54450Y-35750D01*
X54562Y-35750D01*
X54638Y-35750D01*
X54750Y-35750D01*
X54800Y-35750D01*
X54900Y-35750D01*
X54950Y-35750D01*
X55062Y-35750D01*
X55138Y-35750D01*
X55250Y-35750D01*
X55300Y-35750D01*
X55400Y-35750D01*
X55450Y-35750D01*
X55562Y-35750D01*
X55638Y-35750D01*
X55750Y-35750D01*
X55800Y-35750D01*
X55900Y-35750D01*
X55950Y-35750D01*
X56138Y-35750D01*
X56189Y-35698D01*
X56936Y-36445D01*
X56875Y-36595D01*
X56875Y-36804D01*
X56955Y-36997D01*
X57102Y-37145D01*
X57295Y-37225D01*
X57504Y-37225D01*
X57697Y-37145D01*
X57845Y-36998D01*
X57925Y-36805D01*
X57925Y-36596D01*
X57845Y-36403D01*
X57698Y-36255D01*
X57616Y-36221D01*
X56547Y-35152D01*
X57013Y-35152D01*
X57053Y-35192D01*
X57209Y-35257D01*
X57378Y-35257D01*
X57534Y-35193D01*
X57654Y-35073D01*
X57719Y-34917D01*
X57719Y-34748D01*
X57655Y-34592D01*
X57535Y-34472D01*
X57379Y-34407D01*
X57210Y-34407D01*
X57054Y-34471D01*
X57013Y-34512D01*
X54072Y-34512D01*
X52213Y-32652D01*
X52213Y-32513D01*
X53049Y-33349D01*
X53152Y-33418D01*
X53153Y-33419D01*
X53275Y-33443D01*
X56938Y-33443D01*
X56875Y-33595D01*
X56875Y-33804D01*
X56955Y-33997D01*
X57102Y-34145D01*
X57295Y-34225D01*
X57504Y-34225D01*
X57697Y-34145D01*
X57822Y-34020D01*
X66444Y-34020D01*
X66589Y-34165D01*
X66680Y-34202D01*
X66619Y-34228D01*
X66592Y-34322D01*
X66900Y-34629D01*
X67208Y-34322D01*
X67181Y-34228D01*
X67115Y-34204D01*
X67211Y-34165D01*
X67356Y-34020D01*
X67444Y-34020D01*
X67589Y-34165D01*
X67680Y-34202D01*
X67619Y-34228D01*
X67592Y-34322D01*
X67900Y-34629D01*
X68208Y-34322D01*
X68181Y-34228D01*
X68115Y-34204D01*
X68211Y-34165D01*
X68356Y-34020D01*
X69444Y-34020D01*
X69589Y-34165D01*
X69680Y-34202D01*
X69619Y-34228D01*
X69592Y-34322D01*
X69900Y-34629D01*
X70208Y-34322D01*
X70181Y-34228D01*
X70115Y-34204D01*
X70211Y-34165D01*
X70356Y-34020D01*
X70444Y-34020D01*
X70589Y-34165D01*
X70680Y-34202D01*
X70619Y-34228D01*
X70592Y-34322D01*
X70900Y-34629D01*
X71208Y-34322D01*
X71181Y-34228D01*
X71115Y-34204D01*
X71211Y-34165D01*
X71365Y-34011D01*
X71449Y-33809D01*
X71449Y-33591D01*
X71365Y-33389D01*
X71211Y-33235D01*
X71126Y-33200D01*
X71211Y-33165D01*
X71365Y-33011D01*
X71449Y-32809D01*
X71449Y-32601D01*
X71450Y-32602D01*
X71450Y-36797D01*
X71450Y-36797D01*
G37*
G54D28*
X71450Y-36797D02*
X71449Y-36798D01*
X71449Y-36591D01*
X71365Y-36389D01*
X71211Y-36235D01*
X71126Y-36200D01*
X71211Y-36165D01*
X71365Y-36011D01*
X71449Y-35809D01*
X71449Y-35591D01*
X71443Y-35576D01*
X71443Y-34779D01*
X71432Y-34566D01*
X71372Y-34419D01*
X71278Y-34392D01*
X70971Y-34700D01*
X71278Y-35008D01*
X71372Y-34981D01*
X71443Y-34779D01*
X71443Y-35576D01*
X71365Y-35389D01*
X71211Y-35235D01*
X71119Y-35197D01*
X71181Y-35172D01*
X71208Y-35078D01*
X70900Y-34771D01*
X70829Y-34841D01*
X70829Y-34700D01*
X70522Y-34392D01*
X70428Y-34419D01*
X70402Y-34492D01*
X70372Y-34419D01*
X70278Y-34392D01*
X69971Y-34700D01*
X70278Y-35008D01*
X70372Y-34981D01*
X70397Y-34907D01*
X70428Y-34981D01*
X70522Y-35008D01*
X70829Y-34700D01*
X70829Y-34841D01*
X70592Y-35078D01*
X70619Y-35172D01*
X70684Y-35195D01*
X70589Y-35235D01*
X70444Y-35380D01*
X70356Y-35380D01*
X70211Y-35235D01*
X70119Y-35197D01*
X70181Y-35172D01*
X70208Y-35078D01*
X69900Y-34771D01*
X69829Y-34841D01*
X69829Y-34700D01*
X69522Y-34392D01*
X69428Y-34419D01*
X69357Y-34621D01*
X69368Y-34834D01*
X69428Y-34981D01*
X69522Y-35008D01*
X69829Y-34700D01*
X69829Y-34841D01*
X69592Y-35078D01*
X69619Y-35172D01*
X69684Y-35195D01*
X69589Y-35235D01*
X69444Y-35380D01*
X68443Y-35380D01*
X68443Y-34779D01*
X68432Y-34566D01*
X68372Y-34419D01*
X68278Y-34392D01*
X67971Y-34700D01*
X68278Y-35008D01*
X68372Y-34981D01*
X68443Y-34779D01*
X68443Y-35380D01*
X68356Y-35380D01*
X68211Y-35235D01*
X68119Y-35197D01*
X68181Y-35172D01*
X68208Y-35078D01*
X67900Y-34771D01*
X67829Y-34841D01*
X67829Y-34700D01*
X67522Y-34392D01*
X67428Y-34419D01*
X67402Y-34492D01*
X67372Y-34419D01*
X67278Y-34392D01*
X66971Y-34700D01*
X67278Y-35008D01*
X67372Y-34981D01*
X67397Y-34907D01*
X67428Y-34981D01*
X67522Y-35008D01*
X67829Y-34700D01*
X67829Y-34841D01*
X67592Y-35078D01*
X67619Y-35172D01*
X67684Y-35195D01*
X67589Y-35235D01*
X67435Y-35389D01*
X67400Y-35473D01*
X67365Y-35389D01*
X67211Y-35235D01*
X67119Y-35197D01*
X67181Y-35172D01*
X67208Y-35078D01*
X66900Y-34771D01*
X66829Y-34841D01*
X66829Y-34700D01*
X66522Y-34392D01*
X66428Y-34419D01*
X66357Y-34621D01*
X66368Y-34834D01*
X66428Y-34981D01*
X66522Y-35008D01*
X66829Y-34700D01*
X66829Y-34841D01*
X66592Y-35078D01*
X66619Y-35172D01*
X66684Y-35195D01*
X66589Y-35235D01*
X66435Y-35389D01*
X66351Y-35591D01*
X66351Y-35809D01*
X66435Y-36011D01*
X66589Y-36165D01*
X66673Y-36200D01*
X66589Y-36235D01*
X66435Y-36389D01*
X66351Y-36591D01*
X66351Y-36797D01*
X65908Y-37240D01*
X65241Y-37240D01*
X65241Y-35186D01*
X65241Y-34954D01*
X65152Y-34739D01*
X64988Y-34575D01*
X64773Y-34486D01*
X64541Y-34486D01*
X64326Y-34575D01*
X64162Y-34739D01*
X64073Y-34954D01*
X64073Y-35186D01*
X64162Y-35401D01*
X64326Y-35565D01*
X64541Y-35654D01*
X64773Y-35654D01*
X64988Y-35565D01*
X65152Y-35401D01*
X65241Y-35186D01*
X65241Y-37240D01*
X60375Y-37240D01*
X60375Y-35186D01*
X60375Y-34954D01*
X60286Y-34739D01*
X60122Y-34575D01*
X59907Y-34486D01*
X59675Y-34486D01*
X59460Y-34575D01*
X59296Y-34739D01*
X59207Y-34954D01*
X59207Y-35186D01*
X59296Y-35401D01*
X59460Y-35565D01*
X59675Y-35654D01*
X59907Y-35654D01*
X60122Y-35565D01*
X60286Y-35401D01*
X60375Y-35186D01*
X60375Y-37240D01*
X56200Y-37240D01*
X56200Y-35912D01*
X56138Y-35850D01*
X55900Y-35850D01*
X55900Y-36213D01*
X55962Y-36275D01*
X55999Y-36274D01*
X56091Y-36236D01*
X56161Y-36166D01*
X56199Y-36075D01*
X56199Y-35976D01*
X56200Y-35912D01*
X56200Y-37240D01*
X55800Y-37240D01*
X55800Y-36213D01*
X55800Y-35850D01*
X55638Y-35850D01*
X55562Y-35850D01*
X55400Y-35850D01*
X55400Y-36213D01*
X55462Y-36275D01*
X55499Y-36274D01*
X55591Y-36236D01*
X55600Y-36227D01*
X55609Y-36236D01*
X55701Y-36274D01*
X55738Y-36275D01*
X55800Y-36213D01*
X55800Y-37240D01*
X55300Y-37240D01*
X55300Y-36213D01*
X55300Y-35850D01*
X55138Y-35850D01*
X55062Y-35850D01*
X54900Y-35850D01*
X54900Y-36213D01*
X54962Y-36275D01*
X54999Y-36274D01*
X55091Y-36236D01*
X55100Y-36227D01*
X55109Y-36236D01*
X55201Y-36274D01*
X55238Y-36275D01*
X55300Y-36213D01*
X55300Y-37240D01*
X54800Y-37240D01*
X54800Y-36213D01*
X54800Y-35850D01*
X54638Y-35850D01*
X54562Y-35850D01*
X54400Y-35850D01*
X54400Y-36213D01*
X54462Y-36275D01*
X54499Y-36274D01*
X54591Y-36236D01*
X54600Y-36227D01*
X54609Y-36236D01*
X54701Y-36274D01*
X54738Y-36275D01*
X54800Y-36213D01*
X54800Y-37240D01*
X54296Y-37240D01*
X54319Y-37174D01*
X54308Y-36970D01*
X54252Y-36833D01*
X54161Y-36810D01*
X54090Y-36881D01*
X54090Y-36739D01*
X54067Y-36648D01*
X53874Y-36581D01*
X53670Y-36592D01*
X53533Y-36648D01*
X53510Y-36739D01*
X53800Y-37029D01*
X54090Y-36739D01*
X54090Y-36881D01*
X53906Y-37065D01*
X53871Y-37100D01*
X53800Y-37171D01*
X53729Y-37100D01*
X53694Y-37065D01*
X53439Y-36810D01*
X53348Y-36833D01*
X53306Y-36951D01*
X53245Y-36803D01*
X53120Y-36677D01*
X53120Y-36359D01*
X53120Y-36358D01*
X53145Y-36322D01*
X53145Y-36321D01*
X53146Y-36320D01*
X53158Y-36256D01*
X53200Y-36274D01*
X53299Y-36274D01*
X53499Y-36274D01*
X53591Y-36236D01*
X53600Y-36227D01*
X53609Y-36236D01*
X53700Y-36274D01*
X53799Y-36274D01*
X53999Y-36274D01*
X54091Y-36236D01*
X54100Y-36227D01*
X54109Y-36236D01*
X54201Y-36274D01*
X54238Y-36275D01*
X54300Y-36213D01*
X54300Y-35900D01*
X54300Y-35850D01*
X54300Y-35750D01*
X54400Y-35750D01*
X54450Y-35750D01*
X54562Y-35750D01*
X54638Y-35750D01*
X54750Y-35750D01*
X54800Y-35750D01*
X54900Y-35750D01*
X54950Y-35750D01*
X55062Y-35750D01*
X55138Y-35750D01*
X55250Y-35750D01*
X55300Y-35750D01*
X55400Y-35750D01*
X55450Y-35750D01*
X55562Y-35750D01*
X55638Y-35750D01*
X55750Y-35750D01*
X55800Y-35750D01*
X55900Y-35750D01*
X55950Y-35750D01*
X56138Y-35750D01*
X56189Y-35698D01*
X56936Y-36445D01*
X56875Y-36595D01*
X56875Y-36804D01*
X56955Y-36997D01*
X57102Y-37145D01*
X57295Y-37225D01*
X57504Y-37225D01*
X57697Y-37145D01*
X57845Y-36998D01*
X57925Y-36805D01*
X57925Y-36596D01*
X57845Y-36403D01*
X57698Y-36255D01*
X57616Y-36221D01*
X56547Y-35152D01*
X57013Y-35152D01*
X57053Y-35192D01*
X57209Y-35257D01*
X57378Y-35257D01*
X57534Y-35193D01*
X57654Y-35073D01*
X57719Y-34917D01*
X57719Y-34748D01*
X57655Y-34592D01*
X57535Y-34472D01*
X57379Y-34407D01*
X57210Y-34407D01*
X57054Y-34471D01*
X57013Y-34512D01*
X54072Y-34512D01*
X52213Y-32652D01*
X52213Y-32513D01*
X53049Y-33349D01*
X53152Y-33418D01*
X53153Y-33419D01*
X53275Y-33443D01*
X56938Y-33443D01*
X56875Y-33595D01*
X56875Y-33804D01*
X56955Y-33997D01*
X57102Y-34145D01*
X57295Y-34225D01*
X57504Y-34225D01*
X57697Y-34145D01*
X57822Y-34020D01*
X66444Y-34020D01*
X66589Y-34165D01*
X66680Y-34202D01*
X66619Y-34228D01*
X66592Y-34322D01*
X66900Y-34629D01*
X67208Y-34322D01*
X67181Y-34228D01*
X67115Y-34204D01*
X67211Y-34165D01*
X67356Y-34020D01*
X67444Y-34020D01*
X67589Y-34165D01*
X67680Y-34202D01*
X67619Y-34228D01*
X67592Y-34322D01*
X67900Y-34629D01*
X68208Y-34322D01*
X68181Y-34228D01*
X68115Y-34204D01*
X68211Y-34165D01*
X68356Y-34020D01*
X69444Y-34020D01*
X69589Y-34165D01*
X69680Y-34202D01*
X69619Y-34228D01*
X69592Y-34322D01*
X69900Y-34629D01*
X70208Y-34322D01*
X70181Y-34228D01*
X70115Y-34204D01*
X70211Y-34165D01*
X70356Y-34020D01*
X70444Y-34020D01*
X70589Y-34165D01*
X70680Y-34202D01*
X70619Y-34228D01*
X70592Y-34322D01*
X70900Y-34629D01*
X71208Y-34322D01*
X71181Y-34228D01*
X71115Y-34204D01*
X71211Y-34165D01*
X71365Y-34011D01*
X71449Y-33809D01*
X71449Y-33591D01*
X71365Y-33389D01*
X71211Y-33235D01*
X71126Y-33200D01*
X71211Y-33165D01*
X71365Y-33011D01*
X71449Y-32809D01*
X71449Y-32601D01*
X71450Y-32602D01*
X71450Y-36797D01*
G54D10*
G36*
X78046Y-51669D02*
X77928Y-51669D01*
X77928Y-45995D01*
X77638Y-45705D01*
X77567Y-45776D01*
X77567Y-45634D01*
X77277Y-45344D01*
X77186Y-45367D01*
X77153Y-45462D01*
X77153Y-45157D01*
X77142Y-44953D01*
X77086Y-44816D01*
X76995Y-44793D01*
X76705Y-45083D01*
X76995Y-45373D01*
X77086Y-45350D01*
X77153Y-45157D01*
X77153Y-45462D01*
X77119Y-45560D01*
X77130Y-45764D01*
X77186Y-45901D01*
X77277Y-45924D01*
X77567Y-45634D01*
X77567Y-45776D01*
X77348Y-45995D01*
X77371Y-46086D01*
X77564Y-46153D01*
X77768Y-46142D01*
X77905Y-46086D01*
X77928Y-45995D01*
X77928Y-51669D01*
X77543Y-51669D01*
X77617Y-51596D01*
X77819Y-51110D01*
X77819Y-50584D01*
X77618Y-50098D01*
X77246Y-49725D01*
X76924Y-49591D01*
X76924Y-45444D01*
X76634Y-45154D01*
X76563Y-45225D01*
X76563Y-45083D01*
X76273Y-44793D01*
X76182Y-44816D01*
X76115Y-45009D01*
X76126Y-45213D01*
X76182Y-45350D01*
X76273Y-45373D01*
X76563Y-45083D01*
X76563Y-45225D01*
X76344Y-45444D01*
X76367Y-45535D01*
X76560Y-45602D01*
X76764Y-45591D01*
X76901Y-45535D01*
X76924Y-45444D01*
X76924Y-49591D01*
X76760Y-49523D01*
X76445Y-49523D01*
X76445Y-47499D01*
X76433Y-47287D01*
X76373Y-47142D01*
X76280Y-47117D01*
X76209Y-47188D01*
X76209Y-47046D01*
X76184Y-46953D01*
X75983Y-46881D01*
X75771Y-46893D01*
X75626Y-46953D01*
X75601Y-47046D01*
X75905Y-47350D01*
X76209Y-47046D01*
X76209Y-47188D01*
X75976Y-47421D01*
X76280Y-47725D01*
X76373Y-47700D01*
X76445Y-47499D01*
X76445Y-49523D01*
X76234Y-49523D01*
X76209Y-49533D01*
X76209Y-47796D01*
X75905Y-47492D01*
X75834Y-47563D01*
X75834Y-47421D01*
X75530Y-47117D01*
X75437Y-47142D01*
X75365Y-47343D01*
X75377Y-47555D01*
X75437Y-47700D01*
X75530Y-47725D01*
X75834Y-47421D01*
X75834Y-47563D01*
X75601Y-47796D01*
X75626Y-47889D01*
X75827Y-47961D01*
X76039Y-47949D01*
X76184Y-47889D01*
X76209Y-47796D01*
X76209Y-49533D01*
X75748Y-49724D01*
X75375Y-50096D01*
X75173Y-50582D01*
X75173Y-51108D01*
X75374Y-51594D01*
X75448Y-51669D01*
X71910Y-51669D01*
X73139Y-50440D01*
X73209Y-50337D01*
X73209Y-50336D01*
X73233Y-50214D01*
X73233Y-47870D01*
X73374Y-47729D01*
X73457Y-47529D01*
X73457Y-47313D01*
X73374Y-47113D01*
X73221Y-46960D01*
X73021Y-46877D01*
X72805Y-46877D01*
X72605Y-46960D01*
X72452Y-47113D01*
X72369Y-47313D01*
X72369Y-47529D01*
X72452Y-47729D01*
X72593Y-47870D01*
X72593Y-50082D01*
X71508Y-51166D01*
X71536Y-51100D01*
X71536Y-50884D01*
X71453Y-50684D01*
X71300Y-50531D01*
X71206Y-50492D01*
X71300Y-50453D01*
X71453Y-50300D01*
X71536Y-50100D01*
X71536Y-49884D01*
X71453Y-49684D01*
X71300Y-49531D01*
X71206Y-49492D01*
X71300Y-49453D01*
X71453Y-49300D01*
X71536Y-49100D01*
X71536Y-48884D01*
X71453Y-48684D01*
X71300Y-48531D01*
X71206Y-48492D01*
X71300Y-48453D01*
X71453Y-48300D01*
X71536Y-48100D01*
X71536Y-47884D01*
X71453Y-47684D01*
X71300Y-47531D01*
X71206Y-47492D01*
X71300Y-47453D01*
X71453Y-47300D01*
X71536Y-47100D01*
X71536Y-46884D01*
X71453Y-46684D01*
X71300Y-46531D01*
X71206Y-46492D01*
X71300Y-46453D01*
X71453Y-46300D01*
X71536Y-46100D01*
X71536Y-45884D01*
X71453Y-45684D01*
X71300Y-45531D01*
X71206Y-45492D01*
X71300Y-45453D01*
X71453Y-45300D01*
X71536Y-45100D01*
X71536Y-44884D01*
X71453Y-44684D01*
X71300Y-44531D01*
X71100Y-44448D01*
X70884Y-44448D01*
X70684Y-44531D01*
X70531Y-44684D01*
X70492Y-44777D01*
X70453Y-44684D01*
X70300Y-44531D01*
X70100Y-44448D01*
X69884Y-44448D01*
X69684Y-44531D01*
X69531Y-44684D01*
X69492Y-44777D01*
X69453Y-44684D01*
X69300Y-44531D01*
X69100Y-44448D01*
X68884Y-44448D01*
X68684Y-44531D01*
X68531Y-44684D01*
X68492Y-44777D01*
X68453Y-44684D01*
X68300Y-44531D01*
X68100Y-44448D01*
X67884Y-44448D01*
X67684Y-44531D01*
X67531Y-44684D01*
X67492Y-44777D01*
X67453Y-44684D01*
X67300Y-44531D01*
X67100Y-44448D01*
X66884Y-44448D01*
X66684Y-44531D01*
X66531Y-44684D01*
X66492Y-44777D01*
X66453Y-44684D01*
X66404Y-44635D01*
X66441Y-44611D01*
X66803Y-44249D01*
X67009Y-44249D01*
X67211Y-44165D01*
X67356Y-44020D01*
X67444Y-44020D01*
X67589Y-44165D01*
X67791Y-44249D01*
X68009Y-44249D01*
X68211Y-44165D01*
X68356Y-44020D01*
X69444Y-44020D01*
X69589Y-44165D01*
X69791Y-44249D01*
X70009Y-44249D01*
X70211Y-44165D01*
X70356Y-44020D01*
X70444Y-44020D01*
X70589Y-44165D01*
X70791Y-44249D01*
X71009Y-44249D01*
X71211Y-44165D01*
X71365Y-44011D01*
X71449Y-43809D01*
X71449Y-43591D01*
X71365Y-43389D01*
X71211Y-43235D01*
X71126Y-43200D01*
X71211Y-43165D01*
X71365Y-43011D01*
X71449Y-42809D01*
X71449Y-42591D01*
X71365Y-42389D01*
X71211Y-42235D01*
X71126Y-42200D01*
X71211Y-42165D01*
X71365Y-42011D01*
X71449Y-41809D01*
X71449Y-41591D01*
X71419Y-41520D01*
X71450Y-41520D01*
X71450Y-44650D01*
X76362Y-44650D01*
X76344Y-44722D01*
X76634Y-45012D01*
X76924Y-44722D01*
X76905Y-44650D01*
X78046Y-44650D01*
X78046Y-45355D01*
X77999Y-45344D01*
X77928Y-45415D01*
X77928Y-45273D01*
X77905Y-45182D01*
X77712Y-45115D01*
X77508Y-45126D01*
X77371Y-45182D01*
X77348Y-45273D01*
X77638Y-45563D01*
X77928Y-45273D01*
X77928Y-45415D01*
X77709Y-45634D01*
X77999Y-45924D01*
X78046Y-45912D01*
X78046Y-51669D01*
X78046Y-51669D01*
G37*
G54D28*
X78046Y-51669D02*
X77928Y-51669D01*
X77928Y-45995D01*
X77638Y-45705D01*
X77567Y-45776D01*
X77567Y-45634D01*
X77277Y-45344D01*
X77186Y-45367D01*
X77153Y-45462D01*
X77153Y-45157D01*
X77142Y-44953D01*
X77086Y-44816D01*
X76995Y-44793D01*
X76705Y-45083D01*
X76995Y-45373D01*
X77086Y-45350D01*
X77153Y-45157D01*
X77153Y-45462D01*
X77119Y-45560D01*
X77130Y-45764D01*
X77186Y-45901D01*
X77277Y-45924D01*
X77567Y-45634D01*
X77567Y-45776D01*
X77348Y-45995D01*
X77371Y-46086D01*
X77564Y-46153D01*
X77768Y-46142D01*
X77905Y-46086D01*
X77928Y-45995D01*
X77928Y-51669D01*
X77543Y-51669D01*
X77617Y-51596D01*
X77819Y-51110D01*
X77819Y-50584D01*
X77618Y-50098D01*
X77246Y-49725D01*
X76924Y-49591D01*
X76924Y-45444D01*
X76634Y-45154D01*
X76563Y-45225D01*
X76563Y-45083D01*
X76273Y-44793D01*
X76182Y-44816D01*
X76115Y-45009D01*
X76126Y-45213D01*
X76182Y-45350D01*
X76273Y-45373D01*
X76563Y-45083D01*
X76563Y-45225D01*
X76344Y-45444D01*
X76367Y-45535D01*
X76560Y-45602D01*
X76764Y-45591D01*
X76901Y-45535D01*
X76924Y-45444D01*
X76924Y-49591D01*
X76760Y-49523D01*
X76445Y-49523D01*
X76445Y-47499D01*
X76433Y-47287D01*
X76373Y-47142D01*
X76280Y-47117D01*
X76209Y-47188D01*
X76209Y-47046D01*
X76184Y-46953D01*
X75983Y-46881D01*
X75771Y-46893D01*
X75626Y-46953D01*
X75601Y-47046D01*
X75905Y-47350D01*
X76209Y-47046D01*
X76209Y-47188D01*
X75976Y-47421D01*
X76280Y-47725D01*
X76373Y-47700D01*
X76445Y-47499D01*
X76445Y-49523D01*
X76234Y-49523D01*
X76209Y-49533D01*
X76209Y-47796D01*
X75905Y-47492D01*
X75834Y-47563D01*
X75834Y-47421D01*
X75530Y-47117D01*
X75437Y-47142D01*
X75365Y-47343D01*
X75377Y-47555D01*
X75437Y-47700D01*
X75530Y-47725D01*
X75834Y-47421D01*
X75834Y-47563D01*
X75601Y-47796D01*
X75626Y-47889D01*
X75827Y-47961D01*
X76039Y-47949D01*
X76184Y-47889D01*
X76209Y-47796D01*
X76209Y-49533D01*
X75748Y-49724D01*
X75375Y-50096D01*
X75173Y-50582D01*
X75173Y-51108D01*
X75374Y-51594D01*
X75448Y-51669D01*
X71910Y-51669D01*
X73139Y-50440D01*
X73209Y-50337D01*
X73209Y-50336D01*
X73233Y-50214D01*
X73233Y-47870D01*
X73374Y-47729D01*
X73457Y-47529D01*
X73457Y-47313D01*
X73374Y-47113D01*
X73221Y-46960D01*
X73021Y-46877D01*
X72805Y-46877D01*
X72605Y-46960D01*
X72452Y-47113D01*
X72369Y-47313D01*
X72369Y-47529D01*
X72452Y-47729D01*
X72593Y-47870D01*
X72593Y-50082D01*
X71508Y-51166D01*
X71536Y-51100D01*
X71536Y-50884D01*
X71453Y-50684D01*
X71300Y-50531D01*
X71206Y-50492D01*
X71300Y-50453D01*
X71453Y-50300D01*
X71536Y-50100D01*
X71536Y-49884D01*
X71453Y-49684D01*
X71300Y-49531D01*
X71206Y-49492D01*
X71300Y-49453D01*
X71453Y-49300D01*
X71536Y-49100D01*
X71536Y-48884D01*
X71453Y-48684D01*
X71300Y-48531D01*
X71206Y-48492D01*
X71300Y-48453D01*
X71453Y-48300D01*
X71536Y-48100D01*
X71536Y-47884D01*
X71453Y-47684D01*
X71300Y-47531D01*
X71206Y-47492D01*
X71300Y-47453D01*
X71453Y-47300D01*
X71536Y-47100D01*
X71536Y-46884D01*
X71453Y-46684D01*
X71300Y-46531D01*
X71206Y-46492D01*
X71300Y-46453D01*
X71453Y-46300D01*
X71536Y-46100D01*
X71536Y-45884D01*
X71453Y-45684D01*
X71300Y-45531D01*
X71206Y-45492D01*
X71300Y-45453D01*
X71453Y-45300D01*
X71536Y-45100D01*
X71536Y-44884D01*
X71453Y-44684D01*
X71300Y-44531D01*
X71100Y-44448D01*
X70884Y-44448D01*
X70684Y-44531D01*
X70531Y-44684D01*
X70492Y-44777D01*
X70453Y-44684D01*
X70300Y-44531D01*
X70100Y-44448D01*
X69884Y-44448D01*
X69684Y-44531D01*
X69531Y-44684D01*
X69492Y-44777D01*
X69453Y-44684D01*
X69300Y-44531D01*
X69100Y-44448D01*
X68884Y-44448D01*
X68684Y-44531D01*
X68531Y-44684D01*
X68492Y-44777D01*
X68453Y-44684D01*
X68300Y-44531D01*
X68100Y-44448D01*
X67884Y-44448D01*
X67684Y-44531D01*
X67531Y-44684D01*
X67492Y-44777D01*
X67453Y-44684D01*
X67300Y-44531D01*
X67100Y-44448D01*
X66884Y-44448D01*
X66684Y-44531D01*
X66531Y-44684D01*
X66492Y-44777D01*
X66453Y-44684D01*
X66404Y-44635D01*
X66441Y-44611D01*
X66803Y-44249D01*
X67009Y-44249D01*
X67211Y-44165D01*
X67356Y-44020D01*
X67444Y-44020D01*
X67589Y-44165D01*
X67791Y-44249D01*
X68009Y-44249D01*
X68211Y-44165D01*
X68356Y-44020D01*
X69444Y-44020D01*
X69589Y-44165D01*
X69791Y-44249D01*
X70009Y-44249D01*
X70211Y-44165D01*
X70356Y-44020D01*
X70444Y-44020D01*
X70589Y-44165D01*
X70791Y-44249D01*
X71009Y-44249D01*
X71211Y-44165D01*
X71365Y-44011D01*
X71449Y-43809D01*
X71449Y-43591D01*
X71365Y-43389D01*
X71211Y-43235D01*
X71126Y-43200D01*
X71211Y-43165D01*
X71365Y-43011D01*
X71449Y-42809D01*
X71449Y-42591D01*
X71365Y-42389D01*
X71211Y-42235D01*
X71126Y-42200D01*
X71211Y-42165D01*
X71365Y-42011D01*
X71449Y-41809D01*
X71449Y-41591D01*
X71419Y-41520D01*
X71450Y-41520D01*
X71450Y-44650D01*
X76362Y-44650D01*
X76344Y-44722D01*
X76634Y-45012D01*
X76924Y-44722D01*
X76905Y-44650D01*
X78046Y-44650D01*
X78046Y-45355D01*
X77999Y-45344D01*
X77928Y-45415D01*
X77928Y-45273D01*
X77905Y-45182D01*
X77712Y-45115D01*
X77508Y-45126D01*
X77371Y-45182D01*
X77348Y-45273D01*
X77638Y-45563D01*
X77928Y-45273D01*
X77928Y-45415D01*
X77709Y-45634D01*
X77999Y-45924D01*
X78046Y-45912D01*
X78046Y-51669D01*
M02*
