G04 (created by PCBNEW-RS274X (2012-apr-16-27)-stable) date Wed 26 Mar 2014 03:50:35 PM EDT*
G01*
G70*
G90*
%MOIN*%
G04 Gerber Fmt 3.4, Leading zero omitted, Abs format*
%FSLAX34Y34*%
G04 APERTURE LIST*
%ADD10C,0.006000*%
%ADD11C,0.141700*%
%ADD12C,0.059100*%
%ADD13C,0.060000*%
%ADD14C,0.066900*%
%ADD15R,0.060000X0.060000*%
%ADD16R,0.055000X0.055000*%
%ADD17C,0.055000*%
%ADD18C,0.160000*%
%ADD19C,0.035000*%
%ADD20C,0.014000*%
%ADD21C,0.013900*%
%ADD22C,0.010000*%
G04 APERTURE END LIST*
G54D10*
G54D11*
X40158Y-48819D03*
X42520Y-48819D03*
X41339Y-50669D03*
G54D12*
X54303Y-38870D03*
X54303Y-39870D03*
X54303Y-37870D03*
X54303Y-40870D03*
X54303Y-41870D03*
X54303Y-42870D03*
X54303Y-43870D03*
X54303Y-36870D03*
X54303Y-35870D03*
X54303Y-34870D03*
G54D13*
X66075Y-42028D03*
X62075Y-42028D03*
X73591Y-40354D03*
X77591Y-40354D03*
X73400Y-39100D03*
X77400Y-39100D03*
X56858Y-42028D03*
X60858Y-42028D03*
G54D14*
X45669Y-49016D03*
X45669Y-48016D03*
X45669Y-47016D03*
G54D15*
X69900Y-32700D03*
G54D13*
X70900Y-32700D03*
X69900Y-33700D03*
X70900Y-33700D03*
X69900Y-34700D03*
X70900Y-34700D03*
X69900Y-35700D03*
X70900Y-35700D03*
X69900Y-36700D03*
X70900Y-36700D03*
X69900Y-37700D03*
X70900Y-37700D03*
X69900Y-38700D03*
X70900Y-38700D03*
X69900Y-39700D03*
X70900Y-39700D03*
X69900Y-40700D03*
X70900Y-40700D03*
X69900Y-41700D03*
X70900Y-41700D03*
X69900Y-42700D03*
X70900Y-42700D03*
X69900Y-43700D03*
X70900Y-43700D03*
G54D15*
X67900Y-32700D03*
G54D13*
X68900Y-32700D03*
X67900Y-33700D03*
X68900Y-33700D03*
X67900Y-34700D03*
X68900Y-34700D03*
X67900Y-35700D03*
X68900Y-35700D03*
X67900Y-36700D03*
X68900Y-36700D03*
X67900Y-37700D03*
X68900Y-37700D03*
X67900Y-38700D03*
X68900Y-38700D03*
X67900Y-39700D03*
X68900Y-39700D03*
X67900Y-40700D03*
X68900Y-40700D03*
X67900Y-41700D03*
X68900Y-41700D03*
X67900Y-42700D03*
X68900Y-42700D03*
X67900Y-43700D03*
X68900Y-43700D03*
G54D15*
X56102Y-31587D03*
G54D13*
X56102Y-32587D03*
G54D16*
X73900Y-37600D03*
G54D17*
X76900Y-37600D03*
G54D16*
X73900Y-34600D03*
G54D17*
X76900Y-34600D03*
G54D16*
X73900Y-36600D03*
G54D17*
X76900Y-36600D03*
G54D16*
X73900Y-35600D03*
G54D17*
X76900Y-35600D03*
G54D16*
X69200Y-31500D03*
G54D17*
X70200Y-31500D03*
X71200Y-31500D03*
X72200Y-31500D03*
G54D12*
X72200Y-38500D03*
X72200Y-37500D03*
X72200Y-36500D03*
X72200Y-34500D03*
X72200Y-35500D03*
X72200Y-39500D03*
X72200Y-40500D03*
X72200Y-41500D03*
X72200Y-42500D03*
X72200Y-43500D03*
X56531Y-36394D03*
X56531Y-37394D03*
X56531Y-38394D03*
X56531Y-39394D03*
X65531Y-39394D03*
X65531Y-38394D03*
X65531Y-37394D03*
X65531Y-36394D03*
G54D18*
X43976Y-50827D03*
G54D13*
X61976Y-32087D03*
X65976Y-32087D03*
G54D12*
X73604Y-47400D03*
X76596Y-47400D03*
G54D18*
X44488Y-31850D03*
X74016Y-31850D03*
X76496Y-50866D03*
G54D12*
X58700Y-51200D03*
X59700Y-51200D03*
X60700Y-51200D03*
X71700Y-51200D03*
X61700Y-51200D03*
X62700Y-51200D03*
X63700Y-51200D03*
X64700Y-51200D03*
X65700Y-51200D03*
X66700Y-51200D03*
X67700Y-51200D03*
X68700Y-51200D03*
X69700Y-51200D03*
X70700Y-51200D03*
X71700Y-45200D03*
X70700Y-45200D03*
X69700Y-45200D03*
X68700Y-45200D03*
X67700Y-45200D03*
X66700Y-45200D03*
X65700Y-45200D03*
X64700Y-45200D03*
X63700Y-45200D03*
X62700Y-45200D03*
X61700Y-45200D03*
X60700Y-45200D03*
X59700Y-45200D03*
X58700Y-45200D03*
X71700Y-50200D03*
X71700Y-49200D03*
X71700Y-48200D03*
X71700Y-47200D03*
X71700Y-46200D03*
G54D15*
X76500Y-32000D03*
G54D13*
X77500Y-32000D03*
G54D19*
X70100Y-46200D03*
X65100Y-34400D03*
X58600Y-40900D03*
X73400Y-46700D03*
G54D20*
X60858Y-42028D02*
X62075Y-42028D01*
X68900Y-33700D02*
X69900Y-33700D01*
X70900Y-33700D02*
X69900Y-33700D01*
X68900Y-32700D02*
X69900Y-32700D01*
X67900Y-32700D02*
X68900Y-32700D01*
X70900Y-32700D02*
X69900Y-32700D01*
X56884Y-47016D02*
X58700Y-45200D01*
X45669Y-47016D02*
X56884Y-47016D01*
X67900Y-42700D02*
X68900Y-42700D01*
X68900Y-42700D02*
X69900Y-42700D01*
X70900Y-42700D02*
X69900Y-42700D01*
X66900Y-43700D02*
X67900Y-42700D01*
X64200Y-43700D02*
X66900Y-43700D01*
X62700Y-45200D02*
X64200Y-43700D01*
X67900Y-43700D02*
X68900Y-43700D01*
X68900Y-43700D02*
X69900Y-43700D01*
X70900Y-43700D02*
X69900Y-43700D01*
X66870Y-44730D02*
X67900Y-43700D01*
X65240Y-44730D02*
X66870Y-44730D01*
X65200Y-44770D02*
X65240Y-44730D01*
X65200Y-45630D02*
X65200Y-44770D01*
X65160Y-45670D02*
X65200Y-45630D01*
X62170Y-45670D02*
X65160Y-45670D01*
X61700Y-45200D02*
X62170Y-45670D01*
X75348Y-36600D02*
X76900Y-36600D01*
X77400Y-37100D02*
X77400Y-39100D01*
X71500Y-42200D02*
X72200Y-41500D01*
X73900Y-35600D02*
X73452Y-35600D01*
X59700Y-45200D02*
X61444Y-43456D01*
X74348Y-35600D02*
X75348Y-36600D01*
X73900Y-35600D02*
X74348Y-35600D01*
X73352Y-35500D02*
X73452Y-35600D01*
X72200Y-35500D02*
X73352Y-35500D01*
X66080Y-43456D02*
X67336Y-42200D01*
X61444Y-43456D02*
X66080Y-43456D01*
X67336Y-42200D02*
X71500Y-42200D01*
X76900Y-36600D02*
X77400Y-37100D01*
X70900Y-36700D02*
X69900Y-36700D01*
X67900Y-36700D02*
X68900Y-36700D01*
X67730Y-36870D02*
X54303Y-36870D01*
X67900Y-36700D02*
X67730Y-36870D01*
G54D21*
X66400Y-35700D02*
X65100Y-34400D01*
X58600Y-40900D02*
X58600Y-41400D01*
X59500Y-46200D02*
X70100Y-46200D01*
X59200Y-42000D02*
X59200Y-45900D01*
X58600Y-41400D02*
X59200Y-42000D01*
X59200Y-45900D02*
X59500Y-46200D01*
X56200Y-41000D02*
X55330Y-41870D01*
G54D20*
X68900Y-35700D02*
X69900Y-35700D01*
X68900Y-35700D02*
X67900Y-35700D01*
G54D21*
X55330Y-41870D02*
X54303Y-41870D01*
X58500Y-41000D02*
X56200Y-41000D01*
X58600Y-40900D02*
X58500Y-41000D01*
X67900Y-35700D02*
X66400Y-35700D01*
G54D20*
X68900Y-40700D02*
X67900Y-40700D01*
X70900Y-40700D02*
X69900Y-40700D01*
X69900Y-40700D02*
X68900Y-40700D01*
X68900Y-37700D02*
X67900Y-37700D01*
X56279Y-37894D02*
X54303Y-39870D01*
X67706Y-37894D02*
X56279Y-37894D01*
X67900Y-37700D02*
X67706Y-37894D01*
X68900Y-37700D02*
X69900Y-37700D01*
X65531Y-38394D02*
X67594Y-38394D01*
X68900Y-38700D02*
X69900Y-38700D01*
X67900Y-38700D02*
X68900Y-38700D01*
X67594Y-38394D02*
X67900Y-38700D01*
X70900Y-38700D02*
X69900Y-38700D01*
X68900Y-39700D02*
X69900Y-39700D01*
X70900Y-39700D02*
X71453Y-39147D01*
X70900Y-39700D02*
X69900Y-39700D01*
X71453Y-37247D02*
X72200Y-36500D01*
X71453Y-39147D02*
X71453Y-37247D01*
X67900Y-41700D02*
X68900Y-41700D01*
X70900Y-41700D02*
X69900Y-41700D01*
X61600Y-32463D02*
X65531Y-36394D01*
X68900Y-34700D02*
X69900Y-34700D01*
X61476Y-32587D02*
X61600Y-32463D01*
X76900Y-35600D02*
X76900Y-35498D01*
X56102Y-32587D02*
X61476Y-32587D01*
X61600Y-32463D02*
X61976Y-32087D01*
G54D21*
X58800Y-51200D02*
X63300Y-46700D01*
G54D20*
X68900Y-34700D02*
X67900Y-34700D01*
X45178Y-47525D02*
X45669Y-48016D01*
X41452Y-47525D02*
X45178Y-47525D01*
X40158Y-48819D02*
X41452Y-47525D01*
X76900Y-35498D02*
X76451Y-35049D01*
X55516Y-48016D02*
X45669Y-48016D01*
G54D21*
X63300Y-46700D02*
X73400Y-46700D01*
X58700Y-51200D02*
X58800Y-51200D01*
G54D20*
X76451Y-35049D02*
X76900Y-34600D01*
X58700Y-51200D02*
X55516Y-48016D01*
X72414Y-35049D02*
X76451Y-35049D01*
X70900Y-34700D02*
X71182Y-34982D01*
X71182Y-34982D02*
X72347Y-34982D01*
X72347Y-34982D02*
X72414Y-35049D01*
X76921Y-40354D02*
X73591Y-40354D01*
X78072Y-39203D02*
X76921Y-40354D01*
X78072Y-35010D02*
X78072Y-39203D01*
X76453Y-33391D02*
X78072Y-35010D01*
X73091Y-33391D02*
X76453Y-33391D01*
X71200Y-31500D02*
X73091Y-33391D01*
X56102Y-32060D02*
X55629Y-32060D01*
X55629Y-32060D02*
X53833Y-33856D01*
X53833Y-33856D02*
X53833Y-38400D01*
X53833Y-39340D02*
X54303Y-38870D01*
X53833Y-40330D02*
X53833Y-39340D01*
X53833Y-38400D02*
X54303Y-38870D01*
X56102Y-31587D02*
X56102Y-32060D01*
X66075Y-42028D02*
X64417Y-40370D01*
X64417Y-40370D02*
X53873Y-40370D01*
X53873Y-40370D02*
X53833Y-40330D01*
X45472Y-48819D02*
X45669Y-49016D01*
X42520Y-48819D02*
X45472Y-48819D01*
X73304Y-47700D02*
X73604Y-47400D01*
X66200Y-47700D02*
X73304Y-47700D01*
X62700Y-51200D02*
X66200Y-47700D01*
X74868Y-39632D02*
X76900Y-37600D01*
X73068Y-39632D02*
X74868Y-39632D01*
X72200Y-40500D02*
X73068Y-39632D01*
G54D10*
G36*
X56055Y-37666D02*
X56052Y-37668D01*
X54847Y-38873D01*
X54847Y-38762D01*
X54843Y-38752D01*
X54843Y-37948D01*
X54831Y-37736D01*
X54771Y-37591D01*
X54678Y-37566D01*
X54374Y-37870D01*
X54678Y-38174D01*
X54771Y-38149D01*
X54843Y-37948D01*
X54843Y-38752D01*
X54764Y-38562D01*
X54611Y-38409D01*
X54510Y-38367D01*
X54582Y-38338D01*
X54607Y-38245D01*
X54338Y-37976D01*
X54303Y-37941D01*
X54232Y-37870D01*
X54303Y-37799D01*
X54338Y-37764D01*
X54607Y-37495D01*
X54582Y-37402D01*
X54505Y-37374D01*
X54611Y-37331D01*
X54752Y-37190D01*
X56026Y-37190D01*
X55987Y-37286D01*
X55987Y-37502D01*
X56055Y-37665D01*
X56055Y-37666D01*
X56055Y-37666D01*
G37*
G54D22*
X56055Y-37666D02*
X56052Y-37668D01*
X54847Y-38873D01*
X54847Y-38762D01*
X54843Y-38752D01*
X54843Y-37948D01*
X54831Y-37736D01*
X54771Y-37591D01*
X54678Y-37566D01*
X54374Y-37870D01*
X54678Y-38174D01*
X54771Y-38149D01*
X54843Y-37948D01*
X54843Y-38752D01*
X54764Y-38562D01*
X54611Y-38409D01*
X54510Y-38367D01*
X54582Y-38338D01*
X54607Y-38245D01*
X54338Y-37976D01*
X54303Y-37941D01*
X54232Y-37870D01*
X54303Y-37799D01*
X54338Y-37764D01*
X54607Y-37495D01*
X54582Y-37402D01*
X54505Y-37374D01*
X54611Y-37331D01*
X54752Y-37190D01*
X56026Y-37190D01*
X55987Y-37286D01*
X55987Y-37502D01*
X56055Y-37665D01*
X56055Y-37666D01*
G54D10*
G36*
X71604Y-36643D02*
X71449Y-36798D01*
X71449Y-36591D01*
X71365Y-36389D01*
X71211Y-36235D01*
X71126Y-36200D01*
X71211Y-36165D01*
X71365Y-36011D01*
X71449Y-35809D01*
X71449Y-35591D01*
X71443Y-35576D01*
X71443Y-34779D01*
X71432Y-34566D01*
X71372Y-34419D01*
X71278Y-34392D01*
X70971Y-34700D01*
X71278Y-35008D01*
X71372Y-34981D01*
X71443Y-34779D01*
X71443Y-35576D01*
X71365Y-35389D01*
X71211Y-35235D01*
X71119Y-35197D01*
X71181Y-35172D01*
X71208Y-35078D01*
X70900Y-34771D01*
X70829Y-34841D01*
X70829Y-34700D01*
X70522Y-34392D01*
X70428Y-34419D01*
X70402Y-34492D01*
X70372Y-34419D01*
X70278Y-34392D01*
X69971Y-34700D01*
X70278Y-35008D01*
X70372Y-34981D01*
X70397Y-34907D01*
X70428Y-34981D01*
X70522Y-35008D01*
X70829Y-34700D01*
X70829Y-34841D01*
X70592Y-35078D01*
X70619Y-35172D01*
X70684Y-35195D01*
X70589Y-35235D01*
X70435Y-35389D01*
X70400Y-35473D01*
X70365Y-35389D01*
X70211Y-35235D01*
X70119Y-35197D01*
X70181Y-35172D01*
X70208Y-35078D01*
X69900Y-34771D01*
X69829Y-34841D01*
X69829Y-34700D01*
X69522Y-34392D01*
X69428Y-34419D01*
X69402Y-34492D01*
X69372Y-34419D01*
X69278Y-34392D01*
X68971Y-34700D01*
X69278Y-35008D01*
X69372Y-34981D01*
X69397Y-34907D01*
X69428Y-34981D01*
X69522Y-35008D01*
X69829Y-34700D01*
X69829Y-34841D01*
X69592Y-35078D01*
X69619Y-35172D01*
X69684Y-35195D01*
X69589Y-35235D01*
X69444Y-35380D01*
X69356Y-35380D01*
X69211Y-35235D01*
X69119Y-35197D01*
X69181Y-35172D01*
X69208Y-35078D01*
X68900Y-34771D01*
X68829Y-34841D01*
X68829Y-34700D01*
X68522Y-34392D01*
X68428Y-34419D01*
X68402Y-34492D01*
X68372Y-34419D01*
X68278Y-34392D01*
X67971Y-34700D01*
X68278Y-35008D01*
X68372Y-34981D01*
X68397Y-34907D01*
X68428Y-34981D01*
X68522Y-35008D01*
X68829Y-34700D01*
X68829Y-34841D01*
X68592Y-35078D01*
X68619Y-35172D01*
X68684Y-35195D01*
X68589Y-35235D01*
X68444Y-35380D01*
X68356Y-35380D01*
X68211Y-35235D01*
X68119Y-35197D01*
X68181Y-35172D01*
X68208Y-35078D01*
X67900Y-34771D01*
X67829Y-34841D01*
X67829Y-34700D01*
X67522Y-34392D01*
X67428Y-34419D01*
X67357Y-34621D01*
X67368Y-34834D01*
X67428Y-34981D01*
X67522Y-35008D01*
X67829Y-34700D01*
X67829Y-34841D01*
X67592Y-35078D01*
X67619Y-35172D01*
X67684Y-35195D01*
X67589Y-35235D01*
X67443Y-35381D01*
X66532Y-35381D01*
X66525Y-35373D01*
X66525Y-32196D01*
X66525Y-31978D01*
X66441Y-31776D01*
X66287Y-31622D01*
X66085Y-31538D01*
X65867Y-31538D01*
X65665Y-31622D01*
X65511Y-31776D01*
X65427Y-31978D01*
X65427Y-32196D01*
X65511Y-32398D01*
X65665Y-32552D01*
X65867Y-32636D01*
X66085Y-32636D01*
X66287Y-32552D01*
X66441Y-32398D01*
X66525Y-32196D01*
X66525Y-35373D01*
X65525Y-34373D01*
X65525Y-34316D01*
X65461Y-34160D01*
X65341Y-34040D01*
X65185Y-33975D01*
X65016Y-33975D01*
X64860Y-34039D01*
X64740Y-34159D01*
X64675Y-34315D01*
X64675Y-34484D01*
X64739Y-34640D01*
X64859Y-34760D01*
X65015Y-34825D01*
X65073Y-34825D01*
X66172Y-35923D01*
X66174Y-35926D01*
X66235Y-35967D01*
X66277Y-35995D01*
X66278Y-35995D01*
X66400Y-36019D01*
X67443Y-36019D01*
X67589Y-36165D01*
X67673Y-36200D01*
X67589Y-36235D01*
X67435Y-36389D01*
X67368Y-36550D01*
X66043Y-36550D01*
X66071Y-36472D01*
X66059Y-36260D01*
X65999Y-36115D01*
X65906Y-36090D01*
X65835Y-36161D01*
X65835Y-36019D01*
X65810Y-35926D01*
X65609Y-35854D01*
X65397Y-35866D01*
X65252Y-35926D01*
X65227Y-36019D01*
X65531Y-36323D01*
X65835Y-36019D01*
X65835Y-36161D01*
X65637Y-36359D01*
X65602Y-36394D01*
X65531Y-36465D01*
X65460Y-36394D01*
X65425Y-36359D01*
X65156Y-36090D01*
X65063Y-36115D01*
X64991Y-36316D01*
X65003Y-36528D01*
X65012Y-36550D01*
X62519Y-36550D01*
X62519Y-32166D01*
X62508Y-31953D01*
X62448Y-31806D01*
X62354Y-31779D01*
X62284Y-31849D01*
X62284Y-31709D01*
X62257Y-31615D01*
X62055Y-31544D01*
X61842Y-31555D01*
X61695Y-31615D01*
X61668Y-31709D01*
X61976Y-32016D01*
X62284Y-31709D01*
X62284Y-31849D01*
X62047Y-32087D01*
X62354Y-32395D01*
X62448Y-32368D01*
X62519Y-32166D01*
X62519Y-36550D01*
X62284Y-36550D01*
X62284Y-32465D01*
X61976Y-32158D01*
X61905Y-32228D01*
X61905Y-32087D01*
X61598Y-31779D01*
X61504Y-31806D01*
X61433Y-32008D01*
X61444Y-32221D01*
X61504Y-32368D01*
X61598Y-32395D01*
X61905Y-32087D01*
X61905Y-32228D01*
X61668Y-32465D01*
X61695Y-32559D01*
X61897Y-32630D01*
X62110Y-32619D01*
X62257Y-32559D01*
X62284Y-32465D01*
X62284Y-36550D01*
X57055Y-36550D01*
X57075Y-36502D01*
X57075Y-36286D01*
X56992Y-36086D01*
X56839Y-35933D01*
X56645Y-35852D01*
X56645Y-32666D01*
X56634Y-32453D01*
X56574Y-32306D01*
X56480Y-32279D01*
X56173Y-32587D01*
X56480Y-32895D01*
X56574Y-32868D01*
X56645Y-32666D01*
X56645Y-35852D01*
X56639Y-35850D01*
X56423Y-35850D01*
X56410Y-35855D01*
X56410Y-32965D01*
X56102Y-32658D01*
X55794Y-32965D01*
X55821Y-33059D01*
X56023Y-33130D01*
X56236Y-33119D01*
X56383Y-33059D01*
X56410Y-32965D01*
X56410Y-35855D01*
X56223Y-35933D01*
X56070Y-36086D01*
X55987Y-36286D01*
X55987Y-36502D01*
X56006Y-36550D01*
X54752Y-36550D01*
X54611Y-36409D01*
X54517Y-36370D01*
X54611Y-36331D01*
X54764Y-36178D01*
X54847Y-35978D01*
X54847Y-35762D01*
X54764Y-35562D01*
X54611Y-35409D01*
X54517Y-35370D01*
X54611Y-35331D01*
X54764Y-35178D01*
X54847Y-34978D01*
X54847Y-34762D01*
X54764Y-34562D01*
X54611Y-34409D01*
X54411Y-34326D01*
X54195Y-34326D01*
X54153Y-34343D01*
X54153Y-33988D01*
X55562Y-32579D01*
X55570Y-32721D01*
X55630Y-32868D01*
X55724Y-32895D01*
X55996Y-32622D01*
X56031Y-32587D01*
X56102Y-32516D01*
X56137Y-32481D01*
X56410Y-32209D01*
X56399Y-32173D01*
X56407Y-32136D01*
X56451Y-32136D01*
X56543Y-32098D01*
X56613Y-32028D01*
X56651Y-31937D01*
X56651Y-31838D01*
X56651Y-31238D01*
X56613Y-31146D01*
X56543Y-31076D01*
X56452Y-31038D01*
X56353Y-31038D01*
X55753Y-31038D01*
X55661Y-31076D01*
X55591Y-31146D01*
X55553Y-31237D01*
X55553Y-31336D01*
X55553Y-31754D01*
X55507Y-31764D01*
X55505Y-31764D01*
X55505Y-31765D01*
X55402Y-31834D01*
X53607Y-33630D01*
X53537Y-33733D01*
X53513Y-33856D01*
X53513Y-38400D01*
X53537Y-38523D01*
X53607Y-38626D01*
X53759Y-38778D01*
X53759Y-38961D01*
X53607Y-39114D01*
X53537Y-39217D01*
X53513Y-39340D01*
X53513Y-40330D01*
X53537Y-40453D01*
X53607Y-40556D01*
X53646Y-40596D01*
X53647Y-40596D01*
X53716Y-40642D01*
X53750Y-40665D01*
X53751Y-40666D01*
X53795Y-40674D01*
X53759Y-40762D01*
X53759Y-40978D01*
X53842Y-41178D01*
X53995Y-41331D01*
X54088Y-41370D01*
X53995Y-41409D01*
X53842Y-41562D01*
X53759Y-41762D01*
X53759Y-41978D01*
X53842Y-42178D01*
X53995Y-42331D01*
X54088Y-42370D01*
X53995Y-42409D01*
X53842Y-42562D01*
X53759Y-42762D01*
X53759Y-42978D01*
X53842Y-43178D01*
X53995Y-43331D01*
X54088Y-43370D01*
X53995Y-43409D01*
X53842Y-43562D01*
X53759Y-43762D01*
X53759Y-43978D01*
X53842Y-44178D01*
X53995Y-44331D01*
X54195Y-44414D01*
X54411Y-44414D01*
X54611Y-44331D01*
X54764Y-44178D01*
X54847Y-43978D01*
X54847Y-43762D01*
X54764Y-43562D01*
X54611Y-43409D01*
X54517Y-43370D01*
X54611Y-43331D01*
X54764Y-43178D01*
X54847Y-42978D01*
X54847Y-42762D01*
X54764Y-42562D01*
X54611Y-42409D01*
X54517Y-42370D01*
X54611Y-42331D01*
X54753Y-42189D01*
X55325Y-42189D01*
X55330Y-42190D01*
X55330Y-42189D01*
X55452Y-42165D01*
X55556Y-42096D01*
X56332Y-41319D01*
X58281Y-41319D01*
X58281Y-41395D01*
X58280Y-41400D01*
X58305Y-41522D01*
X58374Y-41626D01*
X58881Y-42132D01*
X58881Y-44686D01*
X58808Y-44656D01*
X58592Y-44656D01*
X58392Y-44739D01*
X58239Y-44892D01*
X58156Y-45092D01*
X58156Y-45292D01*
X57407Y-46041D01*
X57407Y-42137D01*
X57407Y-41919D01*
X57323Y-41717D01*
X57169Y-41563D01*
X56967Y-41479D01*
X56749Y-41479D01*
X56547Y-41563D01*
X56393Y-41717D01*
X56309Y-41919D01*
X56309Y-42137D01*
X56393Y-42339D01*
X56547Y-42493D01*
X56749Y-42577D01*
X56967Y-42577D01*
X57169Y-42493D01*
X57323Y-42339D01*
X57407Y-42137D01*
X57407Y-46041D01*
X56752Y-46696D01*
X46168Y-46696D01*
X46164Y-46685D01*
X46000Y-46521D01*
X45785Y-46432D01*
X45553Y-46432D01*
X45338Y-46521D01*
X45174Y-46685D01*
X45085Y-46900D01*
X45085Y-47132D01*
X45174Y-47347D01*
X45338Y-47511D01*
X45366Y-47522D01*
X45337Y-47614D01*
X45669Y-47945D01*
X46001Y-47614D01*
X45971Y-47522D01*
X46000Y-47511D01*
X46164Y-47347D01*
X46168Y-47336D01*
X56884Y-47336D01*
X57006Y-47312D01*
X57007Y-47312D01*
X57110Y-47242D01*
X58608Y-45744D01*
X58808Y-45744D01*
X58881Y-45713D01*
X58881Y-45895D01*
X58880Y-45900D01*
X58905Y-46022D01*
X58974Y-46126D01*
X59272Y-46423D01*
X59274Y-46426D01*
X59335Y-46467D01*
X59377Y-46495D01*
X59378Y-46495D01*
X59500Y-46519D01*
X69818Y-46519D01*
X69859Y-46560D01*
X70015Y-46625D01*
X70184Y-46625D01*
X70340Y-46561D01*
X70460Y-46441D01*
X70525Y-46285D01*
X70525Y-46116D01*
X70461Y-45960D01*
X70341Y-45840D01*
X70185Y-45775D01*
X70016Y-45775D01*
X69860Y-45839D01*
X69818Y-45881D01*
X65401Y-45881D01*
X65426Y-45857D01*
X65426Y-45856D01*
X65472Y-45787D01*
X65495Y-45753D01*
X65496Y-45752D01*
X65504Y-45707D01*
X65592Y-45744D01*
X65808Y-45744D01*
X66008Y-45661D01*
X66161Y-45508D01*
X66200Y-45414D01*
X66239Y-45508D01*
X66392Y-45661D01*
X66592Y-45744D01*
X66808Y-45744D01*
X67008Y-45661D01*
X67161Y-45508D01*
X67200Y-45414D01*
X67239Y-45508D01*
X67392Y-45661D01*
X67592Y-45744D01*
X67808Y-45744D01*
X68008Y-45661D01*
X68161Y-45508D01*
X68200Y-45414D01*
X68239Y-45508D01*
X68392Y-45661D01*
X68592Y-45744D01*
X68808Y-45744D01*
X69008Y-45661D01*
X69161Y-45508D01*
X69200Y-45414D01*
X69239Y-45508D01*
X69392Y-45661D01*
X69592Y-45744D01*
X69808Y-45744D01*
X70008Y-45661D01*
X70161Y-45508D01*
X70200Y-45414D01*
X70239Y-45508D01*
X70392Y-45661D01*
X70592Y-45744D01*
X70808Y-45744D01*
X71008Y-45661D01*
X71161Y-45508D01*
X71200Y-45414D01*
X71239Y-45508D01*
X71392Y-45661D01*
X71485Y-45700D01*
X71392Y-45739D01*
X71239Y-45892D01*
X71156Y-46092D01*
X71156Y-46308D01*
X71239Y-46508D01*
X71392Y-46661D01*
X71485Y-46700D01*
X71392Y-46739D01*
X71239Y-46892D01*
X71156Y-47092D01*
X71156Y-47308D01*
X71185Y-47380D01*
X66200Y-47380D01*
X66078Y-47404D01*
X66076Y-47404D01*
X66076Y-47405D01*
X65973Y-47474D01*
X62791Y-50656D01*
X62592Y-50656D01*
X62392Y-50739D01*
X62239Y-50892D01*
X62200Y-50985D01*
X62161Y-50892D01*
X62008Y-50739D01*
X61808Y-50656D01*
X61592Y-50656D01*
X61392Y-50739D01*
X61239Y-50892D01*
X61200Y-50985D01*
X61161Y-50892D01*
X61008Y-50739D01*
X60808Y-50656D01*
X60592Y-50656D01*
X60392Y-50739D01*
X60239Y-50892D01*
X60200Y-50985D01*
X60161Y-50892D01*
X60008Y-50739D01*
X59808Y-50656D01*
X59592Y-50656D01*
X59392Y-50739D01*
X59239Y-50892D01*
X59197Y-50992D01*
X59168Y-50921D01*
X59075Y-50896D01*
X59004Y-50967D01*
X59004Y-50825D01*
X58979Y-50732D01*
X58778Y-50660D01*
X58566Y-50672D01*
X58421Y-50732D01*
X58396Y-50825D01*
X58700Y-51129D01*
X59004Y-50825D01*
X59004Y-50967D01*
X58771Y-51200D01*
X59075Y-51504D01*
X59168Y-51479D01*
X59195Y-51402D01*
X59239Y-51508D01*
X59392Y-51661D01*
X59411Y-51669D01*
X58976Y-51669D01*
X58979Y-51668D01*
X59004Y-51575D01*
X58700Y-51271D01*
X58629Y-51342D01*
X58629Y-51200D01*
X58325Y-50896D01*
X58232Y-50921D01*
X58160Y-51122D01*
X58172Y-51334D01*
X58232Y-51479D01*
X58325Y-51504D01*
X58629Y-51200D01*
X58629Y-51342D01*
X58396Y-51575D01*
X58421Y-51668D01*
X58423Y-51669D01*
X46253Y-51669D01*
X46253Y-49132D01*
X46253Y-48900D01*
X46245Y-48880D01*
X46245Y-48103D01*
X46235Y-47876D01*
X46168Y-47715D01*
X46071Y-47684D01*
X45740Y-48016D01*
X46071Y-48348D01*
X46168Y-48317D01*
X46245Y-48103D01*
X46245Y-48880D01*
X46164Y-48685D01*
X46000Y-48521D01*
X45971Y-48509D01*
X46001Y-48418D01*
X45669Y-48087D01*
X45598Y-48157D01*
X45598Y-48016D01*
X45267Y-47684D01*
X45170Y-47715D01*
X45093Y-47929D01*
X45103Y-48156D01*
X45170Y-48317D01*
X45267Y-48348D01*
X45598Y-48016D01*
X45598Y-48157D01*
X45337Y-48418D01*
X45362Y-48499D01*
X43423Y-48499D01*
X43331Y-48277D01*
X43062Y-48008D01*
X42711Y-47862D01*
X42330Y-47862D01*
X41978Y-48008D01*
X41709Y-48277D01*
X41563Y-48628D01*
X41563Y-49009D01*
X41709Y-49361D01*
X41978Y-49630D01*
X42329Y-49776D01*
X42710Y-49776D01*
X43062Y-49630D01*
X43331Y-49361D01*
X43423Y-49139D01*
X45087Y-49139D01*
X45174Y-49347D01*
X45338Y-49511D01*
X45553Y-49600D01*
X45785Y-49600D01*
X46000Y-49511D01*
X46164Y-49347D01*
X46253Y-49132D01*
X46253Y-51669D01*
X44618Y-51669D01*
X44866Y-51422D01*
X45026Y-51037D01*
X45026Y-50619D01*
X44866Y-50233D01*
X44571Y-49937D01*
X44186Y-49777D01*
X43768Y-49777D01*
X43382Y-49937D01*
X43086Y-50232D01*
X42926Y-50617D01*
X42926Y-51035D01*
X43086Y-51421D01*
X43333Y-51669D01*
X42296Y-51669D01*
X42296Y-50860D01*
X42296Y-50479D01*
X42150Y-50127D01*
X41881Y-49858D01*
X41530Y-49712D01*
X41149Y-49712D01*
X41099Y-49732D01*
X41099Y-48994D01*
X41095Y-48620D01*
X40961Y-48298D01*
X40826Y-48222D01*
X40755Y-48293D01*
X40755Y-48151D01*
X40679Y-48016D01*
X40333Y-47878D01*
X39959Y-47882D01*
X39637Y-48016D01*
X39561Y-48151D01*
X40158Y-48748D01*
X40755Y-48151D01*
X40755Y-48293D01*
X40229Y-48819D01*
X40826Y-49416D01*
X40961Y-49340D01*
X41099Y-48994D01*
X41099Y-49732D01*
X40797Y-49858D01*
X40755Y-49900D01*
X40755Y-49487D01*
X40158Y-48890D01*
X39561Y-49487D01*
X39637Y-49622D01*
X39983Y-49760D01*
X40357Y-49756D01*
X40679Y-49622D01*
X40755Y-49487D01*
X40755Y-49900D01*
X40528Y-50127D01*
X40382Y-50478D01*
X40382Y-50859D01*
X40528Y-51211D01*
X40797Y-51480D01*
X41148Y-51626D01*
X41529Y-51626D01*
X41881Y-51480D01*
X42150Y-51211D01*
X42296Y-50860D01*
X42296Y-51669D01*
X39276Y-51669D01*
X39276Y-49150D01*
X39355Y-49340D01*
X39490Y-49416D01*
X40087Y-48819D01*
X39490Y-48222D01*
X39355Y-48298D01*
X39276Y-48496D01*
X39276Y-31009D01*
X43844Y-31009D01*
X43598Y-31255D01*
X43438Y-31640D01*
X43438Y-32058D01*
X43598Y-32444D01*
X43893Y-32740D01*
X44278Y-32900D01*
X44696Y-32900D01*
X45082Y-32740D01*
X45378Y-32445D01*
X45538Y-32060D01*
X45538Y-31642D01*
X45378Y-31256D01*
X45131Y-31009D01*
X68796Y-31009D01*
X68784Y-31014D01*
X68714Y-31084D01*
X68676Y-31175D01*
X68676Y-31274D01*
X68676Y-31824D01*
X68714Y-31916D01*
X68784Y-31986D01*
X68875Y-32024D01*
X68974Y-32024D01*
X69524Y-32024D01*
X69616Y-31986D01*
X69686Y-31916D01*
X69724Y-31825D01*
X69724Y-31726D01*
X69724Y-31708D01*
X69748Y-31767D01*
X69839Y-31790D01*
X70129Y-31500D01*
X69839Y-31210D01*
X69748Y-31233D01*
X69724Y-31302D01*
X69724Y-31176D01*
X69686Y-31084D01*
X69616Y-31014D01*
X69604Y-31009D01*
X70028Y-31009D01*
X69933Y-31048D01*
X69910Y-31139D01*
X70165Y-31394D01*
X70200Y-31429D01*
X70271Y-31500D01*
X70200Y-31571D01*
X70165Y-31606D01*
X69910Y-31861D01*
X69933Y-31952D01*
X70126Y-32019D01*
X70330Y-32008D01*
X70422Y-31970D01*
X70422Y-32285D01*
X70411Y-32259D01*
X70341Y-32189D01*
X70250Y-32151D01*
X70151Y-32151D01*
X69551Y-32151D01*
X69459Y-32189D01*
X69389Y-32259D01*
X69351Y-32350D01*
X69351Y-32375D01*
X69211Y-32235D01*
X69009Y-32151D01*
X68791Y-32151D01*
X68589Y-32235D01*
X68449Y-32375D01*
X68449Y-32351D01*
X68411Y-32259D01*
X68341Y-32189D01*
X68250Y-32151D01*
X68151Y-32151D01*
X67551Y-32151D01*
X67459Y-32189D01*
X67389Y-32259D01*
X67351Y-32350D01*
X67351Y-32449D01*
X67351Y-33049D01*
X67389Y-33141D01*
X67459Y-33211D01*
X67550Y-33249D01*
X67575Y-33249D01*
X67435Y-33389D01*
X67351Y-33591D01*
X67351Y-33809D01*
X67435Y-34011D01*
X67589Y-34165D01*
X67680Y-34202D01*
X67619Y-34228D01*
X67592Y-34322D01*
X67900Y-34629D01*
X68208Y-34322D01*
X68181Y-34228D01*
X68115Y-34204D01*
X68211Y-34165D01*
X68365Y-34011D01*
X68400Y-33926D01*
X68435Y-34011D01*
X68589Y-34165D01*
X68680Y-34202D01*
X68619Y-34228D01*
X68592Y-34322D01*
X68900Y-34629D01*
X69208Y-34322D01*
X69181Y-34228D01*
X69115Y-34204D01*
X69211Y-34165D01*
X69356Y-34020D01*
X69444Y-34020D01*
X69589Y-34165D01*
X69680Y-34202D01*
X69619Y-34228D01*
X69592Y-34322D01*
X69900Y-34629D01*
X70208Y-34322D01*
X70181Y-34228D01*
X70115Y-34204D01*
X70211Y-34165D01*
X70356Y-34020D01*
X70444Y-34020D01*
X70589Y-34165D01*
X70680Y-34202D01*
X70619Y-34228D01*
X70592Y-34322D01*
X70900Y-34629D01*
X71208Y-34322D01*
X71181Y-34228D01*
X71115Y-34204D01*
X71211Y-34165D01*
X71365Y-34011D01*
X71449Y-33809D01*
X71449Y-33591D01*
X71365Y-33389D01*
X71211Y-33235D01*
X71126Y-33200D01*
X71211Y-33165D01*
X71365Y-33011D01*
X71449Y-32809D01*
X71449Y-32661D01*
X71604Y-32713D01*
X71604Y-36643D01*
X71604Y-36643D01*
G37*
G54D22*
X71604Y-36643D02*
X71449Y-36798D01*
X71449Y-36591D01*
X71365Y-36389D01*
X71211Y-36235D01*
X71126Y-36200D01*
X71211Y-36165D01*
X71365Y-36011D01*
X71449Y-35809D01*
X71449Y-35591D01*
X71443Y-35576D01*
X71443Y-34779D01*
X71432Y-34566D01*
X71372Y-34419D01*
X71278Y-34392D01*
X70971Y-34700D01*
X71278Y-35008D01*
X71372Y-34981D01*
X71443Y-34779D01*
X71443Y-35576D01*
X71365Y-35389D01*
X71211Y-35235D01*
X71119Y-35197D01*
X71181Y-35172D01*
X71208Y-35078D01*
X70900Y-34771D01*
X70829Y-34841D01*
X70829Y-34700D01*
X70522Y-34392D01*
X70428Y-34419D01*
X70402Y-34492D01*
X70372Y-34419D01*
X70278Y-34392D01*
X69971Y-34700D01*
X70278Y-35008D01*
X70372Y-34981D01*
X70397Y-34907D01*
X70428Y-34981D01*
X70522Y-35008D01*
X70829Y-34700D01*
X70829Y-34841D01*
X70592Y-35078D01*
X70619Y-35172D01*
X70684Y-35195D01*
X70589Y-35235D01*
X70435Y-35389D01*
X70400Y-35473D01*
X70365Y-35389D01*
X70211Y-35235D01*
X70119Y-35197D01*
X70181Y-35172D01*
X70208Y-35078D01*
X69900Y-34771D01*
X69829Y-34841D01*
X69829Y-34700D01*
X69522Y-34392D01*
X69428Y-34419D01*
X69402Y-34492D01*
X69372Y-34419D01*
X69278Y-34392D01*
X68971Y-34700D01*
X69278Y-35008D01*
X69372Y-34981D01*
X69397Y-34907D01*
X69428Y-34981D01*
X69522Y-35008D01*
X69829Y-34700D01*
X69829Y-34841D01*
X69592Y-35078D01*
X69619Y-35172D01*
X69684Y-35195D01*
X69589Y-35235D01*
X69444Y-35380D01*
X69356Y-35380D01*
X69211Y-35235D01*
X69119Y-35197D01*
X69181Y-35172D01*
X69208Y-35078D01*
X68900Y-34771D01*
X68829Y-34841D01*
X68829Y-34700D01*
X68522Y-34392D01*
X68428Y-34419D01*
X68402Y-34492D01*
X68372Y-34419D01*
X68278Y-34392D01*
X67971Y-34700D01*
X68278Y-35008D01*
X68372Y-34981D01*
X68397Y-34907D01*
X68428Y-34981D01*
X68522Y-35008D01*
X68829Y-34700D01*
X68829Y-34841D01*
X68592Y-35078D01*
X68619Y-35172D01*
X68684Y-35195D01*
X68589Y-35235D01*
X68444Y-35380D01*
X68356Y-35380D01*
X68211Y-35235D01*
X68119Y-35197D01*
X68181Y-35172D01*
X68208Y-35078D01*
X67900Y-34771D01*
X67829Y-34841D01*
X67829Y-34700D01*
X67522Y-34392D01*
X67428Y-34419D01*
X67357Y-34621D01*
X67368Y-34834D01*
X67428Y-34981D01*
X67522Y-35008D01*
X67829Y-34700D01*
X67829Y-34841D01*
X67592Y-35078D01*
X67619Y-35172D01*
X67684Y-35195D01*
X67589Y-35235D01*
X67443Y-35381D01*
X66532Y-35381D01*
X66525Y-35373D01*
X66525Y-32196D01*
X66525Y-31978D01*
X66441Y-31776D01*
X66287Y-31622D01*
X66085Y-31538D01*
X65867Y-31538D01*
X65665Y-31622D01*
X65511Y-31776D01*
X65427Y-31978D01*
X65427Y-32196D01*
X65511Y-32398D01*
X65665Y-32552D01*
X65867Y-32636D01*
X66085Y-32636D01*
X66287Y-32552D01*
X66441Y-32398D01*
X66525Y-32196D01*
X66525Y-35373D01*
X65525Y-34373D01*
X65525Y-34316D01*
X65461Y-34160D01*
X65341Y-34040D01*
X65185Y-33975D01*
X65016Y-33975D01*
X64860Y-34039D01*
X64740Y-34159D01*
X64675Y-34315D01*
X64675Y-34484D01*
X64739Y-34640D01*
X64859Y-34760D01*
X65015Y-34825D01*
X65073Y-34825D01*
X66172Y-35923D01*
X66174Y-35926D01*
X66235Y-35967D01*
X66277Y-35995D01*
X66278Y-35995D01*
X66400Y-36019D01*
X67443Y-36019D01*
X67589Y-36165D01*
X67673Y-36200D01*
X67589Y-36235D01*
X67435Y-36389D01*
X67368Y-36550D01*
X66043Y-36550D01*
X66071Y-36472D01*
X66059Y-36260D01*
X65999Y-36115D01*
X65906Y-36090D01*
X65835Y-36161D01*
X65835Y-36019D01*
X65810Y-35926D01*
X65609Y-35854D01*
X65397Y-35866D01*
X65252Y-35926D01*
X65227Y-36019D01*
X65531Y-36323D01*
X65835Y-36019D01*
X65835Y-36161D01*
X65637Y-36359D01*
X65602Y-36394D01*
X65531Y-36465D01*
X65460Y-36394D01*
X65425Y-36359D01*
X65156Y-36090D01*
X65063Y-36115D01*
X64991Y-36316D01*
X65003Y-36528D01*
X65012Y-36550D01*
X62519Y-36550D01*
X62519Y-32166D01*
X62508Y-31953D01*
X62448Y-31806D01*
X62354Y-31779D01*
X62284Y-31849D01*
X62284Y-31709D01*
X62257Y-31615D01*
X62055Y-31544D01*
X61842Y-31555D01*
X61695Y-31615D01*
X61668Y-31709D01*
X61976Y-32016D01*
X62284Y-31709D01*
X62284Y-31849D01*
X62047Y-32087D01*
X62354Y-32395D01*
X62448Y-32368D01*
X62519Y-32166D01*
X62519Y-36550D01*
X62284Y-36550D01*
X62284Y-32465D01*
X61976Y-32158D01*
X61905Y-32228D01*
X61905Y-32087D01*
X61598Y-31779D01*
X61504Y-31806D01*
X61433Y-32008D01*
X61444Y-32221D01*
X61504Y-32368D01*
X61598Y-32395D01*
X61905Y-32087D01*
X61905Y-32228D01*
X61668Y-32465D01*
X61695Y-32559D01*
X61897Y-32630D01*
X62110Y-32619D01*
X62257Y-32559D01*
X62284Y-32465D01*
X62284Y-36550D01*
X57055Y-36550D01*
X57075Y-36502D01*
X57075Y-36286D01*
X56992Y-36086D01*
X56839Y-35933D01*
X56645Y-35852D01*
X56645Y-32666D01*
X56634Y-32453D01*
X56574Y-32306D01*
X56480Y-32279D01*
X56173Y-32587D01*
X56480Y-32895D01*
X56574Y-32868D01*
X56645Y-32666D01*
X56645Y-35852D01*
X56639Y-35850D01*
X56423Y-35850D01*
X56410Y-35855D01*
X56410Y-32965D01*
X56102Y-32658D01*
X55794Y-32965D01*
X55821Y-33059D01*
X56023Y-33130D01*
X56236Y-33119D01*
X56383Y-33059D01*
X56410Y-32965D01*
X56410Y-35855D01*
X56223Y-35933D01*
X56070Y-36086D01*
X55987Y-36286D01*
X55987Y-36502D01*
X56006Y-36550D01*
X54752Y-36550D01*
X54611Y-36409D01*
X54517Y-36370D01*
X54611Y-36331D01*
X54764Y-36178D01*
X54847Y-35978D01*
X54847Y-35762D01*
X54764Y-35562D01*
X54611Y-35409D01*
X54517Y-35370D01*
X54611Y-35331D01*
X54764Y-35178D01*
X54847Y-34978D01*
X54847Y-34762D01*
X54764Y-34562D01*
X54611Y-34409D01*
X54411Y-34326D01*
X54195Y-34326D01*
X54153Y-34343D01*
X54153Y-33988D01*
X55562Y-32579D01*
X55570Y-32721D01*
X55630Y-32868D01*
X55724Y-32895D01*
X55996Y-32622D01*
X56031Y-32587D01*
X56102Y-32516D01*
X56137Y-32481D01*
X56410Y-32209D01*
X56399Y-32173D01*
X56407Y-32136D01*
X56451Y-32136D01*
X56543Y-32098D01*
X56613Y-32028D01*
X56651Y-31937D01*
X56651Y-31838D01*
X56651Y-31238D01*
X56613Y-31146D01*
X56543Y-31076D01*
X56452Y-31038D01*
X56353Y-31038D01*
X55753Y-31038D01*
X55661Y-31076D01*
X55591Y-31146D01*
X55553Y-31237D01*
X55553Y-31336D01*
X55553Y-31754D01*
X55507Y-31764D01*
X55505Y-31764D01*
X55505Y-31765D01*
X55402Y-31834D01*
X53607Y-33630D01*
X53537Y-33733D01*
X53513Y-33856D01*
X53513Y-38400D01*
X53537Y-38523D01*
X53607Y-38626D01*
X53759Y-38778D01*
X53759Y-38961D01*
X53607Y-39114D01*
X53537Y-39217D01*
X53513Y-39340D01*
X53513Y-40330D01*
X53537Y-40453D01*
X53607Y-40556D01*
X53646Y-40596D01*
X53647Y-40596D01*
X53716Y-40642D01*
X53750Y-40665D01*
X53751Y-40666D01*
X53795Y-40674D01*
X53759Y-40762D01*
X53759Y-40978D01*
X53842Y-41178D01*
X53995Y-41331D01*
X54088Y-41370D01*
X53995Y-41409D01*
X53842Y-41562D01*
X53759Y-41762D01*
X53759Y-41978D01*
X53842Y-42178D01*
X53995Y-42331D01*
X54088Y-42370D01*
X53995Y-42409D01*
X53842Y-42562D01*
X53759Y-42762D01*
X53759Y-42978D01*
X53842Y-43178D01*
X53995Y-43331D01*
X54088Y-43370D01*
X53995Y-43409D01*
X53842Y-43562D01*
X53759Y-43762D01*
X53759Y-43978D01*
X53842Y-44178D01*
X53995Y-44331D01*
X54195Y-44414D01*
X54411Y-44414D01*
X54611Y-44331D01*
X54764Y-44178D01*
X54847Y-43978D01*
X54847Y-43762D01*
X54764Y-43562D01*
X54611Y-43409D01*
X54517Y-43370D01*
X54611Y-43331D01*
X54764Y-43178D01*
X54847Y-42978D01*
X54847Y-42762D01*
X54764Y-42562D01*
X54611Y-42409D01*
X54517Y-42370D01*
X54611Y-42331D01*
X54753Y-42189D01*
X55325Y-42189D01*
X55330Y-42190D01*
X55330Y-42189D01*
X55452Y-42165D01*
X55556Y-42096D01*
X56332Y-41319D01*
X58281Y-41319D01*
X58281Y-41395D01*
X58280Y-41400D01*
X58305Y-41522D01*
X58374Y-41626D01*
X58881Y-42132D01*
X58881Y-44686D01*
X58808Y-44656D01*
X58592Y-44656D01*
X58392Y-44739D01*
X58239Y-44892D01*
X58156Y-45092D01*
X58156Y-45292D01*
X57407Y-46041D01*
X57407Y-42137D01*
X57407Y-41919D01*
X57323Y-41717D01*
X57169Y-41563D01*
X56967Y-41479D01*
X56749Y-41479D01*
X56547Y-41563D01*
X56393Y-41717D01*
X56309Y-41919D01*
X56309Y-42137D01*
X56393Y-42339D01*
X56547Y-42493D01*
X56749Y-42577D01*
X56967Y-42577D01*
X57169Y-42493D01*
X57323Y-42339D01*
X57407Y-42137D01*
X57407Y-46041D01*
X56752Y-46696D01*
X46168Y-46696D01*
X46164Y-46685D01*
X46000Y-46521D01*
X45785Y-46432D01*
X45553Y-46432D01*
X45338Y-46521D01*
X45174Y-46685D01*
X45085Y-46900D01*
X45085Y-47132D01*
X45174Y-47347D01*
X45338Y-47511D01*
X45366Y-47522D01*
X45337Y-47614D01*
X45669Y-47945D01*
X46001Y-47614D01*
X45971Y-47522D01*
X46000Y-47511D01*
X46164Y-47347D01*
X46168Y-47336D01*
X56884Y-47336D01*
X57006Y-47312D01*
X57007Y-47312D01*
X57110Y-47242D01*
X58608Y-45744D01*
X58808Y-45744D01*
X58881Y-45713D01*
X58881Y-45895D01*
X58880Y-45900D01*
X58905Y-46022D01*
X58974Y-46126D01*
X59272Y-46423D01*
X59274Y-46426D01*
X59335Y-46467D01*
X59377Y-46495D01*
X59378Y-46495D01*
X59500Y-46519D01*
X69818Y-46519D01*
X69859Y-46560D01*
X70015Y-46625D01*
X70184Y-46625D01*
X70340Y-46561D01*
X70460Y-46441D01*
X70525Y-46285D01*
X70525Y-46116D01*
X70461Y-45960D01*
X70341Y-45840D01*
X70185Y-45775D01*
X70016Y-45775D01*
X69860Y-45839D01*
X69818Y-45881D01*
X65401Y-45881D01*
X65426Y-45857D01*
X65426Y-45856D01*
X65472Y-45787D01*
X65495Y-45753D01*
X65496Y-45752D01*
X65504Y-45707D01*
X65592Y-45744D01*
X65808Y-45744D01*
X66008Y-45661D01*
X66161Y-45508D01*
X66200Y-45414D01*
X66239Y-45508D01*
X66392Y-45661D01*
X66592Y-45744D01*
X66808Y-45744D01*
X67008Y-45661D01*
X67161Y-45508D01*
X67200Y-45414D01*
X67239Y-45508D01*
X67392Y-45661D01*
X67592Y-45744D01*
X67808Y-45744D01*
X68008Y-45661D01*
X68161Y-45508D01*
X68200Y-45414D01*
X68239Y-45508D01*
X68392Y-45661D01*
X68592Y-45744D01*
X68808Y-45744D01*
X69008Y-45661D01*
X69161Y-45508D01*
X69200Y-45414D01*
X69239Y-45508D01*
X69392Y-45661D01*
X69592Y-45744D01*
X69808Y-45744D01*
X70008Y-45661D01*
X70161Y-45508D01*
X70200Y-45414D01*
X70239Y-45508D01*
X70392Y-45661D01*
X70592Y-45744D01*
X70808Y-45744D01*
X71008Y-45661D01*
X71161Y-45508D01*
X71200Y-45414D01*
X71239Y-45508D01*
X71392Y-45661D01*
X71485Y-45700D01*
X71392Y-45739D01*
X71239Y-45892D01*
X71156Y-46092D01*
X71156Y-46308D01*
X71239Y-46508D01*
X71392Y-46661D01*
X71485Y-46700D01*
X71392Y-46739D01*
X71239Y-46892D01*
X71156Y-47092D01*
X71156Y-47308D01*
X71185Y-47380D01*
X66200Y-47380D01*
X66078Y-47404D01*
X66076Y-47404D01*
X66076Y-47405D01*
X65973Y-47474D01*
X62791Y-50656D01*
X62592Y-50656D01*
X62392Y-50739D01*
X62239Y-50892D01*
X62200Y-50985D01*
X62161Y-50892D01*
X62008Y-50739D01*
X61808Y-50656D01*
X61592Y-50656D01*
X61392Y-50739D01*
X61239Y-50892D01*
X61200Y-50985D01*
X61161Y-50892D01*
X61008Y-50739D01*
X60808Y-50656D01*
X60592Y-50656D01*
X60392Y-50739D01*
X60239Y-50892D01*
X60200Y-50985D01*
X60161Y-50892D01*
X60008Y-50739D01*
X59808Y-50656D01*
X59592Y-50656D01*
X59392Y-50739D01*
X59239Y-50892D01*
X59197Y-50992D01*
X59168Y-50921D01*
X59075Y-50896D01*
X59004Y-50967D01*
X59004Y-50825D01*
X58979Y-50732D01*
X58778Y-50660D01*
X58566Y-50672D01*
X58421Y-50732D01*
X58396Y-50825D01*
X58700Y-51129D01*
X59004Y-50825D01*
X59004Y-50967D01*
X58771Y-51200D01*
X59075Y-51504D01*
X59168Y-51479D01*
X59195Y-51402D01*
X59239Y-51508D01*
X59392Y-51661D01*
X59411Y-51669D01*
X58976Y-51669D01*
X58979Y-51668D01*
X59004Y-51575D01*
X58700Y-51271D01*
X58629Y-51342D01*
X58629Y-51200D01*
X58325Y-50896D01*
X58232Y-50921D01*
X58160Y-51122D01*
X58172Y-51334D01*
X58232Y-51479D01*
X58325Y-51504D01*
X58629Y-51200D01*
X58629Y-51342D01*
X58396Y-51575D01*
X58421Y-51668D01*
X58423Y-51669D01*
X46253Y-51669D01*
X46253Y-49132D01*
X46253Y-48900D01*
X46245Y-48880D01*
X46245Y-48103D01*
X46235Y-47876D01*
X46168Y-47715D01*
X46071Y-47684D01*
X45740Y-48016D01*
X46071Y-48348D01*
X46168Y-48317D01*
X46245Y-48103D01*
X46245Y-48880D01*
X46164Y-48685D01*
X46000Y-48521D01*
X45971Y-48509D01*
X46001Y-48418D01*
X45669Y-48087D01*
X45598Y-48157D01*
X45598Y-48016D01*
X45267Y-47684D01*
X45170Y-47715D01*
X45093Y-47929D01*
X45103Y-48156D01*
X45170Y-48317D01*
X45267Y-48348D01*
X45598Y-48016D01*
X45598Y-48157D01*
X45337Y-48418D01*
X45362Y-48499D01*
X43423Y-48499D01*
X43331Y-48277D01*
X43062Y-48008D01*
X42711Y-47862D01*
X42330Y-47862D01*
X41978Y-48008D01*
X41709Y-48277D01*
X41563Y-48628D01*
X41563Y-49009D01*
X41709Y-49361D01*
X41978Y-49630D01*
X42329Y-49776D01*
X42710Y-49776D01*
X43062Y-49630D01*
X43331Y-49361D01*
X43423Y-49139D01*
X45087Y-49139D01*
X45174Y-49347D01*
X45338Y-49511D01*
X45553Y-49600D01*
X45785Y-49600D01*
X46000Y-49511D01*
X46164Y-49347D01*
X46253Y-49132D01*
X46253Y-51669D01*
X44618Y-51669D01*
X44866Y-51422D01*
X45026Y-51037D01*
X45026Y-50619D01*
X44866Y-50233D01*
X44571Y-49937D01*
X44186Y-49777D01*
X43768Y-49777D01*
X43382Y-49937D01*
X43086Y-50232D01*
X42926Y-50617D01*
X42926Y-51035D01*
X43086Y-51421D01*
X43333Y-51669D01*
X42296Y-51669D01*
X42296Y-50860D01*
X42296Y-50479D01*
X42150Y-50127D01*
X41881Y-49858D01*
X41530Y-49712D01*
X41149Y-49712D01*
X41099Y-49732D01*
X41099Y-48994D01*
X41095Y-48620D01*
X40961Y-48298D01*
X40826Y-48222D01*
X40755Y-48293D01*
X40755Y-48151D01*
X40679Y-48016D01*
X40333Y-47878D01*
X39959Y-47882D01*
X39637Y-48016D01*
X39561Y-48151D01*
X40158Y-48748D01*
X40755Y-48151D01*
X40755Y-48293D01*
X40229Y-48819D01*
X40826Y-49416D01*
X40961Y-49340D01*
X41099Y-48994D01*
X41099Y-49732D01*
X40797Y-49858D01*
X40755Y-49900D01*
X40755Y-49487D01*
X40158Y-48890D01*
X39561Y-49487D01*
X39637Y-49622D01*
X39983Y-49760D01*
X40357Y-49756D01*
X40679Y-49622D01*
X40755Y-49487D01*
X40755Y-49900D01*
X40528Y-50127D01*
X40382Y-50478D01*
X40382Y-50859D01*
X40528Y-51211D01*
X40797Y-51480D01*
X41148Y-51626D01*
X41529Y-51626D01*
X41881Y-51480D01*
X42150Y-51211D01*
X42296Y-50860D01*
X42296Y-51669D01*
X39276Y-51669D01*
X39276Y-49150D01*
X39355Y-49340D01*
X39490Y-49416D01*
X40087Y-48819D01*
X39490Y-48222D01*
X39355Y-48298D01*
X39276Y-48496D01*
X39276Y-31009D01*
X43844Y-31009D01*
X43598Y-31255D01*
X43438Y-31640D01*
X43438Y-32058D01*
X43598Y-32444D01*
X43893Y-32740D01*
X44278Y-32900D01*
X44696Y-32900D01*
X45082Y-32740D01*
X45378Y-32445D01*
X45538Y-32060D01*
X45538Y-31642D01*
X45378Y-31256D01*
X45131Y-31009D01*
X68796Y-31009D01*
X68784Y-31014D01*
X68714Y-31084D01*
X68676Y-31175D01*
X68676Y-31274D01*
X68676Y-31824D01*
X68714Y-31916D01*
X68784Y-31986D01*
X68875Y-32024D01*
X68974Y-32024D01*
X69524Y-32024D01*
X69616Y-31986D01*
X69686Y-31916D01*
X69724Y-31825D01*
X69724Y-31726D01*
X69724Y-31708D01*
X69748Y-31767D01*
X69839Y-31790D01*
X70129Y-31500D01*
X69839Y-31210D01*
X69748Y-31233D01*
X69724Y-31302D01*
X69724Y-31176D01*
X69686Y-31084D01*
X69616Y-31014D01*
X69604Y-31009D01*
X70028Y-31009D01*
X69933Y-31048D01*
X69910Y-31139D01*
X70165Y-31394D01*
X70200Y-31429D01*
X70271Y-31500D01*
X70200Y-31571D01*
X70165Y-31606D01*
X69910Y-31861D01*
X69933Y-31952D01*
X70126Y-32019D01*
X70330Y-32008D01*
X70422Y-31970D01*
X70422Y-32285D01*
X70411Y-32259D01*
X70341Y-32189D01*
X70250Y-32151D01*
X70151Y-32151D01*
X69551Y-32151D01*
X69459Y-32189D01*
X69389Y-32259D01*
X69351Y-32350D01*
X69351Y-32375D01*
X69211Y-32235D01*
X69009Y-32151D01*
X68791Y-32151D01*
X68589Y-32235D01*
X68449Y-32375D01*
X68449Y-32351D01*
X68411Y-32259D01*
X68341Y-32189D01*
X68250Y-32151D01*
X68151Y-32151D01*
X67551Y-32151D01*
X67459Y-32189D01*
X67389Y-32259D01*
X67351Y-32350D01*
X67351Y-32449D01*
X67351Y-33049D01*
X67389Y-33141D01*
X67459Y-33211D01*
X67550Y-33249D01*
X67575Y-33249D01*
X67435Y-33389D01*
X67351Y-33591D01*
X67351Y-33809D01*
X67435Y-34011D01*
X67589Y-34165D01*
X67680Y-34202D01*
X67619Y-34228D01*
X67592Y-34322D01*
X67900Y-34629D01*
X68208Y-34322D01*
X68181Y-34228D01*
X68115Y-34204D01*
X68211Y-34165D01*
X68365Y-34011D01*
X68400Y-33926D01*
X68435Y-34011D01*
X68589Y-34165D01*
X68680Y-34202D01*
X68619Y-34228D01*
X68592Y-34322D01*
X68900Y-34629D01*
X69208Y-34322D01*
X69181Y-34228D01*
X69115Y-34204D01*
X69211Y-34165D01*
X69356Y-34020D01*
X69444Y-34020D01*
X69589Y-34165D01*
X69680Y-34202D01*
X69619Y-34228D01*
X69592Y-34322D01*
X69900Y-34629D01*
X70208Y-34322D01*
X70181Y-34228D01*
X70115Y-34204D01*
X70211Y-34165D01*
X70356Y-34020D01*
X70444Y-34020D01*
X70589Y-34165D01*
X70680Y-34202D01*
X70619Y-34228D01*
X70592Y-34322D01*
X70900Y-34629D01*
X71208Y-34322D01*
X71181Y-34228D01*
X71115Y-34204D01*
X71211Y-34165D01*
X71365Y-34011D01*
X71449Y-33809D01*
X71449Y-33591D01*
X71365Y-33389D01*
X71211Y-33235D01*
X71126Y-33200D01*
X71211Y-33165D01*
X71365Y-33011D01*
X71449Y-32809D01*
X71449Y-32661D01*
X71604Y-32713D01*
X71604Y-36643D01*
G54D10*
G36*
X77509Y-50568D02*
X77386Y-50272D01*
X77136Y-50021D01*
X77136Y-47478D01*
X77124Y-47266D01*
X77064Y-47121D01*
X76971Y-47096D01*
X76900Y-47167D01*
X76900Y-47025D01*
X76875Y-46932D01*
X76674Y-46860D01*
X76462Y-46872D01*
X76317Y-46932D01*
X76292Y-47025D01*
X76596Y-47329D01*
X76900Y-47025D01*
X76900Y-47167D01*
X76667Y-47400D01*
X76971Y-47704D01*
X77064Y-47679D01*
X77136Y-47478D01*
X77136Y-50021D01*
X77091Y-49976D01*
X76900Y-49896D01*
X76900Y-47775D01*
X76596Y-47471D01*
X76525Y-47542D01*
X76525Y-47400D01*
X76221Y-47096D01*
X76128Y-47121D01*
X76056Y-47322D01*
X76068Y-47534D01*
X76128Y-47679D01*
X76221Y-47704D01*
X76525Y-47400D01*
X76525Y-47542D01*
X76292Y-47775D01*
X76317Y-47868D01*
X76518Y-47940D01*
X76730Y-47928D01*
X76875Y-47868D01*
X76900Y-47775D01*
X76900Y-49896D01*
X76706Y-49816D01*
X76288Y-49816D01*
X75902Y-49976D01*
X75606Y-50271D01*
X75446Y-50656D01*
X75446Y-51074D01*
X75606Y-51460D01*
X75814Y-51669D01*
X71988Y-51669D01*
X72008Y-51661D01*
X72161Y-51508D01*
X72244Y-51308D01*
X72244Y-51092D01*
X72161Y-50892D01*
X72008Y-50739D01*
X71914Y-50700D01*
X72008Y-50661D01*
X72161Y-50508D01*
X72244Y-50308D01*
X72244Y-50092D01*
X72161Y-49892D01*
X72008Y-49739D01*
X71914Y-49700D01*
X72008Y-49661D01*
X72161Y-49508D01*
X72244Y-49308D01*
X72244Y-49092D01*
X72161Y-48892D01*
X72008Y-48739D01*
X71914Y-48700D01*
X72008Y-48661D01*
X72161Y-48508D01*
X72244Y-48308D01*
X72244Y-48092D01*
X72214Y-48020D01*
X73304Y-48020D01*
X73426Y-47996D01*
X73427Y-47996D01*
X73503Y-47944D01*
X73712Y-47944D01*
X73912Y-47861D01*
X74065Y-47708D01*
X74148Y-47508D01*
X74148Y-47292D01*
X74065Y-47092D01*
X73912Y-46939D01*
X73712Y-46856D01*
X73496Y-46856D01*
X73296Y-46939D01*
X73143Y-47092D01*
X73060Y-47292D01*
X73060Y-47380D01*
X72214Y-47380D01*
X72244Y-47308D01*
X72244Y-47092D01*
X72161Y-46892D01*
X72008Y-46739D01*
X71914Y-46700D01*
X72008Y-46661D01*
X72161Y-46508D01*
X72244Y-46308D01*
X72244Y-46092D01*
X72161Y-45892D01*
X72008Y-45739D01*
X71914Y-45700D01*
X72008Y-45661D01*
X72161Y-45508D01*
X72244Y-45308D01*
X72244Y-45092D01*
X72161Y-44892D01*
X72008Y-44739D01*
X71808Y-44656D01*
X71592Y-44656D01*
X71392Y-44739D01*
X71239Y-44892D01*
X71200Y-44985D01*
X71161Y-44892D01*
X71008Y-44739D01*
X70808Y-44656D01*
X70592Y-44656D01*
X70392Y-44739D01*
X70239Y-44892D01*
X70200Y-44985D01*
X70161Y-44892D01*
X70008Y-44739D01*
X69808Y-44656D01*
X69592Y-44656D01*
X69392Y-44739D01*
X69239Y-44892D01*
X69200Y-44985D01*
X69161Y-44892D01*
X69008Y-44739D01*
X68808Y-44656D01*
X68592Y-44656D01*
X68392Y-44739D01*
X68239Y-44892D01*
X68200Y-44985D01*
X68161Y-44892D01*
X68008Y-44739D01*
X67808Y-44656D01*
X67592Y-44656D01*
X67392Y-44739D01*
X67239Y-44892D01*
X67200Y-44985D01*
X67161Y-44892D01*
X67160Y-44891D01*
X67803Y-44249D01*
X68009Y-44249D01*
X68211Y-44165D01*
X68356Y-44020D01*
X68444Y-44020D01*
X68589Y-44165D01*
X68791Y-44249D01*
X69009Y-44249D01*
X69211Y-44165D01*
X69356Y-44020D01*
X69444Y-44020D01*
X69589Y-44165D01*
X69791Y-44249D01*
X70009Y-44249D01*
X70211Y-44165D01*
X70356Y-44020D01*
X70444Y-44020D01*
X70589Y-44165D01*
X70791Y-44249D01*
X71009Y-44249D01*
X71211Y-44165D01*
X71365Y-44011D01*
X71449Y-43809D01*
X71449Y-43591D01*
X71365Y-43389D01*
X71211Y-43235D01*
X71126Y-43200D01*
X71211Y-43165D01*
X71365Y-43011D01*
X71449Y-42809D01*
X71449Y-42591D01*
X71419Y-42520D01*
X71500Y-42520D01*
X71604Y-42499D01*
X71604Y-44538D01*
X77509Y-44538D01*
X77509Y-50568D01*
X77509Y-50568D01*
G37*
G54D22*
X77509Y-50568D02*
X77386Y-50272D01*
X77136Y-50021D01*
X77136Y-47478D01*
X77124Y-47266D01*
X77064Y-47121D01*
X76971Y-47096D01*
X76900Y-47167D01*
X76900Y-47025D01*
X76875Y-46932D01*
X76674Y-46860D01*
X76462Y-46872D01*
X76317Y-46932D01*
X76292Y-47025D01*
X76596Y-47329D01*
X76900Y-47025D01*
X76900Y-47167D01*
X76667Y-47400D01*
X76971Y-47704D01*
X77064Y-47679D01*
X77136Y-47478D01*
X77136Y-50021D01*
X77091Y-49976D01*
X76900Y-49896D01*
X76900Y-47775D01*
X76596Y-47471D01*
X76525Y-47542D01*
X76525Y-47400D01*
X76221Y-47096D01*
X76128Y-47121D01*
X76056Y-47322D01*
X76068Y-47534D01*
X76128Y-47679D01*
X76221Y-47704D01*
X76525Y-47400D01*
X76525Y-47542D01*
X76292Y-47775D01*
X76317Y-47868D01*
X76518Y-47940D01*
X76730Y-47928D01*
X76875Y-47868D01*
X76900Y-47775D01*
X76900Y-49896D01*
X76706Y-49816D01*
X76288Y-49816D01*
X75902Y-49976D01*
X75606Y-50271D01*
X75446Y-50656D01*
X75446Y-51074D01*
X75606Y-51460D01*
X75814Y-51669D01*
X71988Y-51669D01*
X72008Y-51661D01*
X72161Y-51508D01*
X72244Y-51308D01*
X72244Y-51092D01*
X72161Y-50892D01*
X72008Y-50739D01*
X71914Y-50700D01*
X72008Y-50661D01*
X72161Y-50508D01*
X72244Y-50308D01*
X72244Y-50092D01*
X72161Y-49892D01*
X72008Y-49739D01*
X71914Y-49700D01*
X72008Y-49661D01*
X72161Y-49508D01*
X72244Y-49308D01*
X72244Y-49092D01*
X72161Y-48892D01*
X72008Y-48739D01*
X71914Y-48700D01*
X72008Y-48661D01*
X72161Y-48508D01*
X72244Y-48308D01*
X72244Y-48092D01*
X72214Y-48020D01*
X73304Y-48020D01*
X73426Y-47996D01*
X73427Y-47996D01*
X73503Y-47944D01*
X73712Y-47944D01*
X73912Y-47861D01*
X74065Y-47708D01*
X74148Y-47508D01*
X74148Y-47292D01*
X74065Y-47092D01*
X73912Y-46939D01*
X73712Y-46856D01*
X73496Y-46856D01*
X73296Y-46939D01*
X73143Y-47092D01*
X73060Y-47292D01*
X73060Y-47380D01*
X72214Y-47380D01*
X72244Y-47308D01*
X72244Y-47092D01*
X72161Y-46892D01*
X72008Y-46739D01*
X71914Y-46700D01*
X72008Y-46661D01*
X72161Y-46508D01*
X72244Y-46308D01*
X72244Y-46092D01*
X72161Y-45892D01*
X72008Y-45739D01*
X71914Y-45700D01*
X72008Y-45661D01*
X72161Y-45508D01*
X72244Y-45308D01*
X72244Y-45092D01*
X72161Y-44892D01*
X72008Y-44739D01*
X71808Y-44656D01*
X71592Y-44656D01*
X71392Y-44739D01*
X71239Y-44892D01*
X71200Y-44985D01*
X71161Y-44892D01*
X71008Y-44739D01*
X70808Y-44656D01*
X70592Y-44656D01*
X70392Y-44739D01*
X70239Y-44892D01*
X70200Y-44985D01*
X70161Y-44892D01*
X70008Y-44739D01*
X69808Y-44656D01*
X69592Y-44656D01*
X69392Y-44739D01*
X69239Y-44892D01*
X69200Y-44985D01*
X69161Y-44892D01*
X69008Y-44739D01*
X68808Y-44656D01*
X68592Y-44656D01*
X68392Y-44739D01*
X68239Y-44892D01*
X68200Y-44985D01*
X68161Y-44892D01*
X68008Y-44739D01*
X67808Y-44656D01*
X67592Y-44656D01*
X67392Y-44739D01*
X67239Y-44892D01*
X67200Y-44985D01*
X67161Y-44892D01*
X67160Y-44891D01*
X67803Y-44249D01*
X68009Y-44249D01*
X68211Y-44165D01*
X68356Y-44020D01*
X68444Y-44020D01*
X68589Y-44165D01*
X68791Y-44249D01*
X69009Y-44249D01*
X69211Y-44165D01*
X69356Y-44020D01*
X69444Y-44020D01*
X69589Y-44165D01*
X69791Y-44249D01*
X70009Y-44249D01*
X70211Y-44165D01*
X70356Y-44020D01*
X70444Y-44020D01*
X70589Y-44165D01*
X70791Y-44249D01*
X71009Y-44249D01*
X71211Y-44165D01*
X71365Y-44011D01*
X71449Y-43809D01*
X71449Y-43591D01*
X71365Y-43389D01*
X71211Y-43235D01*
X71126Y-43200D01*
X71211Y-43165D01*
X71365Y-43011D01*
X71449Y-42809D01*
X71449Y-42591D01*
X71419Y-42520D01*
X71500Y-42520D01*
X71604Y-42499D01*
X71604Y-44538D01*
X77509Y-44538D01*
X77509Y-50568D01*
G54D10*
G36*
X77752Y-38661D02*
X77725Y-38634D01*
X77692Y-38666D01*
X77681Y-38628D01*
X77479Y-38557D01*
X77266Y-38568D01*
X77119Y-38628D01*
X77092Y-38722D01*
X77365Y-38994D01*
X77400Y-39029D01*
X77471Y-39100D01*
X77400Y-39171D01*
X77329Y-39241D01*
X77329Y-39100D01*
X77022Y-38792D01*
X76928Y-38819D01*
X76857Y-39021D01*
X76868Y-39234D01*
X76928Y-39381D01*
X77022Y-39408D01*
X77329Y-39100D01*
X77329Y-39241D01*
X77092Y-39478D01*
X77119Y-39572D01*
X77216Y-39606D01*
X76788Y-40034D01*
X74047Y-40034D01*
X73965Y-39952D01*
X74868Y-39952D01*
X74990Y-39928D01*
X74991Y-39928D01*
X75094Y-39858D01*
X76827Y-38125D01*
X77004Y-38125D01*
X77197Y-38045D01*
X77345Y-37898D01*
X77425Y-37705D01*
X77425Y-37496D01*
X77419Y-37481D01*
X77419Y-36674D01*
X77408Y-36470D01*
X77352Y-36333D01*
X77261Y-36310D01*
X76971Y-36600D01*
X77261Y-36890D01*
X77352Y-36867D01*
X77419Y-36674D01*
X77419Y-37481D01*
X77345Y-37303D01*
X77198Y-37155D01*
X77057Y-37096D01*
X77167Y-37052D01*
X77190Y-36961D01*
X76900Y-36671D01*
X76829Y-36742D01*
X76829Y-36600D01*
X76539Y-36310D01*
X76448Y-36333D01*
X76381Y-36526D01*
X76392Y-36730D01*
X76448Y-36867D01*
X76539Y-36890D01*
X76829Y-36600D01*
X76829Y-36742D01*
X76610Y-36961D01*
X76633Y-37052D01*
X76751Y-37093D01*
X76603Y-37155D01*
X76455Y-37302D01*
X76375Y-37495D01*
X76375Y-37672D01*
X74735Y-39312D01*
X74425Y-39312D01*
X74425Y-35712D01*
X74363Y-35650D01*
X74000Y-35650D01*
X73950Y-35650D01*
X73850Y-35650D01*
X73800Y-35650D01*
X73437Y-35650D01*
X73375Y-35712D01*
X73376Y-35826D01*
X73376Y-35925D01*
X73414Y-36016D01*
X73484Y-36086D01*
X73517Y-36100D01*
X73484Y-36114D01*
X73414Y-36184D01*
X73376Y-36275D01*
X73376Y-36374D01*
X73376Y-36924D01*
X73414Y-37016D01*
X73484Y-37086D01*
X73517Y-37100D01*
X73484Y-37114D01*
X73414Y-37184D01*
X73376Y-37275D01*
X73376Y-37374D01*
X73376Y-37924D01*
X73414Y-38016D01*
X73484Y-38086D01*
X73575Y-38124D01*
X73674Y-38124D01*
X74224Y-38124D01*
X74316Y-38086D01*
X74386Y-38016D01*
X74424Y-37925D01*
X74424Y-37826D01*
X74424Y-37276D01*
X74386Y-37184D01*
X74316Y-37114D01*
X74282Y-37099D01*
X74316Y-37086D01*
X74386Y-37016D01*
X74424Y-36925D01*
X74424Y-36826D01*
X74424Y-36276D01*
X74386Y-36184D01*
X74316Y-36114D01*
X74282Y-36099D01*
X74316Y-36086D01*
X74386Y-36016D01*
X74424Y-35925D01*
X74424Y-35826D01*
X74425Y-35712D01*
X74425Y-39312D01*
X73906Y-39312D01*
X73949Y-39209D01*
X73949Y-38991D01*
X73865Y-38789D01*
X73711Y-38635D01*
X73509Y-38551D01*
X73291Y-38551D01*
X73089Y-38635D01*
X72935Y-38789D01*
X72851Y-38991D01*
X72851Y-39209D01*
X72913Y-39358D01*
X72911Y-39359D01*
X72841Y-39406D01*
X72744Y-39503D01*
X72744Y-39392D01*
X72740Y-39382D01*
X72740Y-38578D01*
X72728Y-38366D01*
X72668Y-38221D01*
X72575Y-38196D01*
X72271Y-38500D01*
X72575Y-38804D01*
X72668Y-38779D01*
X72740Y-38578D01*
X72740Y-39382D01*
X72661Y-39192D01*
X72508Y-39039D01*
X72407Y-38997D01*
X72479Y-38968D01*
X72504Y-38875D01*
X72235Y-38606D01*
X72200Y-38571D01*
X72129Y-38500D01*
X72200Y-38429D01*
X72235Y-38394D01*
X72504Y-38125D01*
X72479Y-38032D01*
X72402Y-38004D01*
X72508Y-37961D01*
X72661Y-37808D01*
X72744Y-37608D01*
X72744Y-37392D01*
X72661Y-37192D01*
X72508Y-37039D01*
X72414Y-37000D01*
X72508Y-36961D01*
X72661Y-36808D01*
X72744Y-36608D01*
X72744Y-36392D01*
X72661Y-36192D01*
X72508Y-36039D01*
X72407Y-35997D01*
X72479Y-35968D01*
X72504Y-35875D01*
X72235Y-35606D01*
X72200Y-35571D01*
X72129Y-35500D01*
X72200Y-35429D01*
X72271Y-35500D01*
X72306Y-35535D01*
X72575Y-35804D01*
X72668Y-35779D01*
X72740Y-35578D01*
X72728Y-35369D01*
X73376Y-35369D01*
X73376Y-35374D01*
X73375Y-35488D01*
X73437Y-35550D01*
X73800Y-35550D01*
X73850Y-35550D01*
X73950Y-35550D01*
X74000Y-35550D01*
X74363Y-35550D01*
X74425Y-35488D01*
X74424Y-35374D01*
X74424Y-35369D01*
X76318Y-35369D01*
X76395Y-35445D01*
X76375Y-35495D01*
X76375Y-35704D01*
X76455Y-35897D01*
X76602Y-36045D01*
X76742Y-36103D01*
X76633Y-36148D01*
X76610Y-36239D01*
X76900Y-36529D01*
X77190Y-36239D01*
X77167Y-36148D01*
X77048Y-36106D01*
X77197Y-36045D01*
X77345Y-35898D01*
X77425Y-35705D01*
X77425Y-35496D01*
X77345Y-35303D01*
X77198Y-35155D01*
X77064Y-35099D01*
X77197Y-35045D01*
X77345Y-34898D01*
X77392Y-34783D01*
X77752Y-35142D01*
X77752Y-38661D01*
X77752Y-38661D01*
G37*
G54D22*
X77752Y-38661D02*
X77725Y-38634D01*
X77692Y-38666D01*
X77681Y-38628D01*
X77479Y-38557D01*
X77266Y-38568D01*
X77119Y-38628D01*
X77092Y-38722D01*
X77365Y-38994D01*
X77400Y-39029D01*
X77471Y-39100D01*
X77400Y-39171D01*
X77329Y-39241D01*
X77329Y-39100D01*
X77022Y-38792D01*
X76928Y-38819D01*
X76857Y-39021D01*
X76868Y-39234D01*
X76928Y-39381D01*
X77022Y-39408D01*
X77329Y-39100D01*
X77329Y-39241D01*
X77092Y-39478D01*
X77119Y-39572D01*
X77216Y-39606D01*
X76788Y-40034D01*
X74047Y-40034D01*
X73965Y-39952D01*
X74868Y-39952D01*
X74990Y-39928D01*
X74991Y-39928D01*
X75094Y-39858D01*
X76827Y-38125D01*
X77004Y-38125D01*
X77197Y-38045D01*
X77345Y-37898D01*
X77425Y-37705D01*
X77425Y-37496D01*
X77419Y-37481D01*
X77419Y-36674D01*
X77408Y-36470D01*
X77352Y-36333D01*
X77261Y-36310D01*
X76971Y-36600D01*
X77261Y-36890D01*
X77352Y-36867D01*
X77419Y-36674D01*
X77419Y-37481D01*
X77345Y-37303D01*
X77198Y-37155D01*
X77057Y-37096D01*
X77167Y-37052D01*
X77190Y-36961D01*
X76900Y-36671D01*
X76829Y-36742D01*
X76829Y-36600D01*
X76539Y-36310D01*
X76448Y-36333D01*
X76381Y-36526D01*
X76392Y-36730D01*
X76448Y-36867D01*
X76539Y-36890D01*
X76829Y-36600D01*
X76829Y-36742D01*
X76610Y-36961D01*
X76633Y-37052D01*
X76751Y-37093D01*
X76603Y-37155D01*
X76455Y-37302D01*
X76375Y-37495D01*
X76375Y-37672D01*
X74735Y-39312D01*
X74425Y-39312D01*
X74425Y-35712D01*
X74363Y-35650D01*
X74000Y-35650D01*
X73950Y-35650D01*
X73850Y-35650D01*
X73800Y-35650D01*
X73437Y-35650D01*
X73375Y-35712D01*
X73376Y-35826D01*
X73376Y-35925D01*
X73414Y-36016D01*
X73484Y-36086D01*
X73517Y-36100D01*
X73484Y-36114D01*
X73414Y-36184D01*
X73376Y-36275D01*
X73376Y-36374D01*
X73376Y-36924D01*
X73414Y-37016D01*
X73484Y-37086D01*
X73517Y-37100D01*
X73484Y-37114D01*
X73414Y-37184D01*
X73376Y-37275D01*
X73376Y-37374D01*
X73376Y-37924D01*
X73414Y-38016D01*
X73484Y-38086D01*
X73575Y-38124D01*
X73674Y-38124D01*
X74224Y-38124D01*
X74316Y-38086D01*
X74386Y-38016D01*
X74424Y-37925D01*
X74424Y-37826D01*
X74424Y-37276D01*
X74386Y-37184D01*
X74316Y-37114D01*
X74282Y-37099D01*
X74316Y-37086D01*
X74386Y-37016D01*
X74424Y-36925D01*
X74424Y-36826D01*
X74424Y-36276D01*
X74386Y-36184D01*
X74316Y-36114D01*
X74282Y-36099D01*
X74316Y-36086D01*
X74386Y-36016D01*
X74424Y-35925D01*
X74424Y-35826D01*
X74425Y-35712D01*
X74425Y-39312D01*
X73906Y-39312D01*
X73949Y-39209D01*
X73949Y-38991D01*
X73865Y-38789D01*
X73711Y-38635D01*
X73509Y-38551D01*
X73291Y-38551D01*
X73089Y-38635D01*
X72935Y-38789D01*
X72851Y-38991D01*
X72851Y-39209D01*
X72913Y-39358D01*
X72911Y-39359D01*
X72841Y-39406D01*
X72744Y-39503D01*
X72744Y-39392D01*
X72740Y-39382D01*
X72740Y-38578D01*
X72728Y-38366D01*
X72668Y-38221D01*
X72575Y-38196D01*
X72271Y-38500D01*
X72575Y-38804D01*
X72668Y-38779D01*
X72740Y-38578D01*
X72740Y-39382D01*
X72661Y-39192D01*
X72508Y-39039D01*
X72407Y-38997D01*
X72479Y-38968D01*
X72504Y-38875D01*
X72235Y-38606D01*
X72200Y-38571D01*
X72129Y-38500D01*
X72200Y-38429D01*
X72235Y-38394D01*
X72504Y-38125D01*
X72479Y-38032D01*
X72402Y-38004D01*
X72508Y-37961D01*
X72661Y-37808D01*
X72744Y-37608D01*
X72744Y-37392D01*
X72661Y-37192D01*
X72508Y-37039D01*
X72414Y-37000D01*
X72508Y-36961D01*
X72661Y-36808D01*
X72744Y-36608D01*
X72744Y-36392D01*
X72661Y-36192D01*
X72508Y-36039D01*
X72407Y-35997D01*
X72479Y-35968D01*
X72504Y-35875D01*
X72235Y-35606D01*
X72200Y-35571D01*
X72129Y-35500D01*
X72200Y-35429D01*
X72271Y-35500D01*
X72306Y-35535D01*
X72575Y-35804D01*
X72668Y-35779D01*
X72740Y-35578D01*
X72728Y-35369D01*
X73376Y-35369D01*
X73376Y-35374D01*
X73375Y-35488D01*
X73437Y-35550D01*
X73800Y-35550D01*
X73850Y-35550D01*
X73950Y-35550D01*
X74000Y-35550D01*
X74363Y-35550D01*
X74425Y-35488D01*
X74424Y-35374D01*
X74424Y-35369D01*
X76318Y-35369D01*
X76395Y-35445D01*
X76375Y-35495D01*
X76375Y-35704D01*
X76455Y-35897D01*
X76602Y-36045D01*
X76742Y-36103D01*
X76633Y-36148D01*
X76610Y-36239D01*
X76900Y-36529D01*
X77190Y-36239D01*
X77167Y-36148D01*
X77048Y-36106D01*
X77197Y-36045D01*
X77345Y-35898D01*
X77425Y-35705D01*
X77425Y-35496D01*
X77345Y-35303D01*
X77198Y-35155D01*
X77064Y-35099D01*
X77197Y-35045D01*
X77345Y-34898D01*
X77392Y-34783D01*
X77752Y-35142D01*
X77752Y-38661D01*
G54D10*
G36*
X78046Y-34531D02*
X78043Y-34528D01*
X78043Y-32079D01*
X78032Y-31866D01*
X77972Y-31719D01*
X77878Y-31692D01*
X77808Y-31762D01*
X77808Y-31622D01*
X77781Y-31528D01*
X77579Y-31457D01*
X77366Y-31468D01*
X77219Y-31528D01*
X77192Y-31622D01*
X77500Y-31929D01*
X77808Y-31622D01*
X77808Y-31762D01*
X77571Y-32000D01*
X77878Y-32308D01*
X77972Y-32281D01*
X78043Y-32079D01*
X78043Y-34528D01*
X77808Y-34293D01*
X77808Y-32378D01*
X77500Y-32071D01*
X77429Y-32141D01*
X77429Y-32000D01*
X77122Y-31692D01*
X77049Y-31712D01*
X77049Y-31651D01*
X77011Y-31559D01*
X76941Y-31489D01*
X76850Y-31451D01*
X76751Y-31451D01*
X76151Y-31451D01*
X76059Y-31489D01*
X75989Y-31559D01*
X75951Y-31650D01*
X75951Y-31749D01*
X75951Y-32349D01*
X75989Y-32441D01*
X76059Y-32511D01*
X76150Y-32549D01*
X76249Y-32549D01*
X76849Y-32549D01*
X76941Y-32511D01*
X77011Y-32441D01*
X77049Y-32350D01*
X77049Y-32287D01*
X77122Y-32308D01*
X77429Y-32000D01*
X77429Y-32141D01*
X77192Y-32378D01*
X77219Y-32472D01*
X77421Y-32543D01*
X77634Y-32532D01*
X77781Y-32472D01*
X77808Y-32378D01*
X77808Y-34293D01*
X76679Y-33165D01*
X76576Y-33095D01*
X76453Y-33071D01*
X73223Y-33071D01*
X72177Y-32025D01*
X72304Y-32025D01*
X72497Y-31945D01*
X72645Y-31798D01*
X72725Y-31605D01*
X72725Y-31396D01*
X72645Y-31203D01*
X72498Y-31055D01*
X72387Y-31009D01*
X73372Y-31009D01*
X73126Y-31255D01*
X72966Y-31640D01*
X72966Y-32058D01*
X73126Y-32444D01*
X73421Y-32740D01*
X73806Y-32900D01*
X74224Y-32900D01*
X74610Y-32740D01*
X74906Y-32445D01*
X75066Y-32060D01*
X75066Y-31642D01*
X74906Y-31256D01*
X74659Y-31009D01*
X78046Y-31009D01*
X78046Y-34531D01*
X78046Y-34531D01*
G37*
G54D22*
X78046Y-34531D02*
X78043Y-34528D01*
X78043Y-32079D01*
X78032Y-31866D01*
X77972Y-31719D01*
X77878Y-31692D01*
X77808Y-31762D01*
X77808Y-31622D01*
X77781Y-31528D01*
X77579Y-31457D01*
X77366Y-31468D01*
X77219Y-31528D01*
X77192Y-31622D01*
X77500Y-31929D01*
X77808Y-31622D01*
X77808Y-31762D01*
X77571Y-32000D01*
X77878Y-32308D01*
X77972Y-32281D01*
X78043Y-32079D01*
X78043Y-34528D01*
X77808Y-34293D01*
X77808Y-32378D01*
X77500Y-32071D01*
X77429Y-32141D01*
X77429Y-32000D01*
X77122Y-31692D01*
X77049Y-31712D01*
X77049Y-31651D01*
X77011Y-31559D01*
X76941Y-31489D01*
X76850Y-31451D01*
X76751Y-31451D01*
X76151Y-31451D01*
X76059Y-31489D01*
X75989Y-31559D01*
X75951Y-31650D01*
X75951Y-31749D01*
X75951Y-32349D01*
X75989Y-32441D01*
X76059Y-32511D01*
X76150Y-32549D01*
X76249Y-32549D01*
X76849Y-32549D01*
X76941Y-32511D01*
X77011Y-32441D01*
X77049Y-32350D01*
X77049Y-32287D01*
X77122Y-32308D01*
X77429Y-32000D01*
X77429Y-32141D01*
X77192Y-32378D01*
X77219Y-32472D01*
X77421Y-32543D01*
X77634Y-32532D01*
X77781Y-32472D01*
X77808Y-32378D01*
X77808Y-34293D01*
X76679Y-33165D01*
X76576Y-33095D01*
X76453Y-33071D01*
X73223Y-33071D01*
X72177Y-32025D01*
X72304Y-32025D01*
X72497Y-31945D01*
X72645Y-31798D01*
X72725Y-31605D01*
X72725Y-31396D01*
X72645Y-31203D01*
X72498Y-31055D01*
X72387Y-31009D01*
X73372Y-31009D01*
X73126Y-31255D01*
X72966Y-31640D01*
X72966Y-32058D01*
X73126Y-32444D01*
X73421Y-32740D01*
X73806Y-32900D01*
X74224Y-32900D01*
X74610Y-32740D01*
X74906Y-32445D01*
X75066Y-32060D01*
X75066Y-31642D01*
X74906Y-31256D01*
X74659Y-31009D01*
X78046Y-31009D01*
X78046Y-34531D01*
G54D10*
G36*
X78046Y-44044D02*
X72308Y-44044D01*
X72508Y-43961D01*
X72661Y-43808D01*
X72744Y-43608D01*
X72744Y-43392D01*
X72661Y-43192D01*
X72508Y-43039D01*
X72414Y-43000D01*
X72508Y-42961D01*
X72661Y-42808D01*
X72744Y-42608D01*
X72744Y-42392D01*
X72740Y-42382D01*
X72740Y-41578D01*
X72728Y-41366D01*
X72668Y-41221D01*
X72575Y-41196D01*
X72271Y-41500D01*
X72575Y-41804D01*
X72668Y-41779D01*
X72740Y-41578D01*
X72740Y-42382D01*
X72661Y-42192D01*
X72508Y-42039D01*
X72407Y-41997D01*
X72479Y-41968D01*
X72504Y-41875D01*
X72235Y-41606D01*
X72200Y-41571D01*
X72129Y-41500D01*
X72200Y-41429D01*
X72235Y-41394D01*
X72504Y-41125D01*
X72479Y-41032D01*
X72402Y-41004D01*
X72508Y-40961D01*
X72661Y-40808D01*
X72744Y-40608D01*
X72744Y-40408D01*
X73200Y-39952D01*
X73217Y-39952D01*
X73126Y-40043D01*
X73042Y-40245D01*
X73042Y-40463D01*
X73126Y-40665D01*
X73280Y-40819D01*
X73482Y-40903D01*
X73700Y-40903D01*
X73902Y-40819D01*
X74047Y-40674D01*
X76921Y-40674D01*
X77043Y-40650D01*
X77044Y-40650D01*
X77102Y-40609D01*
X77103Y-40609D01*
X77126Y-40665D01*
X77280Y-40819D01*
X77482Y-40903D01*
X77700Y-40903D01*
X77902Y-40819D01*
X78046Y-40675D01*
X78046Y-44044D01*
X78046Y-44044D01*
G37*
G54D22*
X78046Y-44044D02*
X72308Y-44044D01*
X72508Y-43961D01*
X72661Y-43808D01*
X72744Y-43608D01*
X72744Y-43392D01*
X72661Y-43192D01*
X72508Y-43039D01*
X72414Y-43000D01*
X72508Y-42961D01*
X72661Y-42808D01*
X72744Y-42608D01*
X72744Y-42392D01*
X72740Y-42382D01*
X72740Y-41578D01*
X72728Y-41366D01*
X72668Y-41221D01*
X72575Y-41196D01*
X72271Y-41500D01*
X72575Y-41804D01*
X72668Y-41779D01*
X72740Y-41578D01*
X72740Y-42382D01*
X72661Y-42192D01*
X72508Y-42039D01*
X72407Y-41997D01*
X72479Y-41968D01*
X72504Y-41875D01*
X72235Y-41606D01*
X72200Y-41571D01*
X72129Y-41500D01*
X72200Y-41429D01*
X72235Y-41394D01*
X72504Y-41125D01*
X72479Y-41032D01*
X72402Y-41004D01*
X72508Y-40961D01*
X72661Y-40808D01*
X72744Y-40608D01*
X72744Y-40408D01*
X73200Y-39952D01*
X73217Y-39952D01*
X73126Y-40043D01*
X73042Y-40245D01*
X73042Y-40463D01*
X73126Y-40665D01*
X73280Y-40819D01*
X73482Y-40903D01*
X73700Y-40903D01*
X73902Y-40819D01*
X74047Y-40674D01*
X76921Y-40674D01*
X77043Y-40650D01*
X77044Y-40650D01*
X77102Y-40609D01*
X77103Y-40609D01*
X77126Y-40665D01*
X77280Y-40819D01*
X77482Y-40903D01*
X77700Y-40903D01*
X77902Y-40819D01*
X78046Y-40675D01*
X78046Y-44044D01*
M02*
