G04 (created by PCBNEW-RS274X (2012-apr-16-27)-stable) date Tue 22 Apr 2014 06:10:25 PM EDT*
G01*
G70*
G90*
%MOIN*%
G04 Gerber Fmt 3.4, Leading zero omitted, Abs format*
%FSLAX34Y34*%
G04 APERTURE LIST*
%ADD10C,0.006000*%
%ADD11R,0.080000X0.080000*%
%ADD12C,0.080000*%
%ADD13C,0.079100*%
%ADD14R,0.079100X0.079100*%
%ADD15R,0.075000X0.075000*%
%ADD16C,0.075000*%
%ADD17C,0.161700*%
%ADD18C,0.086900*%
%ADD19C,0.156600*%
G04 APERTURE END LIST*
G54D10*
G54D11*
X69900Y-32700D03*
G54D12*
X70900Y-32700D03*
X69900Y-33700D03*
X70900Y-33700D03*
X69900Y-34700D03*
X70900Y-34700D03*
X69900Y-35700D03*
X70900Y-35700D03*
X69900Y-36700D03*
X70900Y-36700D03*
X69900Y-37700D03*
X70900Y-37700D03*
X69900Y-38700D03*
X70900Y-38700D03*
X69900Y-39700D03*
X70900Y-39700D03*
X69900Y-40700D03*
X70900Y-40700D03*
X69900Y-41700D03*
X70900Y-41700D03*
X69900Y-42700D03*
X70900Y-42700D03*
X69900Y-43700D03*
X70900Y-43700D03*
G54D11*
X66900Y-32700D03*
G54D12*
X67900Y-32700D03*
X66900Y-33700D03*
X67900Y-33700D03*
X66900Y-34700D03*
X67900Y-34700D03*
X66900Y-35700D03*
X67900Y-35700D03*
X66900Y-36700D03*
X67900Y-36700D03*
X66900Y-37700D03*
X67900Y-37700D03*
X66900Y-38700D03*
X67900Y-38700D03*
X66900Y-39700D03*
X67900Y-39700D03*
X66900Y-40700D03*
X67900Y-40700D03*
X66900Y-41700D03*
X67900Y-41700D03*
X66900Y-42700D03*
X67900Y-42700D03*
X66900Y-43700D03*
X67900Y-43700D03*
G54D13*
X50256Y-34902D03*
X50256Y-43721D03*
G54D14*
X68600Y-31500D03*
G54D13*
X69600Y-31500D03*
X70600Y-31500D03*
X71600Y-31500D03*
G54D11*
X57100Y-39200D03*
G54D12*
X56100Y-39200D03*
G54D15*
X73900Y-37600D03*
G54D16*
X76900Y-37600D03*
G54D15*
X76634Y-42083D03*
G54D16*
X76634Y-45083D03*
G54D15*
X73900Y-36600D03*
G54D16*
X76900Y-36600D03*
G54D15*
X77638Y-42634D03*
G54D16*
X77638Y-45634D03*
G54D13*
X72200Y-38500D03*
X72200Y-37500D03*
X72200Y-36500D03*
X72200Y-34500D03*
X72200Y-35500D03*
X72200Y-39500D03*
X72200Y-40500D03*
X72200Y-41500D03*
X72200Y-42500D03*
X72200Y-43500D03*
X72913Y-47421D03*
X75905Y-47421D03*
X57992Y-50992D03*
X58992Y-50992D03*
X59992Y-50992D03*
X70992Y-50992D03*
X60992Y-50992D03*
X61992Y-50992D03*
X62992Y-50992D03*
X63992Y-50992D03*
X64992Y-50992D03*
X65992Y-50992D03*
X66992Y-50992D03*
X67992Y-50992D03*
X68992Y-50992D03*
X69992Y-50992D03*
X70992Y-44992D03*
X69992Y-44992D03*
X68992Y-44992D03*
X67992Y-44992D03*
X66992Y-44992D03*
X65992Y-44992D03*
X64992Y-44992D03*
X63992Y-44992D03*
X62992Y-44992D03*
X61992Y-44992D03*
X60992Y-44992D03*
X59992Y-44992D03*
X58992Y-44992D03*
X57992Y-44992D03*
X70992Y-49992D03*
X70992Y-48992D03*
X70992Y-47992D03*
X70992Y-46992D03*
X70992Y-45992D03*
G54D17*
X40158Y-48150D03*
X42520Y-48150D03*
X41339Y-50000D03*
G54D18*
X54921Y-44350D03*
X54921Y-43350D03*
X54921Y-42350D03*
G54D16*
X57400Y-31500D03*
X60400Y-31500D03*
X57400Y-32600D03*
X60400Y-32600D03*
G54D11*
X52800Y-39500D03*
G54D12*
X53800Y-39500D03*
G54D16*
X52800Y-37100D03*
X53800Y-37100D03*
G54D18*
X62224Y-39287D03*
X59791Y-35070D03*
X64657Y-35070D03*
G54D16*
X77800Y-32800D03*
X75800Y-32800D03*
X65100Y-43700D03*
X65100Y-40700D03*
X77091Y-40354D03*
X74091Y-40354D03*
X76900Y-39100D03*
X73900Y-39100D03*
X57400Y-36700D03*
X57400Y-33700D03*
X57600Y-41700D03*
X58600Y-41700D03*
G54D15*
X57600Y-42700D03*
G54D19*
X44508Y-31850D03*
X44016Y-50866D03*
X76496Y-50846D03*
X73996Y-31850D03*
M02*
