G04 (created by PCBNEW-RS274X (2012-apr-16-27)-stable) date Wed 26 Mar 2014 03:50:35 PM EDT*
G01*
G70*
G90*
%MOIN*%
G04 Gerber Fmt 3.4, Leading zero omitted, Abs format*
%FSLAX34Y34*%
G04 APERTURE LIST*
%ADD10C,0.006000*%
%ADD11C,0.015000*%
%ADD12C,0.012000*%
%ADD13C,0.005000*%
%ADD14C,0.008000*%
%ADD15C,0.010000*%
%ADD16C,0.011300*%
%ADD17C,0.010700*%
%ADD18C,0.007900*%
%ADD19C,0.009800*%
G04 APERTURE END LIST*
G54D10*
G54D11*
X41654Y-50591D02*
X42796Y-50591D01*
X42796Y-50591D02*
X42796Y-47047D01*
X42796Y-47047D02*
X41339Y-47047D01*
X41654Y-50473D02*
X41654Y-50866D01*
X41654Y-50866D02*
X41024Y-50866D01*
X41024Y-50866D02*
X41024Y-50473D01*
X41024Y-50473D02*
X41654Y-50473D01*
X42323Y-48504D02*
X42717Y-48504D01*
X42717Y-48504D02*
X42717Y-49134D01*
X42717Y-49134D02*
X42323Y-49134D01*
X42323Y-49134D02*
X42323Y-48504D01*
X40355Y-48504D02*
X39961Y-48504D01*
X39961Y-48504D02*
X39961Y-49134D01*
X39961Y-49134D02*
X40355Y-49134D01*
X40355Y-49134D02*
X40355Y-48504D01*
X54803Y-44870D02*
X54803Y-45870D01*
X54803Y-32870D02*
X54803Y-33370D01*
X54803Y-32870D02*
X39303Y-32870D01*
X39303Y-45870D02*
X54803Y-45870D01*
X54803Y-44870D02*
X54803Y-33370D01*
G54D12*
X66075Y-42028D02*
X65675Y-42028D01*
X65675Y-42028D02*
X65675Y-42428D01*
X65675Y-42428D02*
X62475Y-42428D01*
X62475Y-42428D02*
X62475Y-41628D01*
X62475Y-41628D02*
X65675Y-41628D01*
X65675Y-41628D02*
X65675Y-42028D01*
X65675Y-42228D02*
X65475Y-42428D01*
X62075Y-42028D02*
X62475Y-42028D01*
X73591Y-40354D02*
X73991Y-40354D01*
X73991Y-40354D02*
X73991Y-39954D01*
X73991Y-39954D02*
X77191Y-39954D01*
X77191Y-39954D02*
X77191Y-40754D01*
X77191Y-40754D02*
X73991Y-40754D01*
X73991Y-40754D02*
X73991Y-40354D01*
X73991Y-40154D02*
X74191Y-39954D01*
X77591Y-40354D02*
X77191Y-40354D01*
X73400Y-39100D02*
X73800Y-39100D01*
X73800Y-39100D02*
X73800Y-38700D01*
X73800Y-38700D02*
X77000Y-38700D01*
X77000Y-38700D02*
X77000Y-39500D01*
X77000Y-39500D02*
X73800Y-39500D01*
X73800Y-39500D02*
X73800Y-39100D01*
X73800Y-38900D02*
X74000Y-38700D01*
X77400Y-39100D02*
X77000Y-39100D01*
X56858Y-42028D02*
X57258Y-42028D01*
X57258Y-42028D02*
X57258Y-41628D01*
X57258Y-41628D02*
X60458Y-41628D01*
X60458Y-41628D02*
X60458Y-42428D01*
X60458Y-42428D02*
X57258Y-42428D01*
X57258Y-42428D02*
X57258Y-42028D01*
X57258Y-41828D02*
X57458Y-41628D01*
X60858Y-42028D02*
X60458Y-42028D01*
G54D11*
X46456Y-49803D02*
X43307Y-49803D01*
X43307Y-49803D02*
X43307Y-46260D01*
X43307Y-46260D02*
X46456Y-46260D01*
X46456Y-46260D02*
X46456Y-49803D01*
X71400Y-32200D02*
X69400Y-32200D01*
X69400Y-32200D02*
X69400Y-44200D01*
X69400Y-44200D02*
X71400Y-44200D01*
X71400Y-44200D02*
X71400Y-32200D01*
X69400Y-32200D02*
X67400Y-32200D01*
X67400Y-32200D02*
X67400Y-44200D01*
X67400Y-44200D02*
X69400Y-44200D01*
X69400Y-44200D02*
X69400Y-32200D01*
G54D13*
X57352Y-32087D02*
X57328Y-32329D01*
X57257Y-32563D01*
X57143Y-32778D01*
X56988Y-32967D01*
X56800Y-33123D01*
X56586Y-33239D01*
X56353Y-33311D01*
X56110Y-33336D01*
X55868Y-33314D01*
X55634Y-33245D01*
X55418Y-33132D01*
X55228Y-32980D01*
X55071Y-32793D01*
X54954Y-32579D01*
X54880Y-32346D01*
X54853Y-32104D01*
X54873Y-31862D01*
X54940Y-31627D01*
X55052Y-31410D01*
X55203Y-31219D01*
X55389Y-31061D01*
X55602Y-30942D01*
X55834Y-30867D01*
X56076Y-30838D01*
X56319Y-30856D01*
X56554Y-30922D01*
X56771Y-31032D01*
X56964Y-31182D01*
X57123Y-31367D01*
X57243Y-31579D01*
X57320Y-31811D01*
X57351Y-32053D01*
X57352Y-32087D01*
G54D12*
X73900Y-37600D02*
X74200Y-37600D01*
X74200Y-37600D02*
X74200Y-38000D01*
X74200Y-38000D02*
X76600Y-38000D01*
X76600Y-38000D02*
X76600Y-37600D01*
X76600Y-37600D02*
X76900Y-37600D01*
X76600Y-37600D02*
X76600Y-37200D01*
X76600Y-37200D02*
X74200Y-37200D01*
X74200Y-37200D02*
X74200Y-37600D01*
X74400Y-38000D02*
X74400Y-37200D01*
X74500Y-37200D02*
X74500Y-38000D01*
X73900Y-34600D02*
X74200Y-34600D01*
X74200Y-34600D02*
X74200Y-35000D01*
X74200Y-35000D02*
X76600Y-35000D01*
X76600Y-35000D02*
X76600Y-34600D01*
X76600Y-34600D02*
X76900Y-34600D01*
X76600Y-34600D02*
X76600Y-34200D01*
X76600Y-34200D02*
X74200Y-34200D01*
X74200Y-34200D02*
X74200Y-34600D01*
X74400Y-35000D02*
X74400Y-34200D01*
X74500Y-34200D02*
X74500Y-35000D01*
X73900Y-36600D02*
X74200Y-36600D01*
X74200Y-36600D02*
X74200Y-37000D01*
X74200Y-37000D02*
X76600Y-37000D01*
X76600Y-37000D02*
X76600Y-36600D01*
X76600Y-36600D02*
X76900Y-36600D01*
X76600Y-36600D02*
X76600Y-36200D01*
X76600Y-36200D02*
X74200Y-36200D01*
X74200Y-36200D02*
X74200Y-36600D01*
X74400Y-37000D02*
X74400Y-36200D01*
X74500Y-36200D02*
X74500Y-37000D01*
X73900Y-35600D02*
X74200Y-35600D01*
X74200Y-35600D02*
X74200Y-36000D01*
X74200Y-36000D02*
X76600Y-36000D01*
X76600Y-36000D02*
X76600Y-35600D01*
X76600Y-35600D02*
X76900Y-35600D01*
X76600Y-35600D02*
X76600Y-35200D01*
X76600Y-35200D02*
X74200Y-35200D01*
X74200Y-35200D02*
X74200Y-35600D01*
X74400Y-36000D02*
X74400Y-35200D01*
X74500Y-35200D02*
X74500Y-36000D01*
X68700Y-31000D02*
X68700Y-31000D01*
X68700Y-32000D02*
X68700Y-31000D01*
X68700Y-31000D02*
X68700Y-31000D01*
X68700Y-31000D02*
X72700Y-31000D01*
X72700Y-31000D02*
X72700Y-32000D01*
X72700Y-32000D02*
X68700Y-32000D01*
X69700Y-32000D02*
X69700Y-31000D01*
G54D11*
X71700Y-44500D02*
X71700Y-44000D01*
X78200Y-44000D02*
X78200Y-44500D01*
X78200Y-44500D02*
X71700Y-44500D01*
X71700Y-44000D02*
X71700Y-33500D01*
X71700Y-33500D02*
X78200Y-33500D01*
X78200Y-33500D02*
X78200Y-44000D01*
X61031Y-35894D02*
X63531Y-35894D01*
X63531Y-35894D02*
X63531Y-39894D01*
X63531Y-39894D02*
X58531Y-39894D01*
X58531Y-39894D02*
X58531Y-35894D01*
X58531Y-35894D02*
X61031Y-35894D01*
X44876Y-50827D02*
X44858Y-51001D01*
X44808Y-51169D01*
X44725Y-51325D01*
X44614Y-51461D01*
X44479Y-51573D01*
X44324Y-51656D01*
X44156Y-51708D01*
X43982Y-51726D01*
X43808Y-51711D01*
X43639Y-51661D01*
X43484Y-51580D01*
X43347Y-51470D01*
X43234Y-51335D01*
X43149Y-51181D01*
X43096Y-51014D01*
X43077Y-50839D01*
X43091Y-50665D01*
X43140Y-50496D01*
X43220Y-50340D01*
X43329Y-50202D01*
X43463Y-50088D01*
X43616Y-50003D01*
X43783Y-49948D01*
X43958Y-49928D01*
X44132Y-49941D01*
X44301Y-49988D01*
X44458Y-50068D01*
X44596Y-50176D01*
X44711Y-50309D01*
X44798Y-50461D01*
X44853Y-50628D01*
X44875Y-50802D01*
X44876Y-50827D01*
G54D12*
X61976Y-32087D02*
X62376Y-32087D01*
X62376Y-32087D02*
X62376Y-31687D01*
X62376Y-31687D02*
X65576Y-31687D01*
X65576Y-31687D02*
X65576Y-32487D01*
X65576Y-32487D02*
X62376Y-32487D01*
X62376Y-32487D02*
X62376Y-32087D01*
X62376Y-31887D02*
X62576Y-31687D01*
X65976Y-32087D02*
X65576Y-32087D01*
G54D11*
X77856Y-47400D02*
X77803Y-47935D01*
X77648Y-48450D01*
X77395Y-48925D01*
X77055Y-49341D01*
X76641Y-49684D01*
X76167Y-49940D01*
X75654Y-50099D01*
X75119Y-50155D01*
X74584Y-50107D01*
X74068Y-49955D01*
X73591Y-49706D01*
X73172Y-49369D01*
X72826Y-48957D01*
X72567Y-48485D01*
X72405Y-47973D01*
X72345Y-47438D01*
X72390Y-46903D01*
X72538Y-46386D01*
X72784Y-45908D01*
X73118Y-45486D01*
X73528Y-45137D01*
X73997Y-44875D01*
X74509Y-44709D01*
X75043Y-44645D01*
X75578Y-44686D01*
X76096Y-44831D01*
X76576Y-45074D01*
X77000Y-45405D01*
X77352Y-45812D01*
X77617Y-46280D01*
X77787Y-46790D01*
X77854Y-47324D01*
X77856Y-47400D01*
X45388Y-31850D02*
X45370Y-32024D01*
X45320Y-32192D01*
X45237Y-32348D01*
X45126Y-32484D01*
X44991Y-32596D01*
X44836Y-32679D01*
X44668Y-32731D01*
X44494Y-32749D01*
X44320Y-32734D01*
X44151Y-32684D01*
X43996Y-32603D01*
X43859Y-32493D01*
X43746Y-32358D01*
X43661Y-32204D01*
X43608Y-32037D01*
X43589Y-31862D01*
X43603Y-31688D01*
X43652Y-31519D01*
X43732Y-31363D01*
X43841Y-31225D01*
X43975Y-31111D01*
X44128Y-31026D01*
X44295Y-30971D01*
X44470Y-30951D01*
X44644Y-30964D01*
X44813Y-31011D01*
X44970Y-31091D01*
X45108Y-31199D01*
X45223Y-31332D01*
X45310Y-31484D01*
X45365Y-31651D01*
X45387Y-31825D01*
X45388Y-31850D01*
X74916Y-31850D02*
X74898Y-32024D01*
X74848Y-32192D01*
X74765Y-32348D01*
X74654Y-32484D01*
X74519Y-32596D01*
X74364Y-32679D01*
X74196Y-32731D01*
X74022Y-32749D01*
X73848Y-32734D01*
X73679Y-32684D01*
X73524Y-32603D01*
X73387Y-32493D01*
X73274Y-32358D01*
X73189Y-32204D01*
X73136Y-32037D01*
X73117Y-31862D01*
X73131Y-31688D01*
X73180Y-31519D01*
X73260Y-31363D01*
X73369Y-31225D01*
X73503Y-31111D01*
X73656Y-31026D01*
X73823Y-30971D01*
X73998Y-30951D01*
X74172Y-30964D01*
X74341Y-31011D01*
X74498Y-31091D01*
X74636Y-31199D01*
X74751Y-31332D01*
X74838Y-31484D01*
X74893Y-31651D01*
X74915Y-31825D01*
X74916Y-31850D01*
X77396Y-50866D02*
X77378Y-51040D01*
X77328Y-51208D01*
X77245Y-51364D01*
X77134Y-51500D01*
X76999Y-51612D01*
X76844Y-51695D01*
X76676Y-51747D01*
X76502Y-51765D01*
X76328Y-51750D01*
X76159Y-51700D01*
X76004Y-51619D01*
X75867Y-51509D01*
X75754Y-51374D01*
X75669Y-51220D01*
X75616Y-51053D01*
X75597Y-50878D01*
X75611Y-50704D01*
X75660Y-50535D01*
X75740Y-50379D01*
X75849Y-50241D01*
X75983Y-50127D01*
X76136Y-50042D01*
X76303Y-49987D01*
X76478Y-49967D01*
X76652Y-49980D01*
X76821Y-50027D01*
X76978Y-50107D01*
X77116Y-50215D01*
X77231Y-50348D01*
X77318Y-50500D01*
X77373Y-50667D01*
X77395Y-50841D01*
X77396Y-50866D01*
X58200Y-51700D02*
X58200Y-44700D01*
X58200Y-44700D02*
X72200Y-44700D01*
X72200Y-44700D02*
X72200Y-51700D01*
X72200Y-51700D02*
X58200Y-51700D01*
G54D13*
X78250Y-32000D02*
X78226Y-32242D01*
X78155Y-32476D01*
X78041Y-32691D01*
X77886Y-32880D01*
X77698Y-33036D01*
X77484Y-33152D01*
X77251Y-33224D01*
X77008Y-33249D01*
X76766Y-33227D01*
X76532Y-33158D01*
X76316Y-33045D01*
X76126Y-32893D01*
X75969Y-32706D01*
X75852Y-32492D01*
X75778Y-32259D01*
X75751Y-32017D01*
X75771Y-31775D01*
X75838Y-31540D01*
X75950Y-31323D01*
X76101Y-31132D01*
X76287Y-30974D01*
X76500Y-30855D01*
X76732Y-30780D01*
X76974Y-30751D01*
X77217Y-30769D01*
X77452Y-30835D01*
X77669Y-30945D01*
X77862Y-31095D01*
X78021Y-31280D01*
X78141Y-31492D01*
X78218Y-31724D01*
X78249Y-31966D01*
X78250Y-32000D01*
G54D12*
X40143Y-51642D02*
X39543Y-51642D01*
X39543Y-51414D01*
X39571Y-51356D01*
X39600Y-51328D01*
X39657Y-51299D01*
X39743Y-51299D01*
X39800Y-51328D01*
X39829Y-51356D01*
X39857Y-51414D01*
X39857Y-51642D01*
X40143Y-50728D02*
X40143Y-51071D01*
X40143Y-50899D02*
X39543Y-50899D01*
X39629Y-50956D01*
X39686Y-51014D01*
X39714Y-51071D01*
X40129Y-47686D02*
X40100Y-47714D01*
X40014Y-47743D01*
X39957Y-47743D01*
X39872Y-47714D01*
X39814Y-47657D01*
X39786Y-47600D01*
X39757Y-47486D01*
X39757Y-47400D01*
X39786Y-47286D01*
X39814Y-47229D01*
X39872Y-47171D01*
X39957Y-47143D01*
X40014Y-47143D01*
X40100Y-47171D01*
X40129Y-47200D01*
X40500Y-47143D02*
X40614Y-47143D01*
X40672Y-47171D01*
X40729Y-47229D01*
X40757Y-47343D01*
X40757Y-47543D01*
X40729Y-47657D01*
X40672Y-47714D01*
X40614Y-47743D01*
X40500Y-47743D01*
X40443Y-47714D01*
X40386Y-47657D01*
X40357Y-47543D01*
X40357Y-47343D01*
X40386Y-47229D01*
X40443Y-47171D01*
X40500Y-47143D01*
X41015Y-47743D02*
X41015Y-47143D01*
X41358Y-47743D01*
X41358Y-47143D01*
X41644Y-47743D02*
X41644Y-47143D01*
X41987Y-47743D01*
X41987Y-47143D01*
X42130Y-47800D02*
X42587Y-47800D01*
X42701Y-47200D02*
X42730Y-47171D01*
X42787Y-47143D01*
X42930Y-47143D01*
X42987Y-47171D01*
X43016Y-47200D01*
X43044Y-47257D01*
X43044Y-47314D01*
X43016Y-47400D01*
X42673Y-47743D01*
X43044Y-47743D01*
X49603Y-37013D02*
X49603Y-37441D01*
X49575Y-37527D01*
X49518Y-37584D01*
X49432Y-37613D01*
X49375Y-37613D01*
X50203Y-37613D02*
X49860Y-37613D01*
X50032Y-37613D02*
X50032Y-37013D01*
X49975Y-37099D01*
X49917Y-37156D01*
X49860Y-37184D01*
X49332Y-39584D02*
X49418Y-39613D01*
X49561Y-39613D01*
X49618Y-39584D01*
X49647Y-39556D01*
X49675Y-39499D01*
X49675Y-39441D01*
X49647Y-39384D01*
X49618Y-39356D01*
X49561Y-39327D01*
X49447Y-39299D01*
X49389Y-39270D01*
X49361Y-39241D01*
X49332Y-39184D01*
X49332Y-39127D01*
X49361Y-39070D01*
X49389Y-39041D01*
X49447Y-39013D01*
X49589Y-39013D01*
X49675Y-39041D01*
X49932Y-39613D02*
X49932Y-39013D01*
X50075Y-39013D01*
X50160Y-39041D01*
X50218Y-39099D01*
X50246Y-39156D01*
X50275Y-39270D01*
X50275Y-39356D01*
X50246Y-39470D01*
X50218Y-39527D01*
X50160Y-39584D01*
X50075Y-39613D01*
X49932Y-39613D01*
G54D14*
X63017Y-42323D02*
X62850Y-42061D01*
X62731Y-42323D02*
X62731Y-41773D01*
X62922Y-41773D01*
X62969Y-41799D01*
X62993Y-41825D01*
X63017Y-41877D01*
X63017Y-41956D01*
X62993Y-42008D01*
X62969Y-42035D01*
X62922Y-42061D01*
X62731Y-42061D01*
X63493Y-42323D02*
X63207Y-42323D01*
X63350Y-42323D02*
X63350Y-41773D01*
X63302Y-41851D01*
X63255Y-41904D01*
X63207Y-41930D01*
X75508Y-40577D02*
X75341Y-40315D01*
X75222Y-40577D02*
X75222Y-40027D01*
X75413Y-40027D01*
X75460Y-40053D01*
X75484Y-40079D01*
X75508Y-40131D01*
X75508Y-40210D01*
X75484Y-40262D01*
X75460Y-40289D01*
X75413Y-40315D01*
X75222Y-40315D01*
X75698Y-40079D02*
X75722Y-40053D01*
X75770Y-40027D01*
X75889Y-40027D01*
X75936Y-40053D01*
X75960Y-40079D01*
X75984Y-40131D01*
X75984Y-40184D01*
X75960Y-40262D01*
X75674Y-40577D01*
X75984Y-40577D01*
X75317Y-39323D02*
X75150Y-39061D01*
X75031Y-39323D02*
X75031Y-38773D01*
X75222Y-38773D01*
X75269Y-38799D01*
X75293Y-38825D01*
X75317Y-38877D01*
X75317Y-38956D01*
X75293Y-39008D01*
X75269Y-39035D01*
X75222Y-39061D01*
X75031Y-39061D01*
X75483Y-38773D02*
X75793Y-38773D01*
X75626Y-38982D01*
X75698Y-38982D01*
X75745Y-39008D01*
X75769Y-39035D01*
X75793Y-39087D01*
X75793Y-39218D01*
X75769Y-39270D01*
X75745Y-39296D01*
X75698Y-39323D01*
X75555Y-39323D01*
X75507Y-39296D01*
X75483Y-39270D01*
X57717Y-42323D02*
X57550Y-42061D01*
X57431Y-42323D02*
X57431Y-41773D01*
X57622Y-41773D01*
X57669Y-41799D01*
X57693Y-41825D01*
X57717Y-41877D01*
X57717Y-41956D01*
X57693Y-42008D01*
X57669Y-42035D01*
X57622Y-42061D01*
X57431Y-42061D01*
X58145Y-41956D02*
X58145Y-42323D01*
X58026Y-41746D02*
X57907Y-42139D01*
X58217Y-42139D01*
G54D12*
X44033Y-49571D02*
X44519Y-49571D01*
X44576Y-49543D01*
X44604Y-49514D01*
X44633Y-49457D01*
X44633Y-49343D01*
X44604Y-49285D01*
X44576Y-49257D01*
X44519Y-49228D01*
X44033Y-49228D01*
X44633Y-48628D02*
X44633Y-48971D01*
X44633Y-48799D02*
X44033Y-48799D01*
X44119Y-48856D01*
X44176Y-48914D01*
X44204Y-48971D01*
X47487Y-49148D02*
X47201Y-49348D01*
X47487Y-49491D02*
X46887Y-49491D01*
X46887Y-49263D01*
X46915Y-49205D01*
X46944Y-49177D01*
X47001Y-49148D01*
X47087Y-49148D01*
X47144Y-49177D01*
X47173Y-49205D01*
X47201Y-49263D01*
X47201Y-49491D01*
X47258Y-48891D02*
X47258Y-48434D01*
X46887Y-48205D02*
X46887Y-47805D01*
X47487Y-48062D01*
X47144Y-47491D02*
X47115Y-47549D01*
X47087Y-47577D01*
X47030Y-47606D01*
X47001Y-47606D01*
X46944Y-47577D01*
X46915Y-47549D01*
X46887Y-47491D01*
X46887Y-47377D01*
X46915Y-47320D01*
X46944Y-47291D01*
X47001Y-47263D01*
X47030Y-47263D01*
X47087Y-47291D01*
X47115Y-47320D01*
X47144Y-47377D01*
X47144Y-47491D01*
X47173Y-47549D01*
X47201Y-47577D01*
X47258Y-47606D01*
X47373Y-47606D01*
X47430Y-47577D01*
X47458Y-47549D01*
X47487Y-47491D01*
X47487Y-47377D01*
X47458Y-47320D01*
X47430Y-47291D01*
X47373Y-47263D01*
X47258Y-47263D01*
X47201Y-47291D01*
X47173Y-47320D01*
X47144Y-47377D01*
X47173Y-47006D02*
X47173Y-46806D01*
X47487Y-46720D02*
X47487Y-47006D01*
X46887Y-47006D01*
X46887Y-46720D01*
X46887Y-46177D02*
X46887Y-46463D01*
X47173Y-46492D01*
X47144Y-46463D01*
X47115Y-46406D01*
X47115Y-46263D01*
X47144Y-46206D01*
X47173Y-46177D01*
X47230Y-46149D01*
X47373Y-46149D01*
X47430Y-46177D01*
X47458Y-46206D01*
X47487Y-46263D01*
X47487Y-46406D01*
X47458Y-46463D01*
X47430Y-46492D01*
G54D15*
X72062Y-38495D02*
X71662Y-38495D01*
X71662Y-38342D01*
X71681Y-38304D01*
X71700Y-38285D01*
X71738Y-38266D01*
X71795Y-38266D01*
X71833Y-38285D01*
X71852Y-38304D01*
X71871Y-38342D01*
X71871Y-38495D01*
X71795Y-37923D02*
X72062Y-37923D01*
X71643Y-38019D02*
X71929Y-38114D01*
X71929Y-37866D01*
G54D14*
X69024Y-39619D02*
X69043Y-39638D01*
X69062Y-39695D01*
X69062Y-39733D01*
X69043Y-39791D01*
X69005Y-39829D01*
X68967Y-39848D01*
X68890Y-39867D01*
X68833Y-39867D01*
X68757Y-39848D01*
X68719Y-39829D01*
X68681Y-39791D01*
X68662Y-39733D01*
X68662Y-39695D01*
X68681Y-39638D01*
X68700Y-39619D01*
X68662Y-39372D02*
X68662Y-39295D01*
X68681Y-39257D01*
X68719Y-39219D01*
X68795Y-39200D01*
X68929Y-39200D01*
X69005Y-39219D01*
X69043Y-39257D01*
X69062Y-39295D01*
X69062Y-39372D01*
X69043Y-39410D01*
X69005Y-39448D01*
X68929Y-39467D01*
X68795Y-39467D01*
X68719Y-39448D01*
X68681Y-39410D01*
X68662Y-39372D01*
X69062Y-39029D02*
X68662Y-39029D01*
X69062Y-38800D01*
X68662Y-38800D01*
X69062Y-38610D02*
X68662Y-38610D01*
X69062Y-38381D01*
X68662Y-38381D01*
X69100Y-38286D02*
X69100Y-37981D01*
X69062Y-37676D02*
X69062Y-37905D01*
X69062Y-37791D02*
X68662Y-37791D01*
X68719Y-37829D01*
X68757Y-37867D01*
X68776Y-37905D01*
X68700Y-37524D02*
X68681Y-37505D01*
X68662Y-37467D01*
X68662Y-37371D01*
X68681Y-37333D01*
X68700Y-37314D01*
X68738Y-37295D01*
X68776Y-37295D01*
X68833Y-37314D01*
X69062Y-37543D01*
X69062Y-37295D01*
X68662Y-37162D02*
X69062Y-36895D01*
X68662Y-36895D02*
X69062Y-37162D01*
X68700Y-36762D02*
X68681Y-36743D01*
X68662Y-36705D01*
X68662Y-36609D01*
X68681Y-36571D01*
X68700Y-36552D01*
X68738Y-36533D01*
X68776Y-36533D01*
X68833Y-36552D01*
X69062Y-36781D01*
X69062Y-36533D01*
G54D15*
X70062Y-38495D02*
X69662Y-38495D01*
X69662Y-38342D01*
X69681Y-38304D01*
X69700Y-38285D01*
X69738Y-38266D01*
X69795Y-38266D01*
X69833Y-38285D01*
X69852Y-38304D01*
X69871Y-38342D01*
X69871Y-38495D01*
X69662Y-37904D02*
X69662Y-38095D01*
X69852Y-38114D01*
X69833Y-38095D01*
X69814Y-38057D01*
X69814Y-37961D01*
X69833Y-37923D01*
X69852Y-37904D01*
X69890Y-37885D01*
X69986Y-37885D01*
X70024Y-37904D01*
X70043Y-37923D01*
X70062Y-37961D01*
X70062Y-38057D01*
X70043Y-38095D01*
X70024Y-38114D01*
G54D14*
X67024Y-39619D02*
X67043Y-39638D01*
X67062Y-39695D01*
X67062Y-39733D01*
X67043Y-39791D01*
X67005Y-39829D01*
X66967Y-39848D01*
X66890Y-39867D01*
X66833Y-39867D01*
X66757Y-39848D01*
X66719Y-39829D01*
X66681Y-39791D01*
X66662Y-39733D01*
X66662Y-39695D01*
X66681Y-39638D01*
X66700Y-39619D01*
X66662Y-39372D02*
X66662Y-39295D01*
X66681Y-39257D01*
X66719Y-39219D01*
X66795Y-39200D01*
X66929Y-39200D01*
X67005Y-39219D01*
X67043Y-39257D01*
X67062Y-39295D01*
X67062Y-39372D01*
X67043Y-39410D01*
X67005Y-39448D01*
X66929Y-39467D01*
X66795Y-39467D01*
X66719Y-39448D01*
X66681Y-39410D01*
X66662Y-39372D01*
X67062Y-39029D02*
X66662Y-39029D01*
X67062Y-38800D01*
X66662Y-38800D01*
X67062Y-38610D02*
X66662Y-38610D01*
X67062Y-38381D01*
X66662Y-38381D01*
X67100Y-38286D02*
X67100Y-37981D01*
X67062Y-37676D02*
X67062Y-37905D01*
X67062Y-37791D02*
X66662Y-37791D01*
X66719Y-37829D01*
X66757Y-37867D01*
X66776Y-37905D01*
X66700Y-37524D02*
X66681Y-37505D01*
X66662Y-37467D01*
X66662Y-37371D01*
X66681Y-37333D01*
X66700Y-37314D01*
X66738Y-37295D01*
X66776Y-37295D01*
X66833Y-37314D01*
X67062Y-37543D01*
X67062Y-37295D01*
X66662Y-37162D02*
X67062Y-36895D01*
X66662Y-36895D02*
X67062Y-37162D01*
X66700Y-36762D02*
X66681Y-36743D01*
X66662Y-36705D01*
X66662Y-36609D01*
X66681Y-36571D01*
X66700Y-36552D01*
X66738Y-36533D01*
X66776Y-36533D01*
X66833Y-36552D01*
X67062Y-36781D01*
X67062Y-36533D01*
X55641Y-32145D02*
X55663Y-32161D01*
X55684Y-32211D01*
X55684Y-32245D01*
X55663Y-32295D01*
X55620Y-32328D01*
X55577Y-32345D01*
X55491Y-32361D01*
X55427Y-32361D01*
X55341Y-32345D01*
X55298Y-32328D01*
X55256Y-32295D01*
X55234Y-32245D01*
X55234Y-32211D01*
X55256Y-32161D01*
X55277Y-32145D01*
X55684Y-31811D02*
X55684Y-32011D01*
X55684Y-31911D02*
X55234Y-31911D01*
X55298Y-31945D01*
X55341Y-31978D01*
X55363Y-32011D01*
X56884Y-32628D02*
X56884Y-32828D01*
X56884Y-32728D02*
X56434Y-32728D01*
X56498Y-32762D01*
X56541Y-32795D01*
X56563Y-32828D01*
X56434Y-32412D02*
X56434Y-32379D01*
X56456Y-32345D01*
X56477Y-32329D01*
X56520Y-32312D01*
X56606Y-32295D01*
X56713Y-32295D01*
X56798Y-32312D01*
X56841Y-32329D01*
X56863Y-32345D01*
X56884Y-32379D01*
X56884Y-32412D01*
X56863Y-32445D01*
X56841Y-32462D01*
X56798Y-32479D01*
X56713Y-32495D01*
X56606Y-32495D01*
X56520Y-32479D01*
X56477Y-32462D01*
X56456Y-32445D01*
X56434Y-32412D01*
X56434Y-32079D02*
X56434Y-32046D01*
X56456Y-32012D01*
X56477Y-31996D01*
X56520Y-31979D01*
X56606Y-31962D01*
X56713Y-31962D01*
X56798Y-31979D01*
X56841Y-31996D01*
X56863Y-32012D01*
X56884Y-32046D01*
X56884Y-32079D01*
X56863Y-32112D01*
X56841Y-32129D01*
X56798Y-32146D01*
X56713Y-32162D01*
X56606Y-32162D01*
X56520Y-32146D01*
X56477Y-32129D01*
X56456Y-32112D01*
X56434Y-32079D01*
X56584Y-31663D02*
X56884Y-31663D01*
X56584Y-31813D02*
X56820Y-31813D01*
X56863Y-31796D01*
X56884Y-31763D01*
X56884Y-31713D01*
X56863Y-31679D01*
X56841Y-31663D01*
X56648Y-31379D02*
X56648Y-31496D01*
X56884Y-31496D02*
X56434Y-31496D01*
X56434Y-31329D01*
G54D16*
X56113Y-31258D02*
X56113Y-30915D01*
X56284Y-31086D02*
X55941Y-31086D01*
G54D14*
X75105Y-37762D02*
X75105Y-37362D01*
X75200Y-37362D01*
X75258Y-37381D01*
X75296Y-37419D01*
X75315Y-37457D01*
X75334Y-37533D01*
X75334Y-37590D01*
X75315Y-37667D01*
X75296Y-37705D01*
X75258Y-37743D01*
X75200Y-37762D01*
X75105Y-37762D01*
X75715Y-37762D02*
X75486Y-37762D01*
X75600Y-37762D02*
X75600Y-37362D01*
X75562Y-37419D01*
X75524Y-37457D01*
X75486Y-37476D01*
X75105Y-34762D02*
X75105Y-34362D01*
X75200Y-34362D01*
X75258Y-34381D01*
X75296Y-34419D01*
X75315Y-34457D01*
X75334Y-34533D01*
X75334Y-34590D01*
X75315Y-34667D01*
X75296Y-34705D01*
X75258Y-34743D01*
X75200Y-34762D01*
X75105Y-34762D01*
X75486Y-34400D02*
X75505Y-34381D01*
X75543Y-34362D01*
X75639Y-34362D01*
X75677Y-34381D01*
X75696Y-34400D01*
X75715Y-34438D01*
X75715Y-34476D01*
X75696Y-34533D01*
X75467Y-34762D01*
X75715Y-34762D01*
X75118Y-36820D02*
X75118Y-36420D01*
X75213Y-36420D01*
X75271Y-36439D01*
X75309Y-36477D01*
X75328Y-36515D01*
X75347Y-36591D01*
X75347Y-36648D01*
X75328Y-36725D01*
X75309Y-36763D01*
X75271Y-36801D01*
X75213Y-36820D01*
X75118Y-36820D01*
X75480Y-36420D02*
X75728Y-36420D01*
X75594Y-36572D01*
X75652Y-36572D01*
X75690Y-36591D01*
X75709Y-36610D01*
X75728Y-36648D01*
X75728Y-36744D01*
X75709Y-36782D01*
X75690Y-36801D01*
X75652Y-36820D01*
X75537Y-36820D01*
X75499Y-36801D01*
X75480Y-36782D01*
X75105Y-35762D02*
X75105Y-35362D01*
X75200Y-35362D01*
X75258Y-35381D01*
X75296Y-35419D01*
X75315Y-35457D01*
X75334Y-35533D01*
X75334Y-35590D01*
X75315Y-35667D01*
X75296Y-35705D01*
X75258Y-35743D01*
X75200Y-35762D01*
X75105Y-35762D01*
X75677Y-35495D02*
X75677Y-35762D01*
X75581Y-35343D02*
X75486Y-35629D01*
X75734Y-35629D01*
G54D17*
X67684Y-31776D02*
X67684Y-31093D01*
X67847Y-31093D01*
X67888Y-31125D01*
X67908Y-31158D01*
X67928Y-31223D01*
X67928Y-31321D01*
X67908Y-31386D01*
X67888Y-31418D01*
X67847Y-31451D01*
X67684Y-31451D01*
X68092Y-31158D02*
X68112Y-31125D01*
X68153Y-31093D01*
X68255Y-31093D01*
X68295Y-31125D01*
X68316Y-31158D01*
X68336Y-31223D01*
X68336Y-31288D01*
X68316Y-31386D01*
X68071Y-31776D01*
X68336Y-31776D01*
G54D12*
X76843Y-39457D02*
X77329Y-39457D01*
X77386Y-39429D01*
X77414Y-39400D01*
X77443Y-39343D01*
X77443Y-39229D01*
X77414Y-39171D01*
X77386Y-39143D01*
X77329Y-39114D01*
X76843Y-39114D01*
X77043Y-38571D02*
X77443Y-38571D01*
X76814Y-38714D02*
X77243Y-38857D01*
X77243Y-38485D01*
X73330Y-42271D02*
X73616Y-42271D01*
X73273Y-42443D02*
X73473Y-41843D01*
X73673Y-42443D01*
X73873Y-42443D02*
X73873Y-41843D01*
X74016Y-41843D01*
X74101Y-41871D01*
X74159Y-41929D01*
X74187Y-41986D01*
X74216Y-42100D01*
X74216Y-42186D01*
X74187Y-42300D01*
X74159Y-42357D01*
X74101Y-42414D01*
X74016Y-42443D01*
X73873Y-42443D01*
X74444Y-42414D02*
X74530Y-42443D01*
X74673Y-42443D01*
X74730Y-42414D01*
X74759Y-42386D01*
X74787Y-42329D01*
X74787Y-42271D01*
X74759Y-42214D01*
X74730Y-42186D01*
X74673Y-42157D01*
X74559Y-42129D01*
X74501Y-42100D01*
X74473Y-42071D01*
X74444Y-42014D01*
X74444Y-41957D01*
X74473Y-41900D01*
X74501Y-41871D01*
X74559Y-41843D01*
X74701Y-41843D01*
X74787Y-41871D01*
X75358Y-42443D02*
X75015Y-42443D01*
X75187Y-42443D02*
X75187Y-41843D01*
X75130Y-41929D01*
X75072Y-41986D01*
X75015Y-42014D01*
X75929Y-42443D02*
X75586Y-42443D01*
X75758Y-42443D02*
X75758Y-41843D01*
X75701Y-41929D01*
X75643Y-41986D01*
X75586Y-42014D01*
X76500Y-42443D02*
X76157Y-42443D01*
X76329Y-42443D02*
X76329Y-41843D01*
X76272Y-41929D01*
X76214Y-41986D01*
X76157Y-42014D01*
X77043Y-41843D02*
X76757Y-41843D01*
X76728Y-42129D01*
X76757Y-42100D01*
X76814Y-42071D01*
X76957Y-42071D01*
X77014Y-42100D01*
X77043Y-42129D01*
X77071Y-42186D01*
X77071Y-42329D01*
X77043Y-42386D01*
X77014Y-42414D01*
X76957Y-42443D01*
X76814Y-42443D01*
X76757Y-42414D01*
X76728Y-42386D01*
G54D18*
X72886Y-35267D02*
X72841Y-35239D01*
X72773Y-35239D01*
X72706Y-35267D01*
X72661Y-35325D01*
X72638Y-35382D01*
X72616Y-35496D01*
X72616Y-35582D01*
X72638Y-35696D01*
X72661Y-35753D01*
X72706Y-35810D01*
X72773Y-35839D01*
X72818Y-35839D01*
X72886Y-35810D01*
X72908Y-35782D01*
X72908Y-35582D01*
X72818Y-35582D01*
X73110Y-35439D02*
X73110Y-35839D01*
X73110Y-35496D02*
X73133Y-35467D01*
X73178Y-35439D01*
X73245Y-35439D01*
X73290Y-35467D01*
X73313Y-35525D01*
X73313Y-35839D01*
X73740Y-35839D02*
X73740Y-35239D01*
X73740Y-35810D02*
X73695Y-35839D01*
X73605Y-35839D01*
X73560Y-35810D01*
X73537Y-35782D01*
X73515Y-35725D01*
X73515Y-35553D01*
X73537Y-35496D01*
X73560Y-35467D01*
X73605Y-35439D01*
X73695Y-35439D01*
X73740Y-35467D01*
G54D19*
X72405Y-33639D02*
X72562Y-34239D01*
X72720Y-33639D01*
X73080Y-34239D02*
X73080Y-33639D01*
X73080Y-34210D02*
X73035Y-34239D01*
X72945Y-34239D01*
X72900Y-34210D01*
X72877Y-34182D01*
X72855Y-34125D01*
X72855Y-33953D01*
X72877Y-33896D01*
X72900Y-33867D01*
X72945Y-33839D01*
X73035Y-33839D01*
X73080Y-33867D01*
X73507Y-34239D02*
X73507Y-33639D01*
X73507Y-34210D02*
X73462Y-34239D01*
X73372Y-34239D01*
X73327Y-34210D01*
X73304Y-34182D01*
X73282Y-34125D01*
X73282Y-33953D01*
X73304Y-33896D01*
X73327Y-33867D01*
X73372Y-33839D01*
X73462Y-33839D01*
X73507Y-33867D01*
G54D12*
X60574Y-36287D02*
X60574Y-36773D01*
X60602Y-36830D01*
X60631Y-36858D01*
X60688Y-36887D01*
X60802Y-36887D01*
X60860Y-36858D01*
X60888Y-36830D01*
X60917Y-36773D01*
X60917Y-36287D01*
X61146Y-36287D02*
X61517Y-36287D01*
X61317Y-36515D01*
X61403Y-36515D01*
X61460Y-36544D01*
X61489Y-36573D01*
X61517Y-36630D01*
X61517Y-36773D01*
X61489Y-36830D01*
X61460Y-36858D01*
X61403Y-36887D01*
X61231Y-36887D01*
X61174Y-36858D01*
X61146Y-36830D01*
X59260Y-38080D02*
X59231Y-38108D01*
X59145Y-38137D01*
X59088Y-38137D01*
X59003Y-38108D01*
X58945Y-38051D01*
X58917Y-37994D01*
X58888Y-37880D01*
X58888Y-37794D01*
X58917Y-37680D01*
X58945Y-37623D01*
X59003Y-37565D01*
X59088Y-37537D01*
X59145Y-37537D01*
X59231Y-37565D01*
X59260Y-37594D01*
X59517Y-38137D02*
X59517Y-37537D01*
X59517Y-37823D02*
X59860Y-37823D01*
X59860Y-38137D02*
X59860Y-37537D01*
X60489Y-38137D02*
X60289Y-37851D01*
X60146Y-38137D02*
X60146Y-37537D01*
X60374Y-37537D01*
X60432Y-37565D01*
X60460Y-37594D01*
X60489Y-37651D01*
X60489Y-37737D01*
X60460Y-37794D01*
X60432Y-37823D01*
X60374Y-37851D01*
X60146Y-37851D01*
X60746Y-38137D02*
X60746Y-37537D01*
X60889Y-37537D01*
X60974Y-37565D01*
X61032Y-37623D01*
X61060Y-37680D01*
X61089Y-37794D01*
X61089Y-37880D01*
X61060Y-37994D01*
X61032Y-38051D01*
X60974Y-38108D01*
X60889Y-38137D01*
X60746Y-38137D01*
X61460Y-37537D02*
X61574Y-37537D01*
X61632Y-37565D01*
X61689Y-37623D01*
X61717Y-37737D01*
X61717Y-37937D01*
X61689Y-38051D01*
X61632Y-38108D01*
X61574Y-38137D01*
X61460Y-38137D01*
X61403Y-38108D01*
X61346Y-38051D01*
X61317Y-37937D01*
X61317Y-37737D01*
X61346Y-37623D01*
X61403Y-37565D01*
X61460Y-37537D01*
X61889Y-37537D02*
X62232Y-37537D01*
X62061Y-38137D02*
X62061Y-37537D01*
G54D15*
X43676Y-50962D02*
X43676Y-50562D01*
X43810Y-50848D01*
X43943Y-50562D01*
X43943Y-50962D01*
X44095Y-50562D02*
X44343Y-50562D01*
X44209Y-50714D01*
X44267Y-50714D01*
X44305Y-50733D01*
X44324Y-50752D01*
X44343Y-50790D01*
X44343Y-50886D01*
X44324Y-50924D01*
X44305Y-50943D01*
X44267Y-50962D01*
X44152Y-50962D01*
X44114Y-50943D01*
X44095Y-50924D01*
G54D14*
X63596Y-32310D02*
X63310Y-32310D01*
X63453Y-32310D02*
X63453Y-31760D01*
X63405Y-31838D01*
X63358Y-31891D01*
X63310Y-31917D01*
X63810Y-32310D02*
X63810Y-31760D01*
X63977Y-32152D01*
X64143Y-31760D01*
X64143Y-32310D01*
X64643Y-32310D02*
X64357Y-32310D01*
X64500Y-32310D02*
X64500Y-31760D01*
X64452Y-31838D01*
X64405Y-31891D01*
X64357Y-31917D01*
G54D12*
X74343Y-48559D02*
X74429Y-48588D01*
X74572Y-48588D01*
X74629Y-48559D01*
X74658Y-48531D01*
X74686Y-48474D01*
X74686Y-48416D01*
X74658Y-48359D01*
X74629Y-48331D01*
X74572Y-48302D01*
X74458Y-48274D01*
X74400Y-48245D01*
X74372Y-48216D01*
X74343Y-48159D01*
X74343Y-48102D01*
X74372Y-48045D01*
X74400Y-48016D01*
X74458Y-47988D01*
X74600Y-47988D01*
X74686Y-48016D01*
X74943Y-48588D02*
X74943Y-47988D01*
X75171Y-47988D01*
X75229Y-48016D01*
X75257Y-48045D01*
X75286Y-48102D01*
X75286Y-48188D01*
X75257Y-48245D01*
X75229Y-48274D01*
X75171Y-48302D01*
X74943Y-48302D01*
X75857Y-48588D02*
X75514Y-48588D01*
X75686Y-48588D02*
X75686Y-47988D01*
X75629Y-48074D01*
X75571Y-48131D01*
X75514Y-48159D01*
X73929Y-46226D02*
X73929Y-45626D01*
X74157Y-45626D01*
X74215Y-45654D01*
X74243Y-45683D01*
X74272Y-45740D01*
X74272Y-45826D01*
X74243Y-45883D01*
X74215Y-45912D01*
X74157Y-45940D01*
X73929Y-45940D01*
X74529Y-46226D02*
X74529Y-45626D01*
X74815Y-45912D02*
X75015Y-45912D01*
X75101Y-46226D02*
X74815Y-46226D01*
X74815Y-45626D01*
X75101Y-45626D01*
X75301Y-45626D02*
X75701Y-45626D01*
X75301Y-46226D01*
X75701Y-46226D01*
X76043Y-45626D02*
X76157Y-45626D01*
X76215Y-45654D01*
X76272Y-45712D01*
X76300Y-45826D01*
X76300Y-46026D01*
X76272Y-46140D01*
X76215Y-46197D01*
X76157Y-46226D01*
X76043Y-46226D01*
X75986Y-46197D01*
X75929Y-46140D01*
X75900Y-46026D01*
X75900Y-45826D01*
X75929Y-45712D01*
X75986Y-45654D01*
X76043Y-45626D01*
G54D15*
X44176Y-32062D02*
X44176Y-31662D01*
X44310Y-31948D01*
X44443Y-31662D01*
X44443Y-32062D01*
X44614Y-31700D02*
X44633Y-31681D01*
X44671Y-31662D01*
X44767Y-31662D01*
X44805Y-31681D01*
X44824Y-31700D01*
X44843Y-31738D01*
X44843Y-31776D01*
X44824Y-31833D01*
X44595Y-32062D01*
X44843Y-32062D01*
X73676Y-31962D02*
X73676Y-31562D01*
X73810Y-31848D01*
X73943Y-31562D01*
X73943Y-31962D01*
X74343Y-31962D02*
X74114Y-31962D01*
X74228Y-31962D02*
X74228Y-31562D01*
X74190Y-31619D01*
X74152Y-31657D01*
X74114Y-31676D01*
X76176Y-50962D02*
X76176Y-50562D01*
X76310Y-50848D01*
X76443Y-50562D01*
X76443Y-50962D01*
X76805Y-50695D02*
X76805Y-50962D01*
X76709Y-50543D02*
X76614Y-50829D01*
X76862Y-50829D01*
G54D12*
X61343Y-48657D02*
X61829Y-48657D01*
X61886Y-48629D01*
X61914Y-48600D01*
X61943Y-48543D01*
X61943Y-48429D01*
X61914Y-48371D01*
X61886Y-48343D01*
X61829Y-48314D01*
X61343Y-48314D01*
X61400Y-48057D02*
X61371Y-48028D01*
X61343Y-47971D01*
X61343Y-47828D01*
X61371Y-47771D01*
X61400Y-47742D01*
X61457Y-47714D01*
X61514Y-47714D01*
X61600Y-47742D01*
X61943Y-48085D01*
X61943Y-47714D01*
X58343Y-50485D02*
X58343Y-50142D01*
X58943Y-50313D02*
X58343Y-50313D01*
X58629Y-49942D02*
X58629Y-49742D01*
X58943Y-49656D02*
X58943Y-49942D01*
X58343Y-49942D01*
X58343Y-49656D01*
X58629Y-49399D02*
X58629Y-49199D01*
X58943Y-49113D02*
X58943Y-49399D01*
X58343Y-49399D01*
X58343Y-49113D01*
X58943Y-48856D02*
X58343Y-48856D01*
X58943Y-48513D01*
X58343Y-48513D01*
X58914Y-48256D02*
X58943Y-48170D01*
X58943Y-48027D01*
X58914Y-47970D01*
X58886Y-47941D01*
X58829Y-47913D01*
X58771Y-47913D01*
X58714Y-47941D01*
X58686Y-47970D01*
X58657Y-48027D01*
X58629Y-48141D01*
X58600Y-48199D01*
X58571Y-48227D01*
X58514Y-48256D01*
X58457Y-48256D01*
X58400Y-48227D01*
X58371Y-48199D01*
X58343Y-48141D01*
X58343Y-47999D01*
X58371Y-47913D01*
X58657Y-47542D02*
X58943Y-47542D01*
X58343Y-47742D02*
X58657Y-47542D01*
X58343Y-47342D01*
X58343Y-47199D02*
X58343Y-46828D01*
X58571Y-47028D01*
X58571Y-46942D01*
X58600Y-46885D01*
X58629Y-46856D01*
X58686Y-46828D01*
X58829Y-46828D01*
X58886Y-46856D01*
X58914Y-46885D01*
X58943Y-46942D01*
X58943Y-47114D01*
X58914Y-47171D01*
X58886Y-47199D01*
X58886Y-46571D02*
X58914Y-46543D01*
X58943Y-46571D01*
X58914Y-46600D01*
X58886Y-46571D01*
X58943Y-46571D01*
X58943Y-45971D02*
X58943Y-46314D01*
X58943Y-46142D02*
X58343Y-46142D01*
X58429Y-46199D01*
X58486Y-46257D01*
X58514Y-46314D01*
X47343Y-48912D02*
X47829Y-48973D01*
X47886Y-48952D01*
X47914Y-48926D01*
X47943Y-48873D01*
X47943Y-48759D01*
X47914Y-48697D01*
X47886Y-48666D01*
X47829Y-48630D01*
X47343Y-48569D01*
X47914Y-48383D02*
X47943Y-48301D01*
X47943Y-48158D01*
X47914Y-48097D01*
X47886Y-48065D01*
X47829Y-48030D01*
X47771Y-48022D01*
X47714Y-48043D01*
X47686Y-48069D01*
X47657Y-48122D01*
X47629Y-48233D01*
X47600Y-48287D01*
X47571Y-48311D01*
X47514Y-48333D01*
X47457Y-48326D01*
X47400Y-48290D01*
X47371Y-48258D01*
X47343Y-48197D01*
X47343Y-48055D01*
X47371Y-47972D01*
X47629Y-47548D02*
X47657Y-47465D01*
X47686Y-47441D01*
X47743Y-47419D01*
X47829Y-47430D01*
X47886Y-47466D01*
X47914Y-47497D01*
X47943Y-47559D01*
X47943Y-47787D01*
X47343Y-47712D01*
X47343Y-47512D01*
X47371Y-47458D01*
X47400Y-47433D01*
X47457Y-47412D01*
X47514Y-47419D01*
X47571Y-47454D01*
X47600Y-47487D01*
X47629Y-47548D01*
X47629Y-47748D01*
G54D14*
X76942Y-32739D02*
X76926Y-32761D01*
X76876Y-32782D01*
X76842Y-32782D01*
X76792Y-32761D01*
X76759Y-32718D01*
X76742Y-32675D01*
X76726Y-32589D01*
X76726Y-32525D01*
X76742Y-32439D01*
X76759Y-32396D01*
X76792Y-32354D01*
X76842Y-32332D01*
X76876Y-32332D01*
X76926Y-32354D01*
X76942Y-32375D01*
X77076Y-32375D02*
X77092Y-32354D01*
X77126Y-32332D01*
X77209Y-32332D01*
X77242Y-32354D01*
X77259Y-32375D01*
X77276Y-32418D01*
X77276Y-32461D01*
X77259Y-32525D01*
X77059Y-32782D01*
X77276Y-32782D01*
X76259Y-31132D02*
X76292Y-31132D01*
X76326Y-31154D01*
X76342Y-31175D01*
X76359Y-31218D01*
X76376Y-31304D01*
X76376Y-31411D01*
X76359Y-31496D01*
X76342Y-31539D01*
X76326Y-31561D01*
X76292Y-31582D01*
X76259Y-31582D01*
X76226Y-31561D01*
X76209Y-31539D01*
X76192Y-31496D01*
X76176Y-31411D01*
X76176Y-31304D01*
X76192Y-31218D01*
X76209Y-31175D01*
X76226Y-31154D01*
X76259Y-31132D01*
X76525Y-31539D02*
X76542Y-31561D01*
X76525Y-31582D01*
X76509Y-31561D01*
X76525Y-31539D01*
X76525Y-31582D01*
X76759Y-31132D02*
X76792Y-31132D01*
X76826Y-31154D01*
X76842Y-31175D01*
X76859Y-31218D01*
X76876Y-31304D01*
X76876Y-31411D01*
X76859Y-31496D01*
X76842Y-31539D01*
X76826Y-31561D01*
X76792Y-31582D01*
X76759Y-31582D01*
X76726Y-31561D01*
X76709Y-31539D01*
X76692Y-31496D01*
X76676Y-31411D01*
X76676Y-31304D01*
X76692Y-31218D01*
X76709Y-31175D01*
X76726Y-31154D01*
X76759Y-31132D01*
X77209Y-31582D02*
X77009Y-31582D01*
X77109Y-31582D02*
X77109Y-31132D01*
X77075Y-31196D01*
X77042Y-31239D01*
X77009Y-31261D01*
X77508Y-31282D02*
X77508Y-31582D01*
X77358Y-31282D02*
X77358Y-31518D01*
X77375Y-31561D01*
X77408Y-31582D01*
X77458Y-31582D01*
X77492Y-31561D01*
X77508Y-31539D01*
X77792Y-31346D02*
X77675Y-31346D01*
X77675Y-31582D02*
X77675Y-31132D01*
X77842Y-31132D01*
G54D16*
X75829Y-32011D02*
X76172Y-32011D01*
X76001Y-32182D02*
X76001Y-31839D01*
M02*
