G04 (created by PCBNEW-RS274X (2012-apr-16-27)-stable) date Wed 26 Mar 2014 03:50:35 PM EDT*
G01*
G70*
G90*
%MOIN*%
G04 Gerber Fmt 3.4, Leading zero omitted, Abs format*
%FSLAX34Y34*%
G04 APERTURE LIST*
%ADD10C,0.006000*%
%ADD11C,0.012000*%
%ADD12C,0.000100*%
G04 APERTURE END LIST*
G54D10*
G54D11*
X67057Y-43024D02*
X67057Y-42605D01*
X67086Y-42529D01*
X67143Y-42490D01*
X67257Y-42490D01*
X67314Y-42529D01*
X67057Y-42986D02*
X67114Y-43024D01*
X67257Y-43024D01*
X67314Y-42986D01*
X67343Y-42910D01*
X67343Y-42833D01*
X67314Y-42757D01*
X67257Y-42719D01*
X67114Y-42719D01*
X67057Y-42681D01*
X66685Y-42567D02*
X66743Y-42529D01*
X66771Y-42490D01*
X66800Y-42414D01*
X66800Y-42376D01*
X66771Y-42300D01*
X66743Y-42262D01*
X66685Y-42224D01*
X66571Y-42224D01*
X66514Y-42262D01*
X66485Y-42300D01*
X66457Y-42376D01*
X66457Y-42414D01*
X66485Y-42490D01*
X66514Y-42529D01*
X66571Y-42567D01*
X66685Y-42567D01*
X66743Y-42605D01*
X66771Y-42643D01*
X66800Y-42719D01*
X66800Y-42871D01*
X66771Y-42948D01*
X66743Y-42986D01*
X66685Y-43024D01*
X66571Y-43024D01*
X66514Y-42986D01*
X66485Y-42948D01*
X66457Y-42871D01*
X66457Y-42719D01*
X66485Y-42643D01*
X66514Y-42605D01*
X66571Y-42567D01*
X67057Y-44024D02*
X67057Y-43605D01*
X67086Y-43529D01*
X67143Y-43490D01*
X67257Y-43490D01*
X67314Y-43529D01*
X67057Y-43986D02*
X67114Y-44024D01*
X67257Y-44024D01*
X67314Y-43986D01*
X67343Y-43910D01*
X67343Y-43833D01*
X67314Y-43757D01*
X67257Y-43719D01*
X67114Y-43719D01*
X67057Y-43681D01*
X66743Y-44024D02*
X66628Y-44024D01*
X66571Y-43986D01*
X66543Y-43948D01*
X66485Y-43833D01*
X66457Y-43681D01*
X66457Y-43376D01*
X66485Y-43300D01*
X66514Y-43262D01*
X66571Y-43224D01*
X66685Y-43224D01*
X66743Y-43262D01*
X66771Y-43300D01*
X66800Y-43376D01*
X66800Y-43567D01*
X66771Y-43643D01*
X66743Y-43681D01*
X66685Y-43719D01*
X66571Y-43719D01*
X66514Y-43681D01*
X66485Y-43643D01*
X66457Y-43567D01*
X67357Y-41490D02*
X67128Y-41490D01*
X67271Y-41224D02*
X67271Y-41910D01*
X67243Y-41986D01*
X67185Y-42024D01*
X67128Y-42024D01*
X66985Y-42024D02*
X66671Y-41490D01*
X66985Y-41490D02*
X66671Y-42024D01*
X67285Y-41024D02*
X67285Y-40490D01*
X67285Y-40643D02*
X67257Y-40567D01*
X67228Y-40529D01*
X67171Y-40490D01*
X67114Y-40490D01*
X66971Y-41024D02*
X66657Y-40490D01*
X66971Y-40490D02*
X66657Y-41024D01*
X67300Y-39986D02*
X67243Y-40024D01*
X67128Y-40024D01*
X67071Y-39986D01*
X67043Y-39910D01*
X67043Y-39871D01*
X67071Y-39795D01*
X67128Y-39757D01*
X67214Y-39757D01*
X67271Y-39719D01*
X67300Y-39643D01*
X67300Y-39605D01*
X67271Y-39529D01*
X67214Y-39490D01*
X67128Y-39490D01*
X67071Y-39529D01*
X66528Y-40024D02*
X66528Y-39224D01*
X66528Y-39986D02*
X66585Y-40024D01*
X66699Y-40024D01*
X66757Y-39986D01*
X66785Y-39948D01*
X66814Y-39871D01*
X66814Y-39643D01*
X66785Y-39567D01*
X66757Y-39529D01*
X66699Y-39490D01*
X66585Y-39490D01*
X66528Y-39529D01*
X67286Y-38886D02*
X67229Y-38924D01*
X67114Y-38924D01*
X67057Y-38886D01*
X67029Y-38810D01*
X67029Y-38771D01*
X67057Y-38695D01*
X67114Y-38657D01*
X67200Y-38657D01*
X67257Y-38619D01*
X67286Y-38543D01*
X67286Y-38505D01*
X67257Y-38429D01*
X67200Y-38390D01*
X67114Y-38390D01*
X67057Y-38429D01*
X66514Y-38886D02*
X66571Y-38924D01*
X66685Y-38924D01*
X66743Y-38886D01*
X66771Y-38848D01*
X66800Y-38771D01*
X66800Y-38543D01*
X66771Y-38467D01*
X66743Y-38429D01*
X66685Y-38390D01*
X66571Y-38390D01*
X66514Y-38429D01*
X67371Y-37986D02*
X67285Y-38024D01*
X67142Y-38024D01*
X67085Y-37986D01*
X67056Y-37948D01*
X67028Y-37871D01*
X67028Y-37795D01*
X67056Y-37719D01*
X67085Y-37681D01*
X67142Y-37643D01*
X67256Y-37605D01*
X67314Y-37567D01*
X67342Y-37529D01*
X67371Y-37452D01*
X67371Y-37376D01*
X67342Y-37300D01*
X67314Y-37262D01*
X67256Y-37224D01*
X67114Y-37224D01*
X67028Y-37262D01*
X66771Y-38024D02*
X66771Y-37224D01*
X66428Y-38024D02*
X66685Y-37567D01*
X66428Y-37224D02*
X66771Y-37681D01*
X67343Y-37024D02*
X67343Y-36224D01*
X67143Y-36795D01*
X66943Y-36224D01*
X66943Y-37024D01*
X66657Y-37024D02*
X66657Y-36224D01*
X67314Y-36124D02*
X67314Y-35324D01*
X67114Y-35895D01*
X66914Y-35324D01*
X66914Y-36124D01*
X66514Y-35324D02*
X66400Y-35324D01*
X66342Y-35362D01*
X66285Y-35438D01*
X66257Y-35590D01*
X66257Y-35857D01*
X66285Y-36010D01*
X66342Y-36086D01*
X66400Y-36124D01*
X66514Y-36124D01*
X66571Y-36086D01*
X66628Y-36010D01*
X66657Y-35857D01*
X66657Y-35590D01*
X66628Y-35438D01*
X66571Y-35362D01*
X66514Y-35324D01*
X66986Y-34362D02*
X67043Y-34324D01*
X67129Y-34324D01*
X67214Y-34362D01*
X67272Y-34438D01*
X67300Y-34514D01*
X67329Y-34667D01*
X67329Y-34781D01*
X67300Y-34933D01*
X67272Y-35010D01*
X67214Y-35086D01*
X67129Y-35124D01*
X67072Y-35124D01*
X66986Y-35086D01*
X66957Y-35048D01*
X66957Y-34781D01*
X67072Y-34781D01*
X66700Y-34590D02*
X66700Y-35124D01*
X66700Y-34667D02*
X66672Y-34629D01*
X66614Y-34590D01*
X66529Y-34590D01*
X66472Y-34629D01*
X66443Y-34705D01*
X66443Y-35124D01*
X65900Y-35124D02*
X65900Y-34324D01*
X65900Y-35086D02*
X65957Y-35124D01*
X66071Y-35124D01*
X66129Y-35086D01*
X66157Y-35048D01*
X66186Y-34971D01*
X66186Y-34743D01*
X66157Y-34667D01*
X66129Y-34629D01*
X66071Y-34590D01*
X65957Y-34590D01*
X65900Y-34629D01*
X67356Y-33324D02*
X66985Y-33324D01*
X67185Y-33629D01*
X67099Y-33629D01*
X67042Y-33667D01*
X67013Y-33705D01*
X66985Y-33781D01*
X66985Y-33971D01*
X67013Y-34048D01*
X67042Y-34086D01*
X67099Y-34124D01*
X67271Y-34124D01*
X67328Y-34086D01*
X67356Y-34048D01*
X66814Y-33324D02*
X66614Y-34124D01*
X66414Y-33324D01*
X67013Y-32224D02*
X67299Y-32224D01*
X67328Y-32605D01*
X67299Y-32567D01*
X67242Y-32529D01*
X67099Y-32529D01*
X67042Y-32567D01*
X67013Y-32605D01*
X66985Y-32681D01*
X66985Y-32871D01*
X67013Y-32948D01*
X67042Y-32986D01*
X67099Y-33024D01*
X67242Y-33024D01*
X67299Y-32986D01*
X67328Y-32948D01*
X66814Y-32224D02*
X66614Y-33024D01*
X66414Y-32224D01*
X48556Y-34490D02*
X48327Y-34490D01*
X48470Y-34224D02*
X48470Y-34910D01*
X48442Y-34986D01*
X48384Y-35024D01*
X48327Y-35024D01*
X47870Y-35024D02*
X47870Y-34605D01*
X47899Y-34529D01*
X47956Y-34490D01*
X48070Y-34490D01*
X48127Y-34529D01*
X47870Y-34986D02*
X47927Y-35024D01*
X48070Y-35024D01*
X48127Y-34986D01*
X48156Y-34910D01*
X48156Y-34833D01*
X48127Y-34757D01*
X48070Y-34719D01*
X47927Y-34719D01*
X47870Y-34681D01*
X47327Y-34490D02*
X47327Y-35138D01*
X47356Y-35214D01*
X47384Y-35252D01*
X47441Y-35290D01*
X47527Y-35290D01*
X47584Y-35252D01*
X47327Y-34986D02*
X47384Y-35024D01*
X47498Y-35024D01*
X47556Y-34986D01*
X47584Y-34948D01*
X47613Y-34871D01*
X47613Y-34643D01*
X47584Y-34567D01*
X47556Y-34529D01*
X47498Y-34490D01*
X47384Y-34490D01*
X47327Y-34529D01*
X46498Y-35024D02*
X46556Y-34986D01*
X46584Y-34910D01*
X46584Y-34224D01*
X46184Y-35024D02*
X46242Y-34986D01*
X46270Y-34948D01*
X46299Y-34871D01*
X46299Y-34643D01*
X46270Y-34567D01*
X46242Y-34529D01*
X46184Y-34490D01*
X46099Y-34490D01*
X46042Y-34529D01*
X46013Y-34567D01*
X45984Y-34643D01*
X45984Y-34871D01*
X46013Y-34948D01*
X46042Y-34986D01*
X46099Y-35024D01*
X46184Y-35024D01*
X45470Y-34490D02*
X45470Y-35138D01*
X45499Y-35214D01*
X45527Y-35252D01*
X45584Y-35290D01*
X45670Y-35290D01*
X45727Y-35252D01*
X45470Y-34986D02*
X45527Y-35024D01*
X45641Y-35024D01*
X45699Y-34986D01*
X45727Y-34948D01*
X45756Y-34871D01*
X45756Y-34643D01*
X45727Y-34567D01*
X45699Y-34529D01*
X45641Y-34490D01*
X45527Y-34490D01*
X45470Y-34529D01*
X44927Y-34490D02*
X44927Y-35138D01*
X44956Y-35214D01*
X44984Y-35252D01*
X45041Y-35290D01*
X45127Y-35290D01*
X45184Y-35252D01*
X44927Y-34986D02*
X44984Y-35024D01*
X45098Y-35024D01*
X45156Y-34986D01*
X45184Y-34948D01*
X45213Y-34871D01*
X45213Y-34643D01*
X45184Y-34567D01*
X45156Y-34529D01*
X45098Y-34490D01*
X44984Y-34490D01*
X44927Y-34529D01*
X44413Y-34986D02*
X44470Y-35024D01*
X44584Y-35024D01*
X44641Y-34986D01*
X44670Y-34910D01*
X44670Y-34605D01*
X44641Y-34529D01*
X44584Y-34490D01*
X44470Y-34490D01*
X44413Y-34529D01*
X44384Y-34605D01*
X44384Y-34681D01*
X44670Y-34757D01*
X44127Y-35024D02*
X44127Y-34490D01*
X44127Y-34643D02*
X44099Y-34567D01*
X44070Y-34529D01*
X44013Y-34490D01*
X43956Y-34490D01*
X43899Y-35100D02*
X43442Y-35100D01*
X43385Y-34224D02*
X43185Y-35024D01*
X42985Y-34224D01*
X42671Y-34224D02*
X42614Y-34224D01*
X42557Y-34262D01*
X42528Y-34300D01*
X42499Y-34376D01*
X42471Y-34529D01*
X42471Y-34719D01*
X42499Y-34871D01*
X42528Y-34948D01*
X42557Y-34986D01*
X42614Y-35024D01*
X42671Y-35024D01*
X42728Y-34986D01*
X42757Y-34948D01*
X42785Y-34871D01*
X42814Y-34719D01*
X42814Y-34529D01*
X42785Y-34376D01*
X42757Y-34300D01*
X42728Y-34262D01*
X42671Y-34224D01*
X41900Y-35024D02*
X42243Y-35024D01*
X42071Y-35024D02*
X42071Y-34224D01*
X42128Y-34338D01*
X42186Y-34414D01*
X42243Y-34452D01*
X48113Y-35540D02*
X48084Y-35502D01*
X48027Y-35464D01*
X47884Y-35464D01*
X47827Y-35502D01*
X47798Y-35540D01*
X47770Y-35616D01*
X47770Y-35692D01*
X47798Y-35807D01*
X48141Y-36264D01*
X47770Y-36264D01*
X47399Y-35464D02*
X47342Y-35464D01*
X47285Y-35502D01*
X47256Y-35540D01*
X47227Y-35616D01*
X47199Y-35769D01*
X47199Y-35959D01*
X47227Y-36111D01*
X47256Y-36188D01*
X47285Y-36226D01*
X47342Y-36264D01*
X47399Y-36264D01*
X47456Y-36226D01*
X47485Y-36188D01*
X47513Y-36111D01*
X47542Y-35959D01*
X47542Y-35769D01*
X47513Y-35616D01*
X47485Y-35540D01*
X47456Y-35502D01*
X47399Y-35464D01*
X46628Y-36264D02*
X46971Y-36264D01*
X46799Y-36264D02*
X46799Y-35464D01*
X46856Y-35578D01*
X46914Y-35654D01*
X46971Y-35692D01*
X46114Y-35730D02*
X46114Y-36264D01*
X46257Y-35426D02*
X46400Y-35997D01*
X46028Y-35997D01*
X45800Y-35959D02*
X45343Y-35959D01*
X44943Y-35464D02*
X44886Y-35464D01*
X44829Y-35502D01*
X44800Y-35540D01*
X44771Y-35616D01*
X44743Y-35769D01*
X44743Y-35959D01*
X44771Y-36111D01*
X44800Y-36188D01*
X44829Y-36226D01*
X44886Y-36264D01*
X44943Y-36264D01*
X45000Y-36226D01*
X45029Y-36188D01*
X45057Y-36111D01*
X45086Y-35959D01*
X45086Y-35769D01*
X45057Y-35616D01*
X45029Y-35540D01*
X45000Y-35502D01*
X44943Y-35464D01*
X44543Y-35464D02*
X44172Y-35464D01*
X44372Y-35769D01*
X44286Y-35769D01*
X44229Y-35807D01*
X44200Y-35845D01*
X44172Y-35921D01*
X44172Y-36111D01*
X44200Y-36188D01*
X44229Y-36226D01*
X44286Y-36264D01*
X44458Y-36264D01*
X44515Y-36226D01*
X44543Y-36188D01*
X43915Y-35959D02*
X43458Y-35959D01*
X43201Y-35540D02*
X43172Y-35502D01*
X43115Y-35464D01*
X42972Y-35464D01*
X42915Y-35502D01*
X42886Y-35540D01*
X42858Y-35616D01*
X42858Y-35692D01*
X42886Y-35807D01*
X43229Y-36264D01*
X42858Y-36264D01*
X42344Y-35464D02*
X42458Y-35464D01*
X42515Y-35502D01*
X42544Y-35540D01*
X42601Y-35654D01*
X42630Y-35807D01*
X42630Y-36111D01*
X42601Y-36188D01*
X42573Y-36226D01*
X42515Y-36264D01*
X42401Y-36264D01*
X42344Y-36226D01*
X42315Y-36188D01*
X42287Y-36111D01*
X42287Y-35921D01*
X42315Y-35845D01*
X42344Y-35807D01*
X42401Y-35769D01*
X42515Y-35769D01*
X42573Y-35807D01*
X42601Y-35845D01*
X42630Y-35921D01*
X49813Y-33305D02*
X50013Y-33305D01*
X50013Y-33724D02*
X50013Y-32924D01*
X49727Y-32924D01*
X49499Y-33724D02*
X49499Y-33190D01*
X49499Y-33343D02*
X49471Y-33267D01*
X49442Y-33229D01*
X49385Y-33190D01*
X49328Y-33190D01*
X48900Y-33686D02*
X48957Y-33724D01*
X49071Y-33724D01*
X49128Y-33686D01*
X49157Y-33610D01*
X49157Y-33305D01*
X49128Y-33229D01*
X49071Y-33190D01*
X48957Y-33190D01*
X48900Y-33229D01*
X48871Y-33305D01*
X48871Y-33381D01*
X49157Y-33457D01*
X48386Y-33686D02*
X48443Y-33724D01*
X48557Y-33724D01*
X48614Y-33686D01*
X48643Y-33610D01*
X48643Y-33305D01*
X48614Y-33229D01*
X48557Y-33190D01*
X48443Y-33190D01*
X48386Y-33229D01*
X48357Y-33305D01*
X48357Y-33381D01*
X48643Y-33457D01*
X48100Y-33724D02*
X48100Y-32924D01*
X48100Y-33229D02*
X48043Y-33190D01*
X47929Y-33190D01*
X47872Y-33229D01*
X47843Y-33267D01*
X47814Y-33343D01*
X47814Y-33571D01*
X47843Y-33648D01*
X47872Y-33686D01*
X47929Y-33724D01*
X48043Y-33724D01*
X48100Y-33686D01*
X47557Y-33724D02*
X47557Y-33190D01*
X47557Y-32924D02*
X47586Y-32962D01*
X47557Y-33000D01*
X47529Y-32962D01*
X47557Y-32924D01*
X47557Y-33000D01*
X47271Y-33724D02*
X47271Y-33190D01*
X47271Y-33343D02*
X47243Y-33267D01*
X47214Y-33229D01*
X47157Y-33190D01*
X47100Y-33190D01*
X46643Y-33724D02*
X46643Y-32924D01*
X46643Y-33686D02*
X46700Y-33724D01*
X46814Y-33724D01*
X46872Y-33686D01*
X46900Y-33648D01*
X46929Y-33571D01*
X46929Y-33343D01*
X46900Y-33267D01*
X46872Y-33229D01*
X46814Y-33190D01*
X46700Y-33190D01*
X46643Y-33229D01*
X45614Y-33724D02*
X45900Y-33724D01*
X45900Y-32924D01*
X45328Y-33724D02*
X45386Y-33686D01*
X45414Y-33648D01*
X45443Y-33571D01*
X45443Y-33343D01*
X45414Y-33267D01*
X45386Y-33229D01*
X45328Y-33190D01*
X45243Y-33190D01*
X45186Y-33229D01*
X45157Y-33267D01*
X45128Y-33343D01*
X45128Y-33571D01*
X45157Y-33648D01*
X45186Y-33686D01*
X45243Y-33724D01*
X45328Y-33724D01*
X44614Y-33190D02*
X44614Y-33838D01*
X44643Y-33914D01*
X44671Y-33952D01*
X44728Y-33990D01*
X44814Y-33990D01*
X44871Y-33952D01*
X44614Y-33686D02*
X44671Y-33724D01*
X44785Y-33724D01*
X44843Y-33686D01*
X44871Y-33648D01*
X44900Y-33571D01*
X44900Y-33343D01*
X44871Y-33267D01*
X44843Y-33229D01*
X44785Y-33190D01*
X44671Y-33190D01*
X44614Y-33229D01*
X44071Y-33190D02*
X44071Y-33838D01*
X44100Y-33914D01*
X44128Y-33952D01*
X44185Y-33990D01*
X44271Y-33990D01*
X44328Y-33952D01*
X44071Y-33686D02*
X44128Y-33724D01*
X44242Y-33724D01*
X44300Y-33686D01*
X44328Y-33648D01*
X44357Y-33571D01*
X44357Y-33343D01*
X44328Y-33267D01*
X44300Y-33229D01*
X44242Y-33190D01*
X44128Y-33190D01*
X44071Y-33229D01*
X43557Y-33686D02*
X43614Y-33724D01*
X43728Y-33724D01*
X43785Y-33686D01*
X43814Y-33610D01*
X43814Y-33305D01*
X43785Y-33229D01*
X43728Y-33190D01*
X43614Y-33190D01*
X43557Y-33229D01*
X43528Y-33305D01*
X43528Y-33381D01*
X43814Y-33457D01*
X43271Y-33724D02*
X43271Y-33190D01*
X43271Y-33343D02*
X43243Y-33267D01*
X43214Y-33229D01*
X43157Y-33190D01*
X43100Y-33190D01*
X42529Y-32924D02*
X42329Y-33724D01*
X42129Y-32924D01*
X41815Y-32924D02*
X41758Y-32924D01*
X41701Y-32962D01*
X41672Y-33000D01*
X41643Y-33076D01*
X41615Y-33229D01*
X41615Y-33419D01*
X41643Y-33571D01*
X41672Y-33648D01*
X41701Y-33686D01*
X41758Y-33724D01*
X41815Y-33724D01*
X41872Y-33686D01*
X41901Y-33648D01*
X41929Y-33571D01*
X41958Y-33419D01*
X41958Y-33229D01*
X41929Y-33076D01*
X41901Y-33000D01*
X41872Y-32962D01*
X41815Y-32924D01*
X41358Y-33648D02*
X41330Y-33686D01*
X41358Y-33724D01*
X41387Y-33686D01*
X41358Y-33648D01*
X41358Y-33724D01*
X40758Y-33724D02*
X41101Y-33724D01*
X40929Y-33724D02*
X40929Y-32924D01*
X40986Y-33038D01*
X41044Y-33114D01*
X41101Y-33152D01*
G54D12*
G36*
X44671Y-46010D02*
X44660Y-46136D01*
X44616Y-46245D01*
X44584Y-46284D01*
X44567Y-46297D01*
X44567Y-45998D01*
X44552Y-45883D01*
X44523Y-45798D01*
X44510Y-45781D01*
X44466Y-45746D01*
X44431Y-45757D01*
X44393Y-45799D01*
X44350Y-45893D01*
X44333Y-46018D01*
X44345Y-46141D01*
X44367Y-46202D01*
X44422Y-46254D01*
X44488Y-46262D01*
X44540Y-46226D01*
X44546Y-46213D01*
X44566Y-46117D01*
X44567Y-45998D01*
X44567Y-46297D01*
X44499Y-46351D01*
X44423Y-46358D01*
X44335Y-46308D01*
X44328Y-46302D01*
X44284Y-46258D01*
X44260Y-46201D01*
X44251Y-46111D01*
X44250Y-46023D01*
X44265Y-45849D01*
X44313Y-45734D01*
X44393Y-45675D01*
X44452Y-45666D01*
X44540Y-45696D01*
X44607Y-45774D01*
X44653Y-45884D01*
X44671Y-46010D01*
X44671Y-46010D01*
X44671Y-46010D01*
G37*
G36*
X45197Y-46297D02*
X45179Y-46324D01*
X45125Y-46345D01*
X45035Y-46363D01*
X44966Y-46353D01*
X44900Y-46323D01*
X44839Y-46267D01*
X44806Y-46188D01*
X44803Y-46109D01*
X44834Y-46053D01*
X44849Y-46045D01*
X44884Y-46024D01*
X44872Y-45992D01*
X44848Y-45965D01*
X44807Y-45880D01*
X44820Y-45795D01*
X44874Y-45723D01*
X44960Y-45679D01*
X45066Y-45676D01*
X45077Y-45678D01*
X45148Y-45709D01*
X45162Y-45741D01*
X45117Y-45760D01*
X45074Y-45760D01*
X44970Y-45770D01*
X44911Y-45808D01*
X44901Y-45861D01*
X44946Y-45916D01*
X45000Y-45943D01*
X45079Y-45982D01*
X45094Y-46014D01*
X45044Y-46036D01*
X45028Y-46039D01*
X44948Y-46077D01*
X44906Y-46147D01*
X44910Y-46212D01*
X44954Y-46252D01*
X45051Y-46266D01*
X45065Y-46266D01*
X45157Y-46275D01*
X45197Y-46297D01*
X45197Y-46297D01*
X45197Y-46297D01*
G37*
G36*
X45731Y-45927D02*
X45694Y-46015D01*
X45633Y-46065D01*
X45633Y-45892D01*
X45633Y-45883D01*
X45609Y-45803D01*
X45553Y-45759D01*
X45484Y-45763D01*
X45452Y-45785D01*
X45406Y-45865D01*
X45411Y-45944D01*
X45457Y-45995D01*
X45537Y-46009D01*
X45602Y-45970D01*
X45633Y-45892D01*
X45633Y-46065D01*
X45622Y-46075D01*
X45521Y-46091D01*
X45500Y-46088D01*
X45424Y-46083D01*
X45401Y-46115D01*
X45427Y-46189D01*
X45434Y-46202D01*
X45493Y-46253D01*
X45584Y-46266D01*
X45667Y-46276D01*
X45699Y-46302D01*
X45673Y-46334D01*
X45647Y-46346D01*
X45558Y-46364D01*
X45478Y-46337D01*
X45413Y-46288D01*
X45340Y-46187D01*
X45304Y-46053D01*
X45305Y-45911D01*
X45346Y-45786D01*
X45365Y-45758D01*
X45457Y-45683D01*
X45558Y-45671D01*
X45656Y-45723D01*
X45666Y-45733D01*
X45724Y-45827D01*
X45731Y-45927D01*
X45731Y-45927D01*
X45731Y-45927D01*
G37*
G36*
X46182Y-45830D02*
X46180Y-45837D01*
X46142Y-45848D01*
X46113Y-45830D01*
X46090Y-45820D01*
X46076Y-45844D01*
X46068Y-45912D01*
X46066Y-46034D01*
X46066Y-46062D01*
X46064Y-46200D01*
X46056Y-46283D01*
X46039Y-46324D01*
X46016Y-46333D01*
X45993Y-46322D01*
X45978Y-46281D01*
X45970Y-46201D01*
X45966Y-46069D01*
X45966Y-46000D01*
X45969Y-45860D01*
X45976Y-45749D01*
X45987Y-45681D01*
X45995Y-45666D01*
X46046Y-45686D01*
X46108Y-45733D01*
X46160Y-45787D01*
X46182Y-45830D01*
X46182Y-45830D01*
X46182Y-45830D01*
G37*
G36*
X48743Y-44266D02*
X48719Y-44284D01*
X48694Y-44294D01*
X48626Y-44306D01*
X48512Y-44311D01*
X48373Y-44309D01*
X48326Y-44307D01*
X48037Y-44291D01*
X47987Y-44166D01*
X47959Y-44104D01*
X47906Y-43992D01*
X47833Y-43837D01*
X47742Y-43649D01*
X47638Y-43437D01*
X47526Y-43209D01*
X47501Y-43158D01*
X47391Y-42933D01*
X47291Y-42725D01*
X47205Y-42542D01*
X47136Y-42394D01*
X47089Y-42287D01*
X47067Y-42229D01*
X47066Y-42223D01*
X47048Y-42164D01*
X47033Y-42150D01*
X47018Y-42109D01*
X47007Y-42018D01*
X47000Y-41893D01*
X47000Y-41829D01*
X46996Y-41677D01*
X46986Y-41582D01*
X46970Y-41548D01*
X46966Y-41550D01*
X46948Y-41592D01*
X46935Y-41679D01*
X46932Y-41760D01*
X46928Y-41868D01*
X46918Y-41915D01*
X46904Y-41905D01*
X46888Y-41844D01*
X46870Y-41736D01*
X46853Y-41588D01*
X46840Y-41449D01*
X46809Y-41050D01*
X46802Y-41366D01*
X46796Y-41683D01*
X46733Y-41533D01*
X46692Y-41402D01*
X46667Y-41257D01*
X46664Y-41216D01*
X46657Y-41050D01*
X46616Y-41283D01*
X46595Y-41383D01*
X46580Y-41437D01*
X46571Y-41437D01*
X46570Y-41428D01*
X46555Y-41374D01*
X46515Y-41269D01*
X46454Y-41124D01*
X46377Y-40948D01*
X46287Y-40750D01*
X46230Y-40628D01*
X46099Y-40344D01*
X45951Y-40012D01*
X45793Y-39648D01*
X45631Y-39267D01*
X45472Y-38884D01*
X45322Y-38515D01*
X45187Y-38173D01*
X45145Y-38066D01*
X45050Y-37816D01*
X45028Y-38166D01*
X45013Y-38363D01*
X44989Y-38584D01*
X44963Y-38789D01*
X44953Y-38850D01*
X44921Y-39073D01*
X44888Y-39356D01*
X44853Y-39690D01*
X44818Y-40069D01*
X44783Y-40484D01*
X44749Y-40929D01*
X44717Y-41394D01*
X44686Y-41874D01*
X44659Y-42361D01*
X44657Y-42392D01*
X44646Y-42476D01*
X44626Y-42522D01*
X44616Y-42525D01*
X44603Y-42489D01*
X44597Y-42395D01*
X44595Y-42250D01*
X44598Y-42063D01*
X44607Y-41842D01*
X44619Y-41594D01*
X44634Y-41329D01*
X44653Y-41053D01*
X44675Y-40775D01*
X44699Y-40503D01*
X44725Y-40246D01*
X44752Y-40016D01*
X44769Y-39883D01*
X44761Y-39897D01*
X44761Y-39783D01*
X44610Y-39773D01*
X44518Y-39768D01*
X44459Y-39770D01*
X44450Y-39773D01*
X44445Y-39808D01*
X44437Y-39896D01*
X44428Y-40023D01*
X44421Y-40150D01*
X44401Y-40516D01*
X44581Y-40150D01*
X44761Y-39783D01*
X44761Y-39897D01*
X44667Y-40074D01*
X44603Y-40221D01*
X44534Y-40429D01*
X44462Y-40692D01*
X44388Y-41004D01*
X44314Y-41360D01*
X44278Y-41550D01*
X44251Y-41699D01*
X44230Y-41835D01*
X44214Y-41968D01*
X44202Y-42111D01*
X44193Y-42275D01*
X44187Y-42473D01*
X44183Y-42717D01*
X44180Y-42933D01*
X44168Y-43850D01*
X44026Y-43878D01*
X43990Y-43885D01*
X43990Y-43791D01*
X43990Y-43779D01*
X43946Y-43771D01*
X43927Y-43777D01*
X43914Y-43792D01*
X43947Y-43797D01*
X43990Y-43791D01*
X43990Y-43885D01*
X43860Y-43912D01*
X43860Y-43754D01*
X43855Y-43744D01*
X43815Y-43740D01*
X43811Y-43744D01*
X43815Y-43764D01*
X43833Y-43766D01*
X43860Y-43754D01*
X43860Y-43912D01*
X43847Y-43915D01*
X43647Y-43961D01*
X43440Y-44011D01*
X43238Y-44063D01*
X43057Y-44112D01*
X42910Y-44155D01*
X42811Y-44188D01*
X42797Y-44193D01*
X42677Y-44262D01*
X42608Y-44347D01*
X42601Y-44363D01*
X42562Y-44434D01*
X42523Y-44468D01*
X42520Y-44469D01*
X42502Y-44477D01*
X42531Y-44493D01*
X42591Y-44511D01*
X42663Y-44525D01*
X42722Y-44530D01*
X42790Y-44526D01*
X42825Y-44496D01*
X42846Y-44422D01*
X42850Y-44399D01*
X42871Y-44318D01*
X42898Y-44285D01*
X42906Y-44287D01*
X42924Y-44332D01*
X42922Y-44416D01*
X42920Y-44433D01*
X42911Y-44515D01*
X42929Y-44555D01*
X42986Y-44575D01*
X43004Y-44579D01*
X43098Y-44595D01*
X43146Y-44591D01*
X43166Y-44561D01*
X43172Y-44525D01*
X43203Y-44461D01*
X43241Y-44439D01*
X43279Y-44442D01*
X43286Y-44483D01*
X43278Y-44530D01*
X43267Y-44610D01*
X43275Y-44629D01*
X43302Y-44589D01*
X43344Y-44494D01*
X43384Y-44391D01*
X43431Y-44272D01*
X43471Y-44177D01*
X43498Y-44125D01*
X43501Y-44121D01*
X43543Y-44102D01*
X43635Y-44076D01*
X43761Y-44046D01*
X43838Y-44029D01*
X43982Y-44000D01*
X44107Y-43974D01*
X44195Y-43956D01*
X44219Y-43951D01*
X44244Y-43942D01*
X44262Y-43925D01*
X44273Y-43890D01*
X44279Y-43826D01*
X44281Y-43726D01*
X44279Y-43578D01*
X44274Y-43375D01*
X44273Y-43342D01*
X44271Y-43110D01*
X44273Y-42863D01*
X44279Y-42624D01*
X44290Y-42417D01*
X44297Y-42333D01*
X44319Y-42121D01*
X44350Y-41878D01*
X44388Y-41619D01*
X44429Y-41361D01*
X44471Y-41119D01*
X44511Y-40909D01*
X44547Y-40748D01*
X44551Y-40733D01*
X44599Y-40550D01*
X44583Y-40750D01*
X44556Y-41088D01*
X44535Y-41410D01*
X44519Y-41732D01*
X44507Y-42066D01*
X44498Y-42428D01*
X44492Y-42832D01*
X44490Y-43134D01*
X44483Y-44333D01*
X43975Y-44333D01*
X43782Y-44335D01*
X43629Y-44340D01*
X43521Y-44349D01*
X43470Y-44360D01*
X43466Y-44365D01*
X43498Y-44376D01*
X43588Y-44387D01*
X43728Y-44396D01*
X43908Y-44403D01*
X44041Y-44406D01*
X44302Y-44408D01*
X44499Y-44404D01*
X44632Y-44393D01*
X44706Y-44376D01*
X44720Y-44352D01*
X44697Y-44331D01*
X44685Y-44314D01*
X44677Y-44277D01*
X44672Y-44211D01*
X44671Y-44113D01*
X44674Y-43974D01*
X44681Y-43789D01*
X44692Y-43552D01*
X44706Y-43256D01*
X44710Y-43177D01*
X44728Y-42838D01*
X44742Y-42561D01*
X44755Y-42337D01*
X44767Y-42163D01*
X44779Y-42030D01*
X44792Y-41934D01*
X44808Y-41868D01*
X44827Y-41826D01*
X44850Y-41802D01*
X44880Y-41791D01*
X44915Y-41785D01*
X44954Y-41780D01*
X45046Y-41770D01*
X45106Y-41769D01*
X45116Y-41772D01*
X45123Y-41807D01*
X45134Y-41899D01*
X45148Y-42037D01*
X45164Y-42209D01*
X45181Y-42406D01*
X45182Y-42417D01*
X45208Y-42710D01*
X45231Y-42953D01*
X45254Y-43159D01*
X45279Y-43346D01*
X45309Y-43528D01*
X45344Y-43722D01*
X45384Y-43924D01*
X45415Y-44082D01*
X45441Y-44217D01*
X45459Y-44316D01*
X45466Y-44364D01*
X45466Y-44365D01*
X45434Y-44382D01*
X45343Y-44394D01*
X45201Y-44402D01*
X45108Y-44405D01*
X44750Y-44410D01*
X45200Y-44438D01*
X45339Y-44444D01*
X45521Y-44448D01*
X45735Y-44450D01*
X45973Y-44450D01*
X46225Y-44449D01*
X46483Y-44447D01*
X46737Y-44443D01*
X46979Y-44438D01*
X47199Y-44432D01*
X47388Y-44425D01*
X47538Y-44417D01*
X47639Y-44409D01*
X47683Y-44400D01*
X47733Y-44383D01*
X47825Y-44366D01*
X47893Y-44358D01*
X48071Y-44342D01*
X47968Y-44436D01*
X47904Y-44503D01*
X47869Y-44556D01*
X47866Y-44567D01*
X47866Y-44482D01*
X47836Y-44477D01*
X47756Y-44477D01*
X47644Y-44483D01*
X47641Y-44483D01*
X47394Y-44501D01*
X47209Y-44519D01*
X47086Y-44535D01*
X47027Y-44551D01*
X47026Y-44562D01*
X47054Y-44606D01*
X47081Y-44692D01*
X47090Y-44734D01*
X47116Y-44883D01*
X47126Y-44761D01*
X47147Y-44670D01*
X47184Y-44621D01*
X47187Y-44619D01*
X47255Y-44618D01*
X47305Y-44636D01*
X47359Y-44651D01*
X47427Y-44638D01*
X47529Y-44591D01*
X47541Y-44585D01*
X47623Y-44546D01*
X47668Y-44534D01*
X47668Y-44547D01*
X47614Y-44588D01*
X47523Y-44635D01*
X47480Y-44652D01*
X47377Y-44704D01*
X47334Y-44757D01*
X47333Y-44771D01*
X47348Y-44822D01*
X47366Y-44833D01*
X47393Y-44805D01*
X47400Y-44766D01*
X47424Y-44718D01*
X47476Y-44697D01*
X47526Y-44710D01*
X47538Y-44730D01*
X47573Y-44743D01*
X47639Y-44724D01*
X47717Y-44684D01*
X47787Y-44631D01*
X47828Y-44580D01*
X47856Y-44514D01*
X47866Y-44482D01*
X47866Y-44567D01*
X47887Y-44575D01*
X47940Y-44549D01*
X48008Y-44500D01*
X48074Y-44440D01*
X48112Y-44395D01*
X48167Y-44347D01*
X48211Y-44338D01*
X48215Y-44362D01*
X48164Y-44419D01*
X48062Y-44505D01*
X48050Y-44515D01*
X47953Y-44593D01*
X47882Y-44655D01*
X47849Y-44689D01*
X47848Y-44693D01*
X47885Y-44687D01*
X47962Y-44652D01*
X48065Y-44598D01*
X48179Y-44530D01*
X48289Y-44459D01*
X48311Y-44443D01*
X48399Y-44384D01*
X48463Y-44348D01*
X48487Y-44342D01*
X48471Y-44368D01*
X48411Y-44418D01*
X48321Y-44482D01*
X48213Y-44552D01*
X48101Y-44618D01*
X48000Y-44672D01*
X47938Y-44700D01*
X47805Y-44771D01*
X47719Y-44851D01*
X47719Y-44755D01*
X47698Y-44752D01*
X47651Y-44772D01*
X47581Y-44814D01*
X47571Y-44854D01*
X47587Y-44876D01*
X47631Y-44882D01*
X47683Y-44827D01*
X47700Y-44798D01*
X47719Y-44755D01*
X47719Y-44851D01*
X47685Y-44884D01*
X47650Y-44928D01*
X47548Y-45043D01*
X47430Y-45157D01*
X47360Y-45215D01*
X47338Y-45231D01*
X47338Y-44973D01*
X47333Y-44969D01*
X47274Y-44959D01*
X47161Y-44949D01*
X47005Y-44939D01*
X46919Y-44934D01*
X46919Y-44561D01*
X46917Y-44538D01*
X46861Y-44539D01*
X46834Y-44544D01*
X46731Y-44560D01*
X46645Y-44566D01*
X46594Y-44574D01*
X46571Y-44611D01*
X46566Y-44694D01*
X46566Y-44700D01*
X46569Y-44792D01*
X46586Y-44826D01*
X46625Y-44809D01*
X46666Y-44775D01*
X46717Y-44711D01*
X46733Y-44659D01*
X46758Y-44611D01*
X46814Y-44600D01*
X46886Y-44585D01*
X46919Y-44561D01*
X46919Y-44934D01*
X46819Y-44929D01*
X46616Y-44921D01*
X46466Y-44914D01*
X46466Y-44616D01*
X46445Y-44581D01*
X46373Y-44570D01*
X46341Y-44570D01*
X46276Y-44576D01*
X46264Y-44585D01*
X46275Y-44589D01*
X46324Y-44617D01*
X46333Y-44635D01*
X46361Y-44660D01*
X46400Y-44666D01*
X46454Y-44645D01*
X46466Y-44616D01*
X46466Y-44914D01*
X46374Y-44911D01*
X46114Y-44899D01*
X45984Y-44891D01*
X45984Y-44584D01*
X45927Y-44580D01*
X45820Y-44576D01*
X45672Y-44573D01*
X45500Y-44571D01*
X45293Y-44568D01*
X45096Y-44563D01*
X44924Y-44557D01*
X44792Y-44550D01*
X44733Y-44545D01*
X44550Y-44523D01*
X44631Y-44612D01*
X44688Y-44667D01*
X44721Y-44675D01*
X44742Y-44649D01*
X44775Y-44619D01*
X44840Y-44610D01*
X44943Y-44617D01*
X45125Y-44643D01*
X45273Y-44672D01*
X45379Y-44704D01*
X45433Y-44735D01*
X45437Y-44744D01*
X45446Y-44751D01*
X45456Y-44725D01*
X45483Y-44675D01*
X45502Y-44666D01*
X45532Y-44692D01*
X45533Y-44700D01*
X45558Y-44732D01*
X45566Y-44733D01*
X45596Y-44706D01*
X45600Y-44685D01*
X45606Y-44662D01*
X45632Y-44644D01*
X45690Y-44629D01*
X45789Y-44613D01*
X45941Y-44593D01*
X45983Y-44588D01*
X45984Y-44584D01*
X45984Y-44891D01*
X45859Y-44885D01*
X45634Y-44872D01*
X45516Y-44864D01*
X45361Y-44852D01*
X45174Y-44834D01*
X44964Y-44813D01*
X44741Y-44790D01*
X44516Y-44765D01*
X44298Y-44740D01*
X44099Y-44716D01*
X43926Y-44695D01*
X43792Y-44676D01*
X43705Y-44662D01*
X43676Y-44654D01*
X43687Y-44626D01*
X43736Y-44582D01*
X43804Y-44537D01*
X43870Y-44506D01*
X43900Y-44500D01*
X43969Y-44524D01*
X44000Y-44550D01*
X44074Y-44595D01*
X44157Y-44586D01*
X44191Y-44561D01*
X44238Y-44540D01*
X44277Y-44561D01*
X44345Y-44585D01*
X44406Y-44560D01*
X44433Y-44497D01*
X44433Y-44496D01*
X44429Y-44472D01*
X44410Y-44455D01*
X44367Y-44443D01*
X44289Y-44437D01*
X44167Y-44434D01*
X43991Y-44433D01*
X43932Y-44433D01*
X43431Y-44433D01*
X43397Y-44522D01*
X43381Y-44593D01*
X43390Y-44634D01*
X43451Y-44662D01*
X43569Y-44695D01*
X43735Y-44730D01*
X43940Y-44766D01*
X44175Y-44801D01*
X44430Y-44833D01*
X44431Y-44833D01*
X44606Y-44852D01*
X44779Y-44869D01*
X44959Y-44886D01*
X45158Y-44902D01*
X45384Y-44918D01*
X45647Y-44936D01*
X45958Y-44956D01*
X46316Y-44977D01*
X46455Y-44984D01*
X46613Y-44988D01*
X46779Y-44990D01*
X46943Y-44990D01*
X47092Y-44989D01*
X47215Y-44985D01*
X47301Y-44980D01*
X47338Y-44973D01*
X47338Y-45231D01*
X47233Y-45310D01*
X47233Y-45133D01*
X47207Y-45100D01*
X47200Y-45100D01*
X47167Y-45125D01*
X47166Y-45133D01*
X47192Y-45165D01*
X47200Y-45166D01*
X47232Y-45141D01*
X47233Y-45133D01*
X47233Y-45310D01*
X47203Y-45333D01*
X47133Y-45333D01*
X47133Y-45133D01*
X47106Y-45103D01*
X47083Y-45100D01*
X47038Y-45117D01*
X47033Y-45133D01*
X47060Y-45162D01*
X47083Y-45166D01*
X47127Y-45148D01*
X47133Y-45133D01*
X47133Y-45333D01*
X46433Y-45333D01*
X46433Y-45116D01*
X46415Y-45072D01*
X46400Y-45066D01*
X46370Y-45093D01*
X46366Y-45116D01*
X46384Y-45161D01*
X46400Y-45166D01*
X46429Y-45139D01*
X46433Y-45116D01*
X46433Y-45333D01*
X46297Y-45333D01*
X46297Y-45094D01*
X46291Y-45080D01*
X46251Y-45073D01*
X46218Y-45103D01*
X46219Y-45138D01*
X46255Y-45152D01*
X46276Y-45136D01*
X46297Y-45094D01*
X46297Y-45333D01*
X46133Y-45333D01*
X46133Y-45100D01*
X46107Y-45067D01*
X46100Y-45066D01*
X46067Y-45092D01*
X46066Y-45100D01*
X46092Y-45132D01*
X46100Y-45133D01*
X46132Y-45107D01*
X46133Y-45100D01*
X46133Y-45333D01*
X45022Y-45333D01*
X44735Y-45333D01*
X44735Y-45024D01*
X44714Y-44998D01*
X44680Y-45017D01*
X44671Y-45035D01*
X44682Y-45063D01*
X44698Y-45061D01*
X44734Y-45033D01*
X44735Y-45024D01*
X44735Y-45333D01*
X44566Y-45333D01*
X44566Y-45000D01*
X44541Y-44967D01*
X44533Y-44966D01*
X44500Y-44992D01*
X44500Y-45000D01*
X44525Y-45032D01*
X44533Y-45033D01*
X44565Y-45007D01*
X44566Y-45000D01*
X44566Y-45333D01*
X44369Y-45333D01*
X44369Y-44990D01*
X44347Y-44964D01*
X44314Y-44983D01*
X44305Y-45001D01*
X44315Y-45030D01*
X44331Y-45028D01*
X44367Y-45000D01*
X44369Y-44990D01*
X44369Y-45333D01*
X44200Y-45333D01*
X44200Y-44966D01*
X44174Y-44934D01*
X44166Y-44933D01*
X44134Y-44958D01*
X44133Y-44966D01*
X44158Y-44999D01*
X44166Y-45000D01*
X44199Y-44974D01*
X44200Y-44966D01*
X44200Y-45333D01*
X42927Y-45333D01*
X42927Y-45073D01*
X42926Y-45041D01*
X42892Y-44993D01*
X42835Y-44985D01*
X42785Y-45016D01*
X42771Y-45048D01*
X42768Y-45093D01*
X42796Y-45082D01*
X42812Y-45069D01*
X42857Y-45045D01*
X42866Y-45062D01*
X42891Y-45098D01*
X42902Y-45100D01*
X42927Y-45073D01*
X42927Y-45333D01*
X42841Y-45333D01*
X42621Y-45100D01*
X42518Y-44986D01*
X42433Y-44883D01*
X42433Y-44466D01*
X42407Y-44434D01*
X42398Y-44433D01*
X42378Y-44453D01*
X42383Y-44466D01*
X42413Y-44498D01*
X42418Y-44500D01*
X42432Y-44474D01*
X42433Y-44466D01*
X42433Y-44883D01*
X42427Y-44876D01*
X42363Y-44788D01*
X42361Y-44784D01*
X42361Y-44382D01*
X42357Y-44348D01*
X42339Y-44326D01*
X42305Y-44307D01*
X42300Y-44321D01*
X42316Y-44369D01*
X42349Y-44389D01*
X42361Y-44382D01*
X42361Y-44784D01*
X42347Y-44760D01*
X42294Y-44645D01*
X42262Y-44549D01*
X42255Y-44484D01*
X42270Y-44466D01*
X42282Y-44442D01*
X42265Y-44397D01*
X42241Y-44312D01*
X42264Y-44256D01*
X42327Y-44241D01*
X42341Y-44244D01*
X42359Y-44246D01*
X42378Y-44238D01*
X42399Y-44215D01*
X42426Y-44174D01*
X42460Y-44109D01*
X42504Y-44015D01*
X42559Y-43887D01*
X42629Y-43720D01*
X42714Y-43511D01*
X42818Y-43253D01*
X42943Y-42942D01*
X43063Y-42639D01*
X43228Y-42228D01*
X43393Y-41819D01*
X43555Y-41415D01*
X43715Y-41022D01*
X43868Y-40646D01*
X44014Y-40289D01*
X44151Y-39958D01*
X44275Y-39657D01*
X44387Y-39391D01*
X44482Y-39165D01*
X44560Y-38983D01*
X44619Y-38850D01*
X44657Y-38771D01*
X44668Y-38751D01*
X44687Y-38736D01*
X44695Y-38742D01*
X44692Y-38776D01*
X44677Y-38848D01*
X44647Y-38965D01*
X44601Y-39136D01*
X44589Y-39181D01*
X44589Y-39011D01*
X44584Y-39016D01*
X44573Y-39038D01*
X44554Y-39079D01*
X44526Y-39144D01*
X44487Y-39234D01*
X44437Y-39355D01*
X44374Y-39508D01*
X44297Y-39697D01*
X44204Y-39925D01*
X44094Y-40195D01*
X43965Y-40512D01*
X43817Y-40877D01*
X43648Y-41294D01*
X43457Y-41767D01*
X43244Y-42292D01*
X43079Y-42703D01*
X42937Y-43056D01*
X42817Y-43356D01*
X42718Y-43607D01*
X42637Y-43814D01*
X42575Y-43980D01*
X42528Y-44111D01*
X42495Y-44210D01*
X42474Y-44282D01*
X42465Y-44331D01*
X42465Y-44361D01*
X42468Y-44370D01*
X42502Y-44417D01*
X42521Y-44423D01*
X42539Y-44390D01*
X42583Y-44305D01*
X42648Y-44177D01*
X42731Y-44013D01*
X42826Y-43821D01*
X42922Y-43628D01*
X43033Y-43402D01*
X43166Y-43129D01*
X43313Y-42826D01*
X43467Y-42507D01*
X43622Y-42186D01*
X43769Y-41878D01*
X43833Y-41744D01*
X44358Y-40639D01*
X44382Y-40178D01*
X44399Y-39926D01*
X44425Y-39716D01*
X44463Y-39521D01*
X44502Y-39368D01*
X44540Y-39226D01*
X44569Y-39110D01*
X44586Y-39034D01*
X44589Y-39011D01*
X44589Y-39181D01*
X44583Y-39204D01*
X44540Y-39366D01*
X44504Y-39505D01*
X44478Y-39608D01*
X44467Y-39663D01*
X44466Y-39667D01*
X44496Y-39686D01*
X44572Y-39698D01*
X44626Y-39699D01*
X44785Y-39699D01*
X44883Y-39024D01*
X44915Y-38793D01*
X44942Y-38559D01*
X44965Y-38339D01*
X44980Y-38151D01*
X44986Y-38016D01*
X44992Y-37683D01*
X44946Y-37850D01*
X44923Y-37951D01*
X44912Y-38026D01*
X44914Y-38050D01*
X44926Y-38051D01*
X44930Y-38019D01*
X44940Y-37975D01*
X44952Y-37975D01*
X44953Y-38015D01*
X44932Y-38095D01*
X44897Y-38197D01*
X44892Y-38209D01*
X44892Y-38082D01*
X44888Y-38077D01*
X44869Y-38082D01*
X44866Y-38100D01*
X44878Y-38127D01*
X44888Y-38122D01*
X44892Y-38082D01*
X44892Y-38209D01*
X44856Y-38301D01*
X44815Y-38386D01*
X44782Y-38433D01*
X44771Y-38420D01*
X44780Y-38349D01*
X44807Y-38225D01*
X44836Y-38109D01*
X44900Y-37873D01*
X44950Y-37698D01*
X44986Y-37581D01*
X45011Y-37517D01*
X45025Y-37502D01*
X45030Y-37525D01*
X45043Y-37590D01*
X45079Y-37708D01*
X45134Y-37869D01*
X45203Y-38064D01*
X45284Y-38283D01*
X45374Y-38517D01*
X45468Y-38757D01*
X45563Y-38994D01*
X45656Y-39218D01*
X45684Y-39283D01*
X45776Y-39495D01*
X45877Y-39724D01*
X45982Y-39961D01*
X46089Y-40200D01*
X46194Y-40431D01*
X46292Y-40646D01*
X46381Y-40838D01*
X46456Y-40998D01*
X46513Y-41118D01*
X46550Y-41191D01*
X46561Y-41208D01*
X46573Y-41184D01*
X46590Y-41104D01*
X46612Y-40976D01*
X46637Y-40811D01*
X46663Y-40616D01*
X46668Y-40575D01*
X46695Y-40354D01*
X46716Y-40194D01*
X46732Y-40089D01*
X46744Y-40034D01*
X46752Y-40024D01*
X46759Y-40052D01*
X46766Y-40114D01*
X46767Y-40133D01*
X46776Y-40204D01*
X46794Y-40284D01*
X46822Y-40381D01*
X46864Y-40502D01*
X46923Y-40655D01*
X47001Y-40847D01*
X47101Y-41085D01*
X47206Y-41333D01*
X47317Y-41591D01*
X47428Y-41847D01*
X47532Y-42088D01*
X47627Y-42304D01*
X47707Y-42485D01*
X47767Y-42618D01*
X47781Y-42650D01*
X47897Y-42891D01*
X48025Y-43138D01*
X48156Y-43380D01*
X48287Y-43607D01*
X48409Y-43806D01*
X48517Y-43968D01*
X48604Y-44081D01*
X48611Y-44089D01*
X48693Y-44180D01*
X48736Y-44235D01*
X48743Y-44266D01*
X48743Y-44266D01*
X48743Y-44266D01*
G37*
G36*
X50212Y-44181D02*
X50191Y-44201D01*
X50140Y-44203D01*
X50048Y-44186D01*
X49956Y-44163D01*
X49833Y-44132D01*
X49732Y-44110D01*
X49673Y-44100D01*
X49670Y-44100D01*
X49672Y-44120D01*
X49715Y-44175D01*
X49791Y-44254D01*
X49837Y-44297D01*
X49938Y-44393D01*
X49997Y-44456D01*
X50020Y-44497D01*
X50014Y-44528D01*
X49996Y-44549D01*
X49963Y-44576D01*
X49924Y-44586D01*
X49860Y-44577D01*
X49757Y-44550D01*
X49701Y-44533D01*
X49584Y-44500D01*
X49495Y-44479D01*
X49449Y-44473D01*
X49447Y-44474D01*
X49463Y-44502D01*
X49516Y-44563D01*
X49596Y-44647D01*
X49617Y-44667D01*
X49724Y-44781D01*
X49786Y-44866D01*
X49801Y-44918D01*
X49774Y-44933D01*
X49740Y-44911D01*
X49672Y-44851D01*
X49581Y-44764D01*
X49519Y-44702D01*
X49398Y-44573D01*
X49328Y-44481D01*
X49309Y-44425D01*
X49310Y-44419D01*
X49337Y-44383D01*
X49387Y-44370D01*
X49473Y-44380D01*
X49606Y-44415D01*
X49666Y-44433D01*
X49777Y-44466D01*
X49861Y-44490D01*
X49898Y-44499D01*
X49899Y-44499D01*
X49884Y-44478D01*
X49831Y-44419D01*
X49751Y-44335D01*
X49703Y-44286D01*
X49590Y-44163D01*
X49530Y-44077D01*
X49523Y-44023D01*
X49567Y-44001D01*
X49589Y-44000D01*
X49644Y-44007D01*
X49745Y-44026D01*
X49875Y-44055D01*
X49935Y-44068D01*
X50086Y-44107D01*
X50176Y-44140D01*
X50212Y-44169D01*
X50212Y-44181D01*
X50212Y-44181D01*
X50212Y-44181D01*
G37*
G36*
X41580Y-44511D02*
X41559Y-44544D01*
X41507Y-44587D01*
X41416Y-44647D01*
X41278Y-44730D01*
X41194Y-44779D01*
X41087Y-44832D01*
X41027Y-44841D01*
X41016Y-44832D01*
X41002Y-44792D01*
X41004Y-44786D01*
X41037Y-44765D01*
X41111Y-44720D01*
X41211Y-44658D01*
X41225Y-44650D01*
X41325Y-44588D01*
X41399Y-44542D01*
X41432Y-44520D01*
X41433Y-44520D01*
X41402Y-44518D01*
X41319Y-44517D01*
X41199Y-44516D01*
X41125Y-44516D01*
X40953Y-44511D01*
X40845Y-44495D01*
X40802Y-44465D01*
X40822Y-44417D01*
X40905Y-44350D01*
X41051Y-44259D01*
X41059Y-44254D01*
X41195Y-44175D01*
X41283Y-44127D01*
X41335Y-44107D01*
X41359Y-44110D01*
X41366Y-44133D01*
X41366Y-44142D01*
X41339Y-44179D01*
X41269Y-44236D01*
X41169Y-44302D01*
X41158Y-44308D01*
X40950Y-44432D01*
X41254Y-44432D01*
X41406Y-44435D01*
X41503Y-44443D01*
X41557Y-44459D01*
X41578Y-44483D01*
X41580Y-44511D01*
X41580Y-44511D01*
X41580Y-44511D01*
G37*
G36*
X45995Y-44400D02*
X45800Y-44400D01*
X45605Y-44400D01*
X45537Y-44108D01*
X45475Y-43809D01*
X45416Y-43463D01*
X45363Y-43086D01*
X45316Y-42696D01*
X45279Y-42308D01*
X45252Y-41940D01*
X45238Y-41608D01*
X45237Y-41400D01*
X45241Y-41150D01*
X45284Y-41466D01*
X45355Y-41919D01*
X45444Y-42392D01*
X45548Y-42868D01*
X45661Y-43327D01*
X45781Y-43751D01*
X45863Y-44008D01*
X45995Y-44400D01*
X45995Y-44400D01*
X45995Y-44400D01*
G37*
G36*
X46559Y-44400D02*
X46333Y-44400D01*
X46107Y-44400D01*
X45987Y-44064D01*
X45925Y-43884D01*
X45859Y-43681D01*
X45792Y-43463D01*
X45727Y-43241D01*
X45665Y-43024D01*
X45610Y-42821D01*
X45565Y-42642D01*
X45531Y-42497D01*
X45512Y-42394D01*
X45511Y-42345D01*
X45512Y-42342D01*
X45530Y-42361D01*
X45557Y-42426D01*
X45567Y-42456D01*
X45650Y-42687D01*
X45762Y-42955D01*
X45893Y-43242D01*
X46036Y-43530D01*
X46180Y-43800D01*
X46317Y-44034D01*
X46376Y-44126D01*
X46559Y-44400D01*
X46559Y-44400D01*
X46559Y-44400D01*
G37*
G36*
X47692Y-44351D02*
X47657Y-44355D01*
X47568Y-44362D01*
X47435Y-44370D01*
X47271Y-44379D01*
X47183Y-44383D01*
X46683Y-44407D01*
X46513Y-44162D01*
X46236Y-43719D01*
X45984Y-43227D01*
X45760Y-42700D01*
X45573Y-42155D01*
X45426Y-41604D01*
X45345Y-41183D01*
X45323Y-41007D01*
X45305Y-40782D01*
X45290Y-40522D01*
X45280Y-40246D01*
X45275Y-39970D01*
X45275Y-39710D01*
X45281Y-39482D01*
X45290Y-39333D01*
X45318Y-39016D01*
X45380Y-39200D01*
X45454Y-39410D01*
X45546Y-39665D01*
X45654Y-39951D01*
X45772Y-40260D01*
X45897Y-40578D01*
X46023Y-40896D01*
X46147Y-41203D01*
X46263Y-41487D01*
X46369Y-41738D01*
X46459Y-41944D01*
X46508Y-42050D01*
X46626Y-42295D01*
X46765Y-42576D01*
X46917Y-42877D01*
X47074Y-43184D01*
X47230Y-43484D01*
X47377Y-43761D01*
X47508Y-44001D01*
X47580Y-44129D01*
X47637Y-44233D01*
X47677Y-44312D01*
X47692Y-44350D01*
X47692Y-44351D01*
X47692Y-44351D01*
X47692Y-44351D01*
G37*
G36*
X47933Y-44284D02*
X47904Y-44296D01*
X47858Y-44299D01*
X47779Y-44266D01*
X47721Y-44191D01*
X47684Y-44124D01*
X47623Y-44011D01*
X47546Y-43866D01*
X47458Y-43701D01*
X47412Y-43613D01*
X47319Y-43433D01*
X47252Y-43299D01*
X47209Y-43198D01*
X47183Y-43117D01*
X47170Y-43044D01*
X47166Y-42966D01*
X47166Y-42936D01*
X47166Y-42728D01*
X47550Y-43498D01*
X47653Y-43706D01*
X47746Y-43894D01*
X47824Y-44054D01*
X47884Y-44178D01*
X47921Y-44257D01*
X47933Y-44284D01*
X47933Y-44284D01*
X47933Y-44284D01*
G37*
G36*
X41188Y-43811D02*
X41153Y-43935D01*
X41101Y-43994D01*
X41101Y-43769D01*
X41073Y-43677D01*
X40999Y-43614D01*
X40898Y-43595D01*
X40789Y-43614D01*
X40691Y-43663D01*
X40622Y-43739D01*
X40600Y-43821D01*
X40627Y-43923D01*
X40700Y-43993D01*
X40801Y-44026D01*
X40914Y-44015D01*
X41012Y-43964D01*
X41080Y-43875D01*
X41101Y-43769D01*
X41101Y-43994D01*
X41061Y-44041D01*
X41025Y-44066D01*
X40881Y-44125D01*
X40748Y-44122D01*
X40633Y-44057D01*
X40624Y-44048D01*
X40538Y-43927D01*
X40514Y-43802D01*
X40540Y-43709D01*
X40626Y-43595D01*
X40742Y-43522D01*
X40872Y-43493D01*
X40997Y-43513D01*
X41084Y-43567D01*
X41166Y-43683D01*
X41188Y-43811D01*
X41188Y-43811D01*
X41188Y-43811D01*
G37*
G36*
X50415Y-43596D02*
X50399Y-43685D01*
X50328Y-43803D01*
X50321Y-43807D01*
X50321Y-43641D01*
X50320Y-43544D01*
X50270Y-43457D01*
X50181Y-43394D01*
X50059Y-43366D01*
X50047Y-43366D01*
X49929Y-43391D01*
X49856Y-43463D01*
X49833Y-43566D01*
X49862Y-43667D01*
X49936Y-43744D01*
X50038Y-43788D01*
X50147Y-43792D01*
X50247Y-43750D01*
X50266Y-43733D01*
X50321Y-43641D01*
X50321Y-43807D01*
X50219Y-43876D01*
X50083Y-43897D01*
X49946Y-43867D01*
X49839Y-43794D01*
X49767Y-43685D01*
X49742Y-43565D01*
X49745Y-43536D01*
X49795Y-43397D01*
X49889Y-43306D01*
X50022Y-43267D01*
X50051Y-43266D01*
X50200Y-43292D01*
X50316Y-43364D01*
X50391Y-43469D01*
X50415Y-43596D01*
X50415Y-43596D01*
X50415Y-43596D01*
G37*
G36*
X44596Y-43448D02*
X44593Y-43595D01*
X44591Y-43625D01*
X44586Y-43661D01*
X44581Y-43638D01*
X44579Y-43560D01*
X44578Y-43466D01*
X44579Y-43350D01*
X44582Y-43284D01*
X44587Y-43274D01*
X44591Y-43308D01*
X44596Y-43448D01*
X44596Y-43448D01*
X44596Y-43448D01*
G37*
G36*
X41000Y-43213D02*
X40969Y-43256D01*
X40887Y-43294D01*
X40875Y-43297D01*
X40765Y-43328D01*
X40634Y-43366D01*
X40583Y-43382D01*
X40468Y-43415D01*
X40403Y-43429D01*
X40374Y-43423D01*
X40366Y-43398D01*
X40366Y-43388D01*
X40397Y-43355D01*
X40485Y-43315D01*
X40619Y-43271D01*
X40625Y-43269D01*
X40754Y-43233D01*
X40864Y-43201D01*
X40933Y-43181D01*
X40941Y-43179D01*
X40990Y-43184D01*
X41000Y-43213D01*
X41000Y-43213D01*
X41000Y-43213D01*
G37*
G36*
X40894Y-42830D02*
X40891Y-42841D01*
X40854Y-42866D01*
X40768Y-42896D01*
X40649Y-42926D01*
X40614Y-42933D01*
X40350Y-42985D01*
X40360Y-43092D01*
X40356Y-43170D01*
X40331Y-43199D01*
X40300Y-43172D01*
X40284Y-43125D01*
X40245Y-42952D01*
X40219Y-42833D01*
X40207Y-42759D01*
X40207Y-42719D01*
X40218Y-42703D01*
X40239Y-42700D01*
X40250Y-42700D01*
X40290Y-42728D01*
X40300Y-42781D01*
X40309Y-42849D01*
X40325Y-42878D01*
X40369Y-42880D01*
X40458Y-42869D01*
X40567Y-42848D01*
X40724Y-42817D01*
X40826Y-42804D01*
X40879Y-42808D01*
X40894Y-42830D01*
X40894Y-42830D01*
X40894Y-42830D01*
G37*
G36*
X44629Y-42885D02*
X44625Y-43009D01*
X44624Y-43025D01*
X44618Y-43053D01*
X44614Y-43020D01*
X44611Y-42936D01*
X44611Y-42883D01*
X44612Y-42780D01*
X44616Y-42728D01*
X44621Y-42734D01*
X44624Y-42759D01*
X44629Y-42885D01*
X44629Y-42885D01*
X44629Y-42885D01*
G37*
G36*
X50625Y-42810D02*
X50603Y-42930D01*
X50541Y-43036D01*
X50525Y-43050D01*
X50525Y-42788D01*
X50477Y-42694D01*
X50464Y-42680D01*
X50374Y-42633D01*
X50263Y-42616D01*
X50158Y-42631D01*
X50083Y-42677D01*
X50080Y-42682D01*
X50037Y-42784D01*
X50043Y-42889D01*
X50096Y-42972D01*
X50107Y-42981D01*
X50210Y-43022D01*
X50329Y-43029D01*
X50436Y-43002D01*
X50472Y-42978D01*
X50523Y-42891D01*
X50525Y-42788D01*
X50525Y-43050D01*
X50510Y-43065D01*
X50393Y-43120D01*
X50253Y-43132D01*
X50119Y-43102D01*
X50057Y-43066D01*
X49973Y-42965D01*
X49943Y-42847D01*
X49961Y-42727D01*
X50020Y-42619D01*
X50116Y-42539D01*
X50242Y-42501D01*
X50273Y-42500D01*
X50373Y-42524D01*
X50483Y-42584D01*
X50573Y-42662D01*
X50600Y-42701D01*
X50625Y-42810D01*
X50625Y-42810D01*
X50625Y-42810D01*
G37*
G36*
X47060Y-42628D02*
X47059Y-42710D01*
X47050Y-42916D01*
X46975Y-42754D01*
X46937Y-42648D01*
X46911Y-42530D01*
X46899Y-42417D01*
X46902Y-42325D01*
X46920Y-42272D01*
X46935Y-42266D01*
X46978Y-42297D01*
X47017Y-42378D01*
X47045Y-42494D01*
X47060Y-42628D01*
X47060Y-42628D01*
X47060Y-42628D01*
G37*
G36*
X40827Y-42302D02*
X40775Y-42407D01*
X40756Y-42427D01*
X40687Y-42467D01*
X40584Y-42500D01*
X40466Y-42522D01*
X40348Y-42532D01*
X40248Y-42530D01*
X40182Y-42512D01*
X40166Y-42488D01*
X40179Y-42455D01*
X40228Y-42438D01*
X40327Y-42433D01*
X40345Y-42433D01*
X40530Y-42421D01*
X40654Y-42385D01*
X40720Y-42324D01*
X40733Y-42270D01*
X40723Y-42191D01*
X40686Y-42141D01*
X40611Y-42113D01*
X40487Y-42101D01*
X40393Y-42100D01*
X40271Y-42096D01*
X40179Y-42087D01*
X40135Y-42074D01*
X40133Y-42070D01*
X40165Y-42036D01*
X40258Y-42013D01*
X40405Y-42001D01*
X40476Y-42000D01*
X40596Y-42005D01*
X40675Y-42025D01*
X40737Y-42067D01*
X40751Y-42081D01*
X40819Y-42188D01*
X40827Y-42302D01*
X40827Y-42302D01*
X40827Y-42302D01*
G37*
G36*
X46796Y-42310D02*
X46793Y-42355D01*
X46781Y-42397D01*
X46766Y-42378D01*
X46756Y-42353D01*
X46743Y-42294D01*
X46749Y-42273D01*
X46779Y-42268D01*
X46796Y-42310D01*
X46796Y-42310D01*
X46796Y-42310D01*
G37*
G36*
X50696Y-42183D02*
X50693Y-42260D01*
X50684Y-42303D01*
X50663Y-42332D01*
X50618Y-42348D01*
X50600Y-42349D01*
X50600Y-42150D01*
X50572Y-42023D01*
X50495Y-41937D01*
X50377Y-41900D01*
X50355Y-41900D01*
X50236Y-41927D01*
X50153Y-42011D01*
X50113Y-42124D01*
X50104Y-42192D01*
X50124Y-42224D01*
X50190Y-42238D01*
X50221Y-42242D01*
X50346Y-42253D01*
X50472Y-42260D01*
X50475Y-42261D01*
X50556Y-42260D01*
X50591Y-42238D01*
X50599Y-42175D01*
X50600Y-42150D01*
X50600Y-42349D01*
X50537Y-42353D01*
X50411Y-42350D01*
X50258Y-42342D01*
X50033Y-42330D01*
X50033Y-42162D01*
X50040Y-42049D01*
X50069Y-41971D01*
X50130Y-41897D01*
X50251Y-41817D01*
X50387Y-41802D01*
X50533Y-41850D01*
X50613Y-41924D01*
X50670Y-42043D01*
X50696Y-42183D01*
X50696Y-42183D01*
X50696Y-42183D01*
G37*
G36*
X46799Y-42021D02*
X46792Y-42116D01*
X46756Y-42163D01*
X46737Y-42166D01*
X46677Y-42136D01*
X46636Y-42074D01*
X46615Y-41960D01*
X46620Y-41787D01*
X46624Y-41749D01*
X46650Y-41516D01*
X46725Y-41720D01*
X46776Y-41886D01*
X46799Y-42021D01*
X46799Y-42021D01*
X46799Y-42021D01*
G37*
G36*
X46933Y-42135D02*
X46907Y-42165D01*
X46900Y-42166D01*
X46870Y-42139D01*
X46866Y-42114D01*
X46882Y-42080D01*
X46900Y-42083D01*
X46932Y-42125D01*
X46933Y-42135D01*
X46933Y-42135D01*
X46933Y-42135D01*
G37*
G36*
X40834Y-41630D02*
X40795Y-41649D01*
X40694Y-41661D01*
X40533Y-41666D01*
X40391Y-41667D01*
X40303Y-41671D01*
X40255Y-41683D01*
X40236Y-41705D01*
X40233Y-41742D01*
X40233Y-41748D01*
X40220Y-41817D01*
X40191Y-41855D01*
X40159Y-41847D01*
X40155Y-41842D01*
X40146Y-41792D01*
X40147Y-41703D01*
X40155Y-41595D01*
X40168Y-41488D01*
X40185Y-41399D01*
X40204Y-41348D01*
X40212Y-41343D01*
X40239Y-41381D01*
X40250Y-41452D01*
X40253Y-41508D01*
X40275Y-41538D01*
X40332Y-41552D01*
X40433Y-41558D01*
X40612Y-41571D01*
X40741Y-41589D01*
X40815Y-41610D01*
X40834Y-41630D01*
X40834Y-41630D01*
X40834Y-41630D01*
G37*
G36*
X46561Y-41648D02*
X46555Y-41675D01*
X46544Y-41676D01*
X46539Y-41624D01*
X46539Y-41616D01*
X46544Y-41564D01*
X46554Y-41569D01*
X46556Y-41575D01*
X46561Y-41648D01*
X46561Y-41648D01*
X46561Y-41648D01*
G37*
G36*
X45133Y-41166D02*
X45131Y-41328D01*
X45125Y-41446D01*
X45113Y-41527D01*
X45093Y-41579D01*
X45064Y-41610D01*
X45024Y-41628D01*
X44971Y-41638D01*
X44904Y-41651D01*
X44791Y-41673D01*
X44815Y-41278D01*
X44827Y-41095D01*
X44843Y-40871D01*
X44861Y-40632D01*
X44879Y-40403D01*
X44883Y-40354D01*
X44901Y-40143D01*
X44919Y-39989D01*
X44938Y-39884D01*
X44962Y-39819D01*
X44995Y-39783D01*
X45038Y-39769D01*
X45075Y-39767D01*
X45092Y-39771D01*
X45105Y-39787D01*
X45115Y-39824D01*
X45123Y-39888D01*
X45128Y-39988D01*
X45131Y-40129D01*
X45132Y-40319D01*
X45133Y-40566D01*
X45133Y-40681D01*
X45133Y-40953D01*
X45133Y-41166D01*
X45133Y-41166D01*
X45133Y-41166D01*
G37*
G36*
X50666Y-41426D02*
X50650Y-41544D01*
X50598Y-41611D01*
X50503Y-41633D01*
X50496Y-41633D01*
X50420Y-41614D01*
X50355Y-41549D01*
X50332Y-41514D01*
X50267Y-41432D01*
X50205Y-41405D01*
X50187Y-41406D01*
X50139Y-41426D01*
X50119Y-41478D01*
X50116Y-41541D01*
X50104Y-41630D01*
X50074Y-41665D01*
X50038Y-41643D01*
X50012Y-41577D01*
X50012Y-41464D01*
X50062Y-41369D01*
X50150Y-41312D01*
X50183Y-41305D01*
X50255Y-41308D01*
X50319Y-41346D01*
X50387Y-41418D01*
X50465Y-41498D01*
X50525Y-41525D01*
X50550Y-41521D01*
X50589Y-41486D01*
X50591Y-41417D01*
X50588Y-41399D01*
X50582Y-41326D01*
X50607Y-41300D01*
X50617Y-41300D01*
X50652Y-41324D01*
X50666Y-41402D01*
X50666Y-41426D01*
X50666Y-41426D01*
X50666Y-41426D01*
G37*
G36*
X40863Y-41238D02*
X40849Y-41259D01*
X40802Y-41268D01*
X40703Y-41264D01*
X40567Y-41249D01*
X40508Y-41240D01*
X40354Y-41214D01*
X40258Y-41189D01*
X40209Y-41163D01*
X40200Y-41142D01*
X40218Y-41107D01*
X40282Y-41108D01*
X40291Y-41109D01*
X40375Y-41123D01*
X40494Y-41140D01*
X40587Y-41151D01*
X40744Y-41175D01*
X40837Y-41204D01*
X40863Y-41238D01*
X40863Y-41238D01*
X40863Y-41238D01*
G37*
G36*
X40933Y-40853D02*
X40931Y-40880D01*
X40917Y-40893D01*
X40878Y-40892D01*
X40802Y-40877D01*
X40678Y-40845D01*
X40635Y-40834D01*
X40514Y-40805D01*
X40417Y-40788D01*
X40364Y-40785D01*
X40360Y-40787D01*
X40339Y-40829D01*
X40333Y-40885D01*
X40314Y-40951D01*
X40279Y-40966D01*
X40241Y-40948D01*
X40245Y-40891D01*
X40264Y-40816D01*
X40289Y-40706D01*
X40304Y-40641D01*
X40336Y-40537D01*
X40371Y-40478D01*
X40402Y-40469D01*
X40420Y-40514D01*
X40421Y-40572D01*
X40421Y-40625D01*
X40436Y-40661D01*
X40478Y-40687D01*
X40561Y-40713D01*
X40675Y-40742D01*
X40821Y-40785D01*
X40908Y-40824D01*
X40933Y-40853D01*
X40933Y-40853D01*
X40933Y-40853D01*
G37*
G36*
X50564Y-40685D02*
X50552Y-40713D01*
X50489Y-40750D01*
X50379Y-40791D01*
X50340Y-40803D01*
X50170Y-40849D01*
X50053Y-40877D01*
X49979Y-40888D01*
X49937Y-40884D01*
X49917Y-40868D01*
X49929Y-40835D01*
X49984Y-40800D01*
X50058Y-40773D01*
X50113Y-40766D01*
X50165Y-40754D01*
X50173Y-40748D01*
X50177Y-40707D01*
X50161Y-40633D01*
X50135Y-40550D01*
X50105Y-40483D01*
X50079Y-40455D01*
X50078Y-40455D01*
X49941Y-40480D01*
X49857Y-40493D01*
X49815Y-40494D01*
X49802Y-40483D01*
X49806Y-40462D01*
X49845Y-40430D01*
X49931Y-40392D01*
X50047Y-40353D01*
X50173Y-40318D01*
X50292Y-40293D01*
X50386Y-40282D01*
X50437Y-40290D01*
X50438Y-40291D01*
X50443Y-40321D01*
X50392Y-40350D01*
X50337Y-40369D01*
X50251Y-40396D01*
X50211Y-40424D01*
X50208Y-40473D01*
X50232Y-40564D01*
X50235Y-40576D01*
X50270Y-40703D01*
X50422Y-40680D01*
X50522Y-40673D01*
X50564Y-40685D01*
X50564Y-40685D01*
X50564Y-40685D01*
G37*
G36*
X44626Y-40512D02*
X44620Y-40524D01*
X44604Y-40514D01*
X44602Y-40480D01*
X44610Y-40444D01*
X44622Y-40460D01*
X44626Y-40512D01*
X44626Y-40512D01*
X44626Y-40512D01*
G37*
G36*
X41118Y-40224D02*
X41111Y-40290D01*
X41066Y-40389D01*
X41045Y-40425D01*
X40978Y-40480D01*
X40887Y-40500D01*
X40802Y-40480D01*
X40771Y-40455D01*
X40741Y-40395D01*
X40712Y-40302D01*
X40707Y-40280D01*
X40678Y-40188D01*
X40633Y-40146D01*
X40606Y-40139D01*
X40551Y-40145D01*
X40521Y-40194D01*
X40511Y-40232D01*
X40483Y-40303D01*
X40449Y-40320D01*
X40427Y-40285D01*
X40428Y-40230D01*
X40468Y-40123D01*
X40543Y-40055D01*
X40630Y-40040D01*
X40715Y-40082D01*
X40780Y-40186D01*
X40815Y-40308D01*
X40853Y-40376D01*
X40913Y-40398D01*
X40976Y-40377D01*
X41022Y-40319D01*
X41033Y-40260D01*
X41057Y-40209D01*
X41085Y-40200D01*
X41118Y-40224D01*
X41118Y-40224D01*
X41118Y-40224D01*
G37*
G36*
X50252Y-39818D02*
X50250Y-39949D01*
X50187Y-40058D01*
X50164Y-40075D01*
X50164Y-39824D01*
X50121Y-39717D01*
X50048Y-39667D01*
X49948Y-39659D01*
X49841Y-39686D01*
X49747Y-39742D01*
X49685Y-39821D01*
X49672Y-39863D01*
X49682Y-39945D01*
X49714Y-40018D01*
X49792Y-40082D01*
X49899Y-40100D01*
X50014Y-40070D01*
X50078Y-40030D01*
X50150Y-39937D01*
X50164Y-39824D01*
X50164Y-40075D01*
X50089Y-40134D01*
X49946Y-40192D01*
X49813Y-40188D01*
X49699Y-40123D01*
X49691Y-40115D01*
X49604Y-39992D01*
X49583Y-39865D01*
X49626Y-39741D01*
X49733Y-39627D01*
X49741Y-39621D01*
X49868Y-39563D01*
X49999Y-39562D01*
X50118Y-39612D01*
X50208Y-39706D01*
X50252Y-39818D01*
X50252Y-39818D01*
X50252Y-39818D01*
G37*
G36*
X41399Y-39658D02*
X41397Y-39684D01*
X41381Y-39694D01*
X41342Y-39684D01*
X41267Y-39650D01*
X41145Y-39589D01*
X41129Y-39581D01*
X41024Y-39531D01*
X40950Y-39503D01*
X40919Y-39500D01*
X40920Y-39506D01*
X40951Y-39553D01*
X41009Y-39638D01*
X41082Y-39743D01*
X41093Y-39759D01*
X41176Y-39892D01*
X41215Y-39990D01*
X41208Y-40048D01*
X41159Y-40062D01*
X41111Y-40045D01*
X41022Y-40003D01*
X40910Y-39945D01*
X40883Y-39930D01*
X40769Y-39868D01*
X40678Y-39820D01*
X40624Y-39793D01*
X40619Y-39790D01*
X40604Y-39758D01*
X40612Y-39740D01*
X40647Y-39729D01*
X40723Y-39750D01*
X40846Y-39806D01*
X40871Y-39819D01*
X40976Y-39868D01*
X41050Y-39896D01*
X41081Y-39899D01*
X41080Y-39893D01*
X41049Y-39846D01*
X40992Y-39761D01*
X40919Y-39657D01*
X40910Y-39645D01*
X40829Y-39514D01*
X40790Y-39415D01*
X40793Y-39353D01*
X40836Y-39333D01*
X40888Y-39349D01*
X40975Y-39390D01*
X41083Y-39447D01*
X41194Y-39512D01*
X41295Y-39574D01*
X41368Y-39626D01*
X41399Y-39657D01*
X41399Y-39658D01*
X41399Y-39658D01*
X41399Y-39658D01*
G37*
G36*
X45095Y-39420D02*
X45087Y-39536D01*
X45067Y-39612D01*
X45033Y-39656D01*
X45005Y-39671D01*
X44958Y-39685D01*
X44938Y-39671D01*
X44937Y-39615D01*
X44946Y-39541D01*
X44958Y-39437D01*
X44976Y-39292D01*
X44996Y-39128D01*
X45006Y-39050D01*
X45047Y-38716D01*
X45074Y-39033D01*
X45090Y-39255D01*
X45095Y-39420D01*
X45095Y-39420D01*
X45095Y-39420D01*
G37*
G36*
X49965Y-39241D02*
X49939Y-39271D01*
X49870Y-39325D01*
X49775Y-39392D01*
X49668Y-39464D01*
X49564Y-39529D01*
X49479Y-39577D01*
X49428Y-39599D01*
X49425Y-39600D01*
X49398Y-39574D01*
X49350Y-39510D01*
X49321Y-39467D01*
X49269Y-39382D01*
X49237Y-39317D01*
X49233Y-39300D01*
X49248Y-39266D01*
X49288Y-39284D01*
X49343Y-39348D01*
X49365Y-39381D01*
X49437Y-39497D01*
X49668Y-39348D01*
X49802Y-39265D01*
X49891Y-39218D01*
X49941Y-39204D01*
X49963Y-39220D01*
X49965Y-39241D01*
X49965Y-39241D01*
X49965Y-39241D01*
G37*
G36*
X41548Y-39436D02*
X41530Y-39456D01*
X41503Y-39460D01*
X41457Y-39442D01*
X41379Y-39397D01*
X41260Y-39322D01*
X41225Y-39299D01*
X41081Y-39202D01*
X40993Y-39129D01*
X40964Y-39084D01*
X40994Y-39066D01*
X41001Y-39066D01*
X41049Y-39083D01*
X41131Y-39128D01*
X41232Y-39191D01*
X41339Y-39262D01*
X41436Y-39332D01*
X41510Y-39391D01*
X41546Y-39429D01*
X41548Y-39436D01*
X41548Y-39436D01*
X41548Y-39436D01*
G37*
G36*
X45226Y-38900D02*
X45218Y-39037D01*
X45200Y-39150D01*
X45187Y-39174D01*
X45178Y-39133D01*
X45174Y-39027D01*
X45172Y-38933D01*
X45174Y-38784D01*
X45181Y-38697D01*
X45193Y-38673D01*
X45200Y-38683D01*
X45219Y-38773D01*
X45226Y-38900D01*
X45226Y-38900D01*
X45226Y-38900D01*
G37*
G36*
X49666Y-38800D02*
X49642Y-38828D01*
X49578Y-38884D01*
X49489Y-38957D01*
X49389Y-39036D01*
X49292Y-39110D01*
X49213Y-39168D01*
X49166Y-39198D01*
X49160Y-39200D01*
X49132Y-39176D01*
X49077Y-39115D01*
X49035Y-39063D01*
X48967Y-38965D01*
X48952Y-38905D01*
X48958Y-38894D01*
X49000Y-38894D01*
X49060Y-38957D01*
X49064Y-38964D01*
X49131Y-39041D01*
X49189Y-39061D01*
X49253Y-39027D01*
X49271Y-39012D01*
X49308Y-38971D01*
X49309Y-38934D01*
X49270Y-38872D01*
X49263Y-38862D01*
X49218Y-38780D01*
X49217Y-38736D01*
X49253Y-38738D01*
X49318Y-38796D01*
X49323Y-38802D01*
X49380Y-38866D01*
X49416Y-38884D01*
X49452Y-38861D01*
X49476Y-38838D01*
X49516Y-38793D01*
X49522Y-38755D01*
X49490Y-38700D01*
X49467Y-38667D01*
X49418Y-38585D01*
X49414Y-38545D01*
X49448Y-38550D01*
X49511Y-38602D01*
X49553Y-38647D01*
X49617Y-38725D01*
X49658Y-38783D01*
X49666Y-38800D01*
X49666Y-38800D01*
X49666Y-38800D01*
G37*
G36*
X41966Y-38735D02*
X41948Y-38847D01*
X41903Y-38953D01*
X41843Y-39029D01*
X41815Y-39045D01*
X41762Y-39064D01*
X41737Y-39059D01*
X41725Y-39047D01*
X41733Y-39014D01*
X41778Y-38958D01*
X41786Y-38949D01*
X41854Y-38842D01*
X41867Y-38725D01*
X41825Y-38618D01*
X41778Y-38569D01*
X41663Y-38508D01*
X41553Y-38514D01*
X41446Y-38586D01*
X41433Y-38600D01*
X41370Y-38662D01*
X41326Y-38697D01*
X41319Y-38700D01*
X41297Y-38678D01*
X41314Y-38624D01*
X41365Y-38553D01*
X41401Y-38515D01*
X41527Y-38432D01*
X41659Y-38413D01*
X41786Y-38456D01*
X41870Y-38526D01*
X41946Y-38643D01*
X41966Y-38735D01*
X41966Y-38735D01*
X41966Y-38735D01*
G37*
G36*
X42231Y-38549D02*
X42226Y-38589D01*
X42183Y-38577D01*
X42104Y-38515D01*
X41992Y-38405D01*
X41971Y-38383D01*
X41859Y-38259D01*
X41793Y-38174D01*
X41769Y-38124D01*
X41785Y-38102D01*
X41804Y-38100D01*
X41841Y-38123D01*
X41908Y-38183D01*
X41992Y-38266D01*
X42079Y-38358D01*
X42157Y-38446D01*
X42212Y-38515D01*
X42231Y-38549D01*
X42231Y-38549D01*
X42231Y-38549D01*
G37*
G36*
X48976Y-38197D02*
X48955Y-38275D01*
X48886Y-38387D01*
X48886Y-38152D01*
X48884Y-38102D01*
X48824Y-38002D01*
X48734Y-37951D01*
X48631Y-37950D01*
X48531Y-38000D01*
X48464Y-38078D01*
X48414Y-38170D01*
X48406Y-38237D01*
X48439Y-38306D01*
X48469Y-38345D01*
X48558Y-38418D01*
X48662Y-38426D01*
X48735Y-38399D01*
X48803Y-38337D01*
X48858Y-38246D01*
X48886Y-38152D01*
X48886Y-38387D01*
X48870Y-38413D01*
X48760Y-38496D01*
X48636Y-38520D01*
X48505Y-38482D01*
X48468Y-38460D01*
X48382Y-38380D01*
X48330Y-38290D01*
X48328Y-38284D01*
X48326Y-38159D01*
X48378Y-38034D01*
X48472Y-37927D01*
X48533Y-37887D01*
X48614Y-37849D01*
X48676Y-37844D01*
X48755Y-37869D01*
X48776Y-37878D01*
X48895Y-37957D01*
X48964Y-38069D01*
X48976Y-38197D01*
X48976Y-38197D01*
X48976Y-38197D01*
G37*
G36*
X42766Y-38148D02*
X42762Y-38152D01*
X42717Y-38144D01*
X42652Y-38089D01*
X42634Y-38067D01*
X42561Y-37998D01*
X42494Y-37985D01*
X42418Y-38030D01*
X42358Y-38090D01*
X42324Y-38135D01*
X42324Y-38175D01*
X42360Y-38235D01*
X42382Y-38265D01*
X42434Y-38353D01*
X42443Y-38412D01*
X42407Y-38431D01*
X42406Y-38431D01*
X42377Y-38406D01*
X42318Y-38339D01*
X42239Y-38242D01*
X42188Y-38178D01*
X42093Y-38050D01*
X42040Y-37964D01*
X42023Y-37911D01*
X42031Y-37888D01*
X42074Y-37869D01*
X42093Y-37885D01*
X42129Y-37937D01*
X42173Y-37998D01*
X42230Y-38076D01*
X42348Y-37986D01*
X42419Y-37928D01*
X42461Y-37887D01*
X42466Y-37878D01*
X42449Y-37841D01*
X42405Y-37775D01*
X42395Y-37760D01*
X42351Y-37678D01*
X42357Y-37629D01*
X42393Y-37638D01*
X42460Y-37701D01*
X42558Y-37816D01*
X42595Y-37863D01*
X42699Y-38004D01*
X42756Y-38100D01*
X42766Y-38148D01*
X42766Y-38148D01*
X42766Y-38148D01*
G37*
G36*
X48332Y-37771D02*
X48286Y-37890D01*
X48203Y-37984D01*
X48096Y-38044D01*
X47979Y-38058D01*
X47883Y-38027D01*
X47786Y-37963D01*
X47728Y-37903D01*
X47720Y-37860D01*
X47756Y-37854D01*
X47797Y-37880D01*
X47909Y-37943D01*
X48030Y-37951D01*
X48138Y-37903D01*
X48222Y-37803D01*
X48249Y-37691D01*
X48221Y-37583D01*
X48141Y-37497D01*
X48079Y-37465D01*
X48025Y-37431D01*
X48016Y-37400D01*
X48067Y-37368D01*
X48136Y-37384D01*
X48211Y-37438D01*
X48279Y-37519D01*
X48325Y-37618D01*
X48331Y-37639D01*
X48332Y-37771D01*
X48332Y-37771D01*
X48332Y-37771D01*
G37*
G36*
X43210Y-37868D02*
X43207Y-37872D01*
X43167Y-37881D01*
X43137Y-37845D01*
X43084Y-37756D01*
X43044Y-37715D01*
X42997Y-37711D01*
X42978Y-37717D01*
X42978Y-37569D01*
X42943Y-37507D01*
X42901Y-37440D01*
X42877Y-37403D01*
X42876Y-37402D01*
X42847Y-37407D01*
X42802Y-37448D01*
X42758Y-37505D01*
X42734Y-37557D01*
X42733Y-37566D01*
X42756Y-37640D01*
X42819Y-37666D01*
X42915Y-37642D01*
X42935Y-37632D01*
X42977Y-37603D01*
X42978Y-37569D01*
X42978Y-37717D01*
X42924Y-37735D01*
X42923Y-37735D01*
X42836Y-37759D01*
X42772Y-37750D01*
X42717Y-37720D01*
X42647Y-37642D01*
X42636Y-37548D01*
X42680Y-37452D01*
X42764Y-37375D01*
X42843Y-37329D01*
X42900Y-37308D01*
X42910Y-37309D01*
X42940Y-37341D01*
X42993Y-37417D01*
X43060Y-37524D01*
X43092Y-37578D01*
X43170Y-37722D01*
X43209Y-37817D01*
X43210Y-37868D01*
X43210Y-37868D01*
X43210Y-37868D01*
G37*
G36*
X47866Y-37274D02*
X47851Y-37326D01*
X47812Y-37414D01*
X47756Y-37522D01*
X47695Y-37633D01*
X47635Y-37733D01*
X47586Y-37804D01*
X47558Y-37831D01*
X47557Y-37831D01*
X47504Y-37816D01*
X47420Y-37779D01*
X47391Y-37764D01*
X47308Y-37711D01*
X47268Y-37666D01*
X47277Y-37638D01*
X47308Y-37634D01*
X47366Y-37650D01*
X47433Y-37683D01*
X47508Y-37722D01*
X47550Y-37720D01*
X47582Y-37673D01*
X47597Y-37643D01*
X47619Y-37586D01*
X47615Y-37547D01*
X47575Y-37508D01*
X47489Y-37452D01*
X47477Y-37445D01*
X47432Y-37406D01*
X47440Y-37385D01*
X47487Y-37386D01*
X47561Y-37414D01*
X47567Y-37417D01*
X47644Y-37450D01*
X47685Y-37448D01*
X47703Y-37428D01*
X47731Y-37340D01*
X47695Y-37270D01*
X47633Y-37233D01*
X47564Y-37191D01*
X47533Y-37148D01*
X47533Y-37145D01*
X47542Y-37104D01*
X47549Y-37100D01*
X47595Y-37114D01*
X47672Y-37150D01*
X47757Y-37196D01*
X47828Y-37240D01*
X47865Y-37270D01*
X47866Y-37274D01*
X47866Y-37274D01*
X47866Y-37274D01*
G37*
G36*
X43895Y-37575D02*
X43840Y-37566D01*
X43778Y-37526D01*
X43733Y-37489D01*
X43693Y-37478D01*
X43635Y-37493D01*
X43625Y-37497D01*
X43625Y-37390D01*
X43585Y-37336D01*
X43516Y-37266D01*
X43400Y-37153D01*
X43400Y-37330D01*
X43402Y-37432D01*
X43413Y-37480D01*
X43438Y-37489D01*
X43458Y-37483D01*
X43542Y-37452D01*
X43575Y-37442D01*
X43620Y-37421D01*
X43625Y-37390D01*
X43625Y-37497D01*
X43549Y-37530D01*
X43457Y-37575D01*
X43414Y-37612D01*
X43408Y-37656D01*
X43412Y-37679D01*
X43412Y-37752D01*
X43383Y-37778D01*
X43361Y-37778D01*
X43346Y-37750D01*
X43338Y-37683D01*
X43334Y-37569D01*
X43333Y-37432D01*
X43334Y-37271D01*
X43338Y-37165D01*
X43347Y-37103D01*
X43364Y-37074D01*
X43389Y-37066D01*
X43392Y-37066D01*
X43439Y-37087D01*
X43513Y-37142D01*
X43602Y-37221D01*
X43695Y-37312D01*
X43783Y-37403D01*
X43852Y-37485D01*
X43893Y-37546D01*
X43895Y-37575D01*
X43895Y-37575D01*
X43895Y-37575D01*
G37*
G36*
X47196Y-37627D02*
X47191Y-37651D01*
X47158Y-37647D01*
X47141Y-37642D01*
X47110Y-37602D01*
X47100Y-37536D01*
X47092Y-37480D01*
X47075Y-37461D01*
X47075Y-37256D01*
X47071Y-37176D01*
X47058Y-37019D01*
X46962Y-37126D01*
X46892Y-37214D01*
X46870Y-37268D01*
X46896Y-37300D01*
X46925Y-37310D01*
X47016Y-37329D01*
X47062Y-37315D01*
X47075Y-37256D01*
X47075Y-37461D01*
X47057Y-37442D01*
X46980Y-37408D01*
X46932Y-37392D01*
X46834Y-37363D01*
X46780Y-37356D01*
X46750Y-37372D01*
X46731Y-37402D01*
X46675Y-37454D01*
X46629Y-37466D01*
X46562Y-37466D01*
X46630Y-37375D01*
X46732Y-37247D01*
X46838Y-37128D01*
X46937Y-37029D01*
X47020Y-36958D01*
X47076Y-36926D01*
X47091Y-36927D01*
X47107Y-36965D01*
X47127Y-37053D01*
X47148Y-37172D01*
X47167Y-37305D01*
X47183Y-37437D01*
X47194Y-37550D01*
X47196Y-37627D01*
X47196Y-37627D01*
X47196Y-37627D01*
G37*
G36*
X44400Y-37381D02*
X44387Y-37427D01*
X44357Y-37422D01*
X44322Y-37376D01*
X44291Y-37298D01*
X44288Y-37287D01*
X44252Y-37197D01*
X44207Y-37167D01*
X44207Y-37021D01*
X44205Y-37000D01*
X44189Y-36924D01*
X44159Y-36900D01*
X44092Y-36911D01*
X44084Y-36913D01*
X44016Y-36951D01*
X44000Y-36995D01*
X44017Y-37067D01*
X44075Y-37095D01*
X44132Y-37093D01*
X44194Y-37073D01*
X44207Y-37021D01*
X44207Y-37167D01*
X44160Y-37194D01*
X44116Y-37275D01*
X44084Y-37404D01*
X44083Y-37408D01*
X44057Y-37498D01*
X44017Y-37533D01*
X44015Y-37533D01*
X43972Y-37519D01*
X43967Y-37508D01*
X43974Y-37463D01*
X43992Y-37378D01*
X44001Y-37337D01*
X44019Y-37243D01*
X44013Y-37189D01*
X43979Y-37152D01*
X43967Y-37143D01*
X43911Y-37066D01*
X43900Y-36996D01*
X43911Y-36922D01*
X43959Y-36875D01*
X44015Y-36848D01*
X44121Y-36808D01*
X44194Y-36801D01*
X44244Y-36835D01*
X44284Y-36917D01*
X44326Y-37056D01*
X44328Y-37062D01*
X44361Y-37192D01*
X44387Y-37302D01*
X44399Y-37372D01*
X44400Y-37381D01*
X44400Y-37381D01*
X44400Y-37381D01*
G37*
G36*
X46593Y-36823D02*
X46589Y-36841D01*
X46575Y-36910D01*
X46555Y-37022D01*
X46532Y-37154D01*
X46529Y-37175D01*
X46499Y-37323D01*
X46469Y-37409D01*
X46443Y-37433D01*
X46403Y-37407D01*
X46400Y-37389D01*
X46405Y-37334D01*
X46420Y-37237D01*
X46435Y-37152D01*
X46452Y-37047D01*
X46458Y-36970D01*
X46455Y-36944D01*
X46428Y-36960D01*
X46372Y-37019D01*
X46295Y-37108D01*
X46262Y-37148D01*
X46169Y-37256D01*
X46091Y-37329D01*
X46040Y-37359D01*
X46034Y-37358D01*
X46007Y-37352D01*
X45992Y-37336D01*
X45987Y-37300D01*
X45993Y-37231D01*
X46010Y-37117D01*
X46030Y-36991D01*
X46060Y-36830D01*
X46090Y-36734D01*
X46120Y-36700D01*
X46122Y-36700D01*
X46150Y-36706D01*
X46163Y-36735D01*
X46160Y-36799D01*
X46143Y-36909D01*
X46131Y-36980D01*
X46113Y-37085D01*
X46105Y-37160D01*
X46107Y-37185D01*
X46131Y-37166D01*
X46185Y-37106D01*
X46259Y-37015D01*
X46284Y-36983D01*
X46385Y-36862D01*
X46462Y-36792D01*
X46523Y-36768D01*
X46528Y-36767D01*
X46585Y-36777D01*
X46593Y-36823D01*
X46593Y-36823D01*
X46593Y-36823D01*
G37*
G36*
X45070Y-37039D02*
X45043Y-37168D01*
X44989Y-37252D01*
X44918Y-37313D01*
X44823Y-37346D01*
X44742Y-37358D01*
X44571Y-37374D01*
X44548Y-37216D01*
X44540Y-37100D01*
X44567Y-37032D01*
X44635Y-37004D01*
X44691Y-37000D01*
X44754Y-37014D01*
X44759Y-37047D01*
X44704Y-37081D01*
X44700Y-37083D01*
X44644Y-37129D01*
X44638Y-37205D01*
X44663Y-37261D01*
X44714Y-37288D01*
X44795Y-37274D01*
X44885Y-37225D01*
X44908Y-37207D01*
X44959Y-37122D01*
X44968Y-37013D01*
X44935Y-36905D01*
X44875Y-36833D01*
X44784Y-36784D01*
X44681Y-36781D01*
X44558Y-36817D01*
X44509Y-36819D01*
X44500Y-36790D01*
X44524Y-36738D01*
X44601Y-36709D01*
X44736Y-36700D01*
X44738Y-36700D01*
X44874Y-36728D01*
X44979Y-36804D01*
X45046Y-36913D01*
X45070Y-37039D01*
X45070Y-37039D01*
X45070Y-37039D01*
G37*
G36*
X45848Y-36978D02*
X45829Y-37107D01*
X45770Y-37217D01*
X45745Y-37236D01*
X45745Y-36954D01*
X45711Y-36850D01*
X45642Y-36770D01*
X45546Y-36734D01*
X45530Y-36733D01*
X45432Y-36763D01*
X45364Y-36845D01*
X45334Y-36968D01*
X45333Y-36996D01*
X45357Y-37113D01*
X45421Y-37194D01*
X45508Y-37233D01*
X45604Y-37222D01*
X45684Y-37165D01*
X45738Y-37065D01*
X45745Y-36954D01*
X45745Y-37236D01*
X45673Y-37291D01*
X45656Y-37298D01*
X45560Y-37326D01*
X45488Y-37325D01*
X45411Y-37300D01*
X45315Y-37228D01*
X45254Y-37117D01*
X45231Y-36986D01*
X45250Y-36854D01*
X45310Y-36747D01*
X45414Y-36672D01*
X45540Y-36649D01*
X45667Y-36678D01*
X45753Y-36738D01*
X45824Y-36849D01*
X45848Y-36978D01*
X45848Y-36978D01*
X45848Y-36978D01*
G37*
G36*
X43600Y-44600D02*
X43596Y-44652D01*
X43591Y-44662D01*
X43556Y-44653D01*
X43508Y-44643D01*
X43445Y-44612D01*
X43436Y-44569D01*
X43479Y-44537D01*
X43516Y-44533D01*
X43582Y-44548D01*
X43600Y-44600D01*
X43600Y-44600D01*
X43600Y-44600D01*
G37*
M02*
